<svg width="715" height="716" xmlns="http://www.w3.org/2000/svg" xmlns:xlink="http://www.w3.org/1999/xlink" xml:space="preserve" overflow="hidden"><defs><clipPath id="clip0"><rect x="1663" y="152" width="715" height="716"/></clipPath><linearGradient x1="26.9431" y1="356.948" x2="688.284" y2="356.948" gradientUnits="userSpaceOnUse" spreadMethod="pad" id="fill1"><stop offset="0" stop-color="#008EF0"/><stop offset="0.00127816" stop-color="#008EF0"/><stop offset="1" stop-color="#7FFDFF"/></linearGradient><clipPath id="clip2"><rect x="1853" y="280" width="329" height="286"/></clipPath><clipPath id="clip3"><rect x="1853" y="280" width="329" height="286"/></clipPath><clipPath id="clip4"><rect x="1853" y="280" width="329" height="286"/></clipPath><clipPath id="clip5"><rect x="2049" y="633" width="138" height="140"/></clipPath><clipPath id="clip6"><rect x="2049" y="633" width="138" height="140"/></clipPath><clipPath id="clip7"><rect x="2049" y="633" width="138" height="140"/></clipPath><linearGradient x1="29.9046" y1="128.235" x2="138" y2="128.235" gradientUnits="userSpaceOnUse" spreadMethod="pad" id="fill8"><stop offset="0" stop-color="#600000"/><stop offset="0.327" stop-color="#630000"/><stop offset="0.59" stop-color="#6D0000"/><stop offset="0.83" stop-color="#7E0000"/><stop offset="1" stop-color="#8F0000"/></linearGradient><linearGradient x1="83.9522" y1="118.49" x2="83.9522" y2="138" gradientUnits="userSpaceOnUse" spreadMethod="pad" id="fill9"><stop offset="0" stop-color="#BF1010"/><stop offset="0.35" stop-color="#BF1010"/><stop offset="0.645" stop-color="#BD1010"/><stop offset="0.752" stop-color="#B60F0F"/><stop offset="0.828" stop-color="#AB0D0D"/><stop offset="0.889" stop-color="#9A0A0A"/><stop offset="0.941" stop-color="#840606"/><stop offset="0.987" stop-color="#690202"/><stop offset="1" stop-color="#600000"/></linearGradient><linearGradient x1="29.9046" y1="95.4165" x2="138" y2="95.4165" gradientUnits="userSpaceOnUse" spreadMethod="pad" id="fill10"><stop offset="0" stop-color="#BF1010"/><stop offset="0.021" stop-color="#C11212"/><stop offset="0.244" stop-color="#D22323"/><stop offset="0.487" stop-color="#DC2D2D"/><stop offset="0.791" stop-color="#DF3030"/><stop offset="0.841" stop-color="#DC2E2E"/><stop offset="0.882" stop-color="#D22626"/><stop offset="0.919" stop-color="#C11919"/><stop offset="0.954" stop-color="#A90808"/><stop offset="0.966" stop-color="#9F0000"/><stop offset="1" stop-color="#DF3030"/></linearGradient><linearGradient x1="29.9046" y1="84.361" x2="138" y2="84.361" gradientUnits="userSpaceOnUse" spreadMethod="pad" id="fill11"><stop offset="0" stop-color="#DFDFDF"/><stop offset="0.021" stop-color="#E1E1E1"/><stop offset="0.244" stop-color="#F2F2F2"/><stop offset="0.487" stop-color="#FCFCFC"/><stop offset="0.791" stop-color="#FFFFFF"/><stop offset="0.841" stop-color="#FCFCFC"/><stop offset="0.882" stop-color="#F2F2F2"/><stop offset="0.919" stop-color="#E1E1E1"/><stop offset="0.954" stop-color="#C9C9C9"/><stop offset="0.966" stop-color="#BFBFBF"/><stop offset="1" stop-color="#FFFFFF"/></linearGradient><linearGradient x1="29.9046" y1="112.078" x2="138" y2="112.078" gradientUnits="userSpaceOnUse" spreadMethod="pad" id="fill12"><stop offset="0" stop-color="#DFDFDF"/><stop offset="0.021" stop-color="#E1E1E1"/><stop offset="0.244" stop-color="#F2F2F2"/><stop offset="0.487" stop-color="#FCFCFC"/><stop offset="0.791" stop-color="#FFFFFF"/><stop offset="0.841" stop-color="#FCFCFC"/><stop offset="0.882" stop-color="#F2F2F2"/><stop offset="0.919" stop-color="#E1E1E1"/><stop offset="0.954" stop-color="#C9C9C9"/><stop offset="0.966" stop-color="#BFBFBF"/><stop offset="1" stop-color="#FFFFFF"/></linearGradient><linearGradient x1="29.9046" y1="123.167" x2="138" y2="123.167" gradientUnits="userSpaceOnUse" spreadMethod="pad" id="fill13"><stop offset="0" stop-color="#DFDFDF"/><stop offset="0.021" stop-color="#E1E1E1"/><stop offset="0.244" stop-color="#F2F2F2"/><stop offset="0.487" stop-color="#FCFCFC"/><stop offset="0.791" stop-color="#FFFFFF"/><stop offset="0.841" stop-color="#FCFCFC"/><stop offset="0.882" stop-color="#F2F2F2"/><stop offset="0.919" stop-color="#E1E1E1"/><stop offset="0.954" stop-color="#C9C9C9"/><stop offset="0.966" stop-color="#BFBFBF"/><stop offset="1" stop-color="#FFFFFF"/></linearGradient><linearGradient x1="29.9046" y1="82.5843" x2="138" y2="82.5843" gradientUnits="userSpaceOnUse" spreadMethod="pad" id="fill14"><stop offset="0" stop-color="#00209F"/><stop offset="0.021" stop-color="#0222A1"/><stop offset="0.244" stop-color="#1333B2"/><stop offset="0.487" stop-color="#1D3DBC"/><stop offset="0.791" stop-color="#2040BF"/><stop offset="0.841" stop-color="#1E3DBC"/><stop offset="0.882" stop-color="#1933B2"/><stop offset="0.919" stop-color="#1122A1"/><stop offset="0.954" stop-color="#050A89"/><stop offset="0.966" stop-color="#00007F"/><stop offset="1" stop-color="#2040BF"/></linearGradient><linearGradient x1="29.9063" y1="68.9085" x2="137.995" y2="68.9085" gradientUnits="userSpaceOnUse" spreadMethod="pad" id="fill15"><stop offset="0" stop-color="#DFDFDF"/><stop offset="0.021" stop-color="#E1E1E1"/><stop offset="0.244" stop-color="#F2F2F2"/><stop offset="0.487" stop-color="#FCFCFC"/><stop offset="0.791" stop-color="#FFFFFF"/><stop offset="0.841" stop-color="#FCFCFC"/><stop offset="0.882" stop-color="#F2F2F2"/><stop offset="0.919" stop-color="#E1E1E1"/><stop offset="0.954" stop-color="#C9C9C9"/><stop offset="0.966" stop-color="#BFBFBF"/><stop offset="1" stop-color="#FFFFFF"/></linearGradient><linearGradient x1="29.9063" y1="88.0473" x2="137.99" y2="88.0473" gradientUnits="userSpaceOnUse" spreadMethod="pad" id="fill16"><stop offset="0" stop-color="#DFDFDF"/><stop offset="0.021" stop-color="#E1E1E1"/><stop offset="0.244" stop-color="#F2F2F2"/><stop offset="0.487" stop-color="#FCFCFC"/><stop offset="0.791" stop-color="#FFFFFF"/><stop offset="0.841" stop-color="#FCFCFC"/><stop offset="0.882" stop-color="#F2F2F2"/><stop offset="0.919" stop-color="#E1E1E1"/><stop offset="0.954" stop-color="#C9C9C9"/><stop offset="0.966" stop-color="#BFBFBF"/><stop offset="1" stop-color="#FFFFFF"/></linearGradient><linearGradient x1="29.9063" y1="95.784" x2="137.99" y2="95.784" gradientUnits="userSpaceOnUse" spreadMethod="pad" id="fill17"><stop offset="0" stop-color="#DFDFDF"/><stop offset="0.021" stop-color="#E1E1E1"/><stop offset="0.244" stop-color="#F2F2F2"/><stop offset="0.487" stop-color="#FCFCFC"/><stop offset="0.791" stop-color="#FFFFFF"/><stop offset="0.841" stop-color="#FCFCFC"/><stop offset="0.882" stop-color="#F2F2F2"/><stop offset="0.919" stop-color="#E1E1E1"/><stop offset="0.954" stop-color="#C9C9C9"/><stop offset="0.966" stop-color="#BFBFBF"/><stop offset="1" stop-color="#FFFFFF"/></linearGradient><linearGradient x1="29.9063" y1="84.3852" x2="137.995" y2="84.3852" gradientUnits="userSpaceOnUse" spreadMethod="pad" id="fill18"><stop offset="0" stop-color="#DFDFDF"/><stop offset="0.021" stop-color="#E1E1E1"/><stop offset="0.244" stop-color="#F2F2F2"/><stop offset="0.487" stop-color="#FCFCFC"/><stop offset="0.791" stop-color="#FFFFFF"/><stop offset="0.841" stop-color="#FCFCFC"/><stop offset="0.882" stop-color="#F2F2F2"/><stop offset="0.919" stop-color="#E1E1E1"/><stop offset="0.954" stop-color="#C9C9C9"/><stop offset="0.966" stop-color="#BFBFBF"/><stop offset="1" stop-color="#FFFFFF"/></linearGradient><linearGradient x1="29.9063" y1="92.1201" x2="137.995" y2="92.1201" gradientUnits="userSpaceOnUse" spreadMethod="pad" id="fill19"><stop offset="0" stop-color="#DFDFDF"/><stop offset="0.021" stop-color="#E1E1E1"/><stop offset="0.244" stop-color="#F2F2F2"/><stop offset="0.487" stop-color="#FCFCFC"/><stop offset="0.791" stop-color="#FFFFFF"/><stop offset="0.841" stop-color="#FCFCFC"/><stop offset="0.882" stop-color="#F2F2F2"/><stop offset="0.919" stop-color="#E1E1E1"/><stop offset="0.954" stop-color="#C9C9C9"/><stop offset="0.966" stop-color="#BFBFBF"/><stop offset="1" stop-color="#FFFFFF"/></linearGradient><linearGradient x1="29.9063" y1="76.6468" x2="137.995" y2="76.6468" gradientUnits="userSpaceOnUse" spreadMethod="pad" id="fill20"><stop offset="0" stop-color="#DFDFDF"/><stop offset="0.021" stop-color="#E1E1E1"/><stop offset="0.244" stop-color="#F2F2F2"/><stop offset="0.487" stop-color="#FCFCFC"/><stop offset="0.791" stop-color="#FFFFFF"/><stop offset="0.841" stop-color="#FCFCFC"/><stop offset="0.882" stop-color="#F2F2F2"/><stop offset="0.919" stop-color="#E1E1E1"/><stop offset="0.954" stop-color="#C9C9C9"/><stop offset="0.966" stop-color="#BFBFBF"/><stop offset="1" stop-color="#FFFFFF"/></linearGradient><linearGradient x1="29.8994" y1="95.1526" x2="138.015" y2="95.1526" gradientUnits="userSpaceOnUse" spreadMethod="pad" id="fill21"><stop offset="0" stop-color="#DFDFDF"/><stop offset="0.021" stop-color="#E1E1E1"/><stop offset="0.244" stop-color="#F2F2F2"/><stop offset="0.487" stop-color="#FCFCFC"/><stop offset="0.791" stop-color="#FFFFFF"/><stop offset="0.841" stop-color="#FCFCFC"/><stop offset="0.882" stop-color="#F2F2F2"/><stop offset="0.919" stop-color="#E1E1E1"/><stop offset="0.954" stop-color="#C9C9C9"/><stop offset="0.966" stop-color="#BFBFBF"/><stop offset="1" stop-color="#FFFFFF"/></linearGradient><linearGradient x1="29.9063" y1="80.3107" x2="137.99" y2="80.3107" gradientUnits="userSpaceOnUse" spreadMethod="pad" id="fill22"><stop offset="0" stop-color="#DFDFDF"/><stop offset="0.021" stop-color="#E1E1E1"/><stop offset="0.244" stop-color="#F2F2F2"/><stop offset="0.487" stop-color="#FCFCFC"/><stop offset="0.791" stop-color="#FFFFFF"/><stop offset="0.841" stop-color="#FCFCFC"/><stop offset="0.882" stop-color="#F2F2F2"/><stop offset="0.919" stop-color="#E1E1E1"/><stop offset="0.954" stop-color="#C9C9C9"/><stop offset="0.966" stop-color="#BFBFBF"/><stop offset="1" stop-color="#FFFFFF"/></linearGradient><linearGradient x1="29.9063" y1="91.6371" x2="137.99" y2="91.6371" gradientUnits="userSpaceOnUse" spreadMethod="pad" id="fill23"><stop offset="0" stop-color="#DFDFDF"/><stop offset="0.021" stop-color="#E1E1E1"/><stop offset="0.244" stop-color="#F2F2F2"/><stop offset="0.487" stop-color="#FCFCFC"/><stop offset="0.791" stop-color="#FFFFFF"/><stop offset="0.841" stop-color="#FCFCFC"/><stop offset="0.882" stop-color="#F2F2F2"/><stop offset="0.919" stop-color="#E1E1E1"/><stop offset="0.954" stop-color="#C9C9C9"/><stop offset="0.966" stop-color="#BFBFBF"/><stop offset="1" stop-color="#FFFFFF"/></linearGradient><linearGradient x1="29.9063" y1="99.3754" x2="137.99" y2="99.3754" gradientUnits="userSpaceOnUse" spreadMethod="pad" id="fill24"><stop offset="0" stop-color="#DFDFDF"/><stop offset="0.021" stop-color="#E1E1E1"/><stop offset="0.244" stop-color="#F2F2F2"/><stop offset="0.487" stop-color="#FCFCFC"/><stop offset="0.791" stop-color="#FFFFFF"/><stop offset="0.841" stop-color="#FCFCFC"/><stop offset="0.882" stop-color="#F2F2F2"/><stop offset="0.919" stop-color="#E1E1E1"/><stop offset="0.954" stop-color="#C9C9C9"/><stop offset="0.966" stop-color="#BFBFBF"/><stop offset="1" stop-color="#FFFFFF"/></linearGradient><linearGradient x1="29.9063" y1="72.5724" x2="137.99" y2="72.5724" gradientUnits="userSpaceOnUse" spreadMethod="pad" id="fill25"><stop offset="0" stop-color="#DFDFDF"/><stop offset="0.021" stop-color="#E1E1E1"/><stop offset="0.244" stop-color="#F2F2F2"/><stop offset="0.487" stop-color="#FCFCFC"/><stop offset="0.791" stop-color="#FFFFFF"/><stop offset="0.841" stop-color="#FCFCFC"/><stop offset="0.882" stop-color="#F2F2F2"/><stop offset="0.919" stop-color="#E1E1E1"/><stop offset="0.954" stop-color="#C9C9C9"/><stop offset="0.966" stop-color="#BFBFBF"/><stop offset="1" stop-color="#FFFFFF"/></linearGradient><linearGradient x1="29.9063" y1="83.9005" x2="137.993" y2="83.9005" gradientUnits="userSpaceOnUse" spreadMethod="pad" id="fill26"><stop offset="0" stop-color="#DFDFDF"/><stop offset="0.021" stop-color="#E1E1E1"/><stop offset="0.244" stop-color="#F2F2F2"/><stop offset="0.487" stop-color="#FCFCFC"/><stop offset="0.791" stop-color="#FFFFFF"/><stop offset="0.841" stop-color="#FCFCFC"/><stop offset="0.882" stop-color="#F2F2F2"/><stop offset="0.919" stop-color="#E1E1E1"/><stop offset="0.954" stop-color="#C9C9C9"/><stop offset="0.966" stop-color="#BFBFBF"/><stop offset="1" stop-color="#FFFFFF"/></linearGradient><linearGradient x1="29.9063" y1="99.8601" x2="137.995" y2="99.8601" gradientUnits="userSpaceOnUse" spreadMethod="pad" id="fill27"><stop offset="0" stop-color="#DFDFDF"/><stop offset="0.021" stop-color="#E1E1E1"/><stop offset="0.244" stop-color="#F2F2F2"/><stop offset="0.487" stop-color="#FCFCFC"/><stop offset="0.791" stop-color="#FFFFFF"/><stop offset="0.841" stop-color="#FCFCFC"/><stop offset="0.882" stop-color="#F2F2F2"/><stop offset="0.919" stop-color="#E1E1E1"/><stop offset="0.954" stop-color="#C9C9C9"/><stop offset="0.966" stop-color="#BFBFBF"/><stop offset="1" stop-color="#FFFFFF"/></linearGradient><linearGradient x1="29.9046" y1="84.618" x2="138.014" y2="84.618" gradientUnits="userSpaceOnUse" spreadMethod="pad" id="fill28"><stop offset="0" stop-color="#DFDFDF"/><stop offset="0.021" stop-color="#E1E1E1"/><stop offset="0.244" stop-color="#F2F2F2"/><stop offset="0.487" stop-color="#FCFCFC"/><stop offset="0.791" stop-color="#FFFFFF"/><stop offset="0.841" stop-color="#FCFCFC"/><stop offset="0.882" stop-color="#F2F2F2"/><stop offset="0.919" stop-color="#E1E1E1"/><stop offset="0.954" stop-color="#C9C9C9"/><stop offset="0.966" stop-color="#BFBFBF"/><stop offset="1" stop-color="#FFFFFF"/></linearGradient><linearGradient x1="29.9046" y1="76.8797" x2="138.014" y2="76.8797" gradientUnits="userSpaceOnUse" spreadMethod="pad" id="fill29"><stop offset="0" stop-color="#DFDFDF"/><stop offset="0.021" stop-color="#E1E1E1"/><stop offset="0.244" stop-color="#F2F2F2"/><stop offset="0.487" stop-color="#FCFCFC"/><stop offset="0.791" stop-color="#FFFFFF"/><stop offset="0.841" stop-color="#FCFCFC"/><stop offset="0.882" stop-color="#F2F2F2"/><stop offset="0.919" stop-color="#E1E1E1"/><stop offset="0.954" stop-color="#C9C9C9"/><stop offset="0.966" stop-color="#BFBFBF"/><stop offset="1" stop-color="#FFFFFF"/></linearGradient><linearGradient x1="29.9046" y1="100.093" x2="137.984" y2="100.093" gradientUnits="userSpaceOnUse" spreadMethod="pad" id="fill30"><stop offset="0" stop-color="#DFDFDF"/><stop offset="0.021" stop-color="#E1E1E1"/><stop offset="0.244" stop-color="#F2F2F2"/><stop offset="0.487" stop-color="#FCFCFC"/><stop offset="0.791" stop-color="#FFFFFF"/><stop offset="0.841" stop-color="#FCFCFC"/><stop offset="0.882" stop-color="#F2F2F2"/><stop offset="0.919" stop-color="#E1E1E1"/><stop offset="0.954" stop-color="#C9C9C9"/><stop offset="0.966" stop-color="#BFBFBF"/><stop offset="1" stop-color="#FFFFFF"/></linearGradient><linearGradient x1="29.9063" y1="76.1638" x2="137.99" y2="76.1638" gradientUnits="userSpaceOnUse" spreadMethod="pad" id="fill31"><stop offset="0" stop-color="#DFDFDF"/><stop offset="0.021" stop-color="#E1E1E1"/><stop offset="0.244" stop-color="#F2F2F2"/><stop offset="0.487" stop-color="#FCFCFC"/><stop offset="0.791" stop-color="#FFFFFF"/><stop offset="0.841" stop-color="#FCFCFC"/><stop offset="0.882" stop-color="#F2F2F2"/><stop offset="0.919" stop-color="#E1E1E1"/><stop offset="0.954" stop-color="#C9C9C9"/><stop offset="0.966" stop-color="#BFBFBF"/><stop offset="1" stop-color="#FFFFFF"/></linearGradient><linearGradient x1="29.9063" y1="68.4238" x2="137.99" y2="68.4238" gradientUnits="userSpaceOnUse" spreadMethod="pad" id="fill32"><stop offset="0" stop-color="#DFDFDF"/><stop offset="0.021" stop-color="#E1E1E1"/><stop offset="0.244" stop-color="#F2F2F2"/><stop offset="0.487" stop-color="#FCFCFC"/><stop offset="0.791" stop-color="#FFFFFF"/><stop offset="0.841" stop-color="#FCFCFC"/><stop offset="0.882" stop-color="#F2F2F2"/><stop offset="0.919" stop-color="#E1E1E1"/><stop offset="0.954" stop-color="#C9C9C9"/><stop offset="0.966" stop-color="#BFBFBF"/><stop offset="1" stop-color="#FFFFFF"/></linearGradient><linearGradient x1="29.9046" y1="92.3547" x2="137.984" y2="92.3547" gradientUnits="userSpaceOnUse" spreadMethod="pad" id="fill33"><stop offset="0" stop-color="#DFDFDF"/><stop offset="0.021" stop-color="#E1E1E1"/><stop offset="0.244" stop-color="#F2F2F2"/><stop offset="0.487" stop-color="#FCFCFC"/><stop offset="0.791" stop-color="#FFFFFF"/><stop offset="0.841" stop-color="#FCFCFC"/><stop offset="0.882" stop-color="#F2F2F2"/><stop offset="0.919" stop-color="#E1E1E1"/><stop offset="0.954" stop-color="#C9C9C9"/><stop offset="0.966" stop-color="#BFBFBF"/><stop offset="1" stop-color="#FFFFFF"/></linearGradient><linearGradient x1="29.9046" y1="72.9277" x2="137.988" y2="72.9277" gradientUnits="userSpaceOnUse" spreadMethod="pad" id="fill34"><stop offset="0" stop-color="#DFDFDF"/><stop offset="0.021" stop-color="#E1E1E1"/><stop offset="0.244" stop-color="#F2F2F2"/><stop offset="0.487" stop-color="#FCFCFC"/><stop offset="0.791" stop-color="#FFFFFF"/><stop offset="0.841" stop-color="#FCFCFC"/><stop offset="0.882" stop-color="#F2F2F2"/><stop offset="0.919" stop-color="#E1E1E1"/><stop offset="0.954" stop-color="#C9C9C9"/><stop offset="0.966" stop-color="#BFBFBF"/><stop offset="1" stop-color="#FFFFFF"/></linearGradient><linearGradient x1="29.9046" y1="80.6644" x2="137.988" y2="80.6644" gradientUnits="userSpaceOnUse" spreadMethod="pad" id="fill35"><stop offset="0" stop-color="#DFDFDF"/><stop offset="0.021" stop-color="#E1E1E1"/><stop offset="0.244" stop-color="#F2F2F2"/><stop offset="0.487" stop-color="#FCFCFC"/><stop offset="0.791" stop-color="#FFFFFF"/><stop offset="0.841" stop-color="#FCFCFC"/><stop offset="0.882" stop-color="#F2F2F2"/><stop offset="0.919" stop-color="#E1E1E1"/><stop offset="0.954" stop-color="#C9C9C9"/><stop offset="0.966" stop-color="#BFBFBF"/><stop offset="1" stop-color="#FFFFFF"/></linearGradient><linearGradient x1="29.9046" y1="96.1376" x2="137.988" y2="96.1376" gradientUnits="userSpaceOnUse" spreadMethod="pad" id="fill36"><stop offset="0" stop-color="#DFDFDF"/><stop offset="0.021" stop-color="#E1E1E1"/><stop offset="0.244" stop-color="#F2F2F2"/><stop offset="0.487" stop-color="#FCFCFC"/><stop offset="0.791" stop-color="#FFFFFF"/><stop offset="0.841" stop-color="#FCFCFC"/><stop offset="0.882" stop-color="#F2F2F2"/><stop offset="0.919" stop-color="#E1E1E1"/><stop offset="0.954" stop-color="#C9C9C9"/><stop offset="0.966" stop-color="#BFBFBF"/><stop offset="1" stop-color="#FFFFFF"/></linearGradient><linearGradient x1="29.9046" y1="88.401" x2="137.988" y2="88.401" gradientUnits="userSpaceOnUse" spreadMethod="pad" id="fill37"><stop offset="0" stop-color="#DFDFDF"/><stop offset="0.021" stop-color="#E1E1E1"/><stop offset="0.244" stop-color="#F2F2F2"/><stop offset="0.487" stop-color="#FCFCFC"/><stop offset="0.791" stop-color="#FFFFFF"/><stop offset="0.841" stop-color="#FCFCFC"/><stop offset="0.882" stop-color="#F2F2F2"/><stop offset="0.919" stop-color="#E1E1E1"/><stop offset="0.954" stop-color="#C9C9C9"/><stop offset="0.966" stop-color="#BFBFBF"/><stop offset="1" stop-color="#FFFFFF"/></linearGradient><linearGradient x1="29.9046" y1="69.1414" x2="138.01" y2="69.1414" gradientUnits="userSpaceOnUse" spreadMethod="pad" id="fill38"><stop offset="0" stop-color="#DFDFDF"/><stop offset="0.021" stop-color="#E1E1E1"/><stop offset="0.244" stop-color="#F2F2F2"/><stop offset="0.487" stop-color="#FCFCFC"/><stop offset="0.791" stop-color="#FFFFFF"/><stop offset="0.841" stop-color="#FCFCFC"/><stop offset="0.882" stop-color="#F2F2F2"/><stop offset="0.919" stop-color="#E1E1E1"/><stop offset="0.954" stop-color="#C9C9C9"/><stop offset="0.966" stop-color="#BFBFBF"/><stop offset="1" stop-color="#FFFFFF"/></linearGradient><linearGradient x1="29.8994" y1="87.416" x2="138.015" y2="87.416" gradientUnits="userSpaceOnUse" spreadMethod="pad" id="fill39"><stop offset="0" stop-color="#DFDFDF"/><stop offset="0.021" stop-color="#E1E1E1"/><stop offset="0.244" stop-color="#F2F2F2"/><stop offset="0.487" stop-color="#FCFCFC"/><stop offset="0.791" stop-color="#FFFFFF"/><stop offset="0.841" stop-color="#FCFCFC"/><stop offset="0.882" stop-color="#F2F2F2"/><stop offset="0.919" stop-color="#E1E1E1"/><stop offset="0.954" stop-color="#C9C9C9"/><stop offset="0.966" stop-color="#BFBFBF"/><stop offset="1" stop-color="#FFFFFF"/></linearGradient><linearGradient x1="29.9097" y1="85.4668" x2="137.991" y2="85.4668" gradientUnits="userSpaceOnUse" spreadMethod="pad" id="fill40"><stop offset="0" stop-color="#DFDFDF"/><stop offset="0.021" stop-color="#E1E1E1"/><stop offset="0.244" stop-color="#F2F2F2"/><stop offset="0.487" stop-color="#FCFCFC"/><stop offset="0.791" stop-color="#FFFFFF"/><stop offset="0.841" stop-color="#FCFCFC"/><stop offset="0.882" stop-color="#F2F2F2"/><stop offset="0.919" stop-color="#E1E1E1"/><stop offset="0.954" stop-color="#C9C9C9"/><stop offset="0.966" stop-color="#BFBFBF"/><stop offset="1" stop-color="#FFFFFF"/></linearGradient><linearGradient x1="29.9097" y1="77.7301" x2="137.991" y2="77.7301" gradientUnits="userSpaceOnUse" spreadMethod="pad" id="fill41"><stop offset="0" stop-color="#DFDFDF"/><stop offset="0.021" stop-color="#E1E1E1"/><stop offset="0.244" stop-color="#F2F2F2"/><stop offset="0.487" stop-color="#FCFCFC"/><stop offset="0.791" stop-color="#FFFFFF"/><stop offset="0.841" stop-color="#FCFCFC"/><stop offset="0.882" stop-color="#F2F2F2"/><stop offset="0.919" stop-color="#E1E1E1"/><stop offset="0.954" stop-color="#C9C9C9"/><stop offset="0.966" stop-color="#BFBFBF"/><stop offset="1" stop-color="#FFFFFF"/></linearGradient><linearGradient x1="29.9097" y1="93.2051" x2="137.991" y2="93.2051" gradientUnits="userSpaceOnUse" spreadMethod="pad" id="fill42"><stop offset="0" stop-color="#DFDFDF"/><stop offset="0.021" stop-color="#E1E1E1"/><stop offset="0.244" stop-color="#F2F2F2"/><stop offset="0.487" stop-color="#FCFCFC"/><stop offset="0.791" stop-color="#FFFFFF"/><stop offset="0.841" stop-color="#FCFCFC"/><stop offset="0.882" stop-color="#F2F2F2"/><stop offset="0.919" stop-color="#E1E1E1"/><stop offset="0.954" stop-color="#C9C9C9"/><stop offset="0.966" stop-color="#BFBFBF"/><stop offset="1" stop-color="#FFFFFF"/></linearGradient><linearGradient x1="29.889" y1="74.4233" x2="138.026" y2="74.4233" gradientUnits="userSpaceOnUse" spreadMethod="pad" id="fill43"><stop offset="0" stop-color="#DFDFDF"/><stop offset="0.021" stop-color="#E1E1E1"/><stop offset="0.244" stop-color="#F2F2F2"/><stop offset="0.487" stop-color="#FCFCFC"/><stop offset="0.791" stop-color="#FFFFFF"/><stop offset="0.841" stop-color="#FCFCFC"/><stop offset="0.882" stop-color="#F2F2F2"/><stop offset="0.919" stop-color="#E1E1E1"/><stop offset="0.954" stop-color="#C9C9C9"/><stop offset="0.966" stop-color="#BFBFBF"/><stop offset="1" stop-color="#FFFFFF"/></linearGradient><linearGradient x1="29.9115" y1="69.9935" x2="137.99" y2="69.9935" gradientUnits="userSpaceOnUse" spreadMethod="pad" id="fill44"><stop offset="0" stop-color="#DFDFDF"/><stop offset="0.021" stop-color="#E1E1E1"/><stop offset="0.244" stop-color="#F2F2F2"/><stop offset="0.487" stop-color="#FCFCFC"/><stop offset="0.791" stop-color="#FFFFFF"/><stop offset="0.841" stop-color="#FCFCFC"/><stop offset="0.882" stop-color="#F2F2F2"/><stop offset="0.919" stop-color="#E1E1E1"/><stop offset="0.954" stop-color="#C9C9C9"/><stop offset="0.966" stop-color="#BFBFBF"/><stop offset="1" stop-color="#FFFFFF"/></linearGradient><linearGradient x1="29.889" y1="66.6867" x2="138.026" y2="66.6867" gradientUnits="userSpaceOnUse" spreadMethod="pad" id="fill45"><stop offset="0" stop-color="#DFDFDF"/><stop offset="0.021" stop-color="#E1E1E1"/><stop offset="0.244" stop-color="#F2F2F2"/><stop offset="0.487" stop-color="#FCFCFC"/><stop offset="0.791" stop-color="#FFFFFF"/><stop offset="0.841" stop-color="#FCFCFC"/><stop offset="0.882" stop-color="#F2F2F2"/><stop offset="0.919" stop-color="#E1E1E1"/><stop offset="0.954" stop-color="#C9C9C9"/><stop offset="0.966" stop-color="#BFBFBF"/><stop offset="1" stop-color="#FFFFFF"/></linearGradient><linearGradient x1="29.908" y1="80.9938" x2="137.996" y2="80.9938" gradientUnits="userSpaceOnUse" spreadMethod="pad" id="fill46"><stop offset="0" stop-color="#DFDFDF"/><stop offset="0.021" stop-color="#E1E1E1"/><stop offset="0.244" stop-color="#F2F2F2"/><stop offset="0.487" stop-color="#FCFCFC"/><stop offset="0.791" stop-color="#FFFFFF"/><stop offset="0.841" stop-color="#FCFCFC"/><stop offset="0.882" stop-color="#F2F2F2"/><stop offset="0.919" stop-color="#E1E1E1"/><stop offset="0.954" stop-color="#C9C9C9"/><stop offset="0.966" stop-color="#BFBFBF"/><stop offset="1" stop-color="#FFFFFF"/></linearGradient><linearGradient x1="29.908" y1="73.2572" x2="137.996" y2="73.2572" gradientUnits="userSpaceOnUse" spreadMethod="pad" id="fill47"><stop offset="0" stop-color="#DFDFDF"/><stop offset="0.021" stop-color="#E1E1E1"/><stop offset="0.244" stop-color="#F2F2F2"/><stop offset="0.487" stop-color="#FCFCFC"/><stop offset="0.791" stop-color="#FFFFFF"/><stop offset="0.841" stop-color="#FCFCFC"/><stop offset="0.882" stop-color="#F2F2F2"/><stop offset="0.919" stop-color="#E1E1E1"/><stop offset="0.954" stop-color="#C9C9C9"/><stop offset="0.966" stop-color="#BFBFBF"/><stop offset="1" stop-color="#FFFFFF"/></linearGradient><linearGradient x1="29.9097" y1="96.4705" x2="137.995" y2="96.4705" gradientUnits="userSpaceOnUse" spreadMethod="pad" id="fill48"><stop offset="0" stop-color="#DFDFDF"/><stop offset="0.021" stop-color="#E1E1E1"/><stop offset="0.244" stop-color="#F2F2F2"/><stop offset="0.487" stop-color="#FCFCFC"/><stop offset="0.791" stop-color="#FFFFFF"/><stop offset="0.841" stop-color="#FCFCFC"/><stop offset="0.882" stop-color="#F2F2F2"/><stop offset="0.919" stop-color="#E1E1E1"/><stop offset="0.954" stop-color="#C9C9C9"/><stop offset="0.966" stop-color="#BFBFBF"/><stop offset="1" stop-color="#FFFFFF"/></linearGradient><linearGradient x1="29.908" y1="65.5172" x2="137.996" y2="65.5172" gradientUnits="userSpaceOnUse" spreadMethod="pad" id="fill49"><stop offset="0" stop-color="#DFDFDF"/><stop offset="0.021" stop-color="#E1E1E1"/><stop offset="0.244" stop-color="#F2F2F2"/><stop offset="0.487" stop-color="#FCFCFC"/><stop offset="0.791" stop-color="#FFFFFF"/><stop offset="0.841" stop-color="#FCFCFC"/><stop offset="0.882" stop-color="#F2F2F2"/><stop offset="0.919" stop-color="#E1E1E1"/><stop offset="0.954" stop-color="#C9C9C9"/><stop offset="0.966" stop-color="#BFBFBF"/><stop offset="1" stop-color="#FFFFFF"/></linearGradient><linearGradient x1="29.908" y1="88.7304" x2="137.996" y2="88.7304" gradientUnits="userSpaceOnUse" spreadMethod="pad" id="fill50"><stop offset="0" stop-color="#DFDFDF"/><stop offset="0.021" stop-color="#E1E1E1"/><stop offset="0.244" stop-color="#F2F2F2"/><stop offset="0.487" stop-color="#FCFCFC"/><stop offset="0.791" stop-color="#FFFFFF"/><stop offset="0.841" stop-color="#FCFCFC"/><stop offset="0.882" stop-color="#F2F2F2"/><stop offset="0.919" stop-color="#E1E1E1"/><stop offset="0.954" stop-color="#C9C9C9"/><stop offset="0.966" stop-color="#BFBFBF"/><stop offset="1" stop-color="#FFFFFF"/></linearGradient><linearGradient x1="29.889" y1="82.1617" x2="138.026" y2="82.1617" gradientUnits="userSpaceOnUse" spreadMethod="pad" id="fill51"><stop offset="0" stop-color="#DFDFDF"/><stop offset="0.021" stop-color="#E1E1E1"/><stop offset="0.244" stop-color="#F2F2F2"/><stop offset="0.487" stop-color="#FCFCFC"/><stop offset="0.791" stop-color="#FFFFFF"/><stop offset="0.841" stop-color="#FCFCFC"/><stop offset="0.882" stop-color="#F2F2F2"/><stop offset="0.919" stop-color="#E1E1E1"/><stop offset="0.954" stop-color="#C9C9C9"/><stop offset="0.966" stop-color="#BFBFBF"/><stop offset="1" stop-color="#FFFFFF"/></linearGradient><linearGradient x1="29.8994" y1="71.941" x2="138.015" y2="71.941" gradientUnits="userSpaceOnUse" spreadMethod="pad" id="fill52"><stop offset="0" stop-color="#DFDFDF"/><stop offset="0.021" stop-color="#E1E1E1"/><stop offset="0.244" stop-color="#F2F2F2"/><stop offset="0.487" stop-color="#FCFCFC"/><stop offset="0.791" stop-color="#FFFFFF"/><stop offset="0.841" stop-color="#FCFCFC"/><stop offset="0.882" stop-color="#F2F2F2"/><stop offset="0.919" stop-color="#E1E1E1"/><stop offset="0.954" stop-color="#C9C9C9"/><stop offset="0.966" stop-color="#BFBFBF"/><stop offset="1" stop-color="#FFFFFF"/></linearGradient><linearGradient x1="29.908" y1="90.866" x2="137.991" y2="90.866" gradientUnits="userSpaceOnUse" spreadMethod="pad" id="fill53"><stop offset="0" stop-color="#DFDFDF"/><stop offset="0.021" stop-color="#E1E1E1"/><stop offset="0.244" stop-color="#F2F2F2"/><stop offset="0.487" stop-color="#FCFCFC"/><stop offset="0.791" stop-color="#FFFFFF"/><stop offset="0.841" stop-color="#FCFCFC"/><stop offset="0.882" stop-color="#F2F2F2"/><stop offset="0.919" stop-color="#E1E1E1"/><stop offset="0.954" stop-color="#C9C9C9"/><stop offset="0.966" stop-color="#BFBFBF"/><stop offset="1" stop-color="#FFFFFF"/></linearGradient><linearGradient x1="29.889" y1="89.8983" x2="138.026" y2="89.8983" gradientUnits="userSpaceOnUse" spreadMethod="pad" id="fill54"><stop offset="0" stop-color="#DFDFDF"/><stop offset="0.021" stop-color="#E1E1E1"/><stop offset="0.244" stop-color="#F2F2F2"/><stop offset="0.487" stop-color="#FCFCFC"/><stop offset="0.791" stop-color="#FFFFFF"/><stop offset="0.841" stop-color="#FCFCFC"/><stop offset="0.882" stop-color="#F2F2F2"/><stop offset="0.919" stop-color="#E1E1E1"/><stop offset="0.954" stop-color="#C9C9C9"/><stop offset="0.966" stop-color="#BFBFBF"/><stop offset="1" stop-color="#FFFFFF"/></linearGradient><linearGradient x1="29.908" y1="75.3928" x2="137.991" y2="75.3928" gradientUnits="userSpaceOnUse" spreadMethod="pad" id="fill55"><stop offset="0" stop-color="#DFDFDF"/><stop offset="0.021" stop-color="#E1E1E1"/><stop offset="0.244" stop-color="#F2F2F2"/><stop offset="0.487" stop-color="#FCFCFC"/><stop offset="0.791" stop-color="#FFFFFF"/><stop offset="0.841" stop-color="#FCFCFC"/><stop offset="0.882" stop-color="#F2F2F2"/><stop offset="0.919" stop-color="#E1E1E1"/><stop offset="0.954" stop-color="#C9C9C9"/><stop offset="0.966" stop-color="#BFBFBF"/><stop offset="1" stop-color="#FFFFFF"/></linearGradient><linearGradient x1="29.908" y1="98.6061" x2="137.991" y2="98.6061" gradientUnits="userSpaceOnUse" spreadMethod="pad" id="fill56"><stop offset="0" stop-color="#DFDFDF"/><stop offset="0.021" stop-color="#E1E1E1"/><stop offset="0.244" stop-color="#F2F2F2"/><stop offset="0.487" stop-color="#FCFCFC"/><stop offset="0.791" stop-color="#FFFFFF"/><stop offset="0.841" stop-color="#FCFCFC"/><stop offset="0.882" stop-color="#F2F2F2"/><stop offset="0.919" stop-color="#E1E1E1"/><stop offset="0.954" stop-color="#C9C9C9"/><stop offset="0.966" stop-color="#BFBFBF"/><stop offset="1" stop-color="#FFFFFF"/></linearGradient><linearGradient x1="29.8994" y1="79.6777" x2="138.015" y2="79.6777" gradientUnits="userSpaceOnUse" spreadMethod="pad" id="fill57"><stop offset="0" stop-color="#DFDFDF"/><stop offset="0.021" stop-color="#E1E1E1"/><stop offset="0.244" stop-color="#F2F2F2"/><stop offset="0.487" stop-color="#FCFCFC"/><stop offset="0.791" stop-color="#FFFFFF"/><stop offset="0.841" stop-color="#FCFCFC"/><stop offset="0.882" stop-color="#F2F2F2"/><stop offset="0.919" stop-color="#E1E1E1"/><stop offset="0.954" stop-color="#C9C9C9"/><stop offset="0.966" stop-color="#BFBFBF"/><stop offset="1" stop-color="#FFFFFF"/></linearGradient><linearGradient x1="29.9011" y1="67.6544" x2="138.01" y2="67.6544" gradientUnits="userSpaceOnUse" spreadMethod="pad" id="fill58"><stop offset="0" stop-color="#DFDFDF"/><stop offset="0.021" stop-color="#E1E1E1"/><stop offset="0.244" stop-color="#F2F2F2"/><stop offset="0.487" stop-color="#FCFCFC"/><stop offset="0.791" stop-color="#FFFFFF"/><stop offset="0.841" stop-color="#FCFCFC"/><stop offset="0.882" stop-color="#F2F2F2"/><stop offset="0.919" stop-color="#E1E1E1"/><stop offset="0.954" stop-color="#C9C9C9"/><stop offset="0.966" stop-color="#BFBFBF"/><stop offset="1" stop-color="#FFFFFF"/></linearGradient><linearGradient x1="29.908" y1="83.1311" x2="137.991" y2="83.1311" gradientUnits="userSpaceOnUse" spreadMethod="pad" id="fill59"><stop offset="0" stop-color="#DFDFDF"/><stop offset="0.021" stop-color="#E1E1E1"/><stop offset="0.244" stop-color="#F2F2F2"/><stop offset="0.487" stop-color="#FCFCFC"/><stop offset="0.791" stop-color="#FFFFFF"/><stop offset="0.841" stop-color="#FCFCFC"/><stop offset="0.882" stop-color="#F2F2F2"/><stop offset="0.919" stop-color="#E1E1E1"/><stop offset="0.954" stop-color="#C9C9C9"/><stop offset="0.966" stop-color="#BFBFBF"/><stop offset="1" stop-color="#FFFFFF"/></linearGradient><linearGradient x1="29.889" y1="97.6366" x2="138.026" y2="97.6366" gradientUnits="userSpaceOnUse" spreadMethod="pad" id="fill60"><stop offset="0" stop-color="#DFDFDF"/><stop offset="0.021" stop-color="#E1E1E1"/><stop offset="0.244" stop-color="#F2F2F2"/><stop offset="0.487" stop-color="#FCFCFC"/><stop offset="0.791" stop-color="#FFFFFF"/><stop offset="0.841" stop-color="#FCFCFC"/><stop offset="0.882" stop-color="#F2F2F2"/><stop offset="0.919" stop-color="#E1E1E1"/><stop offset="0.954" stop-color="#C9C9C9"/><stop offset="0.966" stop-color="#BFBFBF"/><stop offset="1" stop-color="#FFFFFF"/></linearGradient><linearGradient x1="29.908" y1="94.2763" x2="137.993" y2="94.2763" gradientUnits="userSpaceOnUse" spreadMethod="pad" id="fill61"><stop offset="0" stop-color="#DFDFDF"/><stop offset="0.021" stop-color="#E1E1E1"/><stop offset="0.244" stop-color="#F2F2F2"/><stop offset="0.487" stop-color="#FCFCFC"/><stop offset="0.791" stop-color="#FFFFFF"/><stop offset="0.841" stop-color="#FCFCFC"/><stop offset="0.882" stop-color="#F2F2F2"/><stop offset="0.919" stop-color="#E1E1E1"/><stop offset="0.954" stop-color="#C9C9C9"/><stop offset="0.966" stop-color="#BFBFBF"/><stop offset="1" stop-color="#FFFFFF"/></linearGradient><linearGradient x1="29.908" y1="71.0665" x2="137.993" y2="71.0665" gradientUnits="userSpaceOnUse" spreadMethod="pad" id="fill62"><stop offset="0" stop-color="#DFDFDF"/><stop offset="0.021" stop-color="#E1E1E1"/><stop offset="0.244" stop-color="#F2F2F2"/><stop offset="0.487" stop-color="#FCFCFC"/><stop offset="0.791" stop-color="#FFFFFF"/><stop offset="0.841" stop-color="#FCFCFC"/><stop offset="0.882" stop-color="#F2F2F2"/><stop offset="0.919" stop-color="#E1E1E1"/><stop offset="0.954" stop-color="#C9C9C9"/><stop offset="0.966" stop-color="#BFBFBF"/><stop offset="1" stop-color="#FFFFFF"/></linearGradient><linearGradient x1="29.908" y1="86.5397" x2="137.993" y2="86.5397" gradientUnits="userSpaceOnUse" spreadMethod="pad" id="fill63"><stop offset="0" stop-color="#DFDFDF"/><stop offset="0.021" stop-color="#E1E1E1"/><stop offset="0.244" stop-color="#F2F2F2"/><stop offset="0.487" stop-color="#FCFCFC"/><stop offset="0.791" stop-color="#FFFFFF"/><stop offset="0.841" stop-color="#FCFCFC"/><stop offset="0.882" stop-color="#F2F2F2"/><stop offset="0.919" stop-color="#E1E1E1"/><stop offset="0.954" stop-color="#C9C9C9"/><stop offset="0.966" stop-color="#BFBFBF"/><stop offset="1" stop-color="#FFFFFF"/></linearGradient><linearGradient x1="29.908" y1="78.8014" x2="137.993" y2="78.8014" gradientUnits="userSpaceOnUse" spreadMethod="pad" id="fill64"><stop offset="0" stop-color="#DFDFDF"/><stop offset="0.021" stop-color="#E1E1E1"/><stop offset="0.244" stop-color="#F2F2F2"/><stop offset="0.487" stop-color="#FCFCFC"/><stop offset="0.791" stop-color="#FFFFFF"/><stop offset="0.841" stop-color="#FCFCFC"/><stop offset="0.882" stop-color="#F2F2F2"/><stop offset="0.919" stop-color="#E1E1E1"/><stop offset="0.954" stop-color="#C9C9C9"/><stop offset="0.966" stop-color="#BFBFBF"/><stop offset="1" stop-color="#FFFFFF"/></linearGradient><clipPath id="clip65"><rect x="1850" y="635" width="132" height="132"/></clipPath><clipPath id="clip66"><rect x="1850" y="635" width="132" height="132"/></clipPath><clipPath id="clip67"><rect x="1850" y="635" width="132" height="132"/></clipPath></defs><g clip-path="url(#clip0)" transform="translate(-1663 -152)"><path d="M591.437 123.125C528.981 60.6688 445.948 26.2694 357.619 26.2694 269.29 26.2694 186.244 60.6688 123.788 123.125 61.3311 185.582 26.9449 268.628 26.9449 356.944 26.9449 445.26 61.3444 528.306 123.788 590.762 186.231 653.219 269.277 687.618 357.606 687.618 445.935 687.618 528.968 653.219 591.424 590.762 653.881 528.306 688.28 445.273 688.28 356.944 688.28 268.615 653.894 185.582 591.437 123.125Z" fill="url(#fill1)" transform="matrix(1 0 0 1.0014 1663 152)"/><path d="M357.619 714.444C262.127 714.444 172.355 677.264 104.827 609.736 37.2992 542.208 0.119121 452.436 0.119121 356.944 0.119121 261.452 37.2992 171.679 104.827 104.152 172.355 36.624 262.127-0.556008 357.619-0.556008 453.111-0.556008 542.884 36.624 610.411 104.152 677.939 171.679 715.119 261.452 715.119 356.944 715.119 452.436 677.939 542.208 610.411 609.736 542.884 677.264 453.111 714.444 357.619 714.444ZM357.619 26.283C269.29 26.283 186.257 60.6824 123.801 123.139 61.3444 185.595 26.9449 268.628 26.9449 356.944 26.9449 445.26 61.3444 528.306 123.788 590.762 186.231 653.219 269.277 687.618 357.606 687.618 445.935 687.618 528.968 653.219 591.424 590.762 653.881 528.306 688.28 445.273 688.28 356.944 688.28 268.615 653.881 185.582 591.424 123.126 528.968 60.6692 445.935 26.283 357.619 26.283Z" fill="#FFFFFF" transform="matrix(1 0 0 1.0014 1663 152)"/><g clip-path="url(#clip2)"><g clip-path="url(#clip3)"><g clip-path="url(#clip4)"><path d="M239.647 283.968C228.901 283.968 218.17 281.772 208.137 277.366 187.766 268.423 172.105 251.163 165.184 230.021L162.537 221.936 159.891 230.021C152.969 251.163 137.309 268.423 116.937 277.381 96.5656 286.323 73.2712 286.178 53.0158 276.973L24.5013 264.018C9.58238 257.242 0 242.366 0 225.979L0 121.14C0 113.317 5.6273 106.628 13.3339 105.305 58.3232 97.5398 109.914 93.4247 162.537 93.4247 179.739 93.4247 196.824 93.861 213.605 94.7189 231.403 95.6349 244.867 111.208 243.326 128.977 217.24 126.723 190.063 125.574 162.537 125.574 116.865 125.574 72.1079 128.759 32.1352 134.822L32.1352 225.993C32.1352 229.774 34.3454 233.206 37.7916 234.776L65.0556 247.179C77.2844 252.734 91.4181 253.432 103.749 248.095 116.065 242.759 125.153 232.798 129.326 220.061L134.721 203.571C138.647 191.561 149.61 182.836 162.246 182.734 175.1 182.618 186.021 190.47 190.005 202.655L195.283 218.767C199.471 231.533 208.501 242.395 220.759 247.877 233.017 253.359 246.525 253.316 258.725 247.761L287.239 234.805C290.685 233.235 292.896 229.803 292.896 226.022L292.896 0 325.045 0 325.045 225.95C325.045 242.337 315.463 257.212 300.544 263.988L272.03 276.944C261.793 281.626 250.727 283.968 239.647 283.968Z" fill="#FFFFFF" transform="matrix(1.00395 0 0 1 1854 280)"/></g></g></g><g clip-path="url(#clip5)"><g clip-path="url(#clip6)"><g clip-path="url(#clip7)"><path d="M56.2091 102.223C59.6591 114.988 72.0376 124.726 78.289 124.322 78.5081 124.309 101.999 119.929 114.859 98.4474 124.864 81.727 121.461 65.5844 107.849 65.2325 102.953 65.5896 49.6385 77.9095 56.2125 102.227M106.579 20.2429 106.565 20.2308 106.584 20.2187C89.0886 5.33759 64.6102 1.806 43.6217 11.1349 42.3208 11.6759 41.0536 12.2946 39.8267 12.9875 38.9884 13.4343 38.1501 13.8776 37.3359 14.3675L37.5342 14.4296C35.1269 16.0684 32.9982 18.0829 31.2294 20.3964 14.0967 43.0439 71.5633 59.5124 102.292 59.5607 116.422 69.7072 120.389 30.993 106.579 20.2429Z" fill="#0E3CA5" transform="matrix(1 0 0 1 2049 634)"/><path d="M47.0924 20.7C39.1971 32.568 12.8995 40.929 8.57497 39.6267L8.54564 39.5715C8.71814 39.2144 8.90271 38.8573 9.08556 38.5037 13.5701 29.866 19.9867 22.3792 27.8363 16.6255 29.4543 15.4387 31.1299 14.3296 32.8629 13.298 35.5274 11.8269 38.512 11.032 41.5552 10.9831 53.2662 11.2073 47.1511 20.6086 47.089 20.7034M40.6134 104.557C41.1809 108.285 40.5996 123.015 39.8371 124.253 39.1799 124.293 37.812 124.378 33.8496 122.154 7.76135 107.268-4.19953 76.0426 5.26814 47.5375 5.47859 46.905 5.69882 46.2765 5.92882 45.6521 10.4673 51.6896 15.7199 57.1509 20.1842 63.2471 24.4363 69.0517 30.2858 78.515 31.476 80.5384 38.8659 93.0912 40.0441 100.836 40.6082 104.559M127.976 67.4371C127.985 75.3527 126.499 83.1988 123.594 90.5624 116.177 98.5319 66.1796 78.9135 65.6897 78.6979 58.85 75.7015 38.0362 66.5849 36.1577 52.2674 33.465 31.6537 75.2617 17.2948 93.6329 16.7515 95.8357 16.7773 102.539 16.855 106.448 20.029 120.144 31.9734 127.996 49.2642 127.976 67.4371M94.1297 123.279C88.6804 125.823 82.6792 123.969 84.2385 118.663 87.2314 108.47 113.367 98.0196 119.139 97.4451 119.851 97.3744 120.153 97.8591 119.837 98.4129 113.824 108.987 104.904 117.614 94.1349 123.27" fill="#5493F7" transform="matrix(1 0 0 1 2049 634)"/><path d="M29.9046 133.265C29.7445 135.659 31.5313 137.74 33.9221 137.945 86.8795 138.307 138 135.875 138 127.94 138 103.921 29.9046 133.265 29.9046 133.265Z" fill="url(#fill8)" transform="matrix(1 0 0 1 2049 634)"/><path d="M29.9046 133.265C29.742 135.667 31.5413 137.753 33.9411 137.945 86.8847 138.347 137.936 136.684 138 127.94 138 103.921 29.9046 133.265 29.9046 133.265ZM33.9428 137.639C33.8016 137.639 33.6605 137.631 33.5202 137.615 31.8701 137.384 30.5194 136.186 30.0926 134.576 30.5577 136.33 32.1237 137.567 33.9376 137.613 86.845 137.282 137.17 120.991 137.17 128.164 137.17 135.485 86.8485 138 33.9428 137.639Z" fill="url(#fill9)" transform="matrix(1 0 0 1 2049 634)"/><path d="M33.9462 65.2429C31.7141 65.2429 29.9046 67.0524 29.9046 69.2845 29.9046 69.2851 29.9046 69.2857 29.9046 69.2863L29.9046 133.265C29.9017 135.489 31.6976 137.298 33.9221 137.31 86.8761 136.913 138.064 119.385 138 127.943L138 55.8779C138.064 47.3219 86.8933 64.8478 33.9462 65.2429Z" fill="url(#fill10)" transform="matrix(1 0 0 1 2049 634)"/><path d="M41.7536 109.401C43.639 109.327 45.4865 109.248 47.3012 109.146 49.1159 109.044 50.8926 108.928 52.64 108.801 54.3875 108.673 56.1004 108.525 57.7909 108.371 59.4814 108.218 61.1477 108.061 62.7934 107.897 64.439 107.733 66.0622 107.562 67.6665 107.379 70.828 107.02 73.9861 106.631 77.1402 106.212 78.7013 106.003 80.2452 105.791 81.7977 105.565 83.3502 105.339 84.8768 105.097 86.4241 104.859 87.9715 104.621 89.5291 104.381 91.0816 104.135 92.6341 103.888 94.2021 103.638 95.7702 103.376 97.3382 103.113 98.9166 102.836 100.516 102.561 102.115 102.287 103.734 102.011 105.371 101.727 107.009 101.442 108.666 101.157 110.346 100.864 112.027 100.571 113.729 100.266 115.464 99.974 117.2 99.6825 118.966 99.3961 120.765 99.1218 122.565 98.8476 124.215 98.6043 126.458 98.3214 128.903 97.9738 131.373 97.8422 133.841 97.9281 136.161 98.0851 137.998 98.6751 137.998 100.293L137.998 94.7455C137.998 93.1482 136.237 92.5755 134.075 92.3978 131.771 92.2806 129.462 92.3776 127.175 92.6876 125.021 92.9343 123.468 93.1706 121.847 93.4104 120.225 93.6501 118.644 93.9003 117.088 94.1556 115.532 94.4109 114 94.6731 112.479 94.937 110.957 95.2009 109.442 95.4717 107.918 95.7391 106.393 96.0065 104.856 96.2721 103.295 96.5395L98.5215 97.3606C96.8966 97.6401 95.244 97.9212 93.519 98.2024 91.794 98.4836 89.9931 98.763 88.125 99.0511 86.2568 99.3392 84.3179 99.6462 82.2928 99.9464L82.2928 94.4022C84.3179 94.1038 86.2603 93.795 88.125 93.507 89.9897 93.2189 91.7906 92.936 93.519 92.6583 95.2475 92.3805 96.9035 92.0959 98.5215 91.8147 100.14 91.5336 101.735 91.2627 103.296 90.9954L107.918 90.195 112.479 89.3928C114 89.1255 115.53 88.8753 117.088 88.6114 118.645 88.3475 120.224 88.1077 121.847 87.8662 123.47 87.6247 125.021 87.3884 127.175 87.1434 129.462 86.8353 131.771 86.7377 134.075 86.8519 136.239 87.0244 138 87.604 138 89.1996L138 83.6624C138 82.0685 136.239 81.4924 134.077 81.313 131.773 81.1989 129.463 81.2965 127.177 81.6045 125.023 81.8529 123.472 82.0858 121.849 82.3273 120.225 82.5688 118.645 82.8172 117.089 83.0725 115.533 83.3278 114.002 83.59 112.48 83.8539 110.959 84.1178 109.444 84.3921 107.919 84.6577L103.296 85.4581C101.735 85.7272 100.15 85.9963 98.5233 86.2775 96.8966 86.5587 95.2458 86.8398 93.5208 87.1176 91.7958 87.3953 89.9949 87.6799 88.1267 87.968 86.2585 88.2561 84.3196 88.5631 82.2962 88.8615L82.2962 83.3191C84.3179 83.019 86.2637 82.7154 88.1284 82.4239 89.9931 82.1323 91.794 81.8529 93.5225 81.5752 95.2509 81.2974 96.9035 81.0145 98.525 80.7334L103.3 79.914C104.852 79.6449 106.396 79.381 107.921 79.1136L112.482 78.3115C115.598 77.7632 118.721 77.2542 121.85 76.7848 123.474 76.5468 125.024 76.307 127.179 76.0603 129.465 75.7537 131.775 75.6567 134.079 75.7705 136.24 75.943 138.002 76.5244 138.002 78.12L138.002 72.5707C138.002 70.975 136.24 70.4041 134.079 70.2247 131.775 70.1092 129.465 70.2062 127.179 70.5145 125.024 70.7611 123.474 70.9975 121.85 71.2372 120.227 71.477 118.647 71.7289 117.091 71.9824 115.535 72.236 114.003 72.4999 112.482 72.7621L107.921 73.5677 103.298 74.3664C101.737 74.6355 100.152 74.9029 98.525 75.1858 96.8983 75.4687 95.2475 75.7481 93.5225 76.0258 91.7975 76.3036 89.9949 76.5882 88.125 76.878 86.2551 77.1678 84.3162 77.4731 82.2945 77.7733L82.2945 72.2291C84.3162 71.929 86.2516 71.6219 88.1232 71.3321 89.9949 71.0423 91.794 70.7629 93.5225 70.4817 95.2509 70.2005 96.8983 69.9211 98.525 69.6416L103.3 68.8222C104.852 68.5531 106.396 68.2909 107.921 68.0218 109.446 67.7527 110.959 67.4854 112.482 67.2197 114.005 66.9541 115.533 66.6901 117.091 66.4366 118.649 66.183 120.227 65.9329 121.849 65.6931 123.47 65.4533 125.024 65.217 127.179 64.9703 129.465 64.6622 131.775 64.5646 134.079 64.6788 136.242 64.8513 138.003 65.4326 138.003 67.0265L138.003 61.4841C138.003 59.8885 136.242 59.3141 134.081 59.1347 131.777 59.0215 129.467 59.1191 127.181 59.4262 125.026 59.6729 123.475 59.9075 121.852 60.149 120.229 60.3905 118.649 60.6389 117.093 60.8942 115.537 61.1495 114.005 61.4117 112.484 61.6756 110.962 61.9395 109.448 62.2138 107.923 62.4794 106.398 62.7451 104.861 63.0107 103.301 63.2764L98.5267 64.0992C95.0653 64.6974 91.5979 65.2604 88.125 65.788 86.2533 66.0778 84.3162 66.3831 82.2945 66.685L82.2945 61.0632C66.2933 63.568 50.1382 64.9646 33.9445 65.2429 31.7124 65.2429 29.9028 67.0524 29.9028 69.2845 29.9028 69.2851 29.9028 69.2857 29.9028 69.2863L29.9028 109.651C31.9728 109.651 33.9876 109.625 35.961 109.582 37.9344 109.539 39.8664 109.474 41.7536 109.401Z" fill="url(#fill11)" transform="matrix(1 0 0 1 2049 634)"/><path d="M41.745 120.489C43.6338 120.417 45.4796 120.334 47.2943 120.234 49.109 120.134 50.8874 120.015 52.6418 119.889 54.3961 119.763 56.1004 119.617 57.7909 119.461 59.4814 119.306 61.1477 119.153 62.7934 118.985 64.439 118.818 66.0709 118.651 67.6665 118.468 70.8266 118.106 73.9834 117.718 77.1367 117.302 78.6961 117.093 80.2417 116.877 81.7942 116.653 83.3467 116.429 84.8768 116.186 86.4224 115.946 87.968 115.706 89.5274 115.47 91.0799 115.225 92.6324 114.98 94.2021 114.724 95.7719 114.464 97.3416 114.203 98.92 113.926 100.519 113.65L105.373 112.815C107.01 112.532 108.67 112.247 110.348 111.952 112.027 111.657 113.733 111.356 115.468 111.062 117.203 110.769 118.97 110.484 120.769 110.21 122.568 109.936 124.208 109.693 126.461 109.41 128.906 109.06 131.376 108.928 133.844 109.015 136.164 109.173 138.002 109.765 138.002 111.381L138.002 105.832C138.002 104.216 136.164 103.622 133.846 103.465 131.378 103.379 128.906 103.51 126.461 103.859 124.207 104.135 122.566 104.388 120.769 104.661 118.971 104.933 117.203 105.218 115.468 105.511 113.733 105.804 112.03 106.103 110.35 106.401 108.67 106.7 107.012 106.984 105.373 107.264 103.734 107.543 102.118 107.821 100.519 108.099 98.92 108.376 97.3416 108.651 95.7736 108.913 94.2056 109.175 92.6393 109.43 91.0816 109.672L86.4241 110.398C84.8716 110.64 83.3398 110.878 81.796 111.102 80.2521 111.326 78.7013 111.545 77.1385 111.751 75.5756 111.956 74.0093 112.158 72.4327 112.353 70.856 112.548 69.2725 112.739 67.6682 112.917 66.064 113.094 64.4408 113.262 62.7951 113.434 61.1495 113.607 59.4831 113.755 57.7926 113.909 56.1021 114.062 54.3875 114.209 52.6418 114.338 50.8961 114.467 49.1141 114.585 47.2943 114.683 45.4744 114.781 43.6321 114.866 41.745 114.938 39.8578 115.011 37.9293 115.071 35.9541 115.111 33.979 115.151 31.9659 115.183 29.8994 115.183L29.8994 120.726C33.849 120.714 37.798 120.635 41.745 120.489Z" fill="url(#fill12)" transform="matrix(1 0 0 1 2049 634)"/><path d="M133.843 114.552C131.375 114.466 128.904 114.598 126.46 114.945 124.205 115.223 122.565 115.473 120.767 115.747 118.97 116.022 117.203 116.306 115.468 116.598 113.733 116.889 112.018 117.191 110.346 117.488 108.675 117.785 107.009 118.073 105.371 118.35L100.516 119.185C98.9166 119.46 97.3382 119.739 95.7684 119.999 94.1987 120.26 92.6341 120.517 91.0764 120.758 89.5188 121 87.9715 121.245 86.4189 121.481 84.8665 121.718 83.3347 121.959 81.7891 122.187 80.2435 122.414 78.6841 122.632 77.1316 122.837 73.9782 123.253 70.8213 123.641 67.6613 124.003 66.0571 124.183 64.4339 124.348 62.7882 124.521 61.1426 124.693 59.4779 124.843 57.7857 124.997 56.0935 125.15 54.3806 125.295 52.6349 125.425 50.8892 125.554 49.1072 125.67 47.2874 125.77 41.4944 126.087 35.6941 126.254 29.8925 126.27L29.8925 131.824C31.9625 131.824 33.9807 131.801 35.9472 131.755 37.9137 131.709 39.844 131.652 41.738 131.583 43.6269 131.51 45.4727 131.428 47.2874 131.328 49.1021 131.227 50.8805 131.108 52.6349 130.983 54.3892 130.857 56.0952 130.707 57.7857 130.555 59.4762 130.403 61.1408 130.246 62.7882 130.08 64.4356 129.915 66.0657 129.746 67.6613 129.563 69.2569 129.38 70.8508 129.194 72.4275 128.997 74.0041 128.8 75.5704 128.605 77.1298 128.397 78.6892 128.188 80.2348 127.974 81.7873 127.748 83.3398 127.522 84.8699 127.279 86.4172 127.043 87.9645 126.806 89.5222 126.563 91.0747 126.318 92.6272 126.073 94.1952 125.821 95.7667 125.557 97.3382 125.294 98.9183 125.019 100.517 124.743L105.371 123.91 110.345 123.048C112.025 122.753 113.731 122.449 115.468 122.157 117.205 121.866 118.968 121.58 120.767 121.305 122.566 121.031 124.217 120.788 126.46 120.507 128.904 120.16 131.375 120.028 133.843 120.113 136.163 120.267 138 120.859 138 122.477L138 116.917C138 115.299 136.163 114.712 133.843 114.552Z" fill="url(#fill13)" transform="matrix(1 0 0 1 2049 634)"/><path d="M41.4 103.872C43.1595 103.807 44.8499 103.733 46.5111 103.645 48.1723 103.557 49.7886 103.458 51.3756 103.346 52.9626 103.234 54.5427 103.11 56.1125 102.975 59.3146 102.697 62.514 102.388 65.7103 102.049 67.3663 101.873 69.0568 101.682 70.8129 101.468 72.5689 101.254 74.3974 101.028 76.3053 100.778 78.2131 100.528 80.2072 100.26 82.291 99.9464L82.291 61.0649C66.2927 63.5693 50.1405 64.9652 33.9497 65.2429 31.7175 65.2429 29.908 67.0524 29.908 69.2845 29.908 69.2851 29.908 69.2857 29.908 69.2863L29.908 104.105C32.0039 104.105 33.9963 104.081 35.9058 104.038 37.8154 103.995 39.6387 103.936 41.4 103.872Z" fill="url(#fill14)" transform="matrix(1 0 0 1 2049 634)"/><path d="M42.3763 66.8782C42.1779 67.4975 42.0813 67.8079 41.8847 68.4307L40.2908 68.4893 41.5794 69.3932 41.086 70.9457C41.6035 70.5472 41.8605 70.3523 42.3763 69.9521 42.8938 70.3126 43.1456 70.4886 43.6649 70.8457 43.4648 70.2419 43.3682 69.94 43.1715 69.3346L44.4618 68.3289C43.8236 68.3599 43.5027 68.3686 42.8662 68.3979L42.3763 66.8782Z" fill="url(#fill15)" transform="matrix(1 0 0 1 2049 634)"/><path d="M46.982 86.005 46.4904 87.5661 44.8931 87.6454 46.1834 88.5303C45.9867 89.1531 45.8884 89.4653 45.69 90.0828 46.2075 89.6809 46.4663 89.4774 46.982 89.0685 47.4995 89.4135 47.7583 89.586 48.2758 89.9414L47.7807 88.4372 49.0745 87.4108C48.4345 87.4522 48.1154 87.4712 47.4771 87.5057Z" fill="url(#fill16)" transform="matrix(1 0 0 1 2049 634)"/><path d="M47.4771 95.2475 46.982 93.7416 46.4904 95.3044 44.8931 95.382C45.4106 95.7374 45.6676 95.9168 46.1834 96.267 45.9867 96.8914 45.8884 97.2019 45.69 97.8195 46.2075 97.4141 46.4663 97.2105 46.982 96.8017 47.4995 97.1467 47.7583 97.3296 48.2758 97.678L47.7807 96.1738 49.0745 95.1474C48.4345 95.194 48.1154 95.2199 47.4771 95.2475Z" fill="url(#fill17)" transform="matrix(1 0 0 1 2049 634)"/><path d="M42.3746 82.3514C42.1762 82.9741 42.0779 83.2812 41.883 83.9039 41.2447 83.9298 40.9256 83.9436 40.2891 83.9626 40.8066 84.3231 41.0601 84.5059 41.5759 84.863L41.086 86.4155C41.6035 86.0188 41.8588 85.8169 42.3746 85.4167 42.8921 85.7755 43.1456 85.9549 43.6649 86.3137 43.4648 85.7083 43.3664 85.4064 43.1698 84.7992L44.4618 83.7952C43.8236 83.8246 43.5027 83.8401 42.8662 83.8642Z" fill="url(#fill18)" transform="matrix(1 0 0 1 2049 634)"/><path d="M42.3728 90.088 41.883 91.6405C41.2447 91.6612 40.9239 91.6767 40.2873 91.6992L41.5759 92.5996 41.0843 94.1521 42.3728 93.1499 43.6649 94.0452C43.4648 93.4397 43.3664 93.1395 43.1698 92.5323 43.6873 92.1339 43.9443 91.9286 44.4618 91.5267L42.8662 91.5957 42.3728 90.088Z" fill="url(#fill19)" transform="matrix(1 0 0 1 2049 634)"/><path d="M42.3763 74.6148 41.883 76.1673 40.2891 76.2259 41.5776 77.1281 41.086 78.6806C41.6035 78.2839 41.8605 78.0838 42.3763 77.6836 42.8938 78.0424 43.1456 78.2218 43.6649 78.5788 43.4648 77.9751 43.3664 77.6715 43.1698 77.066L44.4618 76.0603C43.8236 76.0897 43.5044 76.1052 42.8662 76.1311 42.6713 75.5221 42.5712 75.222 42.3763 74.6148Z" fill="url(#fill20)" transform="matrix(1 0 0 1 2049 634)"/><path d="M56.2039 93.0895 55.7123 94.6627C55.0723 94.7179 54.7514 94.7421 54.1132 94.7955 54.6307 95.1405 54.8894 95.313 55.4052 95.6391L54.9136 97.214 56.2039 96.1583 57.4942 96.9915C57.329 96.4949 57.1645 95.9981 57.0008 95.5011L58.2911 94.435C57.6512 94.4954 57.332 94.5213 56.6955 94.5782 56.4989 93.9813 56.4074 93.6864 56.2039 93.0895Z" fill="url(#fill21)" transform="matrix(1 0 0 1 2049 634)"/><path d="M46.982 78.2683 46.4904 79.8295C45.8504 79.864 45.5313 79.8778 44.8931 79.9088L46.1834 80.792 45.69 82.3531 46.982 81.3371C47.4995 81.6821 47.7583 81.8546 48.2758 82.21 48.0791 81.6097 47.9774 81.3078 47.7807 80.704L49.0745 79.6811C48.4345 79.7191 48.1154 79.7415 47.4771 79.7743Z" fill="url(#fill22)" transform="matrix(1 0 0 1 2049 634)"/><path d="M51.5964 89.5843 51.1013 91.1541 49.5074 91.2524 50.8012 92.1149 50.3078 93.6795 51.5999 92.6445 52.8919 93.4966 52.3985 91.9993C52.916 91.5836 53.1731 91.3731 53.6888 90.954L52.0932 91.0747C51.924 90.5791 51.7584 90.0823 51.5964 89.5843Z" fill="url(#fill23)" transform="matrix(1 0 0 1 2049 634)"/><path d="M52.0949 98.82 51.6016 97.3227 51.1065 98.8907C50.47 98.9355 50.1491 98.9545 49.5092 98.9959L50.8029 99.8584 50.3096 101.428C50.8271 101.016 51.0841 100.804 51.6016 100.393 52.1191 100.738 52.3761 100.911 52.8936 101.247L52.4003 99.7497C52.9178 99.3323 53.1748 99.1253 53.6906 98.7044L52.0949 98.82Z" fill="url(#fill24)" transform="matrix(1 0 0 1 2049 634)"/><path d="M46.982 70.5317 46.4904 72.0842C45.8504 72.1187 45.5313 72.1325 44.8931 72.1653L46.1834 73.0502C45.9867 73.6747 45.8884 73.9869 45.69 74.6027 46.2075 74.1973 46.4663 73.9955 46.982 73.5867 47.4995 73.9317 47.7583 74.1042 48.2758 74.4613L47.7807 72.9553C48.2982 72.5482 48.5552 72.3395 49.0745 71.929 48.4345 71.9686 48.1154 71.9893 47.4771 72.0238Z" fill="url(#fill25)" transform="matrix(1 0 0 1 2049 634)"/><path d="M51.593 81.8494 51.1013 83.4175C50.4614 83.4589 50.1457 83.483 49.5057 83.521L50.7977 84.3835 50.3027 85.9515 51.5964 84.9165 52.8884 85.7686 52.3951 84.2696 53.6854 83.2346 52.0898 83.3554Z" fill="url(#fill26)" transform="matrix(1 0 0 1 2049 634)"/><path d="M42.8662 99.3409 42.3728 97.8264 41.8812 99.3789 40.2873 99.4392C40.8048 99.7963 41.0601 99.9809 41.5759 100.34L41.0843 101.892 42.3728 100.893 43.6649 101.79 43.1698 100.278 44.4618 99.2719 42.8662 99.3409Z" fill="url(#fill27)" transform="matrix(1 0 0 1 2049 634)"/><path d="M33.151 82.6033 32.6559 84.1437C32.016 84.1437 31.6951 84.1437 31.0569 84.154 31.5744 84.5301 31.8331 84.7198 32.3506 85.0924L31.8555 86.6329 33.1493 85.6686C33.6668 86.0429 33.9255 86.2258 34.443 86.5984L33.9514 85.0735 35.2434 84.1023C34.6035 84.1126 34.2843 84.123 33.6444 84.1299L33.151 82.6033Z" fill="url(#fill28)" transform="matrix(1 0 0 1 2049 634)"/><path d="M33.151 74.8649 32.6559 76.4036C32.016 76.4036 31.6951 76.4122 31.0569 76.414L32.3506 77.3524 31.8573 78.8928 33.151 77.932 34.443 78.8583 33.9514 77.3317C34.4689 76.9453 34.7259 76.7538 35.2434 76.3622 34.6052 76.3743 34.2843 76.3795 33.6444 76.3881L33.151 74.8649Z" fill="url(#fill29)" transform="matrix(1 0 0 1 2049 634)"/><path d="M33.6375 99.6048 33.1424 98.0782 32.6473 99.6152C32.0073 99.6238 31.6882 99.6255 31.05 99.629L32.3437 100.566 31.8504 102.108 33.1424 101.145 34.4361 102.075C34.2709 101.565 34.1065 101.055 33.9428 100.545L35.2348 99.5755C34.6017 99.591 34.2843 99.5928 33.6375 99.6048Z" fill="url(#fill30)" transform="matrix(1 0 0 1 2049 634)"/><path d="M50.3027 78.2149 51.593 77.1799C52.1105 77.5249 52.3709 77.6974 52.8867 78.0337L52.3951 76.5347 53.6854 75.4876C53.0454 75.5394 52.728 75.5635 52.0898 75.6101L51.5947 74.1145 51.1013 75.6791C50.4648 75.724 50.144 75.7429 49.504 75.7861L50.7977 76.6486 50.3027 78.2149Z" fill="url(#fill31)" transform="matrix(1 0 0 1 2049 634)"/><path d="M50.3027 70.4765C50.8202 70.0642 51.0789 69.8572 51.5947 69.4415 52.1122 69.7865 52.3709 69.959 52.8867 70.2937L52.3951 68.7964C52.9126 68.3806 53.1696 68.1702 53.6854 67.751 53.0454 67.8028 52.728 67.8252 52.0898 67.8718L51.5947 66.3727 51.1013 67.9408C50.4648 67.9873 50.144 68.008 49.504 68.0477L50.7977 68.9102Z" fill="url(#fill32)" transform="matrix(1 0 0 1 2049 634)"/><path d="M33.151 90.3399 32.6542 91.8803 31.0569 91.8803 32.3506 92.8239 31.8555 94.3608 33.1493 93.3983 34.443 94.3263 33.9514 92.7997 35.2417 91.8303C34.6035 91.8423 34.2843 91.8475 33.6444 91.8561L33.151 90.3399Z" fill="url(#fill33)" transform="matrix(1 0 0 1 2049 634)"/><path d="M37.7671 70.8974 37.2738 72.4413C36.6355 72.4568 36.3164 72.4672 35.6747 72.481L36.9684 73.4004 36.4751 74.9529 37.7671 73.9696 39.0609 74.8804 38.5658 73.3607 39.8578 72.3706 38.2639 72.4206C38.0638 71.8134 37.9655 71.5098 37.7671 70.8974Z" fill="url(#fill34)" transform="matrix(1 0 0 1 2049 634)"/><path d="M37.7671 78.6392 37.2738 80.1917 35.6747 80.2297C36.1922 80.5988 36.4509 80.7799 36.9684 81.1456 36.7701 81.7632 36.6717 82.0754 36.4751 82.6981 36.9926 82.3048 37.2496 82.1116 37.7654 81.7166 38.2829 82.0823 38.5434 82.2617 39.0609 82.624L38.5658 81.106 39.8578 80.1175 38.2605 80.1676C38.0621 79.55 37.9655 79.2481 37.7671 78.6392Z" fill="url(#fill35)" transform="matrix(1 0 0 1 2049 634)"/><path d="M38.2587 95.6322 37.7654 94.1124 37.272 95.6649C36.6321 95.6822 36.3112 95.6891 35.6712 95.7029L36.9667 96.6206 36.4716 98.1731 37.7637 97.1916 39.0591 98.1024 38.5641 96.5826 39.8561 95.5925Z" fill="url(#fill36)" transform="matrix(1 0 0 1 2049 634)"/><path d="M37.7654 86.3758 37.272 87.9283C36.6338 87.9438 36.3129 87.9542 35.6747 87.9645L36.9667 88.884C36.7683 89.5015 36.67 89.8138 36.4734 90.4365L37.7654 89.4532 39.0591 90.364C38.8625 89.7568 38.7642 89.4532 38.5641 88.846 39.0816 88.4527 39.342 88.2509 39.8578 87.8541 39.2178 87.8748 38.8987 87.8886 38.2605 87.9076L37.7654 86.3758Z" fill="url(#fill37)" transform="matrix(1 0 0 1 2049 634)"/><path d="M33.151 67.1266 32.6577 68.667C32.0177 68.667 31.6951 68.6773 31.0569 68.6808 31.5744 69.0568 31.8348 69.2466 32.3506 69.6175L31.8573 71.1544 33.151 70.1971C33.6685 70.5697 33.9273 70.7525 34.4448 71.1217L33.9531 69.5968 35.2469 68.6256C34.6069 68.6394 34.2843 68.6463 33.6444 68.6549L33.151 67.1266Z" fill="url(#fill38)" transform="matrix(1 0 0 1 2049 634)"/><path d="M56.2039 85.3546 55.7123 86.9278C55.0723 86.983 54.7549 87.0072 54.1149 87.0589 54.6324 87.4039 54.8894 87.5661 55.4052 87.9007L54.9136 89.4774C55.4311 89.0565 55.6881 88.8426 56.2039 88.4199L57.4942 89.2531 57.0008 87.7644 58.2911 86.6984C57.6512 86.7588 57.332 86.7847 56.6955 86.8416 56.4989 86.2499 56.4074 85.9515 56.2039 85.3546Z" fill="url(#fill39)" transform="matrix(1 0 0 1 2049 634)"/><path d="M74.6372 83.3778 74.1421 84.9734 72.5431 85.1752 73.8351 85.9618 73.34 87.5574 74.6355 86.4465C75.153 86.757 75.4117 86.9157 75.9292 87.228L75.4342 85.7583 76.7296 84.6405 75.1306 84.8492Z" fill="url(#fill40)" transform="matrix(1 0 0 1 2049 634)"/><path d="M74.6372 75.6412C74.4388 76.2811 74.3388 76.5968 74.1421 77.2368 73.5022 77.3179 73.1813 77.3593 72.5431 77.4352 73.0606 77.7543 73.3193 77.9095 73.8368 78.2252L73.3435 79.8191C73.861 79.3741 74.1197 79.155 74.6372 78.7082L75.931 79.4896 75.4359 78.0217 76.7314 76.9021C76.0931 76.9849 75.7705 77.0298 75.1323 77.1109L74.6372 75.6412Z" fill="url(#fill41)" transform="matrix(1 0 0 1 2049 634)"/><path d="M75.1288 92.5841 74.6355 91.1144 74.1404 92.7117C73.5022 92.7894 73.1813 92.8342 72.5431 92.9101L73.8351 93.6984 73.34 95.2941 74.6338 94.1832C75.1513 94.4954 75.4117 94.6506 75.9275 94.9646L75.4342 93.4966 76.7279 92.3771 75.1288 92.5841Z" fill="url(#fill42)" transform="matrix(1 0 0 1 2049 634)"/><path d="M70.0349 72.3395C69.84 72.976 69.7434 73.2952 69.545 73.9334L67.9546 74.1163 69.2414 74.9149 68.7515 76.5071C69.269 76.069 69.5209 75.8482 70.0349 75.4083L71.3235 76.2001 70.8301 74.7269 72.1239 73.6212 70.5265 73.8161C70.3557 73.3263 70.1918 72.834 70.0349 72.3395Z" fill="url(#fill43)" transform="matrix(1 0 0 1 2049 634)"/><path d="M74.6389 67.9028 74.1421 69.4984C73.5022 69.5795 73.183 69.6192 72.5431 69.6968L73.8385 70.4869 73.3435 72.0842C73.861 71.6409 74.1197 71.4132 74.6372 70.9699L75.9327 71.7547C75.7687 71.2639 75.6037 70.7734 75.4376 70.2833 75.9551 69.84 76.2156 69.6106 76.7331 69.1638L75.1323 69.3725 74.6389 67.9028Z" fill="url(#fill44)" transform="matrix(1 0 0 1 2049 634)"/><path d="M70.0349 64.6046C69.84 65.2394 69.7434 65.5603 69.545 66.1968L67.9546 66.3796C68.4721 66.6971 68.7291 66.8592 69.2414 67.1783L68.7515 68.7688C69.269 68.3306 69.5209 68.1098 70.0349 67.6699L71.3252 68.4617 70.8319 66.9903C71.3494 66.547 71.6047 66.3262 72.1239 65.8846L70.5265 66.0795C70.3565 65.59 70.1926 65.0983 70.0349 64.6046Z" fill="url(#fill45)" transform="matrix(1 0 0 1 2049 634)"/><path d="M79.2533 78.898 78.7582 80.5005C78.12 80.5867 77.8009 80.6316 77.1626 80.7144L78.4546 81.4889 77.9596 83.0897 79.2516 81.965 80.5419 82.7326C80.3435 82.1479 80.2469 81.8546 80.0503 81.2681 80.5678 80.8162 80.8231 80.5919 81.3371 80.1365 80.7006 80.2297 80.3832 80.2711 79.7467 80.3625L79.2533 78.898Z" fill="url(#fill46)" transform="matrix(1 0 0 1 2049 634)"/><path d="M79.2568 71.1613 78.7617 72.7604C78.1234 72.8501 77.8043 72.8915 77.1643 72.9778 77.6818 73.29 77.9389 73.4401 78.4546 73.7488L77.9613 75.3531 79.255 74.2249 80.5436 74.996C80.3452 74.4095 80.2486 74.1163 80.052 73.528 80.5695 73.0761 80.8248 72.8518 81.3388 72.3982L79.7484 72.6241 79.2568 71.1613Z" fill="url(#fill47)" transform="matrix(1 0 0 1 2049 634)"/><path d="M79.7398 95.8374 79.2481 94.3729 78.7531 95.9737C78.1165 96.0617 77.7957 96.1048 77.1592 96.1893L78.4495 96.9639 77.9544 98.5681C78.4719 98.1196 78.7324 97.8902 79.2481 97.4382L80.5367 98.2093 80.0434 96.7431 81.3319 95.6115C80.6954 95.7046 80.3849 95.7495 79.7398 95.8374Z" fill="url(#fill48)" transform="matrix(1 0 0 1 2049 634)"/><path d="M79.2585 63.4213 78.7634 65.0238C78.1252 65.1118 77.8043 65.1566 77.1643 65.2411L78.4598 66.0139 77.963 67.613 79.2585 66.49C79.776 66.7971 80.0313 66.9523 80.5471 67.2559 80.3504 66.6712 80.2504 66.3779 80.0554 65.7914 80.5729 65.3395 80.8265 65.1152 81.3406 64.6598 80.7058 64.753 80.3884 64.7995 79.7518 64.8875L79.2585 63.4213Z" fill="url(#fill49)" transform="matrix(1 0 0 1 2049 634)"/><path d="M79.2516 86.6363 78.7565 88.2371 77.1609 88.451 78.4512 89.2272 77.9578 90.8263 79.2499 89.7033 80.5384 90.4692 80.0468 89.0047C80.5643 88.5528 80.8196 88.3285 81.3337 87.8731 80.6989 87.968 80.3797 88.0111 79.7415 88.0991L79.2516 86.6363Z" fill="url(#fill50)" transform="matrix(1 0 0 1 2049 634)"/><path d="M70.0349 80.0779C69.84 80.7144 69.7434 81.0335 69.545 81.67L67.9529 81.8546C68.4703 82.1737 68.7274 82.3376 69.2414 82.655L68.7515 84.2455 70.0349 83.1449 71.3252 83.9384 70.8319 82.4653C71.3494 82.0237 71.6047 81.8011 72.1239 81.3595 71.4839 81.4389 71.1613 81.4768 70.5265 81.5527Z" fill="url(#fill51)" transform="matrix(1 0 0 1 2049 634)"/><path d="M56.2039 69.8779 55.7123 71.4511C55.0723 71.5063 54.7514 71.5339 54.1132 71.584L55.4052 72.4292 54.9136 74.0041C55.4311 73.5832 55.6881 73.3676 56.2039 72.945 56.7214 73.29 56.9767 73.447 57.4942 73.7799L57.0008 72.2912C57.5183 71.8669 57.7754 71.6478 58.2911 71.2234L56.6955 71.3683C56.4989 70.7698 56.4074 70.4748 56.2039 69.8779Z" fill="url(#fill52)" transform="matrix(1 0 0 1 2049 634)"/><path d="M60.8131 88.7977 60.3197 90.3795C59.6815 90.4399 59.3606 90.471 58.7207 90.5279L60.0144 91.3542 59.5193 92.936 60.8131 91.8648C61.3306 92.196 61.5893 92.3581 62.1068 92.6876L61.6118 91.2041C62.1292 90.7763 62.3863 90.5589 62.9038 90.1277L61.3082 90.2864C61.1098 89.6999 61.0097 89.3946 60.8131 88.7977Z" fill="url(#fill53)" transform="matrix(1 0 0 1 2049 634)"/><path d="M70.0349 87.8145 69.545 89.4066C68.9085 89.4808 68.5911 89.5205 67.9529 89.5912 68.4703 89.9138 68.7256 90.0742 69.2414 90.3916L68.7498 91.9803C69.2673 91.5422 69.5209 91.3231 70.0349 90.8832L71.3235 91.675 70.8319 90.2036C71.3494 89.7603 71.6047 89.5377 72.1239 89.0961 71.4839 89.1755 71.1613 89.2117 70.5265 89.2893 70.3557 88.8001 70.1918 88.3084 70.0349 87.8145Z" fill="url(#fill54)" transform="matrix(1 0 0 1 2049 634)"/><path d="M60.8131 73.3245 60.3197 74.9046 58.7207 75.0547 60.0144 75.8809 59.5193 77.4628C60.0368 77.0332 60.2973 76.8211 60.8131 76.3915 61.3306 76.721 61.5893 76.8832 62.1068 77.2144 61.9085 76.6192 61.8084 76.3225 61.6135 75.7274 62.131 75.2979 62.388 75.0857 62.9055 74.6527L61.3082 74.8097 60.8131 73.3245Z" fill="url(#fill55)" transform="matrix(1 0 0 1 2049 634)"/><path d="M60.8131 96.5361 60.3197 98.1162C59.6815 98.1783 59.3606 98.2076 58.7207 98.2662L60.0144 99.0925 59.5193 100.676 60.8131 99.6031 62.1068 100.428 61.6118 98.9407C62.1292 98.5129 62.3863 98.2973 62.9038 97.866L61.3082 98.0213 60.8131 96.5361Z" fill="url(#fill56)" transform="matrix(1 0 0 1 2049 634)"/><path d="M56.2039 77.6249 55.7123 79.1998C55.0723 79.2533 54.7549 79.2809 54.1149 79.3309 54.6324 79.6759 54.8894 79.8484 55.4052 80.1745L54.9136 81.7494 56.2039 80.692C56.7214 81.0266 56.9767 81.1939 57.4942 81.5251L57.0008 80.0365 58.2911 78.9704C57.6512 79.0308 57.332 79.0567 56.6955 79.1153Z" fill="url(#fill57)" transform="matrix(1 0 0 1 2049 634)"/><path d="M60.8148 65.5862 60.3197 67.168C59.6815 67.2301 59.3606 67.2577 58.7207 67.3163L60.0127 68.1443 59.5193 69.7227 60.8148 68.6532C61.3323 68.9792 61.5876 69.1483 62.1068 69.476L61.6135 67.9908C62.131 67.563 62.388 67.3456 62.9072 66.9144 62.2673 66.9782 61.9481 67.0127 61.3082 67.0731L60.8148 65.5862Z" fill="url(#fill58)" transform="matrix(1 0 0 1 2049 634)"/><path d="M60.8131 81.0611 60.3197 82.6412 58.7207 82.7999 60.0144 83.6279 59.5211 85.2097 60.8131 84.1368 62.1068 84.9596 61.6135 83.4744 62.9055 82.398C62.2673 82.4635 61.9481 82.4946 61.3082 82.5567 61.1115 81.9512 61.0115 81.658 60.8131 81.0611Z" fill="url(#fill59)" transform="matrix(1 0 0 1 2049 634)"/><path d="M70.5179 97.0294C70.3213 96.4412 70.2247 96.1428 70.0263 95.5528L69.5364 97.145C68.8999 97.2226 68.5825 97.2554 67.9442 97.3278L69.2311 98.1282 68.7412 99.7204C69.2587 99.2823 69.5122 99.058 70.0263 98.6181 70.5438 98.9373 70.8008 99.0977 71.3166 99.4134L70.8232 97.9402 72.1153 96.8328Z" fill="url(#fill60)" transform="matrix(1 0 0 1 2049 634)"/><path d="M65.9191 93.6812 65.4257 92.1994 64.9306 93.7881 63.335 93.9606 64.6271 94.7766 64.1337 96.3618 65.4275 95.2768 66.7177 96.0876 66.2227 94.6075C66.7402 94.1728 66.9989 93.952 67.5147 93.5139 66.8764 93.5777 66.5573 93.6139 65.9191 93.6812Z" fill="url(#fill61)" transform="matrix(1 0 0 1 2049 634)"/><path d="M65.4275 68.9896 64.9341 70.5748C64.2958 70.6438 63.975 70.6714 63.3368 70.7473L64.6288 71.565 64.1354 73.1503 65.4292 72.0652 66.7195 72.8743 66.2244 71.3959 67.5164 70.304 65.9208 70.4765 65.4275 68.9896Z" fill="url(#fill62)" transform="matrix(1 0 0 1 2049 634)"/><path d="M65.4257 84.4645 64.9324 86.0498 63.335 86.2223 64.6288 87.0365 64.1354 88.6218 65.4275 87.5402 66.7195 88.3458 66.2244 86.8692 67.5164 85.7773C66.8782 85.8462 66.5573 85.8842 65.9208 85.9498L65.4257 84.4645Z" fill="url(#fill63)" transform="matrix(1 0 0 1 2049 634)"/><path d="M65.4275 76.7262C65.2308 77.3627 65.1308 77.6767 64.9324 78.3132 64.2958 78.3822 63.9733 78.4115 63.335 78.4771L64.6288 79.2913 64.1354 80.8765 65.4275 79.795 66.7195 80.6023 66.2244 79.1239C66.7419 78.6892 67.0006 78.4684 67.5164 78.032 66.8799 78.1045 66.559 78.1372 65.9208 78.2045Z" fill="url(#fill64)" transform="matrix(1 0 0 1 2049 634)"/></g></g></g><g clip-path="url(#clip65)"><g clip-path="url(#clip66)"><g clip-path="url(#clip67)"><path d="M1981 701.5C1981 737.675 1951.67 767 1915.5 767 1879.33 767 1850 737.675 1850 701.5 1850 665.325 1879.33 636 1915.5 636 1951.67 636 1981 665.325 1981 701.5Z" fill="#172852"/><path d="M1902.76 665.272C1910.43 662.403 1919.06 662.396 1926.88 664.754 1937.05 667.912 1945.64 675.588 1950.12 685.223 1951.36 687.968 1952.55 690.83 1952.66 693.882 1946.95 690.568 1940.68 688.42 1934.4 686.461 1924.35 682.839 1913.83 680.324 1904.32 675.346 1902.11 674.023 1899.28 672.667 1898.68 669.909 1898.44 667.525 1900.96 666.195 1902.76 665.272" fill="#FFD83D"/><path d="M1879.61 688.459C1881.83 682.433 1885.47 676.839 1890.41 672.693 1891.67 683.035 1896.07 693.031 1903.34 700.55 1912.06 709.609 1924.48 715.17 1937.12 714.96 1942.13 715.117 1947.04 713.958 1951.93 713.021 1947.12 730.418 1928.05 741.966 1910.38 739.189 1899.72 737.826 1889.88 731.512 1883.94 722.597 1877.23 712.746 1875.55 699.666 1879.61 688.459Z" fill="#FFD83D"/><path d="M1934.4 686.461C1940.68 688.42 1946.95 690.568 1952.66 693.882L1953.05 694.085C1953.58 698.074 1953.97 702.142 1953.26 706.137 1950.39 704.919 1948.05 702.777 1945.62 700.884 1940.93 696.98 1936.14 692.513 1934.4 686.461" fill="#FF6F03"/></g></g></g></g></svg>