<svg width="715" height="716" xmlns="http://www.w3.org/2000/svg" xmlns:xlink="http://www.w3.org/1999/xlink" xml:space="preserve" overflow="hidden"><defs><clipPath id="clip0"><rect x="190" y="926" width="715" height="716"/></clipPath><linearGradient x1="26.9431" y1="356.948" x2="688.284" y2="356.948" gradientUnits="userSpaceOnUse" spreadMethod="pad" id="fill1"><stop offset="0" stop-color="#008EF0"/><stop offset="0.00127816" stop-color="#008EF0"/><stop offset="1" stop-color="#7FFDFF"/></linearGradient><clipPath id="clip2"><rect x="380" y="1052" width="329" height="287"/></clipPath><clipPath id="clip3"><rect x="380" y="1052" width="329" height="287"/></clipPath><clipPath id="clip4"><rect x="380" y="1052" width="329" height="287"/></clipPath><clipPath id="clip5"><rect x="579" y="1409" width="132" height="131"/></clipPath><clipPath id="clip6"><rect x="579" y="1409" width="132" height="131"/></clipPath><clipPath id="clip7"><rect x="579" y="1409" width="132" height="131"/></clipPath><clipPath id="clip8"><rect x="386" y="1409" width="135" height="135"/></clipPath><clipPath id="clip9"><rect x="386" y="1409" width="135" height="135"/></clipPath><clipPath id="clip10"><rect x="386" y="1409" width="135" height="135"/></clipPath></defs><g clip-path="url(#clip0)" transform="translate(-190 -926)"><path d="M591.437 123.125C528.981 60.6688 445.948 26.2694 357.619 26.2694 269.29 26.2694 186.244 60.6688 123.788 123.125 61.3311 185.582 26.9449 268.628 26.9449 356.944 26.9449 445.26 61.3444 528.306 123.788 590.762 186.231 653.219 269.277 687.618 357.606 687.618 445.935 687.618 528.968 653.219 591.424 590.762 653.881 528.306 688.28 445.273 688.28 356.944 688.28 268.615 653.894 185.582 591.437 123.125Z" fill="url(#fill1)" transform="matrix(1 0 0 1.0014 190 926)"/><path d="M357.619 714.444C262.127 714.444 172.355 677.264 104.827 609.736 37.2992 542.208 0.119121 452.436 0.119121 356.944 0.119121 261.452 37.2992 171.679 104.827 104.152 172.355 36.624 262.127-0.556008 357.619-0.556008 453.111-0.556008 542.884 36.624 610.411 104.152 677.939 171.679 715.119 261.452 715.119 356.944 715.119 452.436 677.939 542.208 610.411 609.736 542.884 677.264 453.111 714.444 357.619 714.444ZM357.619 26.283C269.29 26.283 186.257 60.6824 123.801 123.139 61.3444 185.595 26.9449 268.628 26.9449 356.944 26.9449 445.26 61.3444 528.306 123.788 590.762 186.231 653.219 269.277 687.618 357.606 687.618 445.935 687.618 528.968 653.219 591.424 590.762 653.881 528.306 688.28 445.273 688.28 356.944 688.28 268.615 653.881 185.582 591.424 123.126 528.968 60.6692 445.935 26.283 357.619 26.283Z" fill="#FFFFFF" transform="matrix(1 0 0 1.0014 190 926)"/><g clip-path="url(#clip2)"><g clip-path="url(#clip3)"><g clip-path="url(#clip4)"><path d="M240.488 284.964C229.705 284.964 218.936 282.761 208.868 278.339 188.424 269.365 172.709 252.045 165.763 230.828L163.108 222.715 160.452 230.828C153.506 252.045 137.791 269.365 117.348 278.354 96.9044 287.328 73.5283 287.182 53.2018 277.945L24.5872 264.944C9.61601 258.144 0 243.217 0 226.772L0 121.565C0 113.714 5.64704 107.002 13.3807 105.674 58.5279 97.882 110.3 93.7526 163.108 93.7526 180.37 93.7526 197.515 94.1903 214.354 95.0512 232.214 95.9705 245.727 111.598 244.18 129.43 218.002 127.168 190.73 126.015 163.108 126.015 117.275 126.015 72.3609 129.211 32.248 135.296L32.248 226.786C32.248 230.58 34.4659 234.024 37.9242 235.6L65.2839 248.047C77.5556 253.621 91.7389 254.321 104.113 248.966 116.472 243.611 125.592 233.615 129.78 220.833L135.193 204.286C139.133 192.233 150.135 183.478 162.816 183.376 175.715 183.259 186.673 191.138 190.672 203.366L195.968 219.534C200.171 232.346 209.232 243.246 221.533 248.747 233.834 254.248 247.39 254.204 259.633 248.63L288.247 235.629C291.705 234.053 293.923 230.609 293.923 226.816L293.923 0 326.186 0 326.186 226.743C326.186 243.188 316.57 258.115 301.599 264.915L272.984 277.916C262.711 282.615 251.607 284.964 240.488 284.964Z" fill="#FFFFFF" transform="matrix(1.00044 0 0 1 381 1053)"/></g></g></g><g clip-path="url(#clip5)"><g clip-path="url(#clip6)"><g clip-path="url(#clip7)"><path d="M645.5 1409C681.674 1409 711 1438.33 711 1474.5L711 1474.5C711 1510.67 681.674 1540 645.5 1540L645.5 1540C609.325 1540 580 1510.67 580 1474.5L580 1474.5C580 1438.33 609.325 1409 645.5 1409Z"/><path d="M631.155 1445.75C629.712 1443.82 627.142 1443.01 624.793 1443.74 622.444 1444.47 620.851 1446.57 620.851 1448.95L620.851 1459.9 607.579 1459.9 607.579 1470.85 620.851 1470.85 620.851 1478.15 607.579 1478.15 607.579 1489.1 620.851 1489.1 620.851 1505.53 632.227 1505.53 632.227 1465.92 659.845 1502.83C661.288 1504.75 663.858 1505.57 666.207 1504.84 668.556 1504.11 670.149 1502 670.149 1499.63L670.149 1489.1 683.421 1489.1 683.421 1478.15 670.149 1478.15 670.149 1470.85 683.421 1470.85 683.421 1459.9 670.149 1459.9 670.149 1443.47 658.772 1443.47 658.772 1482.66 631.155 1445.75Z" fill="#FFFFFF"/></g></g></g><g clip-path="url(#clip8)"><g clip-path="url(#clip9)"><g clip-path="url(#clip10)"><path d="M453 1409 453 1409C489.99 1409 520 1439.01 520 1476L520 1476C520 1512.99 489.99 1543 453 1543L453 1543C416.01 1543 386 1512.99 386 1476L386 1476C386 1439.01 416.01 1409 453 1409Z" fill="#70D44B"/><path d="M453 1436.36C456.536 1436.36 459.747 1438.36 461.329 1441.52L487.477 1493.87C489.757 1498.47 487.896 1504.06 483.29 1506.34 481.987 1506.99 480.591 1507.31 479.149 1507.31L426.851 1507.31C421.733 1507.31 417.546 1503.13 417.546 1498.01 417.546 1496.57 417.872 1495.12 418.523 1493.87L444.672 1441.52C446.254 1438.31 449.464 1436.31 453 1436.36M453 1429.94C447.044 1429.94 441.601 1433.29 438.949 1438.64L412.8 1490.98C408.938 1498.75 412.056 1508.15 419.826 1512.06 422.013 1513.13 424.432 1513.73 426.851 1513.73L479.195 1513.73C487.849 1513.73 494.922 1506.71 494.922 1498.05 494.922 1495.63 494.363 1493.22 493.247 1491.03L467.051 1438.64C464.399 1433.29 458.956 1429.94 453 1429.94Z" fill="#FFFFFF"/></g></g></g></g></svg>