<svg width="716" height="716" xmlns="http://www.w3.org/2000/svg" xmlns:xlink="http://www.w3.org/1999/xlink" xml:space="preserve" overflow="hidden"><defs><clipPath id="clip0"><rect x="3334" y="152" width="716" height="716"/></clipPath><linearGradient x1="3360.98" y1="509.447" x2="4023.25" y2="509.447" gradientUnits="userSpaceOnUse" spreadMethod="pad" id="fill1"><stop offset="0" stop-color="#008EF0"/><stop offset="0.00127816" stop-color="#008EF0"/><stop offset="1" stop-color="#7FFDFF"/></linearGradient><clipPath id="clip2"><rect x="3525" y="280" width="329" height="286"/></clipPath><clipPath id="clip3"><rect x="3525" y="280" width="329" height="286"/></clipPath><clipPath id="clip4"><rect x="3525" y="280" width="329" height="286"/></clipPath><clipPath id="clip5"><rect x="3709" y="643" width="144" height="125"/></clipPath><clipPath id="clip6"><rect x="3709" y="643" width="144" height="125"/></clipPath><clipPath id="clip7"><rect x="3709" y="643" width="144" height="125"/></clipPath><clipPath id="clip8"><rect x="3521" y="638" width="129" height="129"/></clipPath><clipPath id="clip9"><rect x="3521" y="638" width="129" height="129"/></clipPath><clipPath id="clip10"><rect x="3521" y="638" width="129" height="129"/></clipPath></defs><g clip-path="url(#clip0)" transform="translate(-3334 -152)"><path d="M3926.26 275.298C3863.72 212.754 3780.57 178.306 3692.12 178.306 3603.67 178.306 3520.5 212.754 3457.96 275.298 3395.42 337.842 3360.98 421.004 3360.98 509.443 3360.98 597.882 3395.43 681.044 3457.96 743.588 3520.49 806.132 3603.65 840.58 3692.11 840.58 3780.56 840.58 3863.71 806.132 3926.25 743.588 3988.8 681.044 4023.24 597.896 4023.24 509.443 4023.24 420.991 3988.81 337.842 3926.26 275.298Z" fill="url(#fill1)"/><path d="M3692.12 867.443C3596.49 867.443 3506.6 830.211 3438.97 762.589 3371.35 694.967 3334.12 605.069 3334.12 509.443 3334.12 413.817 3371.35 323.919 3438.97 256.297 3506.6 188.675 3596.49 151.443 3692.12 151.443 3787.75 151.443 3877.64 188.675 3945.27 256.297 4012.89 323.919 4050.12 413.817 4050.12 509.443 4050.12 605.069 4012.89 694.967 3945.27 762.589 3877.64 830.211 3787.75 867.443 3692.12 867.443ZM3692.12 178.32C3603.67 178.32 3520.52 212.767 3457.97 275.311 3395.43 337.855 3360.98 421.004 3360.98 509.443 3360.98 597.882 3395.43 681.044 3457.96 743.588 3520.49 806.132 3603.65 840.58 3692.11 840.58 3780.56 840.58 3863.71 806.132 3926.25 743.588 3988.8 681.044 4023.24 597.896 4023.24 509.443 4023.24 420.991 3988.8 337.842 3926.25 275.298 3863.71 212.754 3780.56 178.32 3692.12 178.32Z" fill="#FFFFFF"/><g clip-path="url(#clip2)"><g clip-path="url(#clip3)"><g clip-path="url(#clip4)"><path d="M239.647 283.968C228.901 283.968 218.17 281.772 208.137 277.366 187.766 268.423 172.105 251.163 165.184 230.021L162.537 221.936 159.891 230.021C152.969 251.163 137.309 268.423 116.937 277.381 96.5656 286.323 73.2712 286.178 53.0158 276.973L24.5013 264.018C9.58238 257.242 0 242.366 0 225.979L0 121.14C0 113.317 5.6273 106.628 13.3339 105.305 58.3232 97.5398 109.914 93.4247 162.537 93.4247 179.739 93.4247 196.824 93.861 213.605 94.7189 231.403 95.6349 244.867 111.208 243.326 128.977 217.24 126.723 190.063 125.574 162.537 125.574 116.865 125.574 72.1079 128.759 32.1352 134.822L32.1352 225.993C32.1352 229.774 34.3454 233.206 37.7916 234.776L65.0556 247.179C77.2844 252.734 91.4181 253.432 103.749 248.095 116.065 242.759 125.153 232.798 129.326 220.061L134.721 203.571C138.647 191.561 149.61 182.836 162.246 182.734 175.1 182.618 186.021 190.47 190.005 202.655L195.283 218.767C199.471 231.533 208.501 242.395 220.759 247.877 233.017 253.359 246.525 253.316 258.725 247.761L287.239 234.805C290.685 233.235 292.896 229.803 292.896 226.022L292.896 0 325.045 0 325.045 225.95C325.045 242.337 315.463 257.212 300.544 263.988L272.03 276.944C261.793 281.626 250.727 283.968 239.647 283.968Z" fill="#FFFFFF" transform="matrix(1.00395 0 0 1 3526 280)"/></g></g></g><g clip-path="url(#clip5)"><g clip-path="url(#clip6)"><g clip-path="url(#clip7)"><path d="M26.1835 0.610877 0.109537 55.3792C-0.0941191 55.7973-0.00191368 56.2993 0.337036 56.6178L70.7564 124.097C71.172 124.495 71.828 124.495 72.2436 124.097L142.663 56.622C143.002 56.3035 143.094 55.8015 142.89 55.3834L116.817 0.61509C116.645 0.239426 116.269-0.00108802 115.856 1.60711e-08L27.1524 0C26.7373-0.0051651 26.3578 0.23406 26.1835 0.610877L26.1835 0.610877Z" fill="#50AF95" fill-rule="evenodd" transform="matrix(1 0 0 1.0045 3709 643.022)"/><path d="M80.5473 61.0034 80.5473 61.0034C80.0417 61.0414 77.4297 61.1972 71.6032 61.1972 66.969 61.1972 63.6787 61.0582 62.5243 61.0034L62.5243 61.0034C44.6151 60.2156 31.2474 57.098 31.2474 53.3654 31.2474 49.6327 44.6151 46.5193 62.5243 45.7189L62.5243 57.8985C63.6955 57.9828 67.049 58.1808 71.6833 58.1808 77.2444 58.1808 80.0291 57.9491 80.5304 57.9027L80.5304 45.7273C98.4018 46.5236 111.74 49.6411 111.74 53.3654 111.74 57.0896 98.406 60.2072 80.5304 60.9992L80.5304 60.9992ZM80.5473 44.4676 80.5473 33.5687 105.488 33.5687 105.488 16.9487 37.5837 16.9487 37.5837 33.5687 62.5201 33.5687 62.5201 44.4634C42.2516 45.3945 27.0092 49.4094 27.0092 54.2206 27.0092 59.0318 42.2516 63.0425 62.5201 63.9778L62.5201 98.9031 80.5431 98.9031 80.5431 63.9651C100.765 63.0341 115.982 59.0234 115.982 54.2164 115.982 49.4094 100.778 45.3987 80.5431 44.4634L80.5431 44.4634ZM80.5473 44.4676 80.5473 44.4676Z" fill="#FFFFFF" fill-rule="evenodd" transform="matrix(1 0 0 1.0045 3709 643.022)"/></g></g></g><g clip-path="url(#clip8)"><g clip-path="url(#clip9)"><g clip-path="url(#clip10)"><path d="M3650 702.5C3650 738.122 3621.12 767 3585.5 767 3549.88 767 3521 738.122 3521 702.5 3521 666.878 3549.88 638 3585.5 638 3621.12 638 3650 666.878 3650 702.5Z" fill="#1969FF" fill-rule="evenodd"/><path d="M3581.59 658.512C3583.76 657.366 3587.07 657.366 3589.24 658.512L3611.42 670.202C3612.72 670.891 3613.44 671.92 3613.57 672.981L3613.59 672.981 3613.59 731.74C3613.56 732.898 3612.84 734.048 3611.42 734.798L3589.24 746.488C3587.07 747.634 3583.76 747.634 3581.59 746.488L3559.41 734.798C3558 734.051 3557.32 732.893 3557.28 731.74 3557.28 731.622 3557.28 731.525 3557.28 731.444L3557.28 673.377C3557.28 673.295 3557.28 673.214 3557.28 673.133L3557.28 672.981 3557.29 672.981C3557.39 671.908 3558.08 670.906 3559.41 670.202L3581.59 658.512ZM3610.07 705.649 3589.23 716.667C3587.06 717.815 3583.76 717.815 3581.59 716.667L3560.81 705.674 3560.81 731.559 3581.59 742.494C3582.82 743.151 3584.1 743.791 3585.34 743.819L3585.41 743.82C3586.66 743.824 3587.86 743.193 3589.08 742.596L3610.07 731.465 3610.07 705.649ZM3553.81 730.467C3553.81 732.719 3554.07 734.2 3554.58 735.243 3555.01 736.107 3555.65 736.768 3556.82 737.572L3556.89 737.617C3557.14 737.792 3557.43 737.975 3557.77 738.19L3558.18 738.441 3559.42 739.2 3557.63 742.183 3556.24 741.332 3556 741.187C3555.6 740.936 3555.27 740.72 3554.96 740.508 3551.62 738.24 3550.38 735.767 3550.35 730.623L3550.35 730.467 3553.81 730.467ZM3583.74 690.028C3583.57 690.084 3583.42 690.148 3583.29 690.221L3561.15 701.949C3561.12 701.961 3561.1 701.973 3561.08 701.985L3561.06 701.996 3561.1 702.016 3561.15 702.043 3583.29 713.771C3583.42 713.844 3583.57 713.908 3583.74 713.964L3583.74 690.028ZM3587.26 690.028 3587.26 713.964C3587.43 713.908 3587.58 713.844 3587.71 713.771L3609.85 702.043C3609.88 702.031 3609.9 702.019 3609.92 702.007L3609.94 701.996 3609.9 701.976 3609.85 701.949 3587.71 690.221C3587.58 690.148 3587.43 690.084 3587.26 690.028ZM3610.07 677.179 3590.16 687.635 3610.07 698.091 3610.07 677.179ZM3560.81 677.179 3560.81 698.091 3580.71 687.635 3560.81 677.179ZM3587.69 661.637C3586.54 661.027 3584.46 661.027 3583.31 661.637L3561.15 673.352C3561.12 673.364 3561.1 673.376 3561.08 673.389L3561.06 673.399 3561.1 673.419 3561.15 673.447 3583.31 685.162C3584.46 685.771 3586.54 685.771 3587.69 685.162L3609.85 673.447C3609.88 673.434 3609.9 673.422 3609.92 673.41L3609.94 673.399 3609.9 673.379 3609.85 673.352 3587.69 661.637ZM3613.37 662.817 3614.76 663.668 3615 663.813C3615.4 664.064 3615.73 664.28 3616.04 664.492 3619.38 666.76 3620.62 669.233 3620.65 674.376L3620.65 674.533 3617.19 674.533C3617.19 672.281 3616.93 670.8 3616.42 669.757 3615.99 668.893 3615.35 668.232 3614.18 667.428L3614.11 667.382C3613.86 667.208 3613.57 667.025 3613.23 666.81L3612.82 666.559 3611.58 665.8 3613.37 662.817Z" fill="#FFFFFF"/></g></g></g></g></svg>