<svg width="715" height="715" xmlns="http://www.w3.org/2000/svg" xmlns:xlink="http://www.w3.org/1999/xlink" xml:space="preserve" overflow="hidden"><defs><clipPath id="clip0"><rect x="210" y="1700" width="715" height="715"/></clipPath><linearGradient x1="236.943" y1="2056.95" x2="898.284" y2="2056.95" gradientUnits="userSpaceOnUse" spreadMethod="pad" id="fill1"><stop offset="0" stop-color="#008EF0"/><stop offset="0.00127816" stop-color="#008EF0"/><stop offset="1" stop-color="#7FFDFF"/></linearGradient><clipPath id="clip2"><rect x="401" y="1827" width="328" height="287"/></clipPath><clipPath id="clip3"><rect x="401" y="1827" width="328" height="287"/></clipPath><clipPath id="clip4"><rect x="401" y="1827" width="328" height="287"/></clipPath><clipPath id="clip5"><rect x="588" y="2176" width="135" height="136"/></clipPath><clipPath id="clip6"><rect x="588" y="2176" width="135" height="136"/></clipPath><clipPath id="clip7"><rect x="588" y="2176" width="135" height="136"/></clipPath><linearGradient x1="188.298" y1="187.823" x2="1.37246" y2="-41.0975" gradientUnits="userSpaceOnUse" spreadMethod="pad" id="fill8"><stop offset="0" stop-color="#645AFF"/><stop offset="0.520746" stop-color="#E40C5B"/><stop offset="0.985908" stop-color="#FF4C3B"/><stop offset="1" stop-color="#FF4C3B"/></linearGradient><linearGradient x1="71.6343" y1="-55.0518" x2="243.391" y2="-17.3163" gradientUnits="userSpaceOnUse" spreadMethod="pad" id="fill9"><stop offset="0" stop-color="#FFFFFF" stop-opacity="0.2"/><stop offset="1" stop-color="#FFFFFF" stop-opacity="0"/></linearGradient><clipPath id="clip10"><rect x="366" y="2135" width="217" height="218"/></clipPath><clipPath id="clip11"><rect x="366" y="2135" width="217" height="218"/></clipPath><clipPath id="clip12"><rect x="366" y="2135" width="217" height="218"/></clipPath><linearGradient x1="217" y1="188.416" x2="120.543" y2="34.7657" gradientUnits="userSpaceOnUse" spreadMethod="pad" id="fill13"><stop offset="0" stop-color="#E40C5B"/><stop offset="1" stop-color="#FF4C3B"/></linearGradient><linearGradient x1="217" y1="188.416" x2="120.543" y2="34.7657" gradientUnits="userSpaceOnUse" spreadMethod="pad" id="fill14"><stop offset="0" stop-color="#E40C5B"/><stop offset="1" stop-color="#FF4C3B"/></linearGradient></defs><g clip-path="url(#clip0)" transform="translate(-210 -1700)"><path d="M801.437 1823.13C738.981 1760.67 655.948 1726.27 567.619 1726.27 479.29 1726.27 396.244 1760.67 333.788 1823.13 271.331 1885.58 236.945 1968.63 236.945 2056.94 236.945 2145.26 271.344 2228.31 333.788 2290.76 396.231 2353.22 479.277 2387.62 567.606 2387.62 655.935 2387.62 738.968 2353.22 801.424 2290.76 863.881 2228.31 898.28 2145.27 898.28 2056.94 898.28 1968.61 863.894 1885.58 801.437 1823.13Z" fill="url(#fill1)"/><path d="M567.619 2414.44C472.127 2414.44 382.355 2377.26 314.827 2309.74 247.299 2242.21 210.119 2152.44 210.119 2056.94 210.119 1961.45 247.299 1871.68 314.827 1804.15 382.355 1736.62 472.127 1699.44 567.619 1699.44 663.111 1699.44 752.884 1736.62 820.411 1804.15 887.939 1871.68 925.119 1961.45 925.119 2056.94 925.119 2152.44 887.939 2242.21 820.411 2309.74 752.884 2377.26 663.111 2414.44 567.619 2414.44ZM567.619 1726.28C479.29 1726.28 396.258 1760.68 333.801 1823.14 271.344 1885.6 236.945 1968.63 236.945 2056.94 236.945 2145.26 271.344 2228.31 333.788 2290.76 396.231 2353.22 479.277 2387.62 567.606 2387.62 655.935 2387.62 738.968 2353.22 801.424 2290.76 863.881 2228.31 898.28 2145.27 898.28 2056.94 898.28 1968.61 863.881 1885.58 801.424 1823.13 738.968 1760.67 655.935 1726.28 567.619 1726.28Z" fill="#FFFFFF"/><g clip-path="url(#clip2)"><g clip-path="url(#clip3)"><g clip-path="url(#clip4)"><path d="M240.488 284.964C229.705 284.964 218.936 282.761 208.868 278.339 188.424 269.365 172.709 252.045 165.763 230.828L163.108 222.715 160.452 230.828C153.506 252.045 137.791 269.365 117.348 278.354 96.9044 287.328 73.5283 287.182 53.2018 277.945L24.5872 264.944C9.61601 258.144 0 243.217 0 226.772L0 121.565C0 113.714 5.64704 107.002 13.3807 105.674 58.5279 97.882 110.3 93.7526 163.108 93.7526 180.37 93.7526 197.515 94.1903 214.354 95.0512 232.214 95.9705 245.727 111.598 244.18 129.43 218.002 127.168 190.73 126.015 163.108 126.015 117.275 126.015 72.3609 129.211 32.248 135.296L32.248 226.786C32.248 230.58 34.4659 234.024 37.9242 235.6L65.2839 248.047C77.5556 253.621 91.7389 254.321 104.113 248.966 116.472 243.611 125.592 233.615 129.78 220.833L135.193 204.286C139.133 192.233 150.135 183.478 162.816 183.376 175.715 183.259 186.673 191.138 190.672 203.366L195.968 219.534C200.171 232.346 209.232 243.246 221.533 248.747 233.834 254.248 247.39 254.204 259.633 248.63L288.247 235.629C291.705 234.053 293.923 230.609 293.923 226.816L293.923 0 326.186 0 326.186 226.743C326.186 243.188 316.57 258.115 301.599 264.915L272.984 277.916C262.711 282.615 251.607 284.964 240.488 284.964Z" fill="#FFFFFF" transform="matrix(1.00044 0 0 1 401 1827)"/></g></g></g><g clip-path="url(#clip5)"><g clip-path="url(#clip6)"><g clip-path="url(#clip7)"><path d="M134 67C134 104.003 104.003 134 67 134 29.9969 134-7.4385e-15 104.003-7.4385e-15 67-2.23155e-14 29.9969 29.9969-7.4385e-15 67-7.4385e-15 104.003-2.23155e-14 134 29.9969 134 67Z" fill="url(#fill8)" transform="matrix(1.00746 0 0 1 588 2177)"/><path d="M134 67C134 104.003 104.003 134 67 134 29.9969 134-7.4385e-15 104.003-7.4385e-15 67-2.23155e-14 29.9969 29.9969-7.4385e-15 67-7.4385e-15 104.003-2.23155e-14 134 29.9969 134 67Z" fill="url(#fill9)" transform="matrix(1.00746 0 0 1 588 2177)"/><path d="M126.311 67C126.311 99.7563 99.7571 126.31 67.0008 126.31 34.2446 126.31 7.69035 99.7563 7.69035 67 7.69035 34.2438 34.2446 7.68956 67.0008 7.68956 99.7571 7.68956 126.311 34.2438 126.311 67Z" stroke="#FFFFFF" stroke-width="2.61719" fill="none" transform="matrix(1.00746 0 0 1 588 2177)"/><path d="M54.7283 87.3254 54.7283 102.784C54.7283 104.536 54.3564 106.056 53.6129 107.342 52.8693 108.619 51.8025 109.592 50.4126 110.262 49.0226 110.933 47.3792 111.268 45.4826 111.268 42.6162 111.268 40.3586 110.522 38.7101 109.029 37.0612 107.537 36.2208 105.493 36.1884 102.898L36.1884 87.3254 41.8944 87.3254 41.8944 103.011C41.959 105.596 43.1551 106.888 45.4826 106.888 46.6571 106.888 47.5462 106.564 48.1497 105.915 48.753 105.266 49.0548 104.212 49.0548 102.752L49.0548 87.3254 54.7283 87.3254Z" fill="#FFFFFF" transform="matrix(1.00746 0 0 1 588 2177)"/><path d="M70.4231 104.666C70.4231 103.833 70.1268 103.184 69.534 102.719 68.9522 102.254 67.9231 101.773 66.4468 101.276 64.9707 100.778 63.7636 100.297 62.8261 99.8319 59.7766 98.3288 58.2518 96.2633 58.2518 93.6354 58.2518 92.3268 58.629 91.1753 59.3832 90.1802 60.1485 89.1744 61.226 88.3958 62.616 87.8444 64.0062 87.2819 65.5687 87.0008 67.3036 87.0008 68.9954 87.0008 70.5094 87.3037 71.8455 87.9093 73.1926 88.5149 74.2379 89.3801 74.9811 90.5047 75.7247 91.6186 76.0966 92.8948 76.0966 94.3329L70.4393 94.3329C70.4393 93.3706 70.143 92.6244 69.5502 92.0944 68.9684 91.5644 68.1765 91.2996 67.1743 91.2996 66.1612 91.2996 65.3585 91.5267 64.7657 91.9808 64.1839 92.4242 63.8929 92.9919 63.8929 93.6841 63.8929 94.2897 64.2164 94.8412 64.8628 95.3387 65.5093 95.8252 66.6462 96.3335 68.2733 96.8635 69.9004 97.3825 71.2367 97.9449 72.282 98.5505 74.8249 100.021 76.0966 102.049 76.0966 104.633 76.0966 106.699 75.3206 108.321 73.7689 109.5 72.2174 110.679 70.0891 111.268 67.3842 111.268 65.4771 111.268 63.7477 110.927 62.1959 110.246 60.6549 109.554 59.4911 108.613 58.7046 107.424 57.9286 106.223 57.5407 104.844 57.5407 103.287L63.2302 103.287C63.2302 104.552 63.5535 105.488 64.2002 106.094 64.8573 106.688 65.9189 106.985 67.3842 106.985 68.322 106.985 69.06 106.785 69.5989 106.385 70.1482 105.974 70.4231 105.401 70.4231 104.666Z" fill="#FFFFFF" transform="matrix(1.00746 0 0 1 588 2177)"/><path d="M79.0061 110.944 79.0061 87.3254 86.5868 87.3254C88.6664 87.3254 90.5361 87.8012 92.1954 88.7528 93.855 89.6937 95.1482 91.0292 96.0749 92.7595 97.0124 94.4789 97.4864 96.4094 97.4973 98.5505L97.4973 99.6374C97.4973 101.8 97.0393 103.741 96.1233 105.461 95.218 107.169 93.9359 108.51 92.2763 109.484 90.6277 110.446 88.785 110.933 86.7483 110.944L79.0061 110.944ZM84.6794 91.7212 84.6794 106.564 86.6515 106.564C88.2786 106.564 89.5285 105.985 90.4014 104.828 91.2742 103.66 91.7107 101.93 91.7107 99.6374L91.7107 98.6154C91.7107 96.3335 91.2742 94.614 90.4014 93.4569 89.5285 92.2999 88.2571 91.7212 86.5868 91.7212L84.6794 91.7212Z" fill="#FFFFFF" transform="matrix(1.00746 0 0 1 588 2177)"/><path d="M66.9513 60.1893C64.6223 60.187 62.2975 60.3819 60.0011 60.7724L63.4611 54.7652C64.6275 54.6862 65.794 54.6466 66.9513 54.6466 69.673 54.6485 72.3901 54.8667 75.0772 55.2996L61.6843 31.987 39.3766 70.8041 36.1884 65.2551 61.633 20.9623 61.6843 21.0534 61.7356 20.9654 92.4441 74.4182 86.0681 74.4182 78.891 61.9266C75.0178 60.7604 70.9946 60.1741 66.9513 60.1864L66.9513 60.1893ZM94.4174 70.8952 64.688 19.1431 71.0643 19.1431 97.6054 65.3462 94.4174 70.8952ZM64.9118 44.6791 52.7031 65.9385C57.0728 64.6145 62.2132 64.0222 67.0631 64.0222 67.4562 64.0222 67.849 64.0222 68.2419 64.0374 70.996 64.1028 73.7403 64.3894 76.4491 64.8937L80.5228 71.9855C76.2123 70.3898 71.6568 69.5675 67.0631 69.5557 60.3704 69.5319 53.7772 71.1854 47.8802 74.3666L47.971 74.2057 47.8469 74.4182 41.4707 74.4182 61.7447 39.1301 64.9118 44.6791Z" fill="#FFFFFF" fill-rule="evenodd" transform="matrix(1.00746 0 0 1 588 2177)"/></g></g></g><g clip-path="url(#clip10)"><g clip-path="url(#clip11)"><g clip-path="url(#clip12)"><path d="M133.929 54.25 97.9737 87.5319C94.2512 90.9841 89.4065 92.8923 84.3779 92.9164L73.6609 92.9397 73.6262 54.25 54.25 54.25 54.25 164.817 64.8168 164.817C70.7244 164.817 76.239 161.624 79.1293 156.382 79.1524 156.347 79.1639 156.311 79.187 156.288 81.1062 152.777 82.0658 145.838 81.8808 141.102 81.4646 130.275 79.7535 127.459 79.7535 127.459 79.3952 134.881 71.788 135.281 71.788 135.281 77.1986 130.016 74.2505 126.033 74.2505 126.033 64.6664 132.985 62.2733 125.562 62.0883 124.89 62.3889 125.15 65.1173 127.471 70.2966 120.237 75.7765 112.591 83.0831 99.8432 87.7308 96.5684 92.3894 93.2815 96.8061 93.5528 96.8061 93.5528 96.8061 93.5528 99.3498 90.0412 106.078 87.1194 112.806 84.2216 117.119 88.4748 117.119 88.4748 110.24 94.1297 100.899 103.413 100.378 116.714 99.962 127.482 122.738 145.956 118.737 173.241 121.131 167.044 122.09 160.836 121.269 153.154 120.61 146.957 116.691 134.009 116.691 134.009L138.564 164.805 162.75 164.805 115.477 98.6299 162.75 54.25 133.929 54.25Z" fill="url(#fill13)" transform="matrix(1 0 0 1.00064 366 2135)"/><path d="M89.8767 101.858C88.3508 104.438 88.3508 105.228 88.3508 105.228 88.3508 105.228 93.6923 104.309 95.1372 97.8411 95.1484 97.8411 91.7264 98.7358 89.8767 101.858Z" fill="url(#fill14)" transform="matrix(1 0 0 1.00064 366 2135)"/></g></g></g></g></svg>