<svg width="512" height="512" fill="none" xmlns="http://www.w3.org/2000/svg"><circle cx="256" cy="256" r="256" fill="url(#a)"/><circle cx="256" cy="256" r="256" fill="url(#b)" fill-opacity=".2"/><circle cx="256.003" cy="256" r="226.619" stroke="#fff" stroke-width="10"/><path d="M209.111 333.661v59.067c0 6.693-1.421 12.499-4.262 17.416-2.841 4.876-6.917 8.595-12.228 11.156-5.311 2.562-11.59 3.843-18.837 3.843-10.952 0-19.578-2.851-25.877-8.553-6.3-5.702-9.511-13.512-9.635-23.429v-59.5h21.802v59.934c.247 9.876 4.817 14.814 13.71 14.814 4.488 0 7.885-1.24 10.191-3.719 2.305-2.479 3.458-6.508 3.458-12.086v-58.943h21.678Zm59.968 66.256c0-3.181-1.132-5.661-3.397-7.437-2.223-1.777-6.155-3.616-11.796-5.517-5.64-1.9-10.252-3.739-13.834-5.516-11.652-5.743-17.478-13.635-17.478-23.676 0-5 1.441-9.4 4.323-13.202 2.924-3.843 7.041-6.818 12.352-8.925 5.312-2.149 11.282-3.223 17.911-3.223 6.464 0 12.249 1.157 17.354 3.471 5.147 2.314 9.141 5.62 11.981 9.917 2.841 4.256 4.262 9.132 4.262 14.627h-21.616c0-3.677-1.132-6.528-3.397-8.553-2.223-2.025-5.249-3.037-9.078-3.037-3.871 0-6.938.868-9.203 2.603-2.223 1.694-3.335 3.863-3.335 6.508 0 2.314 1.236 4.421 3.706 6.322 2.47 1.859 6.814 3.801 13.031 5.826 6.217 1.983 11.323 4.132 15.317 6.446 9.716 5.619 14.575 13.367 14.575 23.242 0 7.892-2.965 14.09-8.894 18.594-5.928 4.504-14.06 6.756-24.395 6.756-7.287 0-13.895-1.301-19.824-3.905-5.888-2.644-10.335-6.239-13.34-10.784-2.965-4.587-4.447-9.855-4.447-15.805h21.739c0 4.834 1.235 8.409 3.706 10.723 2.511 2.272 6.567 3.408 12.166 3.408 3.583 0 6.403-.764 8.462-2.293 2.099-1.57 3.149-3.76 3.149-6.57Zm32.795 23.987v-90.243h28.965c7.946 0 15.09 1.818 21.43 5.454 6.341 3.595 11.282 8.698 14.823 15.309 3.582 6.57 5.393 13.946 5.435 22.127v4.153c0 8.263-1.75 15.68-5.25 22.25-3.459 6.529-8.358 11.653-14.699 15.371-6.299 3.678-13.34 5.537-21.122 5.579h-29.582Zm21.677-73.447v56.712h7.535c6.217 0 10.993-2.211 14.328-6.632 3.335-4.462 5.003-11.074 5.003-19.833v-3.905c0-8.719-1.668-15.289-5.003-19.71-3.335-4.421-8.193-6.632-14.575-6.632h-7.288Z" fill="#fff"/><path fill-rule="evenodd" clip-rule="evenodd" d="M255.814 229.977a157.452 157.452 0 0 0-26.556 2.228l13.22-22.953c4.457-.302 8.914-.453 13.336-.453a196.04 196.04 0 0 1 31.048 2.495l-51.173-89.075-85.235 148.316-12.182-21.202 97.221-169.238.196.348.196-.337 117.334 204.238h-24.362l-27.423-47.729a156.57 156.57 0 0 0-45.62-6.649v.011Zm104.945 40.906L247.166 73.143h24.363L372.94 249.682l-12.181 21.202ZM248.021 170.714l-46.648 81.23c16.696-5.059 36.337-7.322 54.868-7.322 1.502 0 3.003 0 4.504.058a196.867 196.867 0 0 1 31.359 3.272l15.565 27.097a149.225 149.225 0 0 0-51.428-9.284 153.218 153.218 0 0 0-73.296 18.382l.347-.615-.474.812h-24.363l77.465-134.832 12.101 21.202Z" fill="#fff"/><defs><linearGradient id="a" x1="719.467" y1="717.653" x2="5.244" y2="-157.029" gradientUnits="userSpaceOnUse"><stop stop-color="#645AFF"/><stop offset=".521" stop-color="#E40C5B"/><stop offset=".986" stop-color="#FF4C3B"/></linearGradient><linearGradient id="b" x1="273.707" y1="-210.347" x2="929.97" y2="-66.164" gradientUnits="userSpaceOnUse"><stop stop-color="#fff"/><stop offset="1" stop-color="#fff" stop-opacity="0"/></linearGradient></defs></svg>