<svg width="101" height="102" viewBox="0 0 101 102" xmlns="http://www.w3.org/2000/svg">
    <g transform="translate(2 2)" stroke-width="4.131" fill="none" fill-rule="evenodd" stroke-linecap="round" stroke-linejoin="round">
        <circle stroke="#ABA3B1" fill="#ABA3B1" fill-rule="nonzero" cx="48.24" cy="49.001" r="48.058"/>
        <path d="M70.884 58.014c-3.553-1.421-5.3-2.25-6.75-.888.74-1.48.444-1.569-.177-2.665-1.244-2.19-4.533-5.777-5.67-12.622a36.453 36.453 0 0 0 2.028-7.984s.695-1.957-2.346-1a14.078 14.078 0 0 1-9.963-1.47c-5.147-2.86-5.609-6.575-7.094-7.4-1.032-.57-4.083 2.618-4.083 2.618L26.802 38.289l-.771 1.441a1.8 1.8 0 0 0 .147 1.936c2.856 3.806 14.744 19.659 20.366 26.425a22.562 22.562 0 0 0 8.974 3.33l15.388.142c2.011-.1 3.809-.253 5.243-.413a2.54 2.54 0 0 0 2.1-1.632c1.634-4.378-.973-8.947-7.365-11.504z" stroke="#000"/>
        <path d="M65.137 83.548c-16.458 8.047-36.308 3.35-47.415-11.218C6.615 57.76 7.342 37.376 19.46 23.637c12.118-13.74 32.252-17.009 48.094-7.809 15.843 9.2 22.982 28.308 17.055 45.642M56.323 71.565H30.939M41.194 63.312H24.616M34.69 55.105H19.38M28.822 46.839H16.841" stroke="#000"/>
        <path stroke="#000" d="m44.283 39.809 5.018 7.268-4.814.6 4.932 7.119"/>
    </g>
</svg>
