<svg width="716" height="715" xmlns="http://www.w3.org/2000/svg" xml:space="preserve" overflow="hidden"><defs><clipPath id="a"><path d="M2714 1700h716v715h-716z"/></clipPath><clipPath id="c"><path d="M2906 1827h326v287h-326z"/></clipPath><clipPath id="d"><path d="M2906 1827h326v287h-326z"/></clipPath><clipPath id="e"><path d="M2906 1827h326v287h-326z"/></clipPath><clipPath id="f"><path d="M3100 2176h136v136h-136z"/></clipPath><clipPath id="g"><path d="M3100 2176h136v136h-136z"/></clipPath><clipPath id="h"><path d="M3100 2176h136v136h-136z"/></clipPath><clipPath id="k"><path d="M2876 2142h202v203h-202z"/></clipPath><clipPath id="l"><path d="M2876 2142h202v203h-202z"/></clipPath><clipPath id="m"><path d="M2876 2142h202v203h-202z"/></clipPath><clipPath id="n"><path d="M2876 2142h202v203h-202z"/></clipPath><linearGradient x1="26.943" y1="356.948" x2="688.284" y2="356.948" gradientUnits="userSpaceOnUse" spreadMethod="pad" id="b"><stop offset="0" stop-color="#008EF0"/><stop offset=".001" stop-color="#008EF0"/><stop offset="1" stop-color="#7FFDFF"/></linearGradient><linearGradient x1="3289.3" y1="2364.82" x2="3102.37" y2="2135.9" gradientUnits="userSpaceOnUse" spreadMethod="pad" id="i"><stop offset="0" stop-color="#645AFF"/><stop offset=".521" stop-color="#E40C5B"/><stop offset=".986" stop-color="#FF4C3B"/><stop offset="1" stop-color="#FF4C3B"/></linearGradient><linearGradient x1="3172.63" y1="2121.95" x2="3344.39" y2="2159.68" gradientUnits="userSpaceOnUse" spreadMethod="pad" id="j"><stop offset="0" stop-color="#FFF" stop-opacity=".2"/><stop offset="1" stop-color="#FFF" stop-opacity="0"/></linearGradient><linearGradient x1="3016.07" y1="2302.61" x2="2937.72" y2="2182.55" gradientUnits="userSpaceOnUse" spreadMethod="pad" id="o"><stop offset="0" stop-color="#645AFF"/><stop offset=".008" stop-color="#645AFF"/><stop offset=".504" stop-color="#E40C5B"/><stop offset="1" stop-color="#FF4C3B"/></linearGradient></defs><g clip-path="url(#a)" transform="translate(-2714 -1700)"><path d="M591.437 123.125c-62.456-62.456-145.489-96.856-233.818-96.856-88.329 0-171.375 34.4-233.831 96.856-62.457 62.457-96.843 145.503-96.843 233.819s34.4 171.362 96.843 233.818c62.443 62.457 145.489 96.856 233.818 96.856 88.329 0 171.362-34.399 233.818-96.856 62.457-62.456 96.856-145.489 96.856-233.818 0-88.329-34.386-171.362-96.843-233.819Z" fill="url(#b)" transform="matrix(1.0014 0 0 1 2714 1700)"/><path d="M3072.12 2414.444c-95.626 0-185.524-37.18-253.146-104.708-67.623-67.528-104.855-157.3-104.855-252.792 0-95.492 37.232-185.265 104.855-252.792 67.622-67.528 157.52-104.708 253.146-104.708 95.625 0 185.524 37.18 253.146 104.708 67.622 67.527 104.854 157.3 104.854 252.792 0 95.492-37.232 185.264-104.854 252.792-67.622 67.528-157.52 104.708-253.146 104.708Zm0-688.161c-88.453 0-171.602 34.4-234.146 96.856-62.544 62.456-96.991 145.489-96.991 233.805s34.447 171.362 96.978 233.818c62.53 62.457 145.693 96.856 234.146 96.856 88.452 0 171.602-34.399 234.145-96.856 62.544-62.456 96.992-145.489 96.992-233.818 0-88.329-34.448-171.362-96.992-233.818-62.543-62.457-145.693-96.843-234.132-96.843Z" fill="#FFF"/><g clip-path="url(#c)"><g clip-path="url(#d)"><g clip-path="url(#e)"><path d="M3145.857 2111.964a78.213 78.213 0 0 1-31.537-6.625c-20.39-8.973-36.064-26.294-42.991-47.51l-2.649-8.114-2.649 8.113c-6.927 21.217-22.602 38.538-42.991 47.526a78.338 78.338 0 0 1-63.978-.409l-28.54-13.001c-14.931-6.8-24.522-21.727-24.522-38.172v-105.207c0-7.85 5.632-14.563 13.346-15.89 45.028-7.793 96.664-11.922 149.334-11.922 17.217 0 34.317.437 51.112 1.298 17.813.92 31.29 16.548 29.747 34.379-26.109-2.262-53.309-3.414-80.859-3.414-45.713 0-90.509 3.195-130.517 9.28v91.49a9.689 9.689 0 0 0 5.662 8.814l27.288 12.447c12.24 5.574 26.385 6.274 38.727.92 12.327-5.356 21.423-15.351 25.599-28.134l5.4-16.547c3.929-12.053 14.903-20.808 27.55-20.91 12.865-.117 23.795 7.762 27.782 19.99l5.283 16.168c4.192 12.811 13.23 23.712 25.498 29.213 12.269 5.5 25.789 5.458 38-.117l28.539-13a9.688 9.688 0 0 0 5.661-8.814V1827h32.178v226.743c0 16.445-9.59 31.372-24.522 38.172l-28.54 13.001c-10.246 4.698-21.321 7.048-32.411 7.048Z" fill="#FFF"/></g></g></g><g clip-path="url(#f)"><g clip-path="url(#g)"><g clip-path="url(#h)"><path d="M3235 2244c0 37-30 67-67 67s-67-30-67-67 30-67 67-67 67 30 67 67Z" fill="url(#i)"/><path d="M3235 2244c0 37-30 67-67 67s-67-30-67-67 30-67 67-67 67 30 67 67Z" fill="url(#j)"/><path d="M3227.31 2244c0 32.76-26.55 59.31-59.31 59.31-32.76 0-59.31-26.55-59.31-59.31 0-32.76 26.55-59.31 59.31-59.31 32.76 0 59.31 26.55 59.31 59.31Z" stroke="#FFF" stroke-width="2.617" fill="none"/><path d="M3155.73 2264.33v15.45c0 1.76-.37 3.28-1.12 4.56-.74 1.28-1.81 2.25-3.2 2.92-1.39.67-3.03 1.01-4.93 1.01-2.86 0-5.12-.75-6.77-2.24-1.65-1.49-2.49-3.54-2.52-6.13v-15.57h5.7v15.68c.07 2.59 1.27 3.88 3.59 3.88 1.18 0 2.07-.33 2.67-.97.6-.65.9-1.71.9-3.17v-15.42h5.68Zm15.69 17.34c0-.84-.29-1.49-.89-1.95-.58-.47-1.61-.95-3.08-1.44-1.48-.5-2.69-.98-3.62-1.45-3.05-1.5-4.58-3.57-4.58-6.19 0-1.31.38-2.46 1.13-3.46.77-1.01 1.85-1.78 3.24-2.34 1.39-.56 2.95-.84 4.68-.84 1.7 0 3.21.3 4.55.91 1.34.6 2.39 1.47 3.13 2.59.74 1.12 1.12 2.39 1.12 3.83h-5.66c0-.96-.3-1.71-.89-2.24-.58-.53-1.37-.79-2.38-.79-1.01 0-1.81.23-2.4.68-.59.44-.88 1.01-.88 1.7 0 .61.33 1.16.97 1.66.65.49 1.79.99 3.41 1.52 1.63.52 2.97 1.08 4.01 1.69 2.54 1.47 3.82 3.5 3.82 6.08 0 2.07-.78 3.69-2.33 4.87-1.55 1.18-3.68 1.77-6.39 1.77-1.9 0-3.63-.34-5.18-1.02-1.54-.7-2.71-1.64-3.5-2.83-.77-1.2-1.16-2.58-1.16-4.13h5.69c0 1.26.32 2.2.97 2.8.66.6 1.72.9 3.18.9.94 0 1.68-.2 2.22-.6.55-.42.82-.99.82-1.72Zm8.59 6.27v-23.61h7.58c2.08 0 3.95.47 5.61 1.42 1.65.94 2.95 2.28 3.87 4.01.94 1.72 1.42 3.65 1.43 5.79v1.09c0 2.16-.46 4.1-1.38 5.82a9.911 9.911 0 0 1-3.84 4.02c-1.65.97-3.5 1.45-5.53 1.46h-7.74Zm5.67-19.22v14.84h1.97c1.63 0 2.88-.57 3.75-1.73.87-1.17 1.31-2.9 1.31-5.19v-1.02c0-2.29-.44-4.01-1.31-5.16-.87-1.16-2.14-1.74-3.81-1.74h-1.91Z" fill="#FFF"/><path d="M3167.95 2237.19c-2.33 0-4.65.19-6.95.58l3.46-6a51.074 51.074 0 0 1 11.62.53l-13.4-23.31-22.3 38.81-3.19-5.54 25.44-44.3.05.09.06-.08 30.7 53.45h-6.37l-7.18-12.49c-3.87-1.17-7.9-1.76-11.94-1.74Zm27.47 10.71-29.73-51.76h6.37l26.55 46.21-3.19 5.55Zm-29.51-26.22-12.21 21.26c4.37-1.33 9.51-1.92 14.36-1.92.4 0 .79 0 1.18.02 2.76.06 5.5.35 8.21.85l4.07 7.1c-4.31-1.6-8.86-2.42-13.46-2.43a40.047 40.047 0 0 0-19.18 4.81l.09-.16-.12.21h-6.38l20.27-35.29 3.17 5.55Z" fill="#FFF" fill-rule="evenodd"/></g></g></g><g clip-path="url(#k)"><g clip-path="url(#l)"><g clip-path="url(#m)"><g clip-path="url(#n)"><path d="M2977.5 2310.5c37 0 67-30 67-67s-30-67-67-67-67 30-67 67 30 67 67 67Zm.27-6.29c33.53 0 60.71-27.18 60.71-60.71 0-33.52-27.18-60.71-60.71-60.71s-60.71 27.18-60.71 60.71 27.18 60.71 60.71 60.71Zm-.27-4.65c30.96 0 56.06-25.1 56.06-56.06s-25.1-56.06-56.06-56.06-56.06 25.1-56.06 56.06 25.1 56.06 56.06 56.06Zm.14-6.83c27.26 0 49.36-22.1 49.36-49.37 0-27.26-22.1-49.36-49.36-49.36-27.26 0-49.36 22.1-49.36 49.36 0 27.27 22.09 49.37 49.36 49.37Zm-.42-40.13c-2.74 0-5.4.23-7.98.67l3.97-6.9a59.68 59.68 0 0 1 13.37.62l-15.42-26.79-25.68 44.6-3.67-6.38 29.29-50.86.06.1.06-.1 35.34 61.39h-7.33l-8.26-14.35c-4.31-1.3-8.91-2-13.75-2Zm31.63 12.3-34.22-59.43h7.34l30.55 53.06-3.67 6.37Zm-33.96-30.11-14.05 24.41c5.02-1.52 10.94-2.2 16.52-2.2.46 0 .91 0 1.36.01 3.17.08 6.38.41 9.45.99l4.69 8.14c-4.8-1.75-10-2.78-15.5-2.78-8.13 0-15.6 2.02-22.1 5.52l.1-.18-.14.24h-7.34l23.34-40.52 3.67 6.37Z" fill="url(#o)" fill-rule="evenodd"/></g></g></g></g></g></svg>