<svg width="715" height="715" xmlns="http://www.w3.org/2000/svg" xmlns:xlink="http://www.w3.org/1999/xlink" xml:space="preserve" overflow="hidden"><defs><clipPath id="clip0"><rect x="1069" y="1666" width="715" height="715"/></clipPath><linearGradient x1="1095.94" y1="2022.95" x2="1757.28" y2="2022.95" gradientUnits="userSpaceOnUse" spreadMethod="pad" id="fill1"><stop offset="0" stop-color="#008EF0"/><stop offset="0.00127816" stop-color="#008EF0"/><stop offset="1" stop-color="#7FFDFF"/></linearGradient><clipPath id="clip2"><rect x="1259" y="1793" width="329" height="286"/></clipPath><clipPath id="clip3"><rect x="1259" y="1793" width="329" height="286"/></clipPath><clipPath id="clip4"><rect x="1259" y="1793" width="329" height="286"/></clipPath><clipPath id="clip5"><rect x="1455" y="2149" width="150" height="132"/></clipPath><clipPath id="clip6"><rect x="1455" y="2149" width="150" height="132"/></clipPath><clipPath id="clip7"><rect x="1455" y="2149" width="150" height="132"/></clipPath><clipPath id="clip8"><rect x="1265" y="2149" width="135" height="134"/></clipPath><clipPath id="clip9"><rect x="1265" y="2149" width="135" height="134"/></clipPath><clipPath id="clip10"><rect x="1265" y="2149" width="135" height="134"/></clipPath></defs><g clip-path="url(#clip0)" transform="translate(-1069 -1666)"><path d="M1660.44 1789.13C1597.98 1726.67 1514.95 1692.27 1426.62 1692.27 1338.29 1692.27 1255.24 1726.67 1192.79 1789.13 1130.33 1851.58 1095.95 1934.63 1095.95 2022.94 1095.95 2111.26 1130.34 2194.31 1192.79 2256.76 1255.23 2319.22 1338.28 2353.62 1426.61 2353.62 1514.94 2353.62 1597.97 2319.22 1660.42 2256.76 1722.88 2194.31 1757.28 2111.27 1757.28 2022.94 1757.28 1934.61 1722.89 1851.58 1660.44 1789.13Z" fill="url(#fill1)"/><path d="M1426.62 2380.44C1331.13 2380.44 1241.35 2343.26 1173.83 2275.74 1106.3 2208.21 1069.12 2118.44 1069.12 2022.94 1069.12 1927.45 1106.3 1837.68 1173.83 1770.15 1241.35 1702.62 1331.13 1665.44 1426.62 1665.44 1522.11 1665.44 1611.88 1702.62 1679.41 1770.15 1746.94 1837.68 1784.12 1927.45 1784.12 2022.94 1784.12 2118.44 1746.94 2208.21 1679.41 2275.74 1611.88 2343.26 1522.11 2380.44 1426.62 2380.44ZM1426.62 1692.28C1338.29 1692.28 1255.26 1726.68 1192.8 1789.14 1130.34 1851.6 1095.95 1934.63 1095.95 2022.94 1095.95 2111.26 1130.34 2194.31 1192.79 2256.76 1255.23 2319.22 1338.28 2353.62 1426.61 2353.62 1514.94 2353.62 1597.97 2319.22 1660.42 2256.76 1722.88 2194.31 1757.28 2111.27 1757.28 2022.94 1757.28 1934.61 1722.88 1851.58 1660.42 1789.13 1597.97 1726.67 1514.94 1692.28 1426.62 1692.28Z" fill="#FFFFFF"/><g clip-path="url(#clip2)"><g clip-path="url(#clip3)"><g clip-path="url(#clip4)"><path d="M240.488 284.964C229.705 284.964 218.936 282.761 208.868 278.339 188.424 269.365 172.709 252.045 165.763 230.828L163.108 222.715 160.452 230.828C153.506 252.045 137.791 269.365 117.348 278.354 96.9044 287.328 73.5283 287.182 53.2018 277.945L24.5872 264.944C9.61601 258.144 0 243.217 0 226.772L0 121.565C0 113.714 5.64704 107.002 13.3807 105.674 58.5279 97.882 110.3 93.7526 163.108 93.7526 180.37 93.7526 197.515 94.1903 214.354 95.0512 232.214 95.9705 245.727 111.598 244.18 129.43 218.002 127.168 190.73 126.015 163.108 126.015 117.275 126.015 72.3609 129.211 32.248 135.296L32.248 226.786C32.248 230.58 34.4659 234.024 37.9242 235.6L65.2839 248.047C77.5556 253.621 91.7389 254.321 104.113 248.966 116.472 243.611 125.592 233.615 129.78 220.833L135.193 204.286C139.133 192.233 150.135 183.478 162.816 183.376 175.715 183.259 186.673 191.138 190.672 203.366L195.968 219.534C200.171 232.346 209.232 243.246 221.533 248.747 233.834 254.248 247.39 254.204 259.633 248.63L288.247 235.629C291.705 234.053 293.923 230.609 293.923 226.816L293.923 0 326.186 0 326.186 226.743C326.186 243.188 316.57 258.115 301.599 264.915L272.984 277.916C262.711 282.615 251.607 284.964 240.488 284.964Z" fill="#FFFFFF" transform="matrix(1.00044 0 0 1 1260 1793)"/></g></g></g><g clip-path="url(#clip5)"><g clip-path="url(#clip6)"><g clip-path="url(#clip7)"><path d="M27.4651 0.64078 0.114898 58.09C-0.098726 58.5284-0.00200736 59.0551 0.353534 59.3892L74.2199 130.171C74.6561 130.589 75.3437 130.589 75.7799 130.171L149.646 59.3936C150.002 59.0595 150.098 58.5328 149.885 58.0944L122.535 0.645199C122.354 0.251146 121.961-0.00114128 121.527 1.68578e-08L28.4815 0C28.046-0.00541795 27.648 0.245518 27.4651 0.64078L27.4651 0.64078Z" fill="#50AF95" fill-rule="evenodd" transform="matrix(1 0 0 1.00359 1455 2149.02)"/><path d="M84.4901 63.9896 84.4901 63.9896C83.9598 64.0293 81.2199 64.1929 75.1082 64.1929 70.2471 64.1929 66.7957 64.047 65.5849 63.9896L65.5849 63.9896C46.799 63.1632 32.777 59.893 32.777 55.9776 32.777 52.0622 46.799 48.7965 65.5849 47.9568L65.5849 60.7326C66.8134 60.821 70.3311 61.0287 75.1922 61.0287 81.0255 61.0287 83.9465 60.7857 84.4724 60.7371L84.4724 47.9657C103.219 48.8009 117.21 52.0711 117.21 55.9776 117.21 59.8842 103.223 63.1544 84.4724 63.9851L84.4724 63.9851ZM84.4901 46.6443 84.4901 35.2119 110.652 35.2119 110.652 17.7783 39.4234 17.7783 39.4234 35.2119 65.5805 35.2119 65.5805 46.6399C44.3199 47.6166 28.3313 51.828 28.3313 56.8747 28.3313 61.9214 44.3199 66.1284 65.5805 67.1095L65.5805 103.744 84.4857 103.744 84.4857 67.0963C105.698 66.1196 121.66 61.9126 121.66 56.8703 121.66 51.828 105.711 47.621 84.4857 46.6399L84.4857 46.6399ZM84.4901 46.6443 84.4901 46.6443Z" fill="#FFFFFF" fill-rule="evenodd" transform="matrix(1 0 0 1.00359 1455 2149.02)"/></g></g></g><g clip-path="url(#clip8)"><g clip-path="url(#clip9)"><g clip-path="url(#clip10)"><path d="M66.9999 0 66.9999 0C103.989 0 134 30.0104 134 66.9999L134 66.9999C134 103.989 103.989 134 66.9999 134L66.9999 134C30.0104 134 0 103.989 0 66.9999L0 66.9999C0 30.0104 30.0104 0 66.9999 0Z" fill="#70D44B" transform="matrix(1 0 0 1 1265 2149)"/><path d="M66.9999 27.3583C70.536 27.3583 73.7464 29.359 75.3283 32.5228L101.477 84.8665C103.757 89.4727 101.896 95.056 97.2894 97.3359 95.9866 97.9873 94.5908 98.313 93.1484 98.313L40.8513 98.313C35.7333 98.313 31.5458 94.1255 31.5458 89.0074 31.5458 87.5651 31.8715 86.1227 32.5228 84.8665L58.6714 32.5228C60.2533 29.3124 63.4637 27.3117 66.9999 27.3583M66.9999 20.9375C61.0443 20.9375 55.6006 24.2874 52.9485 29.6381L26.7999 81.9818C22.9381 89.7519 26.0555 99.1505 33.8256 103.059 36.0124 104.129 38.4319 104.734 40.8513 104.734L93.1949 104.734C101.849 104.734 108.921 97.7081 108.921 89.054 108.921 86.6345 108.363 84.2151 107.246 82.0283L81.0512 29.6381C78.3991 24.2874 72.9554 20.9375 66.9999 20.9375Z" fill="#FFFFFF" transform="matrix(1 0 0 1 1265 2149)"/></g></g></g></g></svg>