<svg width="715" height="716" xmlns="http://www.w3.org/2000/svg" xml:space="preserve" overflow="hidden"><defs><clipPath id="a"><path d="M877 152h715v716H877z"/></clipPath><clipPath id="c"><path d="M1069 280h326v286h-326z"/></clipPath><clipPath id="d"><path d="M1069 280h326v286h-326z"/></clipPath><clipPath id="e"><path d="M1069 280h326v286h-326z"/></clipPath><clipPath id="f"><path d="M1069 632h128v131h-128z"/></clipPath><clipPath id="g"><path d="M1069 632h128v131h-128z"/></clipPath><clipPath id="h"><path d="M1069 632h128v131h-128z"/></clipPath><clipPath id="i"><path d="M1266 632h129v131h-129z"/></clipPath><clipPath id="j"><path d="M1266 632h129v131h-129z"/></clipPath><clipPath id="k"><path d="M1266 632h129v131h-129z"/></clipPath><linearGradient x1="26.943" y1="356.948" x2="688.284" y2="356.948" gradientUnits="userSpaceOnUse" spreadMethod="pad" id="b"><stop offset="0" stop-color="#008EF0"/><stop offset=".001" stop-color="#008EF0"/><stop offset="1" stop-color="#7FFDFF"/></linearGradient></defs><g clip-path="url(#a)" transform="translate(-877 -152)"><path d="M591.437 123.125c-62.456-62.456-145.489-96.856-233.818-96.856-88.329 0-171.375 34.4-233.831 96.856-62.457 62.457-96.843 145.503-96.843 233.819s34.4 171.362 96.843 233.818c62.443 62.457 145.489 96.856 233.818 96.856 88.329 0 171.362-34.399 233.818-96.856 62.457-62.456 96.856-145.489 96.856-233.818 0-88.329-34.386-171.362-96.843-233.819Z" fill="url(#b)" transform="matrix(1 0 0 1.0014 877 152)"/><path d="M1234.619 867.444c-95.492 0-185.264-37.232-252.792-104.854-67.528-67.623-104.708-157.52-104.708-253.146 0-95.626 37.18-185.525 104.708-253.146 67.528-67.623 157.3-104.855 252.792-104.855 95.492 0 185.265 37.232 252.792 104.855 67.528 67.621 104.708 157.52 104.708 253.146 0 95.625-37.18 185.523-104.708 253.146-67.527 67.622-157.3 104.854-252.792 104.854Zm0-689.124c-88.329 0-171.362 34.447-233.818 96.991-62.457 62.544-96.856 145.693-96.856 234.133s34.4 171.602 96.843 234.145c62.443 62.545 145.489 96.992 233.818 96.992 88.329 0 171.362-34.447 233.818-96.992 62.457-62.543 96.856-145.693 96.856-234.145 0-88.453-34.399-171.602-96.856-234.146-62.456-62.544-145.489-96.978-233.805-96.978Z" fill="#FFF"/><g clip-path="url(#c)"><g clip-path="url(#d)"><g clip-path="url(#e)"><path d="M1308.858 563.968a78.45 78.45 0 0 1-31.538-6.602c-20.389-8.943-36.064-26.203-42.99-47.345l-2.65-8.085-2.648 8.085c-6.928 21.142-22.602 38.402-42.992 47.36-20.39 8.942-43.704 8.797-63.978-.408l-28.54-12.955c-14.931-6.776-24.522-21.652-24.522-38.039V401.14c0-7.823 5.632-14.512 13.346-15.835 45.029-7.765 96.665-11.88 149.334-11.88 17.217 0 34.317.436 51.113 1.294 17.814.916 31.29 16.489 29.747 34.258-26.109-2.254-53.31-3.403-80.86-3.403-45.712 0-90.509 3.185-130.517 9.248v91.171a9.652 9.652 0 0 0 5.662 8.783l27.288 12.403c12.24 5.555 26.386 6.253 38.727.916 12.327-5.336 21.423-15.297 25.6-28.034l5.4-16.49c3.929-12.01 14.902-20.735 27.549-20.837 12.865-.116 23.796 7.736 27.783 19.921l5.283 16.112c4.192 12.766 13.23 23.628 25.498 29.11 12.27 5.482 25.789 5.439 38-.116l28.539-12.956a9.653 9.653 0 0 0 5.662-8.783V280h32.177v225.95c0 16.387-9.59 31.262-24.523 38.038l-28.539 12.956c-10.246 4.682-21.321 7.024-32.411 7.024Z" fill="#FFF"/></g></g></g><g clip-path="url(#f)"><g clip-path="url(#g)"><g clip-path="url(#h)"><path d="M1093.442 655.13h79.031v72.39h-79.031Z" fill="#FFF"/><path d="M1196.957 697.5c0 35.576-28.634 64.415-63.957 64.415s-63.957-28.839-63.957-64.415c0-35.575 28.634-64.414 63.957-64.414s63.957 28.84 63.957 64.414Zm-82.08 25.634h-12.413c-2.608 0-3.897 0-4.682-.506a3.182 3.182 0 0 1-1.43-2.485c-.047-.933.597-2.073 1.885-4.351l30.648-54.407c1.304-2.31 1.964-3.466 2.797-3.893a3.142 3.142 0 0 1 2.86 0c.832.427 1.492 1.583 2.796 3.893l6.3 11.077.033.056c1.408 2.479 2.122 3.736 2.434 5.055a9.463 9.463 0 0 1 0 4.4c-.314 1.328-1.021 2.594-2.45 5.11l-16.1 28.661-.04.074c-1.419 2.499-2.137 3.765-3.133 4.72a9.355 9.355 0 0 1-3.818 2.233c-1.304.363-2.765.363-5.688.363Zm31.345 0h17.785c2.624 0 3.944 0 4.73-.521a3.172 3.172 0 0 0 1.43-2.5c.045-.904-.585-2-1.82-4.145l-.129-.223-8.909-15.35-.101-.173c-1.252-2.132-1.884-3.208-2.695-3.625a3.109 3.109 0 0 0-2.844 0c-.817.428-1.477 1.551-2.781 3.814l-8.877 15.35-.03.052c-1.3 2.26-1.95 3.389-1.903 4.315a3.21 3.21 0 0 0 1.43 2.5c.77.506 2.09.506 4.714.506Z" fill="#E84142" fill-rule="evenodd"/></g></g></g><g clip-path="url(#i)"><g clip-path="url(#j)"><g clip-path="url(#k)"><path d="M1330.5 762c35.74 0 64.5-28.756 64.5-64.5s-28.76-64.5-64.5-64.5c-35.74 0-64.5 28.756-64.5 64.5s28.76 64.5 64.5 64.5Z" fill="#2775CA"/><path d="M1348.24 707.712c0-9.406-5.65-12.631-16.93-13.974-8.07-1.076-9.68-3.225-9.68-6.988 0-3.763 2.69-6.181 8.06-6.181 4.84 0 7.53 1.612 8.87 5.643.27.807 1.08 1.344 1.88 1.344h4.3c1.08 0 1.88-.806 1.88-1.881v-.269c-1.07-5.913-5.91-10.481-12.09-11.018v-6.45c0-1.076-.81-1.882-2.15-2.151h-4.03c-1.08 0-1.88.806-2.15 2.151v6.181c-8.06 1.075-13.17 6.45-13.17 13.169 0 8.868 5.38 12.362 16.66 13.706 7.53 1.343 9.95 2.956 9.95 7.256 0 4.3-3.77 7.256-8.87 7.256-6.99 0-9.41-2.956-10.21-6.988-.27-1.074-1.08-1.612-1.88-1.612h-4.57c-1.08 0-1.88.806-1.88 1.881v.269c1.07 6.719 5.37 11.556 14.24 12.9v6.45c0 1.075.8 1.881 2.15 2.15h4.03c1.07 0 1.88-.806 2.15-2.15v-6.45c8.06-1.344 13.44-6.987 13.44-14.244Z" fill="#FFF"/><path d="M1316.79 735.931c-20.96-7.525-31.71-30.906-23.91-51.6 4.03-11.288 12.9-19.887 23.91-23.919 1.08-.537 1.62-1.343 1.62-2.687v-3.763c0-1.075-.54-1.881-1.62-2.149-.27 0-.8 0-1.07.268-25.53 8.062-39.51 35.207-31.45 60.738 4.84 15.05 16.4 26.606 31.45 31.444 1.07.537 2.15 0 2.42-1.076.27-.268.27-.537.27-1.074v-3.763c0-.806-.81-1.881-1.62-2.419Zm28.49-83.85c-1.07-.537-2.15 0-2.42 1.075-.27.269-.27.537-.27 1.075v3.763c0 1.075.81 2.149 1.62 2.687 20.96 7.525 31.71 30.906 23.91 51.6-4.03 11.288-12.9 19.888-23.91 23.919-1.08.537-1.62 1.344-1.62 2.688v3.762c0 1.075.54 1.881 1.62 2.15.27 0 .8 0 1.07-.269 25.53-8.062 39.51-35.206 31.45-60.737-4.84-15.319-16.67-26.876-31.45-31.713Z" fill="#FFF"/></g></g></g></g></svg>