<svg width="715" height="715" xmlns="http://www.w3.org/2000/svg" xml:space="preserve" overflow="hidden"><defs><clipPath id="a"><path d="M1069 1666h715v715h-715z"/></clipPath><clipPath id="c"><path d="M1259 1793h329v286h-329z"/></clipPath><clipPath id="d"><path d="M1259 1793h329v286h-329z"/></clipPath><clipPath id="e"><path d="M1259 1793h329v286h-329z"/></clipPath><clipPath id="f"><path d="M1455 2149h150v132h-150z"/></clipPath><clipPath id="g"><path d="M1455 2149h150v132h-150z"/></clipPath><clipPath id="h"><path d="M1455 2149h150v132h-150z"/></clipPath><clipPath id="i"><path d="M1265 2149h135v134h-135z"/></clipPath><clipPath id="j"><path d="M1265 2149h135v134h-135z"/></clipPath><clipPath id="k"><path d="M1265 2149h135v134h-135z"/></clipPath><linearGradient x1="1095.94" y1="2022.95" x2="1757.28" y2="2022.95" gradientUnits="userSpaceOnUse" spreadMethod="pad" id="b"><stop offset="0" stop-color="#008EF0"/><stop offset=".001" stop-color="#008EF0"/><stop offset="1" stop-color="#7FFDFF"/></linearGradient></defs><g clip-path="url(#a)" transform="translate(-1069 -1666)"><path d="M1660.44 1789.13c-62.46-62.46-145.49-96.86-233.82-96.86-88.33 0-171.38 34.4-233.83 96.86-62.46 62.45-96.84 145.5-96.84 233.81 0 88.32 34.39 171.37 96.84 233.82 62.44 62.46 145.49 96.86 233.82 96.86 88.33 0 171.36-34.4 233.81-96.86 62.46-62.45 96.86-145.49 96.86-233.82 0-88.33-34.39-171.36-96.84-233.81Z" fill="url(#b)"/><path d="M1426.62 2380.44c-95.49 0-185.27-37.18-252.79-104.7-67.53-67.53-104.71-157.3-104.71-252.8 0-95.49 37.18-185.26 104.71-252.79 67.52-67.53 157.3-104.71 252.79-104.71 95.49 0 185.26 37.18 252.79 104.71s104.71 157.3 104.71 252.79c0 95.5-37.18 185.27-104.71 252.8-67.53 67.52-157.3 104.7-252.79 104.7Zm0-688.16c-88.33 0-171.36 34.4-233.82 96.86-62.46 62.46-96.85 145.49-96.85 233.8 0 88.32 34.39 171.37 96.84 233.82 62.44 62.46 145.49 96.86 233.82 96.86 88.33 0 171.36-34.4 233.81-96.86 62.46-62.45 96.86-145.49 96.86-233.82 0-88.33-34.4-171.36-96.86-233.81-62.45-62.46-145.48-96.85-233.8-96.85Z" fill="#FFF"/><g clip-path="url(#c)"><g clip-path="url(#d)"><g clip-path="url(#e)"><path d="M1500.594 2077.964a78.652 78.652 0 0 1-31.634-6.625c-20.453-8.974-36.175-26.294-43.124-47.511l-2.656-8.113-2.657 8.113c-6.95 21.217-22.671 38.537-43.123 47.526-20.453 8.974-43.84 8.828-64.175-.409l-28.627-13.001a41.926 41.926 0 0 1-24.598-38.172v-105.207c0-7.851 5.65-14.563 13.387-15.891 45.167-7.792 96.962-11.921 149.793-11.921 17.27 0 34.422.437 51.268 1.298 17.868.92 31.387 16.547 29.84 34.379-26.19-2.262-53.474-3.415-81.108-3.415-45.853 0-90.787 3.196-130.918 9.281v91.49a9.687 9.687 0 0 0 5.679 8.814l27.372 12.447c12.277 5.574 26.466 6.274 38.846.919 12.364-5.355 21.488-15.351 25.678-28.133l5.415-16.547c3.942-12.053 14.95-20.808 27.636-20.91 12.904-.117 23.867 7.762 27.868 19.99l5.298 16.168c4.205 12.812 13.27 23.712 25.576 29.213 12.307 5.501 25.869 5.457 38.117-.117l28.627-13.001a9.687 9.687 0 0 0 5.678-8.813V1793h32.278v226.743a41.926 41.926 0 0 1-24.598 38.172l-28.628 13.001c-10.277 4.699-21.386 7.048-32.51 7.048Z" fill="#FFF"/></g></g></g><g clip-path="url(#f)"><g clip-path="url(#g)"><g clip-path="url(#h)" fill-rule="evenodd"><path d="m1482.465 2149.663-27.35 57.656a1.12 1.12 0 0 0 .239 1.303l73.866 71.036c.436.42 1.124.42 1.56 0l73.866-71.031a1.12 1.12 0 0 0 .239-1.304l-27.35-57.655a1.105 1.105 0 0 0-1.008-.648h-93.045a1.104 1.104 0 0 0-1.017.643Z" fill="#50AF95"/><path d="M1539.49 2213.24c-.53.04-3.27.203-9.382.203a204.4 204.4 0 0 1-9.523-.204c-18.786-.829-32.808-4.111-32.808-8.04 0-3.93 14.022-7.207 32.808-8.05v12.822c1.228.088 4.746.297 9.607.297 5.833 0 8.755-.244 9.28-.293v-12.817c18.747.838 32.738 4.12 32.738 8.04 0 3.921-13.987 7.203-32.738 8.037Zm0-17.408v-11.474h26.162v-17.496h-71.229v17.496h26.158v11.47c-21.261.98-37.25 5.206-37.25 10.27 0 5.066 15.989 9.288 37.25 10.272v36.766h18.905v-36.779c21.212-.98 37.174-5.202 37.174-10.263 0-5.06-15.949-9.282-37.174-10.267Zm0 0Z" fill="#FFF"/></g></g></g><g clip-path="url(#i)"><g clip-path="url(#j)"><g clip-path="url(#k)"><path d="M1332 2149c36.989 0 67 30.01 67 67 0 36.989-30.011 67-67 67-36.99 0-67-30.011-67-67 0-36.99 30.01-67 67-67Z" fill="#70D44B"/><path d="M1332 2176.358a9.305 9.305 0 0 1 8.328 5.165l26.149 52.343c2.28 4.607.419 10.19-4.188 12.47a9.185 9.185 0 0 1-4.14.977h-52.298c-5.118 0-9.305-4.188-9.305-9.306 0-1.442.325-2.884.977-4.14l26.148-52.344c1.582-3.21 4.793-5.211 8.329-5.165m0-6.42c-5.956 0-11.4 3.35-14.052 8.7l-26.148 52.344a15.723 15.723 0 0 0 7.026 21.077c2.186 1.07 4.606 1.675 7.025 1.675h52.344c8.654 0 15.726-7.026 15.726-15.68 0-2.42-.558-4.839-1.675-7.026l-26.195-52.39a15.658 15.658 0 0 0-14.051-8.7Z" fill="#FFF"/></g></g></g></g></svg>