<svg width="715" height="716" xmlns="http://www.w3.org/2000/svg" xml:space="preserve" overflow="hidden"><defs><clipPath id="a"><path d="M138 152h715v716H138z"/></clipPath><clipPath id="c"><path d="M330 280h326v286H330z"/></clipPath><clipPath id="d"><path d="M330 280h326v286H330z"/></clipPath><clipPath id="e"><path d="M330 280h326v286H330z"/></clipPath><clipPath id="f"><path d="M324 632h130v131H324z"/></clipPath><clipPath id="g"><path d="M324 632h130v131H324z"/></clipPath><clipPath id="h"><path d="M324 632h130v131H324z"/></clipPath><clipPath id="i"><path d="M510 635h150v132H510z"/></clipPath><clipPath id="j"><path d="M510 635h150v132H510z"/></clipPath><clipPath id="k"><path d="M510 635h150v132H510z"/></clipPath><linearGradient x1="26.943" y1="356.948" x2="688.284" y2="356.948" gradientUnits="userSpaceOnUse" spreadMethod="pad" id="b"><stop offset="0" stop-color="#008EF0"/><stop offset=".001" stop-color="#008EF0"/><stop offset="1" stop-color="#7FFDFF"/></linearGradient></defs><g clip-path="url(#a)" transform="translate(-138 -152)"><path d="M591.437 123.125c-62.456-62.456-145.489-96.856-233.818-96.856-88.329 0-171.375 34.4-233.831 96.856-62.457 62.457-96.843 145.503-96.843 233.819s34.4 171.362 96.843 233.818c62.443 62.457 145.489 96.856 233.818 96.856 88.329 0 171.362-34.399 233.818-96.856 62.457-62.456 96.856-145.489 96.856-233.818 0-88.329-34.386-171.362-96.843-233.819Z" fill="url(#b)" transform="matrix(1 0 0 1.0014 138 152)"/><path d="M495.619 867.444c-95.492 0-185.264-37.232-252.792-104.854-67.528-67.623-104.708-157.52-104.708-253.146 0-95.626 37.18-185.525 104.708-253.146 67.528-67.623 157.3-104.855 252.792-104.855 95.492 0 185.265 37.232 252.792 104.855 67.528 67.621 104.708 157.52 104.708 253.146 0 95.625-37.18 185.523-104.708 253.146-67.527 67.622-157.3 104.854-252.792 104.854Zm0-689.124c-88.329 0-171.362 34.447-233.818 96.991-62.457 62.544-96.856 145.693-96.856 234.133s34.4 171.602 96.843 234.145c62.443 62.545 145.489 96.992 233.818 96.992 88.329 0 171.362-34.447 233.818-96.992 62.457-62.543 96.856-145.693 96.856-234.145 0-88.453-34.399-171.602-96.856-234.146-62.456-62.544-145.489-96.978-233.805-96.978Z" fill="#FFF"/><g clip-path="url(#c)"><g clip-path="url(#d)"><g clip-path="url(#e)"><path d="M569.858 563.968a78.45 78.45 0 0 1-31.538-6.602c-20.389-8.943-36.064-26.203-42.99-47.345l-2.65-8.085-2.648 8.085c-6.928 21.142-22.602 38.402-42.992 47.36-20.39 8.942-43.704 8.797-63.978-.408l-28.54-12.955C339.592 537.242 330 522.366 330 505.979V401.14a16.063 16.063 0 0 1 13.346-15.835c45.029-7.765 96.665-11.88 149.334-11.88 17.217 0 34.317.436 51.113 1.294 17.814.916 31.29 16.489 29.747 34.258-26.109-2.254-53.31-3.403-80.86-3.403-45.712 0-90.509 3.185-130.517 9.248v91.171a9.652 9.652 0 0 0 5.662 8.783l27.288 12.403c12.24 5.555 26.386 6.253 38.727.916 12.327-5.336 21.423-15.297 25.6-28.034l5.4-16.49c3.929-12.01 14.902-20.735 27.549-20.837 12.865-.116 23.796 7.736 27.783 19.921l5.283 16.112c4.192 12.766 13.23 23.628 25.498 29.11 12.27 5.482 25.789 5.439 38-.116l28.539-12.956a9.653 9.653 0 0 0 5.662-8.783V280h32.177v225.95c0 16.387-9.59 31.262-24.523 38.038l-28.539 12.956c-10.246 4.682-21.321 7.024-32.411 7.024Z" fill="#FFF"/></g></g></g><g clip-path="url(#f)"><g clip-path="url(#g)"><g clip-path="url(#h)"><path d="M348.633 655.129h79.648v72.391h-79.648Z" fill="#FFF"/><path d="M452.957 697.5c0 35.576-28.858 64.414-64.457 64.414-35.599 0-64.457-28.838-64.457-64.414 0-35.575 28.858-64.414 64.457-64.414 35.599 0 64.457 28.839 64.457 64.414Zm-82.723 25.634h-12.509c-2.628 0-3.927 0-4.718-.506a3.177 3.177 0 0 1-1.441-2.485c-.048-.933.601-2.073 1.9-4.352l30.887-54.406c1.314-2.31 1.979-3.466 2.818-3.893a3.19 3.19 0 0 1 2.882 0c.84.427 1.504 1.582 2.819 3.893l6.35 11.077.032.056c1.42 2.479 2.14 3.736 2.453 5.055a9.393 9.393 0 0 1 0 4.399c-.316 1.33-1.029 2.595-2.47 5.111l-16.224 28.66-.042.074c-1.429 2.5-2.153 3.766-3.156 4.721a9.446 9.446 0 0 1-3.848 2.232c-1.315.364-2.787.364-5.733.364Zm31.59 0h17.925c2.644 0 3.975 0 4.767-.522a3.167 3.167 0 0 0 1.441-2.5c.045-.903-.59-1.998-1.834-4.145a31.607 31.607 0 0 1-.13-.223l-8.978-15.35-.103-.172c-1.261-2.132-1.898-3.209-2.716-3.625a3.155 3.155 0 0 0-2.866 0c-.823.427-1.488 1.55-2.803 3.814l-8.946 15.35-.03.052c-1.31 2.26-1.965 3.388-1.918 4.315a3.205 3.205 0 0 0 1.441 2.5c.776.506 2.106.506 4.75.506Z" fill="#E84142" fill-rule="evenodd"/></g></g></g><g clip-path="url(#i)"><g clip-path="url(#j)"><g clip-path="url(#k)" fill-rule="evenodd"><path d="m537.465 636.666-27.35 57.656a1.12 1.12 0 0 0 .239 1.303l73.866 71.036c.436.42 1.124.42 1.56 0l73.866-71.031a1.12 1.12 0 0 0 .239-1.304l-27.35-57.655a1.106 1.106 0 0 0-1.008-.648h-93.046a1.105 1.105 0 0 0-1.016.643Z" fill="#50AF95"/><path d="M594.49 700.242c-.53.04-3.27.204-9.382.204a204.4 204.4 0 0 1-9.523-.204c-18.786-.829-32.808-4.111-32.808-8.04 0-3.93 14.022-7.207 32.808-8.05v12.822c1.228.088 4.746.297 9.607.297 5.833 0 8.755-.244 9.28-.293v-12.817c18.747.838 32.738 4.12 32.738 8.04 0 3.921-13.987 7.203-32.738 8.037Zm0-17.407V671.36h26.162v-17.496h-71.229v17.496h26.158v11.47c-21.261.98-37.25 5.206-37.25 10.27 0 5.066 15.989 9.288 37.25 10.272v36.766h18.905V703.36c21.212-.98 37.174-5.202 37.174-10.263 0-5.06-15.949-9.282-37.174-10.267Zm0 0Z" fill="#FFF"/></g></g></g></g></svg>