<svg width="715" height="716" xmlns="http://www.w3.org/2000/svg" xml:space="preserve" overflow="hidden"><defs><clipPath id="a"><path d="M190 926h715v716H190z"/></clipPath><clipPath id="c"><path d="M380 1052h329v287H380z"/></clipPath><clipPath id="d"><path d="M380 1052h329v287H380z"/></clipPath><clipPath id="e"><path d="M380 1052h329v287H380z"/></clipPath><clipPath id="f"><path d="M579 1409h132v131H579z"/></clipPath><clipPath id="g"><path d="M579 1409h132v131H579z"/></clipPath><clipPath id="h"><path d="M579 1409h132v131H579z"/></clipPath><clipPath id="i"><path d="M386 1409h135v135H386z"/></clipPath><clipPath id="j"><path d="M386 1409h135v135H386z"/></clipPath><clipPath id="k"><path d="M386 1409h135v135H386z"/></clipPath><linearGradient x1="26.943" y1="356.948" x2="688.284" y2="356.948" gradientUnits="userSpaceOnUse" spreadMethod="pad" id="b"><stop offset="0" stop-color="#008EF0"/><stop offset=".001" stop-color="#008EF0"/><stop offset="1" stop-color="#7FFDFF"/></linearGradient></defs><g clip-path="url(#a)" transform="translate(-190 -926)"><path d="M591.437 123.125c-62.456-62.456-145.489-96.856-233.818-96.856-88.329 0-171.375 34.4-233.831 96.856-62.457 62.457-96.843 145.503-96.843 233.819s34.4 171.362 96.843 233.818c62.443 62.457 145.489 96.856 233.818 96.856 88.329 0 171.362-34.399 233.818-96.856 62.457-62.456 96.856-145.489 96.856-233.818 0-88.329-34.386-171.362-96.843-233.819Z" fill="url(#b)" transform="matrix(1 0 0 1.0014 190 926)"/><path d="M547.619 1641.444c-95.492 0-185.264-37.232-252.792-104.854-67.528-67.623-104.708-157.52-104.708-253.146 0-95.626 37.18-185.525 104.708-253.146 67.528-67.623 157.3-104.855 252.792-104.855 95.492 0 185.265 37.232 252.792 104.855 67.528 67.621 104.708 157.52 104.708 253.146 0 95.625-37.18 185.523-104.708 253.146-67.527 67.622-157.3 104.854-252.792 104.854Zm0-689.124c-88.329 0-171.362 34.447-233.818 96.991-62.457 62.544-96.856 145.693-96.856 234.133s34.4 171.602 96.843 234.145c62.443 62.545 145.489 96.992 233.818 96.992 88.329 0 171.362-34.447 233.818-96.992 62.457-62.543 96.856-145.693 96.856-234.145 0-88.453-34.399-171.602-96.856-234.146-62.456-62.544-145.489-96.978-233.805-96.978Z" fill="#FFF"/><g clip-path="url(#c)"><g clip-path="url(#d)"><g clip-path="url(#e)"><path d="M621.594 1337.964a78.652 78.652 0 0 1-31.634-6.625c-20.453-8.974-36.175-26.294-43.124-47.511l-2.656-8.113-2.657 8.113c-6.95 21.217-22.671 38.537-43.123 47.526-20.453 8.974-43.84 8.828-64.175-.409l-28.627-13.001A41.926 41.926 0 0 1 381 1279.772v-105.207c0-7.851 5.65-14.563 13.387-15.891 45.167-7.792 96.962-11.921 149.793-11.921 17.27 0 34.422.437 51.268 1.298 17.868.92 31.387 16.547 29.84 34.379-26.19-2.262-53.474-3.415-81.108-3.415-45.853 0-90.787 3.196-130.918 9.281v91.49a9.687 9.687 0 0 0 5.679 8.814l27.372 12.447c12.277 5.574 26.466 6.274 38.846.919 12.364-5.355 21.488-15.351 25.678-28.133l5.415-16.547c3.942-12.053 14.95-20.808 27.636-20.91 12.904-.117 23.867 7.762 27.868 19.99l5.298 16.168c4.205 12.812 13.27 23.712 25.576 29.213 12.307 5.501 25.869 5.457 38.117-.117l28.627-13.001a9.687 9.687 0 0 0 5.678-8.813V1053h32.278v226.743a41.926 41.926 0 0 1-24.598 38.172l-28.628 13.001c-10.277 4.699-21.386 7.048-32.51 7.048Z" fill="#FFF"/></g></g></g><g clip-path="url(#f)"><g clip-path="url(#g)"><g clip-path="url(#h)"><path d="M645.5 1409c36.174 0 65.5 29.33 65.5 65.5s-29.326 65.5-65.5 65.5c-36.175 0-65.5-29.33-65.5-65.5s29.325-65.5 65.5-65.5Z"/><path d="M631.155 1445.75c-1.443-1.93-4.013-2.74-6.362-2.01-2.349.73-3.942 2.83-3.942 5.21v10.95h-13.272v10.95h13.272v7.3h-13.272v10.95h13.272v16.43h11.376v-39.61l27.618 36.91c1.443 1.92 4.013 2.74 6.362 2.01 2.349-.73 3.942-2.84 3.942-5.21v-10.53h13.272v-10.95h-13.272v-7.3h13.272v-10.95h-13.272v-16.43h-11.377v39.19l-27.617-36.91Z" fill="#FFF"/></g></g></g><g clip-path="url(#i)"><g clip-path="url(#j)"><g clip-path="url(#k)"><path d="M453 1409c36.99 0 67 30.01 67 67 0 36.99-30.01 67-67 67-36.99 0-67-30.01-67-67 0-36.99 30.01-67 67-67Z" fill="#70D44B"/><path d="M453 1436.36c3.536 0 6.747 2 8.329 5.16l26.148 52.35c2.28 4.6.419 10.19-4.187 12.47a9.197 9.197 0 0 1-4.141.97h-52.298c-5.118 0-9.305-4.18-9.305-9.3 0-1.44.326-2.89.977-4.14l26.149-52.35c1.582-3.21 4.792-5.21 8.328-5.16m0-6.42a15.657 15.657 0 0 0-14.051 8.7l-26.149 52.34a15.727 15.727 0 0 0 7.026 21.08c2.187 1.07 4.606 1.67 7.025 1.67h52.344c8.654 0 15.727-7.02 15.727-15.68 0-2.42-.559-4.83-1.675-7.02l-26.196-52.39a15.657 15.657 0 0 0-14.051-8.7Z" fill="#FFF"/></g></g></g></g></svg>