<svg width="715" height="716" xmlns="http://www.w3.org/2000/svg" xml:space="preserve" overflow="hidden"><defs><clipPath id="a"><path d="M1069 950h715v716h-715z"/></clipPath><clipPath id="c"><path d="M1259 1076h329v287h-329z"/></clipPath><clipPath id="d"><path d="M1259 1076h329v287h-329z"/></clipPath><clipPath id="e"><path d="M1259 1076h329v287h-329z"/></clipPath><clipPath id="f"><path d="M1467 1434h130v130h-130z"/></clipPath><clipPath id="g"><path d="M1467 1434h130v130h-130z"/></clipPath><clipPath id="h"><path d="M1467 1434h130v130h-130z"/></clipPath><clipPath id="i"><path d="M1265 1434h135v134h-135z"/></clipPath><clipPath id="j"><path d="M1265 1434h135v134h-135z"/></clipPath><clipPath id="k"><path d="M1265 1434h135v134h-135z"/></clipPath><linearGradient x1="26.943" y1="356.948" x2="688.284" y2="356.948" gradientUnits="userSpaceOnUse" spreadMethod="pad" id="b"><stop offset="0" stop-color="#008EF0"/><stop offset=".001" stop-color="#008EF0"/><stop offset="1" stop-color="#7FFDFF"/></linearGradient></defs><g clip-path="url(#a)" transform="translate(-1069 -950)"><path d="M591.437 123.125c-62.456-62.456-145.489-96.856-233.818-96.856-88.329 0-171.375 34.4-233.831 96.856-62.457 62.457-96.843 145.503-96.843 233.819s34.4 171.362 96.843 233.818c62.443 62.457 145.489 96.856 233.818 96.856 88.329 0 171.362-34.399 233.818-96.856 62.457-62.456 96.856-145.489 96.856-233.818 0-88.329-34.386-171.362-96.843-233.819Z" fill="url(#b)" transform="matrix(1 0 0 1.0014 1069 950)"/><path d="M1426.619 1665.444c-95.492 0-185.264-37.232-252.792-104.854-67.528-67.623-104.708-157.52-104.708-253.146 0-95.626 37.18-185.525 104.708-253.146 67.528-67.623 157.3-104.855 252.792-104.855 95.492 0 185.265 37.232 252.792 104.855 67.528 67.621 104.708 157.52 104.708 253.146 0 95.625-37.18 185.523-104.708 253.146-67.527 67.622-157.3 104.854-252.792 104.854Zm0-689.124c-88.329 0-171.362 34.447-233.818 96.991-62.457 62.544-96.856 145.693-96.856 234.133s34.4 171.602 96.843 234.145c62.443 62.545 145.489 96.992 233.818 96.992 88.329 0 171.362-34.447 233.818-96.992 62.457-62.543 96.856-145.693 96.856-234.145 0-88.453-34.399-171.602-96.856-234.146-62.456-62.544-145.489-96.978-233.805-96.978Z" fill="#FFF"/><g clip-path="url(#c)"><g clip-path="url(#d)"><g clip-path="url(#e)"><path d="M1500.594 1361.964a78.652 78.652 0 0 1-31.634-6.625c-20.453-8.974-36.175-26.294-43.124-47.511l-2.656-8.113-2.657 8.113c-6.95 21.217-22.671 38.537-43.123 47.526-20.453 8.974-43.84 8.828-64.175-.409l-28.627-13.001a41.926 41.926 0 0 1-24.598-38.172v-105.207c0-7.851 5.65-14.563 13.387-15.891 45.167-7.792 96.962-11.921 149.793-11.921 17.27 0 34.422.437 51.268 1.298 17.868.92 31.387 16.547 29.84 34.379-26.19-2.262-53.474-3.415-81.108-3.415-45.853 0-90.787 3.196-130.918 9.281v91.49a9.687 9.687 0 0 0 5.679 8.814l27.372 12.447c12.277 5.574 26.466 6.274 38.846.919 12.364-5.355 21.488-15.351 25.678-28.133l5.415-16.547c3.942-12.053 14.95-20.808 27.636-20.91 12.904-.117 23.867 7.762 27.868 19.99l5.298 16.168c4.205 12.812 13.27 23.712 25.576 29.213 12.307 5.501 25.869 5.457 38.117-.117l28.627-13.001a9.687 9.687 0 0 0 5.678-8.813V1077h32.278v226.743a41.926 41.926 0 0 1-24.598 38.172l-28.628 13.001c-10.277 4.699-21.386 7.048-32.51 7.048Z" fill="#FFF"/></g></g></g><g clip-path="url(#f)"><g clip-path="url(#g)"><g clip-path="url(#h)"><path d="M1531.5 1563c35.74 0 64.5-28.76 64.5-64.5 0-35.74-28.76-64.5-64.5-64.5-35.74 0-64.5 28.76-64.5 64.5 0 35.74 28.76 64.5 64.5 64.5Z" fill="#2775CA"/><path d="M1549.24 1508.71c0-9.4-5.65-12.63-16.93-13.97-8.07-1.08-9.68-3.23-9.68-6.99 0-3.76 2.69-6.18 8.06-6.18 4.84 0 7.53 1.61 8.87 5.64.27.81 1.08 1.35 1.88 1.35h4.3c1.08 0 1.88-.81 1.88-1.88v-.27c-1.07-5.92-5.91-10.48-12.09-11.02v-6.45c0-1.08-.8-1.88-2.15-2.15h-4.03c-1.07 0-1.88.8-2.15 2.15v6.18c-8.06 1.07-13.17 6.45-13.17 13.17 0 8.87 5.38 12.36 16.66 13.7 7.53 1.35 9.95 2.96 9.95 7.26s-3.77 7.26-8.87 7.26c-6.99 0-9.41-2.96-10.21-6.99-.27-1.08-1.08-1.61-1.88-1.61h-4.57c-1.08 0-1.88.8-1.88 1.88v.27c1.07 6.71 5.37 11.55 14.24 12.9v6.45c0 1.07.81 1.88 2.15 2.15h4.03c1.08 0 1.88-.81 2.15-2.15v-6.45c8.06-1.35 13.44-6.99 13.44-14.25Z" fill="#FFF"/><path d="M1517.79 1536.93c-20.96-7.52-31.71-30.9-23.91-51.6 4.03-11.29 12.9-19.89 23.91-23.92 1.08-.53 1.62-1.34 1.62-2.69v-3.76c0-1.07-.54-1.88-1.62-2.15-.27 0-.8 0-1.07.27-25.53 8.06-39.51 35.21-31.45 60.74 4.84 15.05 16.4 26.61 31.45 31.44 1.07.54 2.15 0 2.42-1.07.27-.27.27-.54.27-1.08v-3.76c0-.81-.81-1.88-1.62-2.42Zm28.49-83.85c-1.07-.54-2.15 0-2.42 1.08-.27.27-.27.53-.27 1.07v3.76c0 1.08.81 2.15 1.62 2.69 20.96 7.53 31.71 30.91 23.91 51.6-4.03 11.29-12.9 19.89-23.91 23.92-1.08.54-1.62 1.34-1.62 2.69v3.76c0 1.08.54 1.88 1.62 2.15.27 0 .8 0 1.07-.27 25.53-8.06 39.51-35.21 31.45-60.74-4.84-15.31-16.67-26.87-31.45-31.71Z" fill="#FFF"/></g></g></g><g clip-path="url(#i)"><g clip-path="url(#j)"><g clip-path="url(#k)"><path d="M1332 1434c36.99 0 67 29.786 67 66.5s-30.01 66.5-67 66.5c-36.99 0-67-29.786-67-66.5s30.01-66.5 67-66.5Z" fill="#70D44B"/><path d="M1332 1461.154a9.313 9.313 0 0 1 8.329 5.126l26.148 51.953a9.197 9.197 0 0 1-4.187 12.377 9.24 9.24 0 0 1-4.141.97h-52.298c-5.118 0-9.305-4.157-9.305-9.237 0-1.431.326-2.863.977-4.11l26.149-51.953c1.582-3.186 4.792-5.172 8.328-5.126m0-6.373c-5.955 0-11.4 3.325-14.051 8.636l-26.149 51.953c-3.862 7.712-.744 17.04 7.026 20.92 2.187 1.062 4.606 1.662 7.025 1.662h52.344c8.654 0 15.727-6.973 15.727-15.562 0-2.402-.558-4.803-1.676-6.974l-26.195-51.999c-2.652-5.31-8.095-8.636-14.05-8.636Z" fill="#FFF"/></g></g></g></g></svg>