<svg width="716" height="716" xmlns="http://www.w3.org/2000/svg" xml:space="preserve" overflow="hidden"><defs><clipPath id="a"><path d="M3334 926h716v716h-716z"/></clipPath><clipPath id="c"><path d="M3525 1052h329v287h-329z"/></clipPath><clipPath id="d"><path d="M3525 1052h329v287h-329z"/></clipPath><clipPath id="e"><path d="M3525 1052h329v287h-329z"/></clipPath><clipPath id="f"><path d="M3723 1409h130v129h-130z"/></clipPath><clipPath id="g"><path d="M3723 1409h130v129h-130z"/></clipPath><clipPath id="h"><path d="M3723 1409h130v129h-130z"/></clipPath><clipPath id="i"><path d="M3521 1409h129v129h-129z"/></clipPath><clipPath id="j"><path d="M3521 1409h129v129h-129z"/></clipPath><clipPath id="k"><path d="M3521 1409h129v129h-129z"/></clipPath><linearGradient x1="3360.98" y1="1283.45" x2="4023.25" y2="1283.45" gradientUnits="userSpaceOnUse" spreadMethod="pad" id="b"><stop offset="0" stop-color="#008EF0"/><stop offset=".001" stop-color="#008EF0"/><stop offset="1" stop-color="#7FFDFF"/></linearGradient></defs><g clip-path="url(#a)" transform="translate(-3334 -926)"><path d="M3926.26 1049.3c-62.54-62.546-145.69-96.994-234.14-96.994-88.45 0-171.62 34.448-234.16 96.994-62.54 62.54-96.98 145.7-96.98 234.14s34.45 171.6 96.98 234.15c62.53 62.54 145.69 96.99 234.15 96.99 88.45 0 171.6-34.45 234.14-96.99 62.55-62.55 96.99-145.69 96.99-234.15 0-88.45-34.43-171.6-96.98-234.14Z" fill="url(#b)"/><path d="M3692.12 1641.44c-95.63 0-185.52-37.23-253.15-104.85-67.62-67.62-104.85-157.52-104.85-253.15 0-95.62 37.23-185.52 104.85-253.14 67.63-67.625 157.52-104.857 253.15-104.857s185.52 37.232 253.15 104.857c67.62 67.62 104.85 157.52 104.85 253.14 0 95.63-37.23 185.53-104.85 253.15-67.63 67.62-157.52 104.85-253.15 104.85Zm0-689.12c-88.45 0-171.6 34.447-234.15 96.99-62.54 62.55-96.99 145.69-96.99 234.13s34.45 171.6 96.98 234.15c62.53 62.54 145.69 96.99 234.15 96.99 88.45 0 171.6-34.45 234.14-96.99 62.55-62.55 96.99-145.69 96.99-234.15 0-88.45-34.44-171.6-96.99-234.14-62.54-62.546-145.69-96.98-234.13-96.98Z" fill="#FFF"/><g clip-path="url(#c)"><g clip-path="url(#d)"><g clip-path="url(#e)"><path d="M3766.594 1337.964a78.652 78.652 0 0 1-31.634-6.625c-20.453-8.974-36.175-26.294-43.124-47.511l-2.656-8.113-2.657 8.113c-6.95 21.217-22.671 38.537-43.123 47.526-20.453 8.974-43.84 8.828-64.175-.409l-28.627-13.001a41.926 41.926 0 0 1-24.598-38.172v-105.207c0-7.851 5.65-14.563 13.387-15.891 45.167-7.792 96.962-11.921 149.793-11.921 17.27 0 34.422.437 51.268 1.298 17.868.92 31.387 16.547 29.84 34.379-26.19-2.262-53.474-3.415-81.108-3.415-45.853 0-90.787 3.196-130.918 9.281v91.49a9.687 9.687 0 0 0 5.679 8.814l27.372 12.447c12.277 5.574 26.466 6.274 38.846.919 12.364-5.355 21.488-15.351 25.678-28.133l5.415-16.547c3.942-12.053 14.95-20.808 27.636-20.91 12.904-.117 23.867 7.762 27.868 19.99l5.298 16.168c4.205 12.812 13.27 23.712 25.576 29.213 12.307 5.501 25.869 5.457 38.117-.117l28.627-13.001a9.687 9.687 0 0 0 5.678-8.813V1053h32.278v226.743a41.926 41.926 0 0 1-24.598 38.172l-28.628 13.001c-10.277 4.699-21.386 7.048-32.51 7.048Z" fill="#FFF"/></g></g></g><g clip-path="url(#f)"><g clip-path="url(#g)"><g clip-path="url(#h)"><path d="M3787.5 1538c35.74 0 64.5-28.76 64.5-64.5 0-35.74-28.76-64.5-64.5-64.5-35.74 0-64.5 28.76-64.5 64.5 0 35.74 28.76 64.5 64.5 64.5Z" fill="#2775CA"/><path d="M3805.24 1483.71c0-9.4-5.65-12.63-16.93-13.97-8.07-1.08-9.68-3.23-9.68-6.99 0-3.76 2.69-6.18 8.06-6.18 4.84 0 7.53 1.61 8.87 5.64.27.81 1.08 1.35 1.88 1.35h4.3c1.08 0 1.89-.81 1.89-1.88v-.27c-1.08-5.92-5.92-10.49-12.1-11.02v-6.45c0-1.08-.8-1.88-2.15-2.15h-4.03c-1.07 0-1.88.8-2.15 2.15v6.18c-8.06 1.07-13.17 6.45-13.17 13.17 0 8.87 5.38 12.36 16.66 13.7 7.53 1.35 9.95 2.96 9.95 7.26s-3.76 7.26-8.87 7.26c-6.99 0-9.41-2.96-10.21-6.99-.27-1.08-1.08-1.61-1.88-1.61h-4.57c-1.08 0-1.88.8-1.88 1.88v.27c1.07 6.71 5.37 11.55 14.24 12.9v6.45c0 1.07.81 1.88 2.15 2.15h4.03c1.08 0 1.88-.81 2.15-2.15v-6.45c8.06-1.35 13.44-6.99 13.44-14.25Z" fill="#FFF"/><path d="M3773.79 1511.93c-20.96-7.52-31.71-30.9-23.91-51.6 4.03-11.29 12.9-19.89 23.91-23.92 1.08-.53 1.62-1.34 1.62-2.69v-3.76c0-1.07-.54-1.88-1.62-2.15-.27 0-.8 0-1.07.27-25.53 8.06-39.51 35.21-31.45 60.74 4.84 15.05 16.4 26.6 31.45 31.44 1.07.54 2.15 0 2.42-1.07.27-.27.27-.54.27-1.08v-3.76c0-.81-.81-1.88-1.62-2.42Zm28.49-83.85c-1.07-.54-2.15 0-2.42 1.08-.27.27-.27.53-.27 1.07v3.76c0 1.08.81 2.15 1.62 2.69 20.96 7.53 31.71 30.91 23.91 51.6-4.03 11.29-12.9 19.89-23.91 23.92-1.08.54-1.62 1.34-1.62 2.69v3.76c0 1.08.54 1.88 1.62 2.15.27 0 .8 0 1.07-.27 25.53-8.06 39.51-35.21 31.45-60.74-4.84-15.32-16.67-26.87-31.45-31.71Z" fill="#FFF"/></g></g></g><g clip-path="url(#i)"><g clip-path="url(#j)"><g clip-path="url(#k)"><path d="M3650 1473.5c0 35.62-28.88 64.5-64.5 64.5-35.62 0-64.5-28.88-64.5-64.5 0-35.62 28.88-64.5 64.5-64.5 35.62 0 64.5 28.88 64.5 64.5Z" fill="#1969FF" fill-rule="evenodd"/><path d="M3581.59 1429.51c2.17-1.14 5.48-1.14 7.65 0l22.18 11.69c1.3.69 2.02 1.72 2.15 2.78h.02v58.76c-.03 1.16-.75 2.31-2.17 3.06l-22.18 11.69c-2.17 1.14-5.48 1.14-7.65 0l-22.18-11.69c-1.41-.75-2.09-1.91-2.13-3.06v-58.76h.01c.1-1.07.79-2.07 2.12-2.78l22.18-11.69Zm28.48 47.14-20.84 11.02c-2.17 1.15-5.47 1.15-7.64 0l-20.78-11v25.89l20.78 10.93c1.23.66 2.51 1.3 3.75 1.33h.07c1.25 0 2.45-.63 3.67-1.22l20.99-11.14v-25.81Zm-56.26 24.82c0 2.25.26 3.73.77 4.77.43.87 1.07 1.53 2.24 2.33l.07.05c.25.17.54.36.88.57l.41.25 1.24.76-1.79 2.98-1.39-.85-.24-.14c-.4-.25-.73-.47-1.04-.68-3.34-2.27-4.58-4.74-4.61-9.89v-.15h3.46Zm29.93-40.44c-.17.05-.32.12-.45.19l-22.14 11.73c-.03.01-.05.02-.07.04l-.02.01.04.02.05.02 22.14 11.73c.13.07.28.14.45.19v-23.93Zm3.52 0v23.93c.17-.05.32-.12.45-.19l22.14-11.73c.03-.01.05-.02.07-.03l.02-.01-.04-.02-.05-.03-22.14-11.73c-.13-.07-.28-.14-.45-.19Zm22.81-12.85-19.91 10.45 19.91 10.46v-20.91Zm-49.26 0v20.91l19.9-10.46-19.9-10.45Zm26.88-15.54c-1.15-.61-3.23-.61-4.38 0l-22.16 11.71c-.03.01-.05.03-.07.04l-.02.01.04.02.05.03 22.16 11.71c1.15.61 3.23.61 4.38 0l22.16-11.71c.03-.02.05-.03.07-.04l.02-.01-.04-.02-.05-.03-22.16-11.71Zm25.68 1.18 1.39.85.24.14c.4.25.73.47 1.04.68 3.34 2.27 4.58 4.74 4.61 9.89v.15h-3.46c0-2.25-.26-3.73-.77-4.77-.43-.87-1.07-1.53-2.24-2.33l-.07-.05c-.25-.17-.54-.36-.88-.57l-.41-.25-1.24-.76 1.79-2.98Z" fill="#FFF"/></g></g></g></g></svg>