<svg width="861" height="863" xmlns="http://www.w3.org/2000/svg" xml:space="preserve" overflow="hidden"><defs><clipPath id="a"><path d="M2150 1398h861v863h-861z"/></clipPath><clipPath id="b"><path d="M2387 1981h160v162h-160z"/></clipPath><clipPath id="c"><path d="M2387 1981h160v162h-160z"/></clipPath><clipPath id="d"><path d="M2387 1981h160v162h-160z"/></clipPath><clipPath id="e"><path d="M2620 1981h160v162h-160z"/></clipPath><clipPath id="f"><path d="M2620 1981h160v162h-160z"/></clipPath><clipPath id="g"><path d="M2620 1981h160v162h-160z"/></clipPath><clipPath id="h"><path d="M2465 2096h87v69h-87z"/></clipPath><clipPath id="i"><path d="M2465 2096h87v69h-87z"/></clipPath><clipPath id="j"><path d="M2465 2096h87v69h-87z"/></clipPath><clipPath id="n"><path d="M2701 2082h88v87h-88z"/></clipPath><clipPath id="o"><path d="M2701 2082h88v87h-88z"/></clipPath><clipPath id="p"><path d="M2701 2082h88v87h-88z"/></clipPath><linearGradient x1="78.713" y1="-8.169" x2="30.8" y2="83.601" gradientUnits="userSpaceOnUse" spreadMethod="pad" id="k"><stop offset="0" stop-color="#00FFA3"/><stop offset="1" stop-color="#DC1FFF"/></linearGradient><linearGradient x1="57.763" y1="-19.107" x2="9.851" y2="72.664" gradientUnits="userSpaceOnUse" spreadMethod="pad" id="l"><stop offset="0" stop-color="#00FFA3"/><stop offset="1" stop-color="#DC1FFF"/></linearGradient><linearGradient x1="68.171" y1="-13.673" x2="20.259" y2="78.098" gradientUnits="userSpaceOnUse" spreadMethod="pad" id="m"><stop offset="0" stop-color="#00FFA3"/><stop offset="1" stop-color="#DC1FFF"/></linearGradient></defs><g clip-path="url(#a)" transform="translate(-2150 -1398)"><path d="M2862.29 1546.87c-75.27-75.36-175.33-116.87-281.78-116.87-106.45 0-206.53 41.51-281.8 116.87C2223.44 1622.23 2182 1722.44 2182 1829s41.46 206.77 116.71 282.13c75.25 75.36 175.33 116.87 281.78 116.87 106.45 0 206.52-41.51 281.79-116.87C2937.54 2035.77 2979 1935.58 2979 1829c0-106.58-41.44-206.77-116.71-282.13Z" fill-rule="evenodd"/><path d="M2580.5 2261c-114.99 0-223.09-44.88-304.41-126.38-81.32-81.51-126.09-189.86-126.09-305.12 0-115.26 44.77-223.61 126.09-305.12 81.32-81.5 189.42-126.38 304.41-126.38 114.99 0 223.1 44.88 304.41 126.38 81.32 81.51 126.09 189.86 126.09 305.12 0 115.26-44.77 223.61-126.09 305.12-81.31 81.5-189.42 126.38-304.41 126.38Zm0-830.61c-106.37 0-206.35 41.52-281.56 116.91-75.21 75.38-116.64 175.6-116.64 282.2s41.43 206.83 116.62 282.22c75.2 75.38 175.2 116.9 281.56 116.9 106.37 0 206.36-41.52 281.57-116.9 75.21-75.39 116.63-175.61 116.63-282.22 0-106.61-41.42-206.83-116.63-282.22-75.21-75.38-175.2-116.89-281.55-116.89Z" fill="#FFF" fill-rule="evenodd"/><g clip-path="url(#b)"><g clip-path="url(#c)"><g clip-path="url(#d)" stroke-width="6.544" stroke-linecap="round" stroke-linejoin="round"><path d="M152.551 77.625c0 42.046-34.085 76.132-76.131 76.132-42.047 0-76.132-34.086-76.132-76.132C.288 35.58 34.374 1.494 76.42 1.494c42.046 0 76.131 34.085 76.131 76.131Z" stroke="#ABA3B1" fill="#ABA3B1" transform="matrix(1 0 0 1.00257 2390.17 1984.18)"/><path d="M112.291 91.903c-5.628-2.25-8.396-3.564-10.693-1.407 1.173-2.344.704-2.485-.28-4.221-1.97-3.47-7.181-9.152-8.982-19.996a57.747 57.747 0 0 0 3.212-12.647s1.101-3.1-3.716-1.584a22.302 22.302 0 0 1-15.783-2.33c-8.154-4.53-8.886-10.415-11.238-11.722-1.635-.903-6.468 4.147-6.468 4.147L42.459 60.656l-1.222 2.282a2.851 2.851 0 0 0 .233 3.067c4.524 6.03 23.357 31.143 32.263 41.862a35.734 35.734 0 0 0 14.216 5.275l24.377.225c3.186-.158 6.034-.401 8.306-.654a4.025 4.025 0 0 0 3.327-2.586c2.588-6.935-1.542-14.173-11.668-18.224Z" stroke="#000" fill="none" transform="matrix(1 0 0 1.00257 2390.17 1984.18)"/><path d="M103.187 132.353c-26.072 12.748-57.517 5.307-75.113-17.771-17.595-23.081-16.443-55.373 2.754-77.137C50.025 15.678 81.92 10.5 107.016 25.074c25.098 14.574 36.407 44.844 27.018 72.304m-44.81 15.992H49.013m16.246-13.074H38.996m15.958-13.001H30.701M45.659 74.2h-18.98" stroke="#000" fill="none" transform="matrix(1 0 0 1.00257 2390.17 1984.18)"/><path d="m70.151 63.064 7.95 11.513-7.627.95 7.813 11.278" stroke="#000" fill="none" transform="matrix(1 0 0 1.00257 2390.17 1984.18)"/></g></g></g><g clip-path="url(#e)"><g clip-path="url(#f)"><g clip-path="url(#g)" stroke-width="6.544" stroke-linecap="round" stroke-linejoin="round"><path d="M152.551 77.625c0 42.046-34.085 76.132-76.131 76.132-42.047 0-76.132-34.086-76.132-76.132C.288 35.58 34.374 1.494 76.42 1.494c42.046 0 76.131 34.085 76.131 76.131Z" stroke="#ABA3B1" fill="#ABA3B1" transform="matrix(1 0 0 1.00257 2623.17 1984.18)"/><path d="M112.291 91.903c-5.628-2.25-8.396-3.564-10.693-1.407 1.173-2.344.704-2.485-.28-4.221-1.97-3.47-7.181-9.152-8.982-19.996a57.747 57.747 0 0 0 3.212-12.647s1.101-3.1-3.716-1.584a22.302 22.302 0 0 1-15.783-2.33c-8.154-4.53-8.886-10.415-11.238-11.722-1.635-.903-6.468 4.147-6.468 4.147L42.459 60.656l-1.222 2.282a2.851 2.851 0 0 0 .233 3.067c4.524 6.03 23.357 31.143 32.263 41.862a35.734 35.734 0 0 0 14.216 5.275l24.377.225c3.186-.158 6.034-.401 8.306-.654a4.025 4.025 0 0 0 3.327-2.586c2.588-6.935-1.542-14.173-11.668-18.224Z" stroke="#000" fill="none" transform="matrix(1 0 0 1.00257 2623.17 1984.18)"/><path d="M103.187 132.353c-26.072 12.748-57.517 5.307-75.113-17.771-17.595-23.081-16.443-55.373 2.754-77.137C50.025 15.678 81.92 10.5 107.016 25.074c25.098 14.574 36.407 44.844 27.018 72.304m-44.81 15.992H49.013m16.246-13.074H38.996m15.958-13.001H30.701M45.659 74.2h-18.98" stroke="#000" fill="none" transform="matrix(1 0 0 1.00257 2623.17 1984.18)"/><path d="m70.151 63.064 7.95 11.513-7.627.95 7.813 11.278" stroke="#000" fill="none" transform="matrix(1 0 0 1.00257 2623.17 1984.18)"/></g></g></g><path d="M2669.79 1895.01c-12.99 0-25.97-2.65-38.1-7.97-24.63-10.81-43.56-31.65-51.93-57.19l-3.2-9.76-3.2 9.76c-8.37 25.54-27.3 46.38-51.93 57.2-24.63 10.8-52.8 10.63-77.29-.49l-34.47-15.65c-18.04-8.18-29.63-26.15-29.63-45.94v-126.63c0-9.45 6.81-17.52 16.12-19.12 54.4-9.38 116.78-14.35 180.4-14.35 20.8 0 41.46.53 61.74 1.56 21.52 1.11 37.8 19.92 35.94 41.38-31.54-2.72-64.4-4.11-97.68-4.11-55.22 0-109.33 3.85-157.66 11.17v110.12c0 4.56 2.67 8.71 6.84 10.6l32.96 14.99c14.78 6.7 31.87 7.55 46.78 1.1 14.89-6.44 25.88-18.47 30.93-33.86l6.52-19.91c4.75-14.51 18-25.05 33.28-25.17 15.54-.14 28.74 9.34 33.56 24.06l6.38 19.46c5.07 15.42 15.98 28.54 30.8 35.16 14.82 6.62 31.16 6.57 45.91-.14l34.47-15.65c4.17-1.9 6.84-6.04 6.84-10.61v-272.99h38.87v272.9c0 19.8-11.58 37.76-29.62 45.95l-34.48 15.65c-12.37 5.65-25.75 8.48-39.15 8.48Z" fill="#FFF" fill-rule="evenodd"/><g clip-path="url(#h)"><g clip-path="url(#i)"><g clip-path="url(#j)"><path d="M14.09 51.89a2.838 2.838 0 0 1 2.007-.83h69.229c1.265 0 1.898 1.527 1.003 2.421L72.654 67.157a2.838 2.838 0 0 1-2.007.829H1.417c-1.264 0-1.897-1.527-1.003-2.421L14.09 51.889Z" fill="url(#k)" transform="matrix(1.00295 0 0 1 2465 2097.01)"/><path d="M14.09.829A2.917 2.917 0 0 1 16.097 0h69.229c1.265 0 1.898 1.527 1.003 2.421L72.654 16.097a2.838 2.838 0 0 1-2.007.829H1.417c-1.264 0-1.897-1.527-1.003-2.421L14.09.829Z" fill="url(#l)" transform="matrix(1.00295 0 0 1 2465 2097.01)"/><path d="M72.653 26.195a2.838 2.838 0 0 0-2.006-.828H1.417c-1.264 0-1.897 1.526-1.003 2.42L14.09 41.464a2.838 2.838 0 0 0 2.007.83h69.229c1.265 0 1.898-1.528 1.003-2.422L72.654 26.195Z" fill="url(#m)" transform="matrix(1.00295 0 0 1 2465 2097.01)"/></g></g></g><g clip-path="url(#n)"><g clip-path="url(#o)"><g clip-path="url(#p)" fill="#F3BA2F"><path d="m2728.604 2118.138 16.896-16.702 16.904 16.709 9.83-9.718L2745.5 2082l-26.726 26.42 9.83 9.717M2702 2125l9.831-9.72 9.83 9.718-9.83 9.718Zm26.604 6.863 16.896 16.7 16.904-16.708 9.836 9.713-.005.005L2745.5 2168l-26.726-26.42-.014-.013 9.845-9.705m40.733-6.858 9.831-9.718 9.83 9.717-9.83 9.718Z"/><path d="M2755.47 2124.995h.005l-9.975-9.861-7.373 7.286-.847.837-1.747 1.728-.014.013.014.014 9.967 9.854 9.976-9.861.005-.006-.01-.004"/></g></g></g></g></svg>