<svg width="862" height="863" xmlns="http://www.w3.org/2000/svg" xml:space="preserve" overflow="hidden"><defs><clipPath id="a"><path d="M1174 1397h862v863h-862z"/></clipPath><clipPath id="b"><path d="M1410 1980h162v162h-162z"/></clipPath><clipPath id="c"><path d="M1410 1980h162v162h-162z"/></clipPath><clipPath id="d"><path d="M1410 1980h162v162h-162z"/></clipPath><clipPath id="e"><path d="M1644 1980h163v162h-163z"/></clipPath><clipPath id="f"><path d="M1644 1980h163v162h-163z"/></clipPath><clipPath id="g"><path d="M1644 1980h163v162h-163z"/></clipPath><clipPath id="h"><path d="M1490 2096h87v69h-87z"/></clipPath><clipPath id="i"><path d="M1490 2096h87v69h-87z"/></clipPath><clipPath id="j"><path d="M1490 2096h87v69h-87z"/></clipPath><clipPath id="n"><path d="M1727 2082h86v87h-86z"/></clipPath><clipPath id="o"><path d="M1727 2082h86v87h-86z"/></clipPath><clipPath id="p"><path d="M1727 2082h86v87h-86z"/></clipPath><linearGradient x1="78.038" y1="-8.099" x2="30.536" y2="82.885" gradientUnits="userSpaceOnUse" spreadMethod="pad" id="k"><stop offset="0" stop-color="#00FFA3"/><stop offset="1" stop-color="#DC1FFF"/></linearGradient><linearGradient x1="57.267" y1="-18.943" x2="9.766" y2="72.041" gradientUnits="userSpaceOnUse" spreadMethod="pad" id="l"><stop offset="0" stop-color="#00FFA3"/><stop offset="1" stop-color="#DC1FFF"/></linearGradient><linearGradient x1="67.586" y1="-13.556" x2="20.085" y2="77.428" gradientUnits="userSpaceOnUse" spreadMethod="pad" id="m"><stop offset="0" stop-color="#00FFA3"/><stop offset="1" stop-color="#DC1FFF"/></linearGradient></defs><g clip-path="url(#a)" transform="translate(-1174 -1397)"><path d="M1605 2260c-115.12 0-223.35-44.88-304.76-126.38-81.42-81.51-126.24-189.86-126.24-305.12 0-115.26 44.82-223.61 126.24-305.12 81.41-81.5 189.64-126.38 304.76-126.38s223.35 44.88 304.76 126.38c81.42 81.51 126.24 189.86 126.24 305.12 0 115.26-44.82 223.61-126.24 305.12-81.41 81.5-189.64 126.38-304.76 126.38Zm0-830.61c-106.49 0-206.59 41.52-281.89 116.91-75.3 75.38-116.77 175.6-116.77 282.2s41.47 206.83 116.75 282.22c75.29 75.38 175.41 116.9 281.89 116.9 106.49 0 206.6-41.52 281.89-116.9 75.3-75.39 116.77-175.61 116.77-282.22 0-106.61-41.47-206.83-116.77-282.22-75.29-75.38-175.4-116.89-281.87-116.89Z" fill="#FFF" fill-rule="evenodd"/><path d="M1886.29 1546.87c-75.27-75.36-175.33-116.87-281.78-116.87-106.45 0-206.53 41.51-281.8 116.87C1247.44 1622.23 1206 1722.44 1206 1829s41.46 206.77 116.71 282.13c75.25 75.36 175.33 116.87 281.78 116.87 106.45 0 206.52-41.51 281.79-116.87C1961.54 2035.77 2003 1935.58 2003 1829c0-106.58-41.44-206.77-116.71-282.13Z" fill-rule="evenodd"/><g clip-path="url(#b)"><g clip-path="url(#c)"><g clip-path="url(#d)" stroke-width="6.561" stroke-linecap="round" stroke-linejoin="round"><path d="M1567.5 2061c0 42.16-34.18 76.33-76.33 76.33s-76.33-34.17-76.33-76.33c0-42.15 34.18-76.33 76.33-76.33s76.33 34.18 76.33 76.33Z" stroke="#E6BC7B" fill="#E6BC7B"/><path d="M1500.69 2019.37v19.26h-19.05v-19.26m.01 83.26v-19.26h19.04v19.26" stroke="#000" fill="none"/><path d="M1481.65 2060.43h40.53v22.95h-62.02v-44.75h62.02" stroke="#000" fill="none"/><path d="M1552.91 2061c0 34.1-27.64 61.74-61.74 61.74s-61.74-27.64-61.74-61.74 27.64-61.74 61.74-61.74 61.74 27.64 61.74 61.74Z" stroke="#000" fill="none"/></g></g></g><g clip-path="url(#e)"><g clip-path="url(#f)"><g clip-path="url(#g)" stroke-width="6.561" stroke-linecap="round" stroke-linejoin="round"><path d="M1801.5 2061c0 42.16-34.18 76.33-76.33 76.33s-76.33-34.17-76.33-76.33c0-42.15 34.18-76.33 76.33-76.33s76.33 34.18 76.33 76.33Z" stroke="#E6BC7B" fill="#E6BC7B"/><path d="M1734.69 2019.37v19.26h-19.05v-19.26m.01 83.26v-19.26h19.04v19.26" stroke="#000" fill="none"/><path d="M1715.65 2060.43h40.53v22.95h-62.02v-44.75h62.02" stroke="#000" fill="none"/><path d="M1786.91 2061c0 34.1-27.64 61.74-61.74 61.74s-61.74-27.64-61.74-61.74 27.64-61.74 61.74-61.74 61.74 27.64 61.74 61.74Z" stroke="#000" fill="none"/></g></g></g><path d="M1693.79 1895.01a94.52 94.52 0 0 1-38.1-8c-24.63-10.83-43.56-31.74-51.93-57.35l-3.2-9.79-3.2 9.79c-8.37 25.61-27.3 46.52-51.93 57.37-24.63 10.83-52.8 10.66-77.29-.49l-34.47-15.7c-18.04-8.21-29.63-26.22-29.63-46.07v-127c0-9.48 6.81-17.58 16.12-19.18 54.4-9.41 116.78-14.39 180.4-14.39 20.8 0 41.46.53 61.74 1.57 21.52 1.1 37.8 19.97 35.94 41.49-31.54-2.73-64.4-4.12-97.68-4.12-55.22 0-109.33 3.86-157.66 11.2v110.44c0 4.58 2.67 8.74 6.84 10.64l32.96 15.03c14.78 6.72 31.87 7.57 46.78 1.11 14.89-6.47 25.88-18.53 30.93-33.96l6.52-19.98c4.74-14.55 18-25.11 33.28-25.24 15.54-.14 28.74 9.37 33.56 24.13l6.38 19.52c5.07 15.46 15.98 28.62 30.8 35.26 14.82 6.64 31.16 6.59 45.91-.14l34.47-15.69a11.7 11.7 0 0 0 6.84-10.64v-273.79h38.87v273.7c0 19.85-11.58 37.87-29.62 46.08l-34.48 15.69c-12.37 5.67-25.75 8.51-39.15 8.51Z" fill="#FFF" fill-rule="evenodd"/><g clip-path="url(#h)"><g clip-path="url(#i)"><g clip-path="url(#j)"><path d="M13.97 51.444a2.814 2.814 0 0 1 1.989-.822h68.635c1.255 0 1.882 1.514.995 2.4l-13.558 13.56a2.814 2.814 0 0 1-1.99.821H1.406c-1.255 0-1.882-1.514-.995-2.4l13.558-13.559Z" fill="url(#k)" transform="matrix(1 0 0 1.00865 1490 2097.01)"/><path d="M13.97.822A2.892 2.892 0 0 1 15.958 0h68.635c1.255 0 1.882 1.514.995 2.4L72.031 15.96a2.814 2.814 0 0 1-1.99.822H1.406c-1.255 0-1.882-1.514-.995-2.4L13.969.82Z" fill="url(#l)" transform="matrix(1 0 0 1.00865 1490 2097.01)"/><path d="M72.03 25.97a2.814 2.814 0 0 0-1.989-.82H1.406c-1.255 0-1.882 1.513-.995 2.4l13.558 13.558a2.814 2.814 0 0 0 1.99.822h68.635c1.255 0 1.882-1.514.995-2.4L72.031 25.97Z" fill="url(#m)" transform="matrix(1 0 0 1.00865 1490 2097.01)"/></g></g></g><g clip-path="url(#n)"><g clip-path="url(#o)"><g clip-path="url(#p)" fill="#F3BA2F"><path d="m1753.3 2118.14 16.7-16.7 16.71 16.71 9.72-9.72L1770 2082l-26.42 26.42 9.72 9.72M1727 2125l9.72-9.72 9.72 9.72-9.72 9.72Zm26.3 6.86 16.7 16.7 16.71-16.7 9.72 9.71L1770 2168l-26.42-26.42-.01-.01 9.73-9.71m40.26-6.86 9.72-9.71 9.72 9.71-9.72 9.72Z"/><path d="m1779.86 2124.99-9.86-9.86-7.29 7.29-.84.84-1.72 1.72-.02.02.02.01 9.85 9.86 9.86-9.86.01-.01-.01-.01"/></g></g></g></g></svg>