<svg width="715" height="715" xmlns="http://www.w3.org/2000/svg" xmlns:xlink="http://www.w3.org/1999/xlink" xml:space="preserve" overflow="hidden"><defs><clipPath id="clip0"><rect x="973" y="1700" width="715" height="715"/></clipPath><linearGradient x1="999.943" y1="2056.95" x2="1661.28" y2="2056.95" gradientUnits="userSpaceOnUse" spreadMethod="pad" id="fill1"><stop offset="0" stop-color="#008EF0"/><stop offset="0.00127816" stop-color="#008EF0"/><stop offset="1" stop-color="#7FFDFF"/></linearGradient><clipPath id="clip2"><rect x="1153" y="1824" width="328" height="287"/></clipPath><clipPath id="clip3"><rect x="1153" y="1824" width="328" height="287"/></clipPath><clipPath id="clip4"><rect x="1153" y="1824" width="328" height="287"/></clipPath><clipPath id="clip5"><rect x="1332" y="2185" width="150" height="131"/></clipPath><clipPath id="clip6"><rect x="1332" y="2185" width="150" height="131"/></clipPath><clipPath id="clip7"><rect x="1332" y="2185" width="150" height="131"/></clipPath><clipPath id="clip8"><rect x="1120" y="2135" width="218" height="218"/></clipPath><clipPath id="clip9"><rect x="1120" y="2135" width="218" height="218"/></clipPath><clipPath id="clip10"><rect x="1120" y="2135" width="218" height="218"/></clipPath><linearGradient x1="217" y1="188.416" x2="120.543" y2="34.7657" gradientUnits="userSpaceOnUse" spreadMethod="pad" id="fill11"><stop offset="0" stop-color="#E40C5B"/><stop offset="1" stop-color="#FF4C3B"/></linearGradient><linearGradient x1="217" y1="188.416" x2="120.543" y2="34.7657" gradientUnits="userSpaceOnUse" spreadMethod="pad" id="fill12"><stop offset="0" stop-color="#E40C5B"/><stop offset="1" stop-color="#FF4C3B"/></linearGradient></defs><g clip-path="url(#clip0)" transform="translate(-973 -1700)"><path d="M1564.44 1823.13C1501.98 1760.67 1418.95 1726.27 1330.62 1726.27 1242.29 1726.27 1159.24 1760.67 1096.79 1823.13 1034.33 1885.58 999.945 1968.63 999.945 2056.94 999.945 2145.26 1034.34 2228.31 1096.79 2290.76 1159.23 2353.22 1242.28 2387.62 1330.61 2387.62 1418.94 2387.62 1501.97 2353.22 1564.42 2290.76 1626.88 2228.31 1661.28 2145.27 1661.28 2056.94 1661.28 1968.61 1626.89 1885.58 1564.44 1823.13Z" fill="url(#fill1)"/><path d="M1330.62 2414.44C1235.13 2414.44 1145.35 2377.26 1077.83 2309.74 1010.3 2242.21 973.119 2152.44 973.119 2056.94 973.119 1961.45 1010.3 1871.68 1077.83 1804.15 1145.35 1736.62 1235.13 1699.44 1330.62 1699.44 1426.11 1699.44 1515.88 1736.62 1583.41 1804.15 1650.94 1871.68 1688.12 1961.45 1688.12 2056.94 1688.12 2152.44 1650.94 2242.21 1583.41 2309.74 1515.88 2377.26 1426.11 2414.44 1330.62 2414.44ZM1330.62 1726.28C1242.29 1726.28 1159.26 1760.68 1096.8 1823.14 1034.34 1885.6 999.945 1968.63 999.945 2056.94 999.945 2145.26 1034.34 2228.31 1096.79 2290.76 1159.23 2353.22 1242.28 2387.62 1330.61 2387.62 1418.94 2387.62 1501.97 2353.22 1564.42 2290.76 1626.88 2228.31 1661.28 2145.27 1661.28 2056.94 1661.28 1968.61 1626.88 1885.58 1564.42 1823.13 1501.97 1760.67 1418.94 1726.28 1330.62 1726.28Z" fill="#FFFFFF"/><g clip-path="url(#clip2)"><g clip-path="url(#clip3)"><g clip-path="url(#clip4)"><path d="M240.488 284.964C229.705 284.964 218.936 282.761 208.868 278.339 188.424 269.365 172.709 252.045 165.763 230.828L163.108 222.715 160.452 230.828C153.506 252.045 137.791 269.365 117.348 278.354 96.9044 287.328 73.5283 287.182 53.2018 277.945L24.5872 264.944C9.61601 258.144 0 243.217 0 226.772L0 121.565C0 113.714 5.64704 107.002 13.3807 105.674 58.5279 97.882 110.3 93.7526 163.108 93.7526 180.37 93.7526 197.515 94.1903 214.354 95.0512 232.214 95.9705 245.727 111.598 244.18 129.43 218.002 127.168 190.73 126.015 163.108 126.015 117.275 126.015 72.3609 129.211 32.248 135.296L32.248 226.786C32.248 230.58 34.4659 234.024 37.9242 235.6L65.2839 248.047C77.5556 253.621 91.7389 254.321 104.113 248.966 116.472 243.611 125.592 233.615 129.78 220.833L135.193 204.286C139.133 192.233 150.135 183.478 162.816 183.376 175.715 183.259 186.673 191.138 190.672 203.366L195.968 219.534C200.171 232.346 209.232 243.246 221.533 248.747 233.834 254.248 247.39 254.204 259.633 248.63L288.247 235.629C291.705 234.053 293.923 230.609 293.923 226.816L293.923 0 326.186 0 326.186 226.743C326.186 243.188 316.57 258.115 301.599 264.915L272.984 277.916C262.711 282.615 251.607 284.964 240.488 284.964Z" fill="#FFFFFF" transform="matrix(1.00044 0 0 1 1154 1825)"/></g></g></g><g clip-path="url(#clip5)"><g clip-path="url(#clip6)"><g clip-path="url(#clip7)"><path d="M27.3534 0.638173 0.114431 57.8537C-0.0983245 58.2903-0.00199919 58.8149 0.352096 59.1477L73.9181 129.642C74.3525 130.058 75.0373 130.058 75.4717 129.642L149.038 59.1521C149.392 58.8193 149.488 58.2947 149.275 57.8581L122.036 0.642574C121.857 0.250125 121.465-0.00113663 121.033 1.67892e-08L28.3657 0C27.932-0.00539591 27.5355 0.244519 27.3534 0.638173L27.3534 0.638173Z" fill="#50AF95" fill-rule="evenodd" transform="matrix(1.00408 0 0 1 1332 2186.02)"/><path d="M84.1464 63.7293 84.1464 63.7293C83.6183 63.7689 80.8896 63.9318 74.8027 63.9318 69.9614 63.9318 66.5241 63.7865 65.3181 63.7293L65.3181 63.7293C46.6087 62.9063 32.6437 59.6494 32.6437 55.7499 32.6437 51.8505 46.6087 48.598 65.3181 47.7618L65.3181 60.4856C66.5417 60.5736 70.045 60.7805 74.8863 60.7805 80.6959 60.7805 83.6051 60.5384 84.1288 60.49L84.1288 47.7706C102.799 48.6024 116.733 51.8593 116.733 55.7499 116.733 59.6406 102.803 62.8975 84.1288 63.7249L84.1288 63.7249ZM84.1464 46.4546 84.1464 35.0687 110.202 35.0687 110.202 17.706 39.2631 17.706 39.2631 35.0687 65.3137 35.0687 65.3137 46.4502C44.1396 47.4229 28.2161 51.6172 28.2161 56.6434 28.2161 61.6695 44.1396 65.8595 65.3137 66.8365L65.3137 103.322 84.142 103.322 84.142 66.8233C105.268 65.8507 121.165 61.6607 121.165 56.639 121.165 51.6172 105.281 47.4273 84.142 46.4502L84.142 46.4502ZM84.1464 46.4546 84.1464 46.4546Z" fill="#FFFFFF" fill-rule="evenodd" transform="matrix(1.00408 0 0 1 1332 2186.02)"/></g></g></g><g clip-path="url(#clip8)"><g clip-path="url(#clip9)"><g clip-path="url(#clip10)"><path d="M133.929 54.25 97.9737 87.5319C94.2512 90.9841 89.4065 92.8923 84.3779 92.9164L73.6609 92.9397 73.6262 54.25 54.25 54.25 54.25 164.817 64.8168 164.817C70.7244 164.817 76.239 161.624 79.1293 156.382 79.1524 156.347 79.1639 156.311 79.187 156.288 81.1062 152.777 82.0658 145.838 81.8808 141.102 81.4646 130.275 79.7535 127.459 79.7535 127.459 79.3952 134.881 71.788 135.281 71.788 135.281 77.1986 130.016 74.2505 126.033 74.2505 126.033 64.6664 132.985 62.2733 125.562 62.0883 124.89 62.3889 125.15 65.1173 127.471 70.2966 120.237 75.7765 112.591 83.0831 99.8432 87.7308 96.5684 92.3894 93.2815 96.8061 93.5528 96.8061 93.5528 96.8061 93.5528 99.3498 90.0412 106.078 87.1194 112.806 84.2216 117.119 88.4748 117.119 88.4748 110.24 94.1297 100.899 103.413 100.378 116.714 99.962 127.482 122.738 145.956 118.737 173.241 121.131 167.044 122.09 160.836 121.269 153.154 120.61 146.957 116.691 134.009 116.691 134.009L138.564 164.805 162.75 164.805 115.477 98.6299 162.75 54.25 133.929 54.25Z" fill="url(#fill11)" transform="matrix(1 0 0 1.00064 1121 2135)"/><path d="M89.8767 101.858C88.3508 104.438 88.3508 105.228 88.3508 105.228 88.3508 105.228 93.6923 104.309 95.1372 97.8411 95.1484 97.8411 91.7264 98.7358 89.8767 101.858Z" fill="url(#fill12)" transform="matrix(1 0 0 1.00064 1121 2135)"/></g></g></g></g></svg>