<svg width="715" height="715" xmlns="http://www.w3.org/2000/svg" xml:space="preserve" overflow="hidden"><defs><clipPath id="a"><path d="M210 1700h715v715H210z"/></clipPath><clipPath id="c"><path d="M401 1827h328v287H401z"/></clipPath><clipPath id="d"><path d="M401 1827h328v287H401z"/></clipPath><clipPath id="e"><path d="M401 1827h328v287H401z"/></clipPath><clipPath id="f"><path d="M588 2176h135v136H588z"/></clipPath><clipPath id="g"><path d="M588 2176h135v136H588z"/></clipPath><clipPath id="h"><path d="M588 2176h135v136H588z"/></clipPath><clipPath id="k"><path d="M366 2135h217v218H366z"/></clipPath><clipPath id="l"><path d="M366 2135h217v218H366z"/></clipPath><clipPath id="m"><path d="M366 2135h217v218H366z"/></clipPath><linearGradient x1="236.943" y1="2056.95" x2="898.284" y2="2056.95" gradientUnits="userSpaceOnUse" spreadMethod="pad" id="b"><stop offset="0" stop-color="#008EF0"/><stop offset=".001" stop-color="#008EF0"/><stop offset="1" stop-color="#7FFDFF"/></linearGradient><linearGradient x1="188.298" y1="187.823" x2="1.372" y2="-41.097" gradientUnits="userSpaceOnUse" spreadMethod="pad" id="i"><stop offset="0" stop-color="#645AFF"/><stop offset=".521" stop-color="#E40C5B"/><stop offset=".986" stop-color="#FF4C3B"/><stop offset="1" stop-color="#FF4C3B"/></linearGradient><linearGradient x1="71.634" y1="-55.052" x2="243.391" y2="-17.316" gradientUnits="userSpaceOnUse" spreadMethod="pad" id="j"><stop offset="0" stop-color="#FFF" stop-opacity=".2"/><stop offset="1" stop-color="#FFF" stop-opacity="0"/></linearGradient><linearGradient x1="217" y1="188.416" x2="120.543" y2="34.766" gradientUnits="userSpaceOnUse" spreadMethod="pad" id="n"><stop offset="0" stop-color="#E40C5B"/><stop offset="1" stop-color="#FF4C3B"/></linearGradient><linearGradient x1="217" y1="188.416" x2="120.543" y2="34.766" gradientUnits="userSpaceOnUse" spreadMethod="pad" id="o"><stop offset="0" stop-color="#E40C5B"/><stop offset="1" stop-color="#FF4C3B"/></linearGradient></defs><g clip-path="url(#a)" transform="translate(-210 -1700)"><path d="M801.437 1823.13c-62.456-62.46-145.489-96.86-233.818-96.86-88.329 0-171.375 34.4-233.831 96.86-62.457 62.45-96.843 145.5-96.843 233.81 0 88.32 34.399 171.37 96.843 233.82 62.443 62.46 145.489 96.86 233.818 96.86 88.329 0 171.362-34.4 233.818-96.86 62.457-62.45 96.856-145.49 96.856-233.82 0-88.33-34.386-171.36-96.843-233.81Z" fill="url(#b)"/><path d="M567.619 2414.44c-95.492 0-185.264-37.18-252.792-104.7-67.528-67.53-104.708-157.3-104.708-252.8 0-95.49 37.18-185.26 104.708-252.79 67.528-67.53 157.3-104.71 252.792-104.71 95.492 0 185.265 37.18 252.792 104.71 67.528 67.53 104.708 157.3 104.708 252.79 0 95.5-37.18 185.27-104.708 252.8-67.527 67.52-157.3 104.7-252.792 104.7Zm0-688.16c-88.329 0-171.361 34.4-233.818 96.86-62.457 62.46-96.856 145.49-96.856 233.8 0 88.32 34.399 171.37 96.843 233.82 62.443 62.46 145.489 96.86 233.818 96.86 88.329 0 171.362-34.4 233.818-96.86 62.457-62.45 96.856-145.49 96.856-233.82 0-88.33-34.399-171.36-96.856-233.81-62.456-62.46-145.489-96.85-233.805-96.85Z" fill="#FFF"/><g clip-path="url(#c)"><g clip-path="url(#d)"><g clip-path="url(#e)"><path d="M641.594 2111.964a78.652 78.652 0 0 1-31.634-6.625c-20.453-8.974-36.175-26.294-43.124-47.511l-2.656-8.113-2.657 8.113c-6.95 21.217-22.671 38.537-43.123 47.526-20.453 8.974-43.84 8.828-64.175-.409l-28.627-13.001A41.926 41.926 0 0 1 401 2053.772v-105.207c0-7.851 5.65-14.563 13.387-15.891 45.167-7.792 96.962-11.921 149.793-11.921 17.27 0 34.422.437 51.268 1.298 17.868.92 31.387 16.547 29.84 34.379-26.19-2.262-53.474-3.415-81.108-3.415-45.853 0-90.787 3.196-130.918 9.281v91.49a9.687 9.687 0 0 0 5.679 8.814l27.372 12.447c12.277 5.574 26.466 6.274 38.846.919 12.364-5.355 21.488-15.351 25.678-28.133l5.415-16.547c3.942-12.053 14.95-20.808 27.636-20.91 12.904-.117 23.867 7.762 27.868 19.99l5.298 16.168c4.205 12.812 13.27 23.712 25.576 29.213 12.307 5.501 25.869 5.457 38.117-.117l28.627-13.001a9.687 9.687 0 0 0 5.678-8.813V1827h32.278v226.743a41.926 41.926 0 0 1-24.598 38.172l-28.628 13.001c-10.277 4.699-21.386 7.048-32.51 7.048Z" fill="#FFF"/></g></g></g><g clip-path="url(#f)"><g clip-path="url(#g)"><g clip-path="url(#h)"><path d="M134 67c0 37.003-29.997 67-67 67S0 104.003 0 67 29.997 0 67 0s67 29.997 67 67Z" fill="url(#i)" transform="matrix(1.00746 0 0 1 588 2177)"/><path d="M134 67c0 37.003-29.997 67-67 67S0 104.003 0 67 29.997 0 67 0s67 29.997 67 67Z" fill="url(#j)" transform="matrix(1.00746 0 0 1 588 2177)"/><path d="M126.311 67c0 32.756-26.554 59.31-59.31 59.31S7.69 99.756 7.69 67 34.244 7.69 67 7.69 126.31 34.244 126.31 67Z" stroke="#FFF" stroke-width="2.617" fill="none" transform="matrix(1.00746 0 0 1 588 2177)"/><path d="M643.137 2264.325v15.459c0 1.752-.375 3.272-1.124 4.558-.75 1.277-1.824 2.25-3.224 2.92-1.4.671-3.056 1.006-4.967 1.006-2.888 0-5.162-.746-6.823-2.239-1.661-1.492-2.508-3.536-2.54-6.131v-15.573h5.748v15.686c.065 2.585 1.27 3.877 3.615 3.877 1.183 0 2.079-.324 2.687-.973.608-.649.912-1.703.912-3.163v-15.427h5.716Zm15.811 17.341c0-.833-.298-1.482-.895-1.947-.586-.465-1.623-.946-3.11-1.443-1.488-.498-2.704-.979-3.648-1.444-3.072-1.503-4.609-3.569-4.609-6.197 0-1.308.38-2.46 1.14-3.455.771-1.006 1.857-1.784 3.257-2.336 1.4-.562 2.975-.843 4.723-.843 1.704 0 3.23.303 4.575.908 1.358.606 2.41 1.471 3.16 2.596.749 1.114 1.123 2.39 1.123 3.828h-5.7c0-.962-.298-1.709-.895-2.239-.586-.53-1.384-.794-2.394-.794-1.02 0-1.829.227-2.426.68-.586.444-.88 1.012-.88 1.704 0 .606.326 1.157.978 1.655.651.486 1.796.995 3.436 1.524 1.639.52 2.985 1.082 4.038 1.688 2.562 1.47 3.843 3.498 3.843 6.082 0 2.066-.782 3.688-2.345 4.867-1.563 1.179-3.707 1.768-6.432 1.768-1.921 0-3.664-.341-5.227-1.022-1.553-.692-2.725-1.633-3.517-2.822-.782-1.201-1.173-2.58-1.173-4.137h5.732c0 1.265.326 2.201.977 2.807.662.594 1.732.891 3.208.891.945 0 1.688-.2 2.231-.6.554-.411.83-.984.83-1.719Zm8.647 6.278v-23.619h7.638c2.095 0 3.978.476 5.65 1.428 1.672.94 2.975 2.276 3.909 4.006.944 1.72 1.422 3.65 1.433 5.791v1.087c0 2.163-.462 4.104-1.385 5.824a10.043 10.043 0 0 1-3.875 4.023c-1.661.962-3.518 1.449-5.57 1.46h-7.8Zm5.716-19.223v14.843h1.987c1.64 0 2.898-.579 3.778-1.736.88-1.168 1.319-2.898 1.319-5.19v-1.023c0-2.281-.44-4.001-1.32-5.158-.879-1.157-2.16-1.736-3.842-1.736h-1.922Z" fill="#FFF"/><path d="M655.45 2237.19a41.823 41.823 0 0 0-7.001.582l3.486-6.007a52.073 52.073 0 0 1 11.703.534l-13.494-23.312-22.474 38.817-3.212-5.549 25.635-44.293.051.091.052-.088 30.938 53.453h-6.424l-7.23-12.491a41.57 41.57 0 0 0-12.03-1.74v.002Zm27.672 10.705-29.951-51.752h6.423l26.74 46.203-3.212 5.55Zm-29.726-26.216-12.3 21.26c4.403-1.324 9.581-1.917 14.467-1.917a52.248 52.248 0 0 1 9.456.872l4.105 7.091a39.609 39.609 0 0 0-13.56-2.43 40.639 40.639 0 0 0-19.327 4.812l.092-.161-.125.212h-6.424l20.425-35.288 3.191 5.55Z" fill="#FFF" fill-rule="evenodd"/></g></g></g><g clip-path="url(#k)"><g clip-path="url(#l)"><g clip-path="url(#m)"><path d="M133.929 54.25 97.974 87.532a20.12 20.12 0 0 1-13.596 5.384l-10.717.024-.035-38.69H54.25v110.567h10.567c5.907 0 11.422-3.193 14.312-8.435.023-.035.035-.071.058-.094 1.92-3.511 2.879-10.45 2.694-15.186-.416-10.827-2.127-13.643-2.127-13.643-.359 7.422-7.966 7.822-7.966 7.822 5.41-5.265 2.463-9.248 2.463-9.248-9.585 6.952-11.978-.471-12.163-1.143.3.26 3.03 2.581 8.209-4.653 5.48-7.646 12.786-20.394 17.434-23.669 4.658-3.287 9.075-3.015 9.075-3.015s2.544-3.512 9.272-6.434c6.728-2.897 11.041 1.356 11.041 1.356-6.879 5.655-16.22 14.938-16.741 28.239-.416 10.768 22.36 29.242 18.359 56.527 2.394-6.197 3.353-12.405 2.532-20.087-.659-6.197-4.578-19.145-4.578-19.145l21.873 30.796h24.186L115.477 98.63l47.273-44.38h-28.821Z" fill="url(#n)" transform="matrix(1 0 0 1.00064 366 2135)"/><path d="M89.877 101.858c-1.526 2.58-1.526 3.37-1.526 3.37s5.341-.919 6.786-7.387c.011 0-3.41.895-5.26 4.017Z" fill="url(#o)" transform="matrix(1 0 0 1.00064 366 2135)"/></g></g></g></g></svg>