<svg width="715" height="715" xmlns="http://www.w3.org/2000/svg" xml:space="preserve" overflow="hidden"><defs><clipPath id="a"><path d="M973 1700h715v715H973z"/></clipPath><clipPath id="c"><path d="M1153 1824h328v287h-328z"/></clipPath><clipPath id="d"><path d="M1153 1824h328v287h-328z"/></clipPath><clipPath id="e"><path d="M1153 1824h328v287h-328z"/></clipPath><clipPath id="f"><path d="M1332 2185h150v131h-150z"/></clipPath><clipPath id="g"><path d="M1332 2185h150v131h-150z"/></clipPath><clipPath id="h"><path d="M1332 2185h150v131h-150z"/></clipPath><clipPath id="i"><path d="M1120 2135h218v218h-218z"/></clipPath><clipPath id="j"><path d="M1120 2135h218v218h-218z"/></clipPath><clipPath id="k"><path d="M1120 2135h218v218h-218z"/></clipPath><linearGradient x1="999.943" y1="2056.95" x2="1661.28" y2="2056.95" gradientUnits="userSpaceOnUse" spreadMethod="pad" id="b"><stop offset="0" stop-color="#008EF0"/><stop offset=".001" stop-color="#008EF0"/><stop offset="1" stop-color="#7FFDFF"/></linearGradient><linearGradient x1="217" y1="188.416" x2="120.543" y2="34.766" gradientUnits="userSpaceOnUse" spreadMethod="pad" id="l"><stop offset="0" stop-color="#E40C5B"/><stop offset="1" stop-color="#FF4C3B"/></linearGradient><linearGradient x1="217" y1="188.416" x2="120.543" y2="34.766" gradientUnits="userSpaceOnUse" spreadMethod="pad" id="m"><stop offset="0" stop-color="#E40C5B"/><stop offset="1" stop-color="#FF4C3B"/></linearGradient></defs><g clip-path="url(#a)" transform="translate(-973 -1700)"><path d="M1564.44 1823.13c-62.46-62.46-145.49-96.86-233.82-96.86-88.33 0-171.38 34.4-233.83 96.86-62.46 62.45-96.845 145.5-96.845 233.81 0 88.32 34.395 171.37 96.845 233.82 62.44 62.46 145.49 96.86 233.82 96.86 88.33 0 171.36-34.4 233.81-96.86 62.46-62.45 96.86-145.49 96.86-233.82 0-88.33-34.39-171.36-96.84-233.81Z" fill="url(#b)"/><path d="M1330.62 2414.44c-95.49 0-185.27-37.18-252.79-104.7-67.53-67.53-104.711-157.3-104.711-252.8 0-95.49 37.181-185.26 104.711-252.79 67.52-67.53 157.3-104.71 252.79-104.71 95.49 0 185.26 37.18 252.79 104.71s104.71 157.3 104.71 252.79c0 95.5-37.18 185.27-104.71 252.8-67.53 67.52-157.3 104.7-252.79 104.7Zm0-688.16c-88.33 0-171.36 34.4-233.82 96.86-62.46 62.46-96.855 145.49-96.855 233.8 0 88.32 34.395 171.37 96.845 233.82 62.44 62.46 145.49 96.86 233.82 96.86 88.33 0 171.36-34.4 233.81-96.86 62.46-62.45 96.86-145.49 96.86-233.82 0-88.33-34.4-171.36-96.86-233.81-62.45-62.46-145.48-96.85-233.8-96.85Z" fill="#FFF"/><g clip-path="url(#c)"><g clip-path="url(#d)"><g clip-path="url(#e)"><path d="M1394.594 2109.964a78.652 78.652 0 0 1-31.634-6.625c-20.453-8.974-36.175-26.294-43.124-47.511l-2.656-8.113-2.657 8.113c-6.95 21.217-22.671 38.537-43.123 47.526-20.453 8.974-43.84 8.828-64.175-.409l-28.627-13.001a41.926 41.926 0 0 1-24.598-38.172v-105.207c0-7.851 5.65-14.563 13.387-15.891 45.167-7.792 96.962-11.921 149.793-11.921 17.27 0 34.422.437 51.268 1.298 17.868.92 31.387 16.547 29.84 34.379-26.19-2.262-53.474-3.415-81.108-3.415-45.853 0-90.787 3.196-130.918 9.281v91.49a9.687 9.687 0 0 0 5.679 8.814l27.372 12.447c12.277 5.574 26.466 6.274 38.846.919 12.364-5.355 21.488-15.351 25.678-28.133l5.415-16.547c3.942-12.053 14.95-20.808 27.636-20.91 12.904-.117 23.867 7.762 27.868 19.99l5.298 16.168c4.205 12.812 13.27 23.712 25.576 29.213 12.307 5.501 25.869 5.457 38.117-.117l28.627-13.001a9.687 9.687 0 0 0 5.678-8.813V1825h32.278v226.743a41.926 41.926 0 0 1-24.598 38.172l-28.628 13.001c-10.277 4.699-21.386 7.048-32.51 7.048Z" fill="#FFF"/></g></g></g><g clip-path="url(#f)"><g clip-path="url(#g)"><g clip-path="url(#h)" fill-rule="evenodd"><path d="m1359.465 2186.658-27.35 57.216c-.214.436-.117.96.239 1.294l73.866 70.494a1.13 1.13 0 0 0 1.56 0l73.866-70.49c.356-.333.452-.857.238-1.294l-27.35-57.215a1.103 1.103 0 0 0-1.007-.643h-93.046a1.105 1.105 0 0 0-1.016.638Z" fill="#50AF95"/><path d="M1416.49 2249.75c-.53.039-3.27.202-9.382.202-4.861 0-8.312-.146-9.523-.203-18.786-.823-32.808-4.08-32.808-7.98 0-3.898 14.022-7.151 32.808-7.987v12.724c1.228.088 4.746.294 9.607.294 5.833 0 8.754-.242 9.28-.29v-12.72c18.746.832 32.737 4.09 32.737 7.98 0 3.89-13.987 7.148-32.737 7.975Zm0-17.275v-11.386h26.162v-17.363h-71.229v17.363h26.157v11.381c-21.26.973-37.249 5.167-37.249 10.193s15.989 9.216 37.25 10.193v36.486h18.904v-36.499c21.212-.972 37.174-5.162 37.174-10.184 0-5.022-15.948-9.212-37.174-10.189Zm0 0Z" fill="#FFF"/></g></g></g><g clip-path="url(#i)"><g clip-path="url(#j)"><g clip-path="url(#k)"><path d="M133.929 54.25 97.974 87.532a20.12 20.12 0 0 1-13.596 5.384l-10.717.024-.035-38.69H54.25v110.567h10.567c5.907 0 11.422-3.193 14.312-8.435.023-.035.035-.071.058-.094 1.92-3.511 2.879-10.45 2.694-15.186-.416-10.827-2.127-13.643-2.127-13.643-.359 7.422-7.966 7.822-7.966 7.822 5.41-5.265 2.463-9.248 2.463-9.248-9.585 6.952-11.978-.471-12.163-1.143.3.26 3.03 2.581 8.209-4.653 5.48-7.646 12.786-20.394 17.434-23.669 4.658-3.287 9.075-3.015 9.075-3.015s2.544-3.512 9.272-6.434c6.728-2.897 11.041 1.356 11.041 1.356-6.879 5.655-16.22 14.938-16.741 28.239-.416 10.768 22.36 29.242 18.359 56.527 2.394-6.197 3.353-12.405 2.532-20.087-.659-6.197-4.578-19.145-4.578-19.145l21.873 30.796h24.186L115.477 98.63l47.273-44.38h-28.821Z" fill="url(#l)" transform="matrix(1 0 0 1.00064 1121 2135)"/><path d="M89.877 101.858c-1.526 2.58-1.526 3.37-1.526 3.37s5.341-.919 6.786-7.387c.011 0-3.41.895-5.26 4.017Z" fill="url(#m)" transform="matrix(1 0 0 1.00064 1121 2135)"/></g></g></g></g></svg>