<svg width="715" height="716" xmlns="http://www.w3.org/2000/svg" xml:space="preserve" overflow="hidden"><defs><clipPath id="a"><path d="M2461 152h715v716h-715z"/></clipPath><clipPath id="c"><path d="M2652 280h327v286h-327z"/></clipPath><clipPath id="d"><path d="M2652 280h327v286h-327z"/></clipPath><clipPath id="e"><path d="M2652 280h327v286h-327z"/></clipPath><clipPath id="f"><path d="M2653 638h125v113h-125z"/></clipPath><clipPath id="g"><path d="M2653 638h125v113h-125z"/></clipPath><clipPath id="h"><path d="M2653 638h125v113h-125z"/></clipPath><clipPath id="i"><path d="M2834 642h144v125h-144z"/></clipPath><clipPath id="j"><path d="M2834 642h144v125h-144z"/></clipPath><clipPath id="k"><path d="M2834 642h144v125h-144z"/></clipPath><linearGradient x1="26.943" y1="356.948" x2="688.284" y2="356.948" gradientUnits="userSpaceOnUse" spreadMethod="pad" id="b"><stop offset="0" stop-color="#008EF0"/><stop offset=".001" stop-color="#008EF0"/><stop offset="1" stop-color="#7FFDFF"/></linearGradient></defs><g clip-path="url(#a)" transform="translate(-2461 -152)"><path d="M591.437 123.125c-62.456-62.456-145.489-96.856-233.818-96.856-88.329 0-171.375 34.4-233.831 96.856-62.457 62.457-96.843 145.503-96.843 233.819s34.4 171.362 96.843 233.818c62.443 62.457 145.489 96.856 233.818 96.856 88.329 0 171.362-34.399 233.818-96.856 62.457-62.456 96.856-145.489 96.856-233.818 0-88.329-34.386-171.362-96.843-233.819Z" fill="url(#b)" transform="matrix(1 0 0 1.0014 2461 152)"/><path d="M2818.619 867.444c-95.492 0-185.264-37.232-252.792-104.854-67.528-67.623-104.708-157.52-104.708-253.146 0-95.626 37.18-185.525 104.708-253.146 67.528-67.623 157.3-104.855 252.792-104.855 95.492 0 185.265 37.232 252.792 104.855 67.528 67.621 104.708 157.52 104.708 253.146 0 95.625-37.18 185.523-104.708 253.146-67.527 67.622-157.3 104.854-252.792 104.854Zm0-689.124c-88.329 0-171.362 34.447-233.818 96.991-62.457 62.544-96.856 145.693-96.856 234.133s34.4 171.602 96.843 234.145c62.443 62.545 145.489 96.992 233.818 96.992 88.329 0 171.362-34.447 233.818-96.992 62.457-62.543 96.856-145.693 96.856-234.145 0-88.453-34.399-171.602-96.856-234.146-62.456-62.544-145.489-96.978-233.805-96.978Z" fill="#FFF"/><g clip-path="url(#c)"><g clip-path="url(#d)"><g clip-path="url(#e)"><path d="M2892.594 563.968a78.898 78.898 0 0 1-31.635-6.602c-20.451-8.943-36.174-26.203-43.123-47.345l-2.657-8.085-2.656 8.085c-6.95 21.142-22.672 38.402-43.124 47.36-20.452 8.942-43.838 8.797-64.174-.408l-28.627-12.955c-14.978-6.776-24.598-21.652-24.598-38.039V401.14c0-7.823 5.65-14.512 13.387-15.835 45.167-7.765 96.961-11.88 149.792-11.88 17.27 0 34.422.436 51.27 1.294 17.868.916 31.385 16.489 29.838 34.258-26.189-2.254-53.473-3.403-81.108-3.403-45.852 0-90.786 3.185-130.917 9.248v91.171a9.65 9.65 0 0 0 5.679 8.783l27.372 12.403c12.277 5.555 26.466 6.253 38.846.916 12.364-5.336 21.488-15.297 25.678-28.034l5.416-16.49c3.942-12.01 14.948-20.735 27.634-20.837 12.905-.116 23.869 7.736 27.869 19.921l5.298 16.112c4.205 12.766 13.27 23.628 25.577 29.11 12.306 5.482 25.868 5.439 38.116-.116l28.627-12.956a9.651 9.651 0 0 0 5.679-8.783V280h32.276v225.95c0 16.387-9.62 31.262-24.598 38.038l-28.626 12.956c-10.278 4.682-21.388 7.024-32.511 7.024Z" fill="#FFF"/></g></g></g><g clip-path="url(#f)"><g clip-path="url(#g)"><g clip-path="url(#h)"><path d="M2747.4 672.648c-2.278-1.304-5.207-1.304-7.812 0l-18.229 10.757-12.37 6.846-17.903 10.757c-2.279 1.304-5.208 1.304-7.813 0l-13.997-8.475c-2.279-1.304-3.906-3.912-3.906-6.846v-16.299c0-2.608 1.302-5.216 3.906-6.846l13.997-8.149c2.279-1.304 5.209-1.304 7.813 0l13.997 8.476c2.279 1.303 3.907 3.911 3.907 6.845v10.757l12.37-7.171v-11.083c0-2.608-1.303-5.216-3.907-6.846l-26.042-15.321c-2.278-1.304-5.208-1.304-7.812 0l-26.693 15.647c-2.604 1.304-3.906 3.912-3.906 6.52v30.642c0 2.607 1.302 5.215 3.906 6.845l26.367 15.321c2.279 1.304 5.209 1.304 7.813 0l17.904-10.431 12.37-7.172 17.903-10.431c2.278-1.304 5.208-1.304 7.812 0l13.998 8.15c2.278 1.303 3.906 3.911 3.906 6.845v16.299c0 2.608-1.302 5.216-3.906 6.846l-13.672 8.149c-2.279 1.304-5.208 1.304-7.813 0l-13.997-8.15c-2.279-1.303-3.906-3.911-3.906-6.845v-10.431l-12.37 7.171v10.758c0 2.607 1.302 5.215 3.906 6.845l26.367 15.32c2.279 1.305 5.209 1.305 7.813 0l26.367-15.32c2.279-1.304 3.906-3.912 3.906-6.845v-30.969c0-2.607-1.302-5.215-3.906-6.845l-26.367-15.321Z" fill="#8247E5"/></g></g></g><g clip-path="url(#i)"><g clip-path="url(#j)"><g clip-path="url(#k)" fill-rule="evenodd"><path d="m2861.184 642.636-26.074 55.014a1.07 1.07 0 0 0 .227 1.245l70.42 67.782c.415.4 1.071.4 1.487 0l70.419-67.778a1.07 1.07 0 0 0 .227-1.244l-26.073-55.015a1.054 1.054 0 0 0-.961-.618h-88.704a1.053 1.053 0 0 0-.968.614Z" fill="#50AF95"/><path d="M2915.547 703.3c-.505.038-3.117.195-8.944.195-4.634 0-7.924-.14-9.079-.195-17.909-.791-31.277-3.923-31.277-7.672 0-3.75 13.368-6.877 31.277-7.681v12.234c1.171.085 4.525.284 9.16.284 5.56 0 8.345-.233 8.846-.28v-12.23c17.872.8 31.21 3.931 31.21 7.673 0 3.74-13.334 6.872-31.21 7.668Zm0-16.61v-10.948h24.941v-16.695h-67.904v16.695h24.936v10.943c-20.268.936-35.51 4.969-35.51 9.802 0 4.832 15.242 8.861 35.51 9.8v35.083h18.023v-35.095c20.222-.935 35.439-4.964 35.439-9.793 0-4.828-15.204-8.857-35.439-9.797Zm0 0Z" fill="#FFF"/></g></g></g></g></svg>