<svg width="716" height="716" xmlns="http://www.w3.org/2000/svg" xml:space="preserve" overflow="hidden"><defs><clipPath id="a"><path d="M2462 950h716v716h-716z"/></clipPath><clipPath id="c"><path d="M2654 1076h326v287h-326z"/></clipPath><clipPath id="d"><path d="M2654 1076h326v287h-326z"/></clipPath><clipPath id="e"><path d="M2654 1076h326v287h-326z"/></clipPath><clipPath id="f"><path d="M2655 1443h125v113h-125z"/></clipPath><clipPath id="g"><path d="M2655 1443h125v113h-125z"/></clipPath><clipPath id="h"><path d="M2655 1443h125v113h-125z"/></clipPath><clipPath id="i"><path d="M2851 1435h128v129h-128z"/></clipPath><clipPath id="j"><path d="M2851 1435h128v129h-128z"/></clipPath><clipPath id="k"><path d="M2851 1435h128v129h-128z"/></clipPath><linearGradient x1="2488.98" y1="1307.45" x2="3151.25" y2="1307.45" gradientUnits="userSpaceOnUse" spreadMethod="pad" id="b"><stop offset="0" stop-color="#008EF0"/><stop offset=".001" stop-color="#008EF0"/><stop offset="1" stop-color="#7FFDFF"/></linearGradient></defs><g clip-path="url(#a)" transform="translate(-2462 -950)"><path d="M3054.26 1073.3c-62.54-62.55-145.69-96.994-234.14-96.994-88.45 0-171.62 34.444-234.16 96.994-62.54 62.54-96.98 145.7-96.98 234.14s34.45 171.6 96.98 234.15c62.53 62.54 145.69 96.99 234.15 96.99 88.45 0 171.6-34.45 234.14-96.99 62.55-62.55 96.99-145.69 96.99-234.15 0-88.45-34.43-171.6-96.98-234.14Z" fill="url(#b)"/><path d="M2820.12 1665.44c-95.63 0-185.52-37.23-253.15-104.85-67.62-67.62-104.85-157.52-104.85-253.15 0-95.62 37.23-185.52 104.85-253.14 67.63-67.625 157.52-104.857 253.15-104.857s185.52 37.232 253.15 104.857c67.62 67.62 104.85 157.52 104.85 253.14 0 95.63-37.23 185.53-104.85 253.15-67.63 67.62-157.52 104.85-253.15 104.85Zm0-689.12c-88.45 0-171.6 34.45-234.15 96.99-62.54 62.55-96.99 145.69-96.99 234.13s34.45 171.6 96.98 234.15c62.53 62.54 145.69 96.99 234.15 96.99 88.45 0 171.6-34.45 234.14-96.99 62.55-62.55 96.99-145.69 96.99-234.15 0-88.45-34.44-171.6-96.99-234.14-62.54-62.55-145.69-96.98-234.13-96.98Z" fill="#FFF"/><g clip-path="url(#c)"><g clip-path="url(#d)"><g clip-path="url(#e)"><path d="M2893.857 1361.964a78.213 78.213 0 0 1-31.537-6.625c-20.39-8.973-36.064-26.294-42.991-47.51l-2.649-8.114-2.649 8.113c-6.927 21.217-22.602 38.538-42.991 47.526a78.338 78.338 0 0 1-63.978-.409l-28.54-13.001c-14.931-6.8-24.522-21.727-24.522-38.172v-105.207c0-7.85 5.632-14.563 13.346-15.89 45.028-7.793 96.664-11.922 149.334-11.922 17.217 0 34.317.437 51.112 1.298 17.813.92 31.29 16.548 29.747 34.379-26.109-2.262-53.309-3.414-80.859-3.414-45.713 0-90.509 3.195-130.517 9.28v91.49a9.689 9.689 0 0 0 5.662 8.814l27.288 12.447c12.24 5.574 26.385 6.274 38.727.92 12.327-5.356 21.423-15.351 25.599-28.134l5.4-16.547c3.929-12.053 14.903-20.808 27.55-20.91 12.865-.117 23.795 7.762 27.782 19.99l5.283 16.168c4.192 12.811 13.23 23.712 25.498 29.213 12.269 5.5 25.789 5.458 38-.117l28.539-13a9.688 9.688 0 0 0 5.661-8.814V1077h32.178v226.743c0 16.445-9.59 31.372-24.522 38.172l-28.54 13.001c-10.246 4.698-21.321 7.048-32.411 7.048Z" fill="#FFF"/></g></g></g><g clip-path="url(#f)"><g clip-path="url(#g)"><g clip-path="url(#h)"><path d="M2749.4 1477.65c-2.278-1.304-5.207-1.304-7.812 0l-18.229 10.757-12.37 6.846-17.903 10.757c-2.279 1.304-5.208 1.304-7.813 0l-13.997-8.475c-2.279-1.304-3.906-3.912-3.906-6.846v-16.299c0-2.608 1.302-5.216 3.906-6.846l13.997-8.149c2.279-1.304 5.209-1.304 7.813 0l13.997 8.476c2.279 1.303 3.907 3.911 3.907 6.845v10.757l12.37-7.171v-11.083c0-2.608-1.303-5.216-3.907-6.846l-26.042-15.321c-2.278-1.304-5.208-1.304-7.812 0l-26.693 15.647c-2.604 1.304-3.906 3.912-3.906 6.52v30.642c0 2.607 1.302 5.215 3.906 6.845l26.367 15.321c2.279 1.304 5.209 1.304 7.813 0l17.904-10.431 12.37-7.172 17.903-10.431c2.278-1.304 5.208-1.304 7.812 0l13.998 8.15c2.278 1.303 3.906 3.911 3.906 6.845v16.299c0 2.608-1.302 5.216-3.906 6.846l-13.672 8.149c-2.279 1.304-5.208 1.304-7.813 0l-13.997-8.15c-2.279-1.303-3.906-3.911-3.906-6.845v-10.431l-12.37 7.171v10.758c0 2.607 1.302 5.215 3.906 6.845l26.367 15.32c2.279 1.305 5.209 1.305 7.813 0l26.367-15.32c2.279-1.304 3.906-3.912 3.906-6.845v-30.969c0-2.607-1.302-5.215-3.906-6.845l-26.367-15.321Z" fill="#8247E5"/></g></g></g><g clip-path="url(#i)"><g clip-path="url(#j)"><g clip-path="url(#k)"><path d="M2915 1563c35.47 0 64-28.53 64-64s-28.53-64-64-64-64 28.53-64 64 28.53 64 64 64Z" fill="#2775CA"/><path d="M2932.6 1509.13c0-9.33-5.6-12.53-16.8-13.86-8-1.07-9.6-3.2-9.6-6.94 0-3.73 2.67-6.13 8-6.13 4.8 0 7.47 1.6 8.8 5.6.27.8 1.07 1.33 1.87 1.33h4.26c1.07 0 1.87-.8 1.87-1.86v-.27c-1.07-5.87-5.87-10.4-12-10.93v-6.4c0-1.07-.8-1.87-2.13-2.14h-4c-1.07 0-1.87.8-2.14 2.14v6.13c-8 1.07-13.06 6.4-13.06 13.07 0 8.8 5.33 12.26 16.53 13.6 7.47 1.33 9.87 2.93 9.87 7.2 0 4.26-3.74 7.2-8.8 7.2-6.94 0-9.34-2.94-10.14-6.94-.26-1.06-1.06-1.6-1.86-1.6h-4.54c-1.06 0-1.86.8-1.86 1.87v.27c1.06 6.66 5.33 11.46 14.13 12.8v6.4c0 1.06.8 1.86 2.13 2.13h4c1.07 0 1.87-.8 2.14-2.13v-6.4c8-1.34 13.33-6.94 13.33-14.14Z" fill="#FFF"/><path d="M2901.4 1537.13c-20.8-7.46-31.47-30.66-23.73-51.2 4-11.2 12.8-19.73 23.73-23.73 1.07-.53 1.6-1.33 1.6-2.67v-3.73c0-1.07-.53-1.87-1.6-2.13-.27 0-.8 0-1.07.26-25.33 8-39.2 34.94-31.2 60.27 4.8 14.93 16.27 26.4 31.2 31.2 1.07.53 2.14 0 2.4-1.07.27-.26.27-.53.27-1.06v-3.74c0-.8-.8-1.86-1.6-2.4Zm28.27-83.2c-1.07-.53-2.14 0-2.4 1.07-.27.27-.27.53-.27 1.07v3.73c0 1.07.8 2.13 1.6 2.67 20.8 7.46 31.47 30.66 23.73 51.2-4 11.2-12.8 19.73-23.73 23.73-1.07.53-1.6 1.33-1.6 2.67v3.73c0 1.07.53 1.87 1.6 2.13.27 0 .8 0 1.07-.26 25.33-8 39.2-34.94 31.2-60.27-4.8-15.2-16.54-26.67-31.2-31.47Z" fill="#FFF"/></g></g></g></g></svg>