<svg width="661" height="663" xmlns="http://www.w3.org/2000/svg" xml:space="preserve" overflow="hidden"><defs><clipPath id="a"><path d="M566 854h661v663H566z"/></clipPath><clipPath id="b"><path d="M594 950h591v387H594z"/></clipPath><clipPath id="c"><path d="M594 950h591v387H594z"/></clipPath><clipPath id="d"><path d="M594 950h591v592H594z"/></clipPath></defs><g clip-path="url(#a)" transform="translate(-566 -854)"><path d="M566 1185.5C566 1002.42 713.97 854 896.5 854s330.5 148.42 330.5 331.5S1079.03 1517 896.5 1517 566 1368.58 566 1185.5Z" fill="#0D0D0D" fill-rule="evenodd"/><g clip-path="url(#b)"><g clip-path="url(#c)"><g clip-path="url(#d)"><path d="M792.27 1381.177v15.898c-5.954-3.462-12.138-5.194-18.529-5.194-2.868 0-5.057.592-6.567 1.764-1.51 1.183-2.266 2.685-2.266 4.525 0 1.841.92 3.474 2.758 4.91 1.839 1.434 4.597 2.958 8.274 4.578 2.277 1.03 4.17 1.93 5.681 2.707 1.51.778 3.239 1.84 5.187 3.199 1.948 1.358 3.492 2.805 4.63 4.306 1.138 1.512 2.112 3.363 2.922 5.576.81 2.214 1.215 4.603 1.215 7.177 0 6.695-2.463 12.129-7.388 16.281-4.925 4.164-11.47 6.235-19.634 6.235-8.756 0-15.88-1.545-21.396-4.635v-17.08c6.687 4.852 13.822 7.285 21.396 7.285 2.572 0 4.706-.68 6.402-2.05 1.697-1.358 2.54-3.144 2.54-5.357 0-.734-.11-1.435-.329-2.092-.219-.658-.624-1.293-1.215-1.873a15.36 15.36 0 0 0-1.707-1.49c-.547-.406-1.357-.888-2.43-1.436-1.072-.56-1.97-1.009-2.703-1.381a98.355 98.355 0 0 0-3.25-1.545 144.342 144.342 0 0 0-3.47-1.544c-4.783-2.214-8.624-4.93-11.524-8.174-2.901-3.243-4.356-7.548-4.356-12.917 0-6.41 2.353-11.57 7.059-15.514 4.706-3.933 11.207-5.906 19.525-5.906 7.409 0 13.812 1.249 19.175 3.747ZM846.434 1378.975h12.575l7.278 26.274a736.136 736.136 0 0 1 4.137 15.403c1.215 4.745 2.035 8.12 2.484 10.102l.657 2.98c.952-6.551 3.01-16.083 6.172-28.595l6.841-27.271h17.314l-19.853 74.416h-18.967l-6.512-23.524a955.737 955.737 0 0 1-3.809-14.352c-.996-3.9-1.598-6.41-1.816-7.506l-.219-1.653c-.219 3.023-2.211 10.858-5.954 23.522l-6.84 23.524h-18.967l-19.963-74.416h17.873l6.84 27.38c1.466 5.895 2.681 11.209 3.644 15.953.952 4.744 1.543 8.042 1.762 9.882l.438 2.652c1.248-5.742 3.754-15.24 7.497-28.487l7.388-26.284ZM914.256 1452.295v-74.416h16.986v74.416h-16.986ZM945.032 1452.295l6.392-74.416h18.638l10.364 26.942c1.762 4.492 3.273 8.612 4.52 12.37 1.248 3.758 2.058 6.399 2.43 7.954l.558 2.213c1.171-4.854 3.754-12.37 7.716-22.526l10.474-26.942h18.638l7.727 74.416h-16.986l-2.758-28.815-1.433-21.75c-1.916 5.523-4.564 12.777-7.946 21.75l-10.474 28.048h-10.036l-10.364-28.048c-1.697-4.558-3.13-8.645-4.302-12.26-1.181-3.606-1.948-6.114-2.32-7.506l-.547-1.983c0 5.227-.328 12.48-.996 21.749l-2.32 28.815h-16.975Z" fill="#277CE2"/><path d="M866.09 1161.644c-3.962.099-7.913.198-11.842.35-2.266.089-4.509.198-6.764.297-3.546.153-7.092.317-10.605.515-2.375.13-4.728.284-7.081.438-3.371.22-6.742.438-10.08.7-2.375.176-4.739.373-7.103.57a877.463 877.463 0 0 0-16.745 1.567c-3.25.34-6.468.702-9.675 1.085-2.221.263-4.454.515-6.654.8-3.283.417-6.512.865-9.729 1.315-2.047.285-4.116.558-6.129.866-.559.087-1.095.175-1.653.262v89.185a9.429 9.429 0 0 0 5.527 8.59l26.661 12.129c11.962 5.445 25.774 6.124 37.824.898 12.039-5.215 20.925-14.967 25.008-27.434l5.275-16.14c3.841-11.745 14.556-20.29 26.901-20.389 12.565-.11 23.235 7.57 27.143 19.491l5.154 15.755c4.083 12.491 12.926 23.13 24.91 28.487 11.984 5.358 25.183 5.314 37.123-.12l27.876-12.688a9.429 9.429 0 0 0 5.527-8.59v-89.185c-16.57-2.52-33.961-4.525-51.931-6.015-2.868-.24-5.757-.438-8.647-.646a698.042 698.042 0 0 0-9.893-.679c-3.076-.186-6.173-.33-9.259-.494-3.152-.164-6.293-.339-9.478-.46-3.699-.153-7.421-.24-11.142-.35-2.615-.077-5.22-.176-7.847-.23a939.191 939.191 0 0 0-19.262-.198c-5.921 0-11.82.066-17.697.176-1.905.021-3.809.087-5.713.142Z" fill="#7FFDFF"/><path d="M964.874 1316.359a76.416 76.416 0 0 1-30.797-6.464c-19.908-8.755-35.22-25.65-41.994-46.335l-2.583-7.91-2.583 7.91c-6.775 20.697-22.075 37.58-41.994 46.335a76.63 76.63 0 0 1-62.493-.395l-27.875-12.687a40.906 40.906 0 0 1-23.946-37.23v-102.596c0-7.658 5.505-14.2 13.034-15.491 43.975-7.604 94.407-11.614 145.846-11.614 16.811 0 33.512.427 49.918 1.26 17.401.887 30.556 16.139 29.057 33.516-25.5-2.203-52.074-3.32-78.975-3.32-44.642 0-88.398 3.111-127.47 9.039v89.217a9.429 9.429 0 0 0 5.527 8.59l26.661 12.129c11.962 5.445 25.774 6.124 37.824.898 12.039-5.215 20.925-14.967 25.008-27.434l5.275-16.14c3.841-11.745 14.556-20.29 26.901-20.389 12.565-.11 23.235 7.57 27.143 19.491l5.154 15.755c4.083 12.491 12.926 23.13 24.91 28.487 11.984 5.358 25.183 5.314 37.124-.12l27.875-12.688a9.429 9.429 0 0 0 5.527-8.59v-221.11h31.421v221.11c0 16.04-9.368 30.59-23.946 37.23l-27.875 12.687a76.444 76.444 0 0 1-31.674 6.859Z" fill="#277CE2"/></g></g></g></g></svg>