<svg width="683" height="685" xmlns="http://www.w3.org/2000/svg" xml:space="preserve" overflow="hidden"><defs><clipPath id="a"><path d="M1584 1109h683v685h-683z"/></clipPath><clipPath id="b"><path d="M1630 1208h591v387h-591z"/></clipPath><clipPath id="c"><path d="M1630 1208h591v387h-591z"/></clipPath><clipPath id="d"><path d="M1630 1208h591v592h-591z"/></clipPath></defs><g clip-path="url(#a)" transform="translate(-1584 -1109)"><path d="M1618.06 1329.14c67.78-170.13 260.26-253.26 429.92-185.67 169.66 67.59 252.25 260.3 184.47 430.43s-260.26 253.26-429.92 185.67c-169.66-67.59-252.25-260.3-184.47-430.43Z" stroke="#277CE2" stroke-width="20.625" stroke-miterlimit="8" fill="#0D0D0D" fill-rule="evenodd"/><g clip-path="url(#b)"><g clip-path="url(#c)"><g clip-path="url(#d)" stroke="#277CE2" stroke-width="1.093"><path d="M197.973 430.063v15.856c-5.945-3.453-12.12-5.18-18.502-5.18-2.863 0-5.048.59-6.556 1.76-1.508 1.18-2.263 2.677-2.263 4.513 0 1.836.918 3.464 2.754 4.896 1.836 1.431 4.59 2.95 8.262 4.568 2.273 1.027 4.164 1.923 5.672 2.699 1.508.776 3.234 1.836 5.18 3.191 1.945 1.355 3.486 2.797 4.622 4.295 1.137 1.508 2.109 3.355 2.918 5.562.809 2.207 1.213 4.59 1.213 7.158 0 6.677-2.459 12.097-7.377 16.239-4.917 4.153-11.452 6.218-19.604 6.218-8.743 0-15.857-1.541-21.365-4.623v-17.036c6.677 4.841 13.802 7.267 21.365 7.267 2.568 0 4.699-.678 6.392-2.044 1.694-1.355 2.536-3.136 2.536-5.344a6.59 6.59 0 0 0-.328-2.087c-.219-.656-.623-1.289-1.213-1.869a15.313 15.313 0 0 0-1.705-1.486c-.546-.404-1.355-.885-2.426-1.431-1.071-.558-1.967-1.006-2.699-1.377a96.167 96.167 0 0 0-3.246-1.541 142.612 142.612 0 0 0-3.464-1.541c-4.776-2.207-8.611-4.918-11.507-8.152-2.896-3.235-4.35-7.53-4.35-12.884 0-6.393 2.35-11.54 7.049-15.475 4.699-3.923 11.19-5.89 19.496-5.89 7.398 0 13.791 1.246 19.146 3.738Zm54.083-2.197h12.556l7.267 26.206a729.273 729.273 0 0 1 4.131 15.364c1.213 4.732 2.032 8.098 2.48 10.076l.656 2.972c.951-6.535 3.005-16.042 6.164-28.522l6.83-27.2h17.288l-19.824 74.224h-18.938l-6.502-23.463a940.927 940.927 0 0 1-3.803-14.316c-.995-3.89-1.596-6.393-1.814-7.485l-.219-1.65c-.218 3.016-2.207 10.829-5.945 23.462l-6.83 23.463h-18.938l-19.933-74.224h17.846l6.83 27.309c1.464 5.88 2.677 11.18 3.639 15.912.951 4.732 1.541 8.021 1.759 9.857l.437 2.644c1.246-5.726 3.749-15.201 7.486-28.413l7.377-26.216Zm67.721 73.131v-74.224h16.96v74.224h-16.96Zm30.729 0 6.382-74.224h18.611l10.349 26.872c1.759 4.481 3.267 8.59 4.513 12.338 1.246 3.748 2.054 6.382 2.426 7.934l.557 2.207c1.17-4.841 3.749-12.337 7.705-22.468l10.458-26.872h18.61l7.715 74.224h-16.96l-2.754-28.741-1.431-21.692c-1.913 5.507-4.557 12.742-7.934 21.692l-10.458 27.976h-10.021l-10.349-27.976c-1.694-4.546-3.126-8.623-4.295-12.229-1.18-3.595-1.945-6.098-2.317-7.485l-.546-1.978c0 5.212-.328 12.447-.994 21.692l-2.317 28.741h-16.95Z" fill="#277CE2" transform="matrix(1.0015 0 0 1 1630 1209)"/><path d="M271.682 211.097c-3.956.099-7.901.197-11.824.35-2.262.087-4.502.197-6.753.295-3.541.153-7.082.317-10.59.514-2.371.131-4.721.284-7.07.437a734.75 734.75 0 0 0-10.065.699c-2.371.175-4.732.372-7.092.568a898.059 898.059 0 0 0-16.72 1.563c-3.246.339-6.459.699-9.66 1.082-2.219.262-4.448.514-6.645.798-3.278.415-6.502.863-9.715 1.311-2.043.284-4.109.557-6.119.863l-1.651.263v88.954a9.403 9.403 0 0 0 5.519 8.568l26.621 12.097c11.944 5.431 25.735 6.109 37.767.896 12.021-5.202 20.895-14.928 24.971-27.364l5.267-16.097c3.836-11.715 14.534-20.239 26.861-20.337 12.546-.109 23.2 7.551 27.102 19.441l5.147 15.715c4.076 12.458 12.906 23.069 24.872 28.413 11.966 5.343 25.146 5.3 37.068-.121l27.834-12.654a9.403 9.403 0 0 0 5.519-8.568v-88.954c-16.546-2.514-33.91-4.514-51.854-6-2.863-.24-5.748-.437-8.633-.645-3.279-.24-6.557-.48-9.879-.677-3.071-.186-6.164-.328-9.245-.492-3.148-.164-6.284-.339-9.464-.459-3.694-.153-7.409-.24-11.125-.35-2.612-.076-5.212-.174-7.835-.229a937.478 937.478 0 0 0-19.234-.197c-5.912 0-11.802.066-17.67.175-1.902.022-3.803.088-5.705.142Z" fill="#7FFDFF" transform="matrix(1.0015 0 0 1 1630 1209)"/><path d="M370.319 365.412a76.387 76.387 0 0 1-30.752-6.447c-19.878-8.732-35.166-25.583-41.931-46.215l-2.579-7.89-2.579 7.89a76.555 76.555 0 0 1-41.931 46.215 76.591 76.591 0 0 1-62.399-.394l-27.833-12.654a40.799 40.799 0 0 1-23.911-37.134v-102.33c0-7.639 5.497-14.163 13.015-15.452 43.909-7.585 94.266-11.584 145.627-11.584 16.786 0 33.462.426 49.843 1.256 17.376.886 30.511 16.098 29.014 33.429-25.462-2.196-51.995-3.311-78.857-3.311-44.575 0-88.265 3.104-127.279 9.016v88.987a9.403 9.403 0 0 0 5.519 8.568l26.621 12.097c11.944 5.431 25.735 6.109 37.767.896 12.021-5.202 20.895-14.928 24.971-27.364l5.267-16.097c3.836-11.715 14.534-20.239 26.861-20.337 12.546-.109 23.201 7.551 27.102 19.441l5.147 15.715c4.076 12.458 12.906 23.069 24.872 28.413 11.966 5.343 25.146 5.3 37.068-.121l27.834-12.654a9.403 9.403 0 0 0 5.519-8.568V88.244h31.374v220.539a40.799 40.799 0 0 1-23.911 37.134l-27.833 12.654a76.4 76.4 0 0 1-31.626 6.841Z" fill="#277CE2" transform="matrix(1.0015 0 0 1 1630 1209)"/></g></g></g><path d="M1656.11 1344.7c60.57-152.02 230.61-227.07 379.81-167.64 149.21 59.44 221.06 230.87 160.5 382.89-60.56 152.02-230.61 227.08-379.81 167.64-149.2-59.44-221.06-230.87-160.5-382.89Z" stroke="#277CE2" stroke-width="20.625" stroke-miterlimit="8" fill="none"/><path d="M1798.24 1180.39a3.95 3.95 0 0 1 2.17-5.13l14.59-5.91c2.01-.81 4.3.16 5.12 2.17l42.08 103.8c.81 2.01-.16 4.31-2.17 5.12l-14.58 5.91c-2.02.82-4.31-.15-5.13-2.16Zm193.44 451.72c-.81-2.01.16-4.3 2.17-5.12l14.58-5.91c2.02-.82 4.31.15 5.13 2.17l42.07 103.8c.82 2.01-.15 4.3-2.17 5.12l-14.58 5.91c-2.01.82-4.31-.15-5.12-2.17Zm-336.64-44.41c-2.04.77-4.31-.25-5.08-2.28l-5.57-14.72a3.93 3.93 0 0 1 2.28-5.07l104.73-39.69c2.04-.77 4.31.25 5.08 2.28l5.57 14.71c.77 2.03-.25 4.31-2.28 5.08Zm499.67-216.46a3.93 3.93 0 0 1-5.07-2.28l-5.58-14.72c-.77-2.03.26-4.3 2.29-5.07l55.91-21.19c2.03-.77 4.31.25 5.08 2.28l5.57 14.71c.77 2.04-.25 4.31-2.28 5.08Zm-512.87-16.27a3.926 3.926 0 0 1-2.2-5.11l5.82-14.62c.81-2.01 3.09-3 5.11-2.2l84.73 33.76c2.02.8 3 3.09 2.2 5.11l-5.83 14.62c-.8 2.01-3.09 3-5.11 2.19Zm467.14 192.98c-2.02-.81-3-3.09-2.2-5.11l5.82-14.62c.81-2.02 3.1-3 5.12-2.2l93.92 37.42c2.02.8 3.01 3.09 2.2 5.11l-5.82 14.62c-.81 2.02-3.09 3-5.11 2.2Zm-77.3-294.86c-.81 2.02-3.1 3.01-5.11 2.2l-14.62-5.82c-2.02-.8-3-3.09-2.2-5.11l30.42-76.36c.8-2.02 3.09-3 5.11-2.2l14.62 5.83c2.02.8 3 3.09 2.2 5.11Zm-212.27 489.3c-.8 2.02-3.09 3-5.11 2.2l-14.61-5.82a3.93 3.93 0 0 1-2.2-5.11l45.89-115.19c.8-2.02 3.09-3 5.11-2.2l14.61 5.82c2.02.81 3.01 3.1 2.2 5.11Z" stroke="#0D0D0D" stroke-width="4.583" stroke-miterlimit="8" fill="#0D0D0D" fill-rule="evenodd"/></g></svg>