<?xml version="1.0" encoding="UTF-8"?>
<svg width="103px" height="103px" viewBox="0 0 103 103" xmlns="http://www.w3.org/2000/svg" xmlns:xlink="http://www.w3.org/1999/xlink" version="1.1">
 <!-- Generated by Pixelmator Pro 2.1.5 -->
 <path id="Path" d="M174.148 63.918 L174.148 63.718 C174.148 56.216 170.147 52.415 163.645 49.914 167.646 47.714 171.047 44.113 171.047 37.811 L171.047 37.611 C171.047 28.808 163.945 23.107 152.542 23.107 L126.434 23.107 126.434 79.223 153.142 79.223 C165.745 79.323 174.148 74.121 174.148 63.918 Z M158.743 39.911 C158.743 44.113 155.342 45.813 149.841 45.813 L138.438 45.813 138.438 33.91 150.641 33.91 C155.843 33.91 158.743 36.01 158.743 39.711 Z M161.844 62.418 C161.844 66.619 158.543 68.52 153.142 68.52 L138.438 68.52 138.438 56.116 152.742 56.116 C159.043 56.116 161.844 58.417 161.844 62.218 Z M200.055 79.323 L200.055 23.207 187.652 23.207 187.652 79.323 Z M266.474 79.323 L266.474 23.207 254.27 23.207 254.27 57.817 227.963 23.207 216.56 23.207 216.56 79.323 228.763 79.323 228.763 43.612 255.971 79.323 Z M334.894 79.323 L310.787 22.807 299.383 22.807 275.276 79.323 287.88 79.323 292.982 66.719 316.688 66.719 321.79 79.323 Z M312.387 55.816 L297.483 55.816 304.985 37.611 Z M393.71 79.323 L393.71 23.207 381.507 23.207 381.507 57.817 355.199 23.207 343.796 23.207 343.796 79.323 356 79.323 356 43.612 383.207 79.323 Z M457.529 70.22 L449.626 62.318 C445.225 66.319 441.324 68.92 434.822 68.92 425.219 68.92 418.518 60.917 418.518 51.315 L418.518 51.115 C418.518 41.512 425.319 33.61 434.822 33.61 440.424 33.61 444.825 36.01 449.226 39.911 L457.128 30.809 C451.927 25.707 445.625 22.106 435.022 22.106 417.817 22.106 405.714 35.21 405.714 51.115 L405.714 51.315 C405.714 67.419 418.017 80.223 434.522 80.223 445.325 80.223 451.727 76.422 457.529 70.22 Z M510.244 79.323 L510.244 68.32 479.735 68.32 479.735 56.516 506.243 56.516 506.243 45.513 479.735 45.513 479.735 34.11 509.843 34.11 509.843 23.107 467.532 23.107 467.532 79.223 510.244 79.223 Z M566.06 79.323 L545.154 79.323 545.154 23.107 566.06 23.107 C583.765 23.107 595.968 35.21 595.968 51.115 595.968 67.019 583.665 79.323 566.06 79.323 Z M566.06 32.109 L554.956 32.109 554.956 70.32 566.06 70.32 C577.863 70.32 585.565 62.418 585.565 51.315 585.565 40.211 577.863 32.109 566.06 32.109 Z M648.183 31.909 L616.374 31.909 616.374 46.513 644.582 46.513 644.582 55.316 616.374 55.316 616.374 70.52 648.583 70.52 648.583 79.323 606.571 79.323 606.571 23.107 648.183 23.107 Z M696.397 79.323 L681.593 58.016 666.788 79.323 655.485 79.323 675.991 50.715 656.285 23.107 667.888 23.107 681.892 43.212 695.896 23.107 707.2 23.107 687.594 50.514 708 79.223 696.397 79.223 Z M24.105 15.704 L51.313 0 78.52 15.704 68.518 21.506 51.313 11.603 34.108 21.506 Z M78.52 35.51 L68.518 29.709 51.313 39.611 34.108 29.709 24.105 35.51 24.105 47.113 41.31 57.016 41.31 76.822 51.313 82.624 61.316 76.822 61.316 57.016 78.52 47.113 Z M78.52 66.919 L78.52 55.316 68.518 61.117 68.518 72.721 Z M85.623 71.02 L68.418 80.923 68.418 92.526 95.625 76.822 95.625 45.413 85.623 51.215 Z M75.62 25.607 L85.623 31.409 85.623 43.012 95.625 37.211 95.625 25.607 85.623 19.806 Z M41.31 85.124 L41.31 96.728 51.313 102.529 61.316 96.728 61.316 85.124 51.313 90.926 Z M24.105 66.919 L34.108 72.721 34.108 61.117 24.105 55.316 Z M41.31 25.607 L51.313 31.409 61.316 25.607 51.313 19.806 Z M17.003 31.409 L27.006 25.607 17.003 19.806 7 25.607 7 37.211 17.003 43.012 Z M17.003 51.215 L7 45.413 7 76.822 34.208 92.526 34.208 80.923 17.003 71.02 Z" fill="#f0b90b" fill-opacity="1" stroke="none"/>
</svg>
