<?xml version="1.0" encoding="utf-8"?>
<!-- Generator: Adobe Illustrator 26.0.1, SVG Export Plug-In . SVG Version: 6.00 Build 0)  -->
<svg version="1.1" id="Layer_1" xmlns="http://www.w3.org/2000/svg" xmlns:xlink="http://www.w3.org/1999/xlink" x="0px" y="0px"
	 viewBox="0 0 1302.1 1214.6" style="enable-background:new 0 0 1302.1 1214.6;" xml:space="preserve">
<style type="text/css">
	.st0{fill:#277CE0;}
	.st1{fill:#3C3C3B;}
	.st2{opacity:0.6;}
	.st3{clip-path:url(#SVGID_00000018954868129697881520000011268931127273857971_);fill:#010101;}
	.st4{opacity:0.45;}
	.st5{clip-path:url(#SVGID_00000104698792529821924390000005133035760380192432_);fill:#010101;}
	.st6{opacity:0.8;}
	.st7{clip-path:url(#SVGID_00000029727275820255249370000012472140314860176525_);fill:#010101;}
	.st8{clip-path:url(#SVGID_00000129205537449910568180000014519793164934457473_);fill:#010101;}
	.st9{clip-path:url(#SVGID_00000089547584376290760450000014418641623599497626_);fill:#010101;}
	.st10{fill-rule:evenodd;clip-rule:evenodd;fill:#3C3C3B;}
	.st11{fill:url(#SVGID_00000134226516562625626830000003925736876037719687_);}
	.st12{fill:url(#SVGID_00000145743565358295125060000013522800483348048525_);}
	.st13{fill:url(#SVGID_00000157276595329979619020000001976717033949747078_);}
	.st14{fill:#FFFFFF;}
	.st15{fill:#7FFBFF;}
	.st16{display:none;}
	.st17{display:inline;fill:#00FFA2;}
	.st18{display:inline;}
	.st19{fill:#E1761B;}
	.st20{fill:#E3761B;}
	.st21{fill:#D6C0B2;}
	.st22{fill:#233447;}
	.st23{fill:#CC6116;}
	.st24{fill:#E3751F;}
	.st25{fill:#F5841B;}
	.st26{fill:#BFAC9D;}
	.st27{fill:#161616;}
	.st28{fill:#763D16;}
	.st29{fill:#26A07B;}
	.st30{fill:#2775C9;}
	.st31{fill:#F1BB04;}
	.st32{fill:#FFFEFD;}
	.st33{fill:none;stroke:#FFFFFF;stroke-width:10;stroke-miterlimit:10;}
	.st34{fill:#26A07B;stroke:#FFFFFF;stroke-width:10;stroke-miterlimit:10;}
	.st35{fill:#F0B90B;}
</style>
<path class="st0" d="M709.5,1011.3V753.6c0-13.9,7.4-26.8,19.5-33.7L952.2,591c25.9-15,58.4,3.7,58.4,33.7v257.8
	c0,13.9-7.4,26.8-19.5,33.7l-223.2,128.9C741.9,1060,709.5,1041.3,709.5,1011.3z"/>
<path class="st0" d="M579.9,1011.3V753.5c0-13.9-7.4-26.8-19.5-33.7L337.2,591c-25.9-15-58.4,3.7-58.4,33.7v257.8
	c0,13.9,7.4,26.8,19.5,33.7l223.2,128.9C547.5,1060,579.9,1041.3,579.9,1011.3z"/>
<path class="st0" d="M887.3,479.5L664.1,608.4c-12,7-26.9,7-38.9,0L401.9,479.5c-25.9-15-25.9-52.4,0-67.4l223.2-128.9
	c12-7,26.9-7,38.9,0l223.2,128.9C913.2,427.1,913.2,464.5,887.3,479.5z"/>
<g>
	<path class="st1" d="M1097.5,1175.3c0,0.5-0.4,0.9-0.9,0.9H1079c0.4,4.3,3.7,8.3,8.3,8.3c3.1,0,5.5-1.2,7.2-3.7
		c0.3-0.3,0.6-0.6,1.1-0.4c0.3,0.1,0.4,0.4,0.5,0.6c0,0.3,0,0.4-0.1,0.6c-1.8,3.1-5.3,4.6-8.7,4.6c-5.9,0-10.1-5.3-10.1-10.9
		s4.2-10.9,10.1-10.9C1093.3,1164.4,1097.5,1169.7,1097.5,1175.3 M1095.7,1174.5c-0.4-4.3-3.7-8.3-8.3-8.3c-4.6,0-7.9,4-8.3,8.3
		H1095.7z M1118.9,1164.8c0.5,0,0.9,0.4,0.9,0.9s-0.4,0.9-0.9,0.9h-4.7v18.5c0,0.4-0.4,0.9-0.9,0.9s-0.9-0.4-0.9-0.9v-18.5h-4.5
		c-0.5,0-0.9-0.4-0.9-0.9c0-0.4,0.4-0.9,0.9-0.9h4.5v-6.8c0-0.4,0.3-0.8,0.7-0.9c0.6-0.1,1,0.3,1,0.9v6.8H1118.9L1118.9,1164.8z
		 M1147.6,1173.8v11.2c0,0.5-0.4,0.9-0.9,0.9s-0.9-0.4-0.9-0.9v-11.2c0-3.8-2.1-7.5-6.3-7.5c-5.4,0-7.7,4.7-7.4,9.5
		c0,0.1,0.1,0.7,0.1,0.7v8.4c0,0.4-0.3,0.8-0.7,0.9c-0.6,0.1-1-0.3-1-0.9v-36.7c0-0.4,0.4-0.9,0.9-0.9s0.9,0.4,0.9,0.9v20.8
		c1.5-2.7,4.2-4.5,7.3-4.5C1144.6,1164.5,1147.6,1169,1147.6,1173.8 M1179,1175.3c0,0.5-0.4,0.9-0.9,0.9h-17.5
		c0.4,4.3,3.7,8.3,8.3,8.3c3.1,0,5.5-1.2,7.2-3.7c0.3-0.3,0.6-0.6,1.1-0.4c0.3,0.1,0.4,0.4,0.5,0.6c0,0.3,0,0.4-0.1,0.6
		c-1.8,3.1-5.3,4.6-8.7,4.6c-5.9,0-10.1-5.3-10.1-10.9s4.2-10.9,10.1-10.9C1174.7,1164.4,1179,1169.7,1179,1175.3 M1177.1,1174.5
		c-0.4-4.3-3.7-8.3-8.3-8.3s-7.9,4-8.3,8.3H1177.1z M1200.6,1165.7c0,0.6-0.3,0.9-0.8,0.9c-5.2,0.7-7.5,5-7.5,9.9v8.4
		c0,0.4-0.3,0.8-0.7,0.9c-0.6,0.1-1-0.3-1-0.9v-19.1c0-0.4,0.3-0.8,0.7-0.9c0.6-0.1,1,0.3,1,0.9v3.9c1.4-2.4,4.3-4.8,7.3-4.8
		C1200.1,1164.8,1200.6,1165.2,1200.6,1165.7 M1229.4,1175.3c0,0.5-0.4,0.9-0.9,0.9h-17.6c0.4,4.3,3.7,8.3,8.3,8.3
		c3.1,0,5.5-1.2,7.2-3.7c0.3-0.3,0.6-0.6,1.1-0.4c0.3,0.1,0.4,0.4,0.5,0.6c0,0.3,0,0.4-0.1,0.6c-1.8,3.1-5.3,4.6-8.7,4.6
		c-5.9,0-10.1-5.3-10.1-10.9s4.2-10.9,10.1-10.9C1225.1,1164.4,1229.4,1169.7,1229.4,1175.3 M1227.5,1174.5
		c-0.4-4.3-3.7-8.3-8.3-8.3c-4.6,0-7.9,4-8.3,8.3H1227.5z M1257.7,1165.9v19.2c0,0.5-0.4,0.9-0.9,0.9s-0.9-0.4-0.9-0.9v-3.6
		c-1.4,2.9-4,5-7.3,5c-5.2,0-8.1-4.5-8.1-9.3V1166c0-0.4,0.4-0.9,0.9-0.9s0.9,0.4,0.9,0.9v11.2c0,3.8,2.1,7.5,6.3,7.5
		c5.9,0,7.3-5.5,7.3-11.6v-7.2c0-0.5,0.5-1,1.1-0.8C1257.5,1165.1,1257.7,1165.5,1257.7,1165.9 M1302.1,1173.7v11.2
		c0,0.5-0.4,0.9-0.9,0.9s-0.9-0.4-0.9-0.9v-11.2c0-3.8-2.1-7.5-6.3-7.5c-5.3,0-7.3,5.7-7.3,10v8.7c0,0.5-0.4,0.9-0.9,0.9
		s-0.9-0.4-0.9-0.9v-11.2c0-3.8-2.1-7.5-6.3-7.5c-5.3,0-7.5,4.2-7.3,9.8c0,0.1,0.1,0.4,0,0.4v8.5c0,0.4-0.3,0.8-0.7,0.9
		c-0.6,0.1-1-0.3-1-0.9v-19.2c0-0.4,0.3-0.8,0.7-0.9c0.6-0.1,1,0.3,1,0.9v3.2c1.5-2.7,4.2-4.5,7.3-4.5c3.6,0,6.3,2.3,7.5,5.6
		c1.4-3.3,4.3-5.6,7.9-5.6C1299.2,1164.5,1302.1,1168.9,1302.1,1173.7"/>
	<g>
		<g class="st2">
			<g>
				<g>
					<g>
						<defs>
							<rect id="SVGID_1_" x="1002.7" y="1154.4" width="58.7" height="30.7"/>
						</defs>
						<clipPath id="SVGID_00000048458847723242383170000006805670949799649186_">
							<use xlink:href="#SVGID_1_"  style="overflow:visible;"/>
						</clipPath>
						<path style="clip-path:url(#SVGID_00000048458847723242383170000006805670949799649186_);fill:#010101;" d="M1032,1154.4
							l-29.3,13.3l29.3,17.3l29.3-17.3L1032,1154.4z"/>
					</g>
				</g>
			</g>
		</g>
		<g class="st4">
			<g>
				<g>
					<g>
						<defs>
							<rect id="SVGID_00000180333776893767296540000000159567629522859161_" x="1002.7" y="1119.1" width="29.3" height="66"/>
						</defs>
						<clipPath id="SVGID_00000063631493866714399410000015691185642954938786_">
							<use xlink:href="#SVGID_00000180333776893767296540000000159567629522859161_"  style="overflow:visible;"/>
						</clipPath>
						<path style="clip-path:url(#SVGID_00000063631493866714399410000015691185642954938786_);fill:#010101;" d="M1002.7,1167.7
							l29.3,17.3v-66L1002.7,1167.7z"/>
					</g>
				</g>
			</g>
		</g>
		<g class="st6">
			<g>
				<g>
					<g>
						<defs>
							<rect id="SVGID_00000003796386825837408560000015262608185390626689_" x="1032" y="1119.1" width="29.3" height="66"/>
						</defs>
						<clipPath id="SVGID_00000005949371840741295030000013616746080966884524_">
							<use xlink:href="#SVGID_00000003796386825837408560000015262608185390626689_"  style="overflow:visible;"/>
						</clipPath>
						<path style="clip-path:url(#SVGID_00000005949371840741295030000013616746080966884524_);fill:#010101;" d="M1032,1119.1v66
							l29.3-17.3L1032,1119.1z"/>
					</g>
				</g>
			</g>
		</g>
		<g class="st4">
			<g>
				<g>
					<g>
						<defs>
							<rect id="SVGID_00000168802284811581795780000008936122749686118042_" x="1002.7" y="1173.3" width="29.3" height="41.3"/>
						</defs>
						<clipPath id="SVGID_00000049203530277221889880000002710969831999740599_">
							<use xlink:href="#SVGID_00000168802284811581795780000008936122749686118042_"  style="overflow:visible;"/>
						</clipPath>
						<path style="clip-path:url(#SVGID_00000049203530277221889880000002710969831999740599_);fill:#010101;" d="M1002.7,1173.3
							l29.3,41.3v-24L1002.7,1173.3z"/>
					</g>
				</g>
			</g>
		</g>
		<g class="st6">
			<g>
				<g>
					<g>
						<defs>
							<rect id="SVGID_00000132778708572542723290000012742238799361549985_" x="1032" y="1173.3" width="29.4" height="41.3"/>
						</defs>
						<clipPath id="SVGID_00000124158845937295168490000008336826465161620121_">
							<use xlink:href="#SVGID_00000132778708572542723290000012742238799361549985_"  style="overflow:visible;"/>
						</clipPath>
						<path style="clip-path:url(#SVGID_00000124158845937295168490000008336826465161620121_);fill:#010101;" d="M1032,1190.6v24
							l29.4-41.3L1032,1190.6z"/>
					</g>
				</g>
			</g>
		</g>
	</g>
</g>
<g>
	<path class="st1" d="M597.2,30.1h11.1c1.6,0,2.8,1.3,2.8,2.8c0,1.6-1.3,2.8-2.8,2.8h-13.4c-0.2,0-0.4,0.1-0.6,0.2l-4,3.5
		c-0.6,0.5-0.2,1.6,0.6,1.6h16.7l0,0l0,0c0.2,0,0.4,0,0.6,0c4.4,0,8-3.6,8-8.1c0-4.2-3.2-7.7-7.4-8.1l0,0l0,0h-11.9
		c-1.6,0-2.8-1.3-2.8-2.8c0-1.6,1.3-2.8,2.8-2.8h13.3c0.2,0,0.4-0.1,0.6-0.2l3.7-3.5c0.6-0.5,0.2-1.5-0.6-1.5H597l0,0l0,0
		c-0.1,0-0.1,0-0.2,0c-4.4,0-8,3.6-8,8.1s3.6,8.1,8,8.1C597,30.1,597.1,30.1,597.2,30.1L597.2,30.1L597.2,30.1z"/>
	<path class="st1" d="M661.7,14c-0.5,0-0.9,0.4-0.9,0.9v25.3c0,0.5,0.4,0.9,0.9,0.9H682c0.2,0,0.5-0.1,0.6-0.3l2.5-2.7
		c0.5-0.6,0.1-1.5-0.6-1.5h-17.7c-0.5,0-0.9-0.4-0.9-0.9V14.9c0-0.5-0.4-0.9-0.9-0.9H661.7z"/>
	<path class="st10" d="M629.2,14L629.2,14L629.2,14c-2.6,0.1-4.7,2.2-4.8,4.8l0,0l0,0l0,0v17l0,0l0,0c0,0.1,0,0.1,0,0.2
		c0,2.7,2.1,4.9,4.8,5l0,0l0,0l0,0l0,0h18.4l0,0l0,0l0,0l0,0c2.7-0.1,4.8-2.3,4.8-5c0-0.1,0-0.1,0-0.2l0,0l0,0v-17l0,0l0,0
		c-0.1-2.6-2.2-4.7-4.8-4.8l0,0l0,0C647.6,14,629.2,14,629.2,14z M632.6,18.8L632.6,18.8L632.6,18.8L632.6,18.8
		c-1.6,0.1-2.9,1.4-3,3l0,0l0,0v10.7l0,0l0,0v0.1c0,1.7,1.3,3.1,3,3.2l0,0l0,0l0,0l0,0h11.5l0,0l0,0l0,0l0,0c1.7-0.1,3-1.5,3-3.2
		v-0.1l0,0l0,0l0,0l0,0V21.8l0,0l0,0c-0.1-1.6-1.4-2.9-3-3l0,0l0,0l0,0l0,0H632.6z"/>
	<path class="st10" d="M714.7,40.2c0,0.5,0.4,0.9,0.9,0.9h3.4c0.5,0,0.9-0.4,0.9-0.9v-21l0,0l0,0l0,0l0,0c0-0.1,0-0.1,0-0.2
		c0-2.7-2.1-4.9-4.7-5l0,0l0,0h-17.7l0,0l0,0c-0.1,0-0.1,0-0.2,0c-2.7,0-5,2.2-5,5c0,0.1,0,0.1,0,0.2l0,0l0,0v21
		c0,0.5,0.4,0.9,0.9,0.9h3.4c0.5,0,0.9-0.4,0.9-0.9v-8.7c0-0.5,0.4-0.9,0.9-0.9h15.5c0.5,0,0.9,0.4,0.9,0.9v8.7H714.7z M697.4,25.8
		v-4.4c0-1.7,1.4-3.1,3-3.1h11.2c1.7,0,3,1.4,3,3.1v4.4c0,0.5-0.4,0.9-0.9,0.9h-15.5C697.8,26.6,697.4,26.2,697.4,25.8z"/>
	<path class="st10" d="M787.3,41.1c-0.5,0-0.9-0.4-0.9-0.9v-8.7c0-0.5-0.4-0.9-0.9-0.9h-15.7c-0.5,0-0.9,0.4-0.9,0.9v8.7
		c0,0.5-0.4,0.9-0.9,0.9h-3.5c-0.5,0-0.9-0.4-0.9-0.9v-21l0,0l0,0l0,0l0,0c0-0.1,0-0.1,0-0.2c0-2.8,2.2-5,5-5c0.1,0,0.1,0,0.2,0l0,0
		l0,0h17.9l0,0l0,0c2.7,0.1,4.8,2.3,4.8,5c0,0.1,0,0.1,0,0.2l0,0l0,0l0,0v21c0,0.5-0.4,0.9-0.9,0.9H787.3z M769,21.4v4.4
		c0,0.5,0.4,0.9,0.9,0.9h15.7c0.5,0,0.9-0.4,0.9-0.9v-4.4c0-1.7-1.4-3.1-3.1-3.1h-11.3C770.4,18.3,769,19.7,769,21.4z"/>
	<path class="st1" d="M732.8,14c0.3,0,0.5,0.1,0.7,0.3l15.4,18.4c0.5,0.6,1.5,0.2,1.5-0.6V14.8c0-0.5,0.4-0.9,0.9-0.9h3.4
		c0.5,0,0.9,0.4,0.9,0.9v25.3c0,0.5-0.4,0.9-0.9,0.9h-4.3l0,0l0,0l-15.7-18.3c-0.5-0.6-1.5-0.2-1.5,0.6v16.9c0,0.5-0.4,0.9-0.9,0.9
		h-3.5c-0.5,0-0.9-0.4-0.9-0.9V14.9c0-0.5,0.4-0.9,0.9-0.9H732.8L732.8,14z"/>
	
		<linearGradient id="SVGID_00000073698604798380835810000016699070057638359478_" gradientUnits="userSpaceOnUse" x1="289.3025" y1="1308.8848" x2="250.5635" y2="1234.6843" gradientTransform="matrix(1 0 0 -1 271.8425 1302.3141)">
		<stop  offset="0" style="stop-color:#00FFA2"/>
		<stop  offset="1" style="stop-color:#DB1FFF"/>
	</linearGradient>
	<path style="fill:url(#SVGID_00000073698604798380835810000016699070057638359478_);" d="M508.9,42c0.4-0.4,1-0.7,1.6-0.7h56
		c1,0,1.5,1.2,0.8,2l-11.1,11.1c-0.4,0.4-1,0.7-1.6,0.7h-56c-1,0-1.5-1.2-0.8-2L508.9,42z"/>
	
		<linearGradient id="SVGID_00000085221612888615598510000012261548829740936586_" gradientUnits="userSpaceOnUse" x1="272.3587" y1="1317.7308" x2="233.6199" y2="1243.5303" gradientTransform="matrix(1 0 0 -1 271.8425 1302.3141)">
		<stop  offset="0" style="stop-color:#00FFA2"/>
		<stop  offset="1" style="stop-color:#DB1FFF"/>
	</linearGradient>
	<path style="fill:url(#SVGID_00000085221612888615598510000012261548829740936586_);" d="M508.9,0.7c0.4-0.4,1-0.7,1.6-0.7h56
		c1,0,1.5,1.2,0.8,2l-11.1,11.1c-0.4,0.4-1,0.7-1.6,0.7h-56c-1,0-1.5-1.2-0.8-2L508.9,0.7z"/>
	
		<linearGradient id="SVGID_00000101094393154661470990000012127441178600565126_" gradientUnits="userSpaceOnUse" x1="280.769" y1="1313.3398" x2="242.0302" y2="1239.1394" gradientTransform="matrix(1 0 0 -1 271.8425 1302.3141)">
		<stop  offset="0" style="stop-color:#00FFA2"/>
		<stop  offset="1" style="stop-color:#DB1FFF"/>
	</linearGradient>
	<path style="fill:url(#SVGID_00000101094393154661470990000012127441178600565126_);" d="M556.2,21.2c-0.4-0.4-1-0.7-1.6-0.7h-56
		c-1,0-1.5,1.2-0.8,2l11.1,11.1c0.4,0.4,1,0.7,1.6,0.7h56c1,0,1.5-1.2,0.8-2L556.2,21.2z"/>
</g>
<g>
	<g>
		<circle class="st14" cx="644.6" cy="694.5" r="148.4"/>
		<path class="st15" d="M634.8,671.7c-1.6,0-3.1,0.1-4.7,0.1c-0.9,0-1.8,0.1-2.7,0.1c-1.4,0.1-2.8,0.1-4.2,0.2
			c-0.9,0.1-1.9,0.1-2.8,0.2c-1.3,0.1-2.7,0.2-4,0.3c-0.9,0.1-1.9,0.1-2.8,0.2c-1.3,0.1-2.6,0.2-3.9,0.3c-0.9,0.1-1.8,0.2-2.7,0.3
			c-1.3,0.1-2.5,0.3-3.8,0.4c-0.9,0.1-1.8,0.2-2.6,0.3c-1.3,0.2-2.6,0.3-3.8,0.5c-0.8,0.1-1.6,0.2-2.4,0.3c-0.2,0-0.4,0.1-0.7,0.1
			v35.1c0,1.5,0.9,2.8,2.2,3.4l10.5,4.8c4.7,2.1,10.1,2.4,14.9,0.4c4.7-2.1,8.2-5.9,9.8-10.8l2.1-6.3c1.5-4.6,5.7-8,10.6-8
			c4.9,0,9.1,3,10.7,7.7l2,6.2c1.6,4.9,5.1,9.1,9.8,11.2c4.7,2.1,9.9,2.1,14.6,0l11-5c1.3-0.6,2.2-1.9,2.2-3.4v-35.1
			c-6.5-1-13.4-1.8-20.4-2.4c-1.1-0.1-2.3-0.2-3.4-0.3c-1.3-0.1-2.6-0.2-3.9-0.3c-1.2-0.1-2.4-0.1-3.6-0.2c-1.2-0.1-2.5-0.1-3.7-0.2
			c-1.5-0.1-2.9-0.1-4.4-0.1c-1,0-2.1-0.1-3.1-0.1c-2.5-0.1-5-0.1-7.6-0.1c-2.3,0-4.7,0-7,0.1C636.3,671.7,635.6,671.7,634.8,671.7z
			"/>
	</g>
	<path class="st0" d="M673.7,732.6c-4.1,0-8.3-0.8-12.1-2.5c-7.8-3.4-13.9-10.1-16.5-18.2l-1-3.1l-1,3.1
		c-2.7,8.1-8.7,14.8-16.5,18.2s-16.8,3.4-24.6-0.2l-11-5c-5.7-2.6-9.4-8.3-9.4-14.6v-40.4c0-3,2.2-5.6,5.1-6.1l0,0
		c17.3-3,37.2-4.6,57.4-4.6c6.6,0,13.2,0.2,19.7,0.5c6.9,0.4,12,6.3,11.4,13.2l0,0c-10-0.9-20.5-1.3-31.1-1.3
		c-17.6,0-34.8,1.2-50.2,3.6v35.1c0,1.5,0.9,2.8,2.2,3.4l10.5,4.8c4.7,2.1,10.1,2.4,14.9,0.4c4.7-2.1,8.2-5.9,9.8-10.8l2.1-6.3
		c1.5-4.6,5.7-8,10.6-8c4.9,0,9.1,3,10.7,7.7l2,6.2c1.6,4.9,5.1,9.1,9.8,11.2c4.7,2.1,9.9,2.1,14.6,0l11-5c1.3-0.6,2.2-1.9,2.2-3.4
		v-87h12.4v87c0,6.3-3.7,12-9.4,14.6l-11,5C682.3,731.7,678,732.6,673.7,732.6z"/>
</g>
<g>
	<rect x="68.2" y="921.1" class="st14" width="139" height="129.9"/>
	<path class="st0" d="M73.8,942.8c-2.7,0-4.9-2.2-4.9-4.9s2.2-4.9,4.9-4.9h154.7c-0.9-6.7-6.6-11.9-13.5-11.9H60.3
		c-7.5,0-13.7,6.1-13.7,13.7v102.6c0,7.5,6.1,13.7,13.7,13.7H215c7.5,0,13.7-6.1,13.7-13.7v-94.6L73.8,942.8z"/>
	<g>
		<path class="st14" d="M179.4,1005.8c-4.7,0-8.5-3.8-8.5-8.5V975c0-4.7,3.8-8.5,8.5-8.5h39.3c4.7,0,8.5,3.8,8.5,8.5v22.3
			c0,4.7-3.8,8.5-8.5,8.5H179.4z"/>
		<path class="st0" d="M218.7,967.9c3.9,0,7,3.1,7,7v22.3c0,3.9-3.1,7-7,7h-39.3c-3.9,0-7-3.1-7-7v-22.3c0-3.9,3.1-7,7-7H218.7
			 M218.7,964.9h-39.3c-5.5,0-10,4.5-10,10v22.3c0,5.5,4.5,10,10,10h39.3c5.5,0,10-4.5,10-10v-22.3
			C228.7,969.4,224.2,964.9,218.7,964.9L218.7,964.9z"/>
	</g>
	<circle class="st0" cx="212.5" cy="986.1" r="9.7"/>
</g>
<g>
	<rect x="1082" y="921" class="st14" width="139" height="130.1"/>
	<path class="st0" d="M1087.6,942.8c-2.7,0-4.9-2.2-4.9-4.9s2.2-4.9,4.9-4.9h154.7c-0.9-6.7-6.6-11.9-13.5-11.9h-154.7
		c-7.5,0-13.7,6.1-13.7,13.7v102.6c0,7.5,6.1,13.7,13.7,13.7h154.7c7.5,0,13.7-6.1,13.7-13.7v-94.6L1087.6,942.8z"/>
	<g>
		<path class="st14" d="M1193.2,1005.8c-4.7,0-8.5-3.8-8.5-8.5V975c0-4.7,3.8-8.5,8.5-8.5h39.3c4.7,0,8.5,3.8,8.5,8.5v22.3
			c0,4.7-3.8,8.5-8.5,8.5H1193.2z"/>
		<path class="st0" d="M1232.5,967.9c3.9,0,7,3.1,7,7v22.3c0,3.9-3.1,7-7,7h-39.3c-3.9,0-7-3.1-7-7v-22.3c0-1.9,0.7-3.6,2.1-4.9
			c1.4-1.3,3.1-2.1,4.9-2.1H1232.5 M1232.5,964.9h-39.3c-5.5,0-10,4.5-10,10v22.3c0,5.5,4.5,10,10,10h39.3c5.5,0,10-4.5,10-10v-22.3
			C1242.5,969.4,1238,964.9,1232.5,964.9L1232.5,964.9z"/>
	</g>
	<circle class="st0" cx="1226.3" cy="986.1" r="9.7"/>
</g>
<g>
	<g>
		<rect x="575.1" y="109.8" class="st14" width="139" height="130.1"/>
		<path class="st0" d="M580.7,131.6c-2.7,0-4.9-2.2-4.9-4.9c0-2.7,2.2-4.9,4.9-4.9h154.7c-0.9-6.7-6.6-11.9-13.5-11.9H567.2
			c-7.5,0-13.7,6.1-13.7,13.7v102.6c0,7.5,6.1,13.7,13.7,13.7h154.7c7.5,0,13.7-6.1,13.7-13.7v-94.6H580.7z"/>
		<g>
			<path class="st14" d="M686.3,194.6c-4.7,0-8.5-3.8-8.5-8.5v-22.3c0-4.7,3.8-8.5,8.5-8.5h39.3c4.7,0,8.5,3.8,8.5,8.5v22.3
				c0,4.7-3.8,8.5-8.5,8.5H686.3z"/>
			<path class="st0" d="M725.6,153.7v3c3.9,0,7,3.1,7,7V186c0,3.9-3.1,7-7,7h-39.3c-3.9,0-7-3.1-7-7v-22.3c0-3.9,3.1-7,7-7h39.3
				V153.7 M725.6,153.7h-39.3c-5.5,0-10,4.5-10,10V186c0,5.5,4.5,10,10,10h39.3c5.5,0,10-4.5,10-10v-22.3
				C735.6,158.2,731.1,153.7,725.6,153.7L725.6,153.7z"/>
		</g>
		<circle class="st0" cx="719.4" cy="174.9" r="9.7"/>
	</g>
</g>
<g>
	<path class="st0" d="M268.9,913.1c-1.3,0-2.6-0.5-3.5-1.5c-0.2-0.2-0.4-0.5-0.6-0.8s-0.3-0.6-0.5-0.9c-0.1-0.3-0.2-0.6-0.3-0.9
		s-0.1-0.7-0.1-1s0-0.7,0.1-1s0.2-0.6,0.3-0.9s0.3-0.6,0.5-0.9s0.4-0.5,0.6-0.8c1.2-1.2,2.9-1.7,4.5-1.4c0.3,0.1,0.6,0.2,0.9,0.3
		s0.6,0.3,0.9,0.5s0.5,0.4,0.8,0.6c0.2,0.2,0.4,0.5,0.6,0.8s0.3,0.6,0.5,0.9c0.1,0.3,0.2,0.6,0.3,0.9s0.1,0.6,0.1,1
		c0,1.3-0.5,2.6-1.5,3.5c-0.2,0.2-0.5,0.4-0.8,0.6s-0.6,0.3-0.9,0.5c-0.3,0.1-0.6,0.2-0.9,0.3C269.5,913.1,269.2,913.1,268.9,913.1z
		"/>
	<path class="st0" d="M239.5,926.7c-1.5-2.3-0.8-5.4,1.5-6.9l0,0c2.3-1.5,5.4-0.8,6.9,1.5l0,0c1.5,2.3,0.8,5.4-1.5,6.9l0,0
		c-0.8,0.5-1.8,0.8-2.7,0.8l0,0C242.1,929.1,240.4,928.2,239.5,926.7z"/>
</g>
<g>
	<path class="st0" d="M1023,911.1c1.3,0,2.6-0.5,3.5-1.5c0.2-0.2,0.4-0.5,0.6-0.8s0.3-0.6,0.5-0.9c0.1-0.3,0.2-0.6,0.3-0.9
		c0.1-0.3,0.1-0.7,0.1-1s0-0.7-0.1-1s-0.2-0.6-0.3-0.9s-0.3-0.6-0.5-0.9s-0.4-0.5-0.6-0.8c-1.2-1.2-2.9-1.7-4.5-1.4
		c-0.3,0.1-0.6,0.2-0.9,0.3c-0.3,0.1-0.6,0.3-0.9,0.5s-0.5,0.4-0.8,0.6c-0.2,0.2-0.4,0.5-0.6,0.8s-0.3,0.6-0.5,0.9
		c-0.1,0.3-0.2,0.6-0.3,0.9c-0.1,0.3-0.1,0.6-0.1,1c0,1.3,0.5,2.6,1.5,3.5c0.2,0.2,0.5,0.4,0.8,0.6s0.6,0.3,0.9,0.5
		c0.3,0.1,0.6,0.2,0.9,0.3C1022.3,911.1,1022.6,911.1,1023,911.1z"/>
	<path class="st0" d="M1052.3,924.7c1.5-2.3,0.8-5.4-1.5-6.9l0,0c-2.3-1.5-5.4-0.8-6.9,1.5l0,0c-1.5,2.3-0.8,5.4,1.5,6.9l0,0
		c0.8,0.5,1.8,0.8,2.7,0.8l0,0C1049.8,927.1,1051.4,926.2,1052.3,924.7z"/>
</g>
<path class="st0" d="M640.4,270.7c-1.5-2.3-0.8-5.4,1.5-6.9l0,0c2.3-1.5,5.4-0.8,6.9,1.5l0,0c1.5,2.3,0.8,5.4-1.5,6.9l0,0
	c-0.8,0.5-1.8,0.8-2.7,0.8l0,0C642.9,273,641.3,272.2,640.4,270.7z"/>
<path class="st0" d="M640.4,254.1c-1.5-2.3-0.8-5.4,1.5-6.9l0,0c2.3-1.5,5.4-0.8,6.9,1.5l0,0c1.5,2.3,0.8,5.4-1.5,6.9l0,0
	c-0.8,0.5-1.8,0.8-2.7,0.8l0,0C642.9,256.4,641.3,255.6,640.4,254.1z"/>
<g id="WALLET_ICONS" class="st16">
	<path class="st17" d="M623.7,188.2c0.4-0.4,0.8-0.5,1.3-0.5h45.9c0.8,0,1.3,1,0.7,1.6l-9.1,9.1c-0.4,0.4-0.8,0.5-1.3,0.5h-45.9
		c-0.8,0-1.3-1-0.7-1.6L623.7,188.2z"/>
	<path class="st17" d="M623.7,154.3c0.4-0.4,0.8-0.5,1.3-0.5h45.9c0.8,0,1.3,1,0.7,1.6l-9.1,9.1c-0.4,0.4-0.8,0.5-1.3,0.5h-45.9
		c-0.8,0-1.3-1-0.7-1.6L623.7,154.3z"/>
	<path class="st17" d="M662.5,171.1c-0.4-0.4-0.8-0.5-1.3-0.5h-45.9c-0.8,0-1.3,1-0.7,1.6l9.1,9.1c0.4,0.4,0.8,0.5,1.3,0.5h45.9
		c0.8,0,1.3-1,0.7-1.6L662.5,171.1z"/>
	<g class="st18">
		<polygon class="st19" points="162,961.1 140.9,976.7 144.8,967.5 		"/>
		<g>
			<polygon class="st20" points="113.4,961.1 134.3,976.9 130.6,967.5 			"/>
			<polygon class="st20" points="154.4,997.3 148.8,1005.9 160.8,1009.2 164.2,997.5 			"/>
			<polygon class="st20" points="111.2,997.5 114.6,1009.2 126.6,1005.9 121,997.3 			"/>
			<polygon class="st20" points="125.9,982.8 122.6,987.9 134.5,988.4 134.1,975.6 			"/>
			<polygon class="st20" points="149.5,982.8 141.2,975.5 140.9,988.4 152.8,987.9 			"/>
			<polygon class="st20" points="126.6,1005.9 133.8,1002.4 127.6,997.6 			"/>
			<polygon class="st20" points="141.6,1002.4 148.8,1005.9 147.8,997.6 			"/>
		</g>
		<g>
			<polygon class="st21" points="148.8,1005.9 141.6,1002.4 142.2,1007.1 142.2,1009 			"/>
			<polygon class="st21" points="126.6,1005.9 133.3,1009 133.2,1007.1 133.8,1002.4 			"/>
		</g>
		<polygon class="st22" points="133.4,994.5 127.4,992.8 131.6,990.8 		"/>
		<polygon class="st22" points="142,994.5 143.8,990.8 148,992.8 		"/>
		<g>
			<polygon class="st23" points="126.6,1005.9 127.6,997.3 121,997.5 			"/>
			<polygon class="st23" points="147.8,997.3 148.8,1005.9 154.4,997.5 			"/>
			<polygon class="st23" points="152.8,987.9 140.9,988.4 142,994.5 143.8,990.8 148,992.8 			"/>
			<polygon class="st23" points="127.4,992.8 131.6,990.8 133.4,994.5 134.5,988.4 122.6,987.9 			"/>
		</g>
		<g>
			<polygon class="st24" points="122.6,987.9 127.6,997.6 127.4,992.8 			"/>
			<polygon class="st24" points="148,992.8 147.8,997.6 152.8,987.9 			"/>
			<polygon class="st24" points="134.5,988.4 133.4,994.5 134.8,1001.7 135.1,992.2 			"/>
			<polygon class="st24" points="140.9,988.4 140.4,992.2 140.6,1001.7 142,994.5 			"/>
		</g>
		<polygon class="st25" points="142,994.5 140.6,1001.7 141.6,1002.4 147.8,997.6 148,992.8 		"/>
		<polygon class="st25" points="127.4,992.8 127.6,997.6 133.8,1002.4 134.8,1001.7 133.4,994.5 		"/>
		<polygon class="st26" points="142.2,1009 142.2,1007.1 141.7,1006.6 133.7,1006.6 133.2,1007.1 133.3,1009 126.6,1005.9 
			128.9,1007.8 133.7,1011.1 141.7,1011.1 146.5,1007.8 148.8,1005.9 		"/>
		<polygon class="st27" points="141.6,1002.4 140.6,1001.7 134.8,1001.7 133.8,1002.4 133.2,1007.1 133.7,1006.6 141.7,1006.6 
			142.2,1007.1 		"/>
		<g>
			<polygon class="st28" points="162.9,977.7 164.7,969.1 162,961.1 141.6,976.2 149.5,982.8 160.5,986.1 163,983.2 161.9,982.4 
				163.6,980.9 162.3,979.9 164,978.6 			"/>
			<polygon class="st28" points="110.8,969.1 112.6,977.7 111.4,978.6 113.1,979.9 111.8,980.9 113.5,982.4 112.5,983.2 
				114.9,986.1 125.9,982.8 133.8,976.2 113.4,961.1 			"/>
		</g>
		<polygon class="st25" points="160.5,986.1 149.5,982.8 152.8,987.9 147.8,997.6 154.4,997.5 164.2,997.5 		"/>
		<polygon class="st25" points="125.9,982.8 114.9,986.1 111.2,997.5 121,997.5 127.6,997.6 122.6,987.9 		"/>
		<polygon class="st25" points="140.9,988.4 141.6,976.2 144.9,967.5 130.6,967.5 133.8,976.2 134.5,988.4 134.8,992.2 
			134.8,1001.7 140.6,1001.7 140.7,992.2 		"/>
	</g>
	<g class="st18">
		<polygon class="st19" points="1175.8,961.1 1154.7,976.7 1158.6,967.5 		"/>
		<g>
			<polygon class="st20" points="1127.2,961.1 1148.1,976.9 1144.4,967.5 			"/>
			<polygon class="st20" points="1168.2,997.3 1162.6,1005.9 1174.6,1009.2 1178,997.5 			"/>
			<polygon class="st20" points="1125,997.5 1128.4,1009.2 1140.4,1005.9 1134.8,997.3 			"/>
			<polygon class="st20" points="1139.7,982.8 1136.4,987.9 1148.3,988.4 1147.9,975.6 			"/>
			<polygon class="st20" points="1163.2,982.8 1155,975.5 1154.7,988.4 1166.6,987.9 			"/>
			<polygon class="st20" points="1140.4,1005.9 1147.5,1002.4 1141.4,997.6 			"/>
			<polygon class="st20" points="1155.4,1002.4 1162.6,1005.9 1161.6,997.6 			"/>
		</g>
		<g>
			<polygon class="st21" points="1162.6,1005.9 1155.4,1002.4 1156,1007.1 1155.9,1009 			"/>
			<polygon class="st21" points="1140.4,1005.9 1147.1,1009 1147,1007.1 1147.5,1002.4 			"/>
		</g>
		<polygon class="st22" points="1147.2,994.5 1141.2,992.8 1145.4,990.8 		"/>
		<polygon class="st22" points="1155.8,994.5 1157.6,990.8 1161.8,992.8 		"/>
		<g>
			<polygon class="st23" points="1140.4,1005.9 1141.4,997.3 1134.8,997.5 			"/>
			<polygon class="st23" points="1161.6,997.3 1162.6,1005.9 1168.2,997.5 			"/>
			<polygon class="st23" points="1166.6,987.9 1154.7,988.4 1155.8,994.5 1157.6,990.8 1161.8,992.8 			"/>
			<polygon class="st23" points="1141.2,992.8 1145.4,990.8 1147.2,994.5 1148.3,988.4 1136.4,987.9 			"/>
		</g>
		<g>
			<polygon class="st24" points="1136.4,987.9 1141.4,997.6 1141.2,992.8 			"/>
			<polygon class="st24" points="1161.8,992.8 1161.6,997.6 1166.6,987.9 			"/>
			<polygon class="st24" points="1148.3,988.4 1147.2,994.5 1148.6,1001.7 1148.9,992.2 			"/>
			<polygon class="st24" points="1154.7,988.4 1154.2,992.2 1154.4,1001.7 1155.8,994.5 			"/>
		</g>
		<polygon class="st25" points="1155.8,994.5 1154.4,1001.7 1155.4,1002.4 1161.6,997.6 1161.8,992.8 		"/>
		<polygon class="st25" points="1141.2,992.8 1141.4,997.6 1147.5,1002.4 1148.6,1001.7 1147.2,994.5 		"/>
		<polygon class="st26" points="1155.9,1009 1156,1007.1 1155.5,1006.6 1147.5,1006.6 1147,1007.1 1147.1,1009 1140.4,1005.9 
			1142.7,1007.8 1147.4,1011.1 1155.5,1011.1 1160.3,1007.8 1162.6,1005.9 		"/>
		<polygon class="st27" points="1155.4,1002.4 1154.4,1001.7 1148.6,1001.7 1147.5,1002.4 1147,1007.1 1147.5,1006.6 1155.5,1006.6 
			1156,1007.1 		"/>
		<g>
			<polygon class="st28" points="1176.6,977.7 1178.4,969.1 1175.8,961.1 1155.4,976.2 1163.2,982.8 1174.3,986.1 1176.7,983.2 
				1175.7,982.4 1177.4,980.9 1176.1,979.9 1177.8,978.6 			"/>
			<polygon class="st28" points="1124.6,969.1 1126.4,977.7 1125.2,978.6 1126.9,979.9 1125.6,980.9 1127.3,982.4 1126.2,983.2 
				1128.7,986.1 1139.7,982.8 1147.5,976.2 1127.2,961.1 			"/>
		</g>
		<polygon class="st25" points="1174.3,986.1 1163.2,982.8 1166.6,987.9 1161.6,997.6 1168.2,997.5 1178,997.5 		"/>
		<polygon class="st25" points="1139.7,982.8 1128.7,986.1 1125,997.5 1134.8,997.5 1141.4,997.6 1136.4,987.9 		"/>
		<polygon class="st25" points="1154.7,988.4 1155.4,976.2 1158.6,967.5 1144.4,967.5 1147.5,976.2 1148.3,988.4 1148.5,992.2 
			1148.6,1001.7 1154.4,1001.7 1154.5,992.2 		"/>
	</g>
</g>
<g id="Layer_4" class="st16">
	<g class="st18">
		<circle class="st29" cx="644.6" cy="485.3" r="36.7"/>
		<g>
			<path class="st14" d="M648.5,488.7L648.5,488.7c-0.3,0-1.6,0.1-4.5,0.1c-2.3,0-4-0.1-4.5-0.1l0,0c-9-0.4-15.6-2-15.6-3.8
				c0-1.9,6.7-3.4,15.6-3.8v6.1c0.6,0,2.3,0.1,4.6,0.1c2.8,0,4.2-0.1,4.4-0.1v-6.1c8.9,0.4,15.6,2,15.6,3.8
				C664.1,486.8,657.4,488.3,648.5,488.7 M648.5,480.4V475H661v-8.3h-33.9v8.3h12.5v5.4c-10.1,0.5-17.8,2.5-17.8,4.9
				s7.6,4.4,17.8,4.9v17.5h9v-17.5c10.1-0.5,17.7-2.5,17.7-4.9C666.2,482.9,658.6,480.9,648.5,480.4"/>
		</g>
	</g>
	<g class="st18">
		<circle class="st30" cx="821.4" cy="792.6" r="36.7"/>
		<path class="st14" d="M814.5,818.1c0,0.9-0.7,1.4-1.5,1.1c-11.1-3.5-19.2-14-19.2-26.2c0-12.3,8.1-22.7,19.2-26.2
			c0.8-0.3,1.5,0.2,1.5,1.1v2.1c0,0.6-0.4,1.3-1,1.4c-8.8,3.2-15.1,11.7-15.1,21.6c0,9.9,6.3,18.3,15.1,21.6c0.5,0.2,1,0.9,1,1.4
			V818.1z"/>
		<path class="st14" d="M823.7,810.2c0,0.6-0.5,1.2-1.2,1.2h-2.3c-0.6,0-1.2-0.5-1.2-1.2v-3.6c-5-0.7-7.5-3.5-8.1-7.3
			c-0.1-0.6,0.4-1.2,1.1-1.2h2.6c0.5,0,1,0.4,1.1,0.9c0.5,2.3,1.8,4,5.8,4c3,0,5.1-1.7,5.1-4.1c0-2.5-1.2-3.4-5.6-4.1
			c-6.4-0.9-9.5-2.8-9.5-7.8c0-3.9,2.9-6.9,7.5-7.6v-3.6c0-0.6,0.5-1.2,1.2-1.2h2.3c0.6,0,1.2,0.5,1.2,1.2v3.7
			c3.7,0.7,6,2.8,6.8,6.3c0.1,0.7-0.4,1.3-1.1,1.3H827c-0.5,0-1-0.3-1.1-0.8c-0.6-2.2-2.2-3.2-5-3.2c-3,0-4.6,1.5-4.6,3.5
			c0,2.2,0.9,3.3,5.6,3.9c6.3,0.9,9.6,2.7,9.6,8c0,4.1-3,7.4-7.8,8.1V810.2L823.7,810.2z"/>
		<path class="st14" d="M829.8,819.2c-0.8,0.3-1.5-0.2-1.5-1.1V816c0-0.6,0.4-1.2,1-1.4c8.8-3.2,15.1-11.7,15.1-21.6
			c0-9.9-6.3-18.3-15.1-21.6c-0.5-0.2-1-0.9-1-1.4v-2.1c0-0.9,0.7-1.4,1.5-1.1c11.1,3.5,19.2,14,19.2,26.2
			C849,805.2,840.9,815.6,829.8,819.2z"/>
	</g>
	<g class="st18">
		<g>
			<circle class="st31" cx="467.8" cy="792.6" r="36.8"/>
		</g>
		<g>
			
				<rect x="443.77" y="788.09" transform="matrix(0.7071 -0.7071 0.7071 0.7071 -429.2134 549.2678)" class="st32" width="9.3" height="9.3"/>
			
				<rect x="451.62" y="773.21" transform="matrix(0.7071 -0.7071 0.7071 0.7071 -414.3282 555.4456)" class="st32" width="23.4" height="9.3"/>
			
				<rect x="449.25" y="787.78" transform="matrix(0.7071 -0.7071 0.7071 0.7071 -423.2713 562.988)" class="st32" width="37.4" height="9.3"/>
			
				<rect x="459" y="797.48" transform="matrix(0.7071 -0.7071 0.7071 0.7071 -427.2761 572.7196)" class="st32" width="37.4" height="9.3"/>
		</g>
	</g>
	<g class="st18">
		<g>
			<circle class="st30" cx="644.6" cy="369.6" r="52.9"/>
			<path class="st14" d="M634.7,406.4c0,1.2-1,2-2.2,1.6c-16-5.1-27.6-20.1-27.6-37.8s11.6-32.7,27.6-37.8c1.2-0.4,2.2,0.3,2.2,1.6
				v3.1c0,0.8-0.6,1.8-1.4,2.1c-12.7,4.6-21.7,16.8-21.7,31.1s9.1,26.4,21.7,31.1c0.8,0.3,1.4,1.2,1.4,2.1V406.4z"/>
			<path class="st14" d="M647.9,394.9c0,0.9-0.7,1.7-1.7,1.7h-3.3c-0.9,0-1.7-0.7-1.7-1.7v-5.2c-7.2-1-10.7-5-11.7-10.5
				c-0.2-0.9,0.6-1.8,1.5-1.8h3.8c0.8,0,1.5,0.6,1.6,1.3c0.7,3.3,2.6,5.8,8.4,5.8c4.3,0,7.3-2.4,7.3-6s-1.8-4.9-8.1-6
				c-9.3-1.2-13.6-4-13.6-11.3c0-5.6,4.2-10,10.8-10.9v-5.1c0-0.9,0.7-1.7,1.7-1.7h3.3c0.9,0,1.7,0.7,1.7,1.7v5.3c5.3,1,8.7,4,9.8,9
				c0.2,1-0.5,1.8-1.5,1.8h-3.5c-0.7,0-1.4-0.5-1.6-1.2c-0.9-3.2-3.2-4.6-7.2-4.6c-4.4,0-6.6,2.1-6.6,5.1c0,3.1,1.3,4.7,8,5.7
				c9.1,1.2,13.8,3.8,13.8,11.6c0,5.9-4.4,10.6-11.2,11.7V394.9L647.9,394.9z"/>
			<path class="st14" d="M656.7,407.9c-1.2,0.4-2.2-0.3-2.2-1.6v-3.1c0-0.9,0.6-1.8,1.4-2.1c12.7-4.6,21.7-16.8,21.7-31.1
				s-9.1-26.4-21.7-31.1c-0.8-0.3-1.4-1.2-1.4-2.1v-3.1c0-1.2,1-2,2.2-1.6c16,5.1,27.6,20.1,27.6,37.8
				C684.3,387.8,672.7,402.8,656.7,407.9z"/>
		</g>
		<g>
			<circle class="st33" cx="644.6" cy="369.6" r="52.9"/>
		</g>
	</g>
	<g class="st18">
		<circle class="st34" cx="349.1" cy="854.5" r="54.2"/>
		<g>
			<path class="st14" d="M354.8,859.5L354.8,859.5c-0.4,0-2.3,0.1-6.6,0.1c-3.4,0-5.9-0.1-6.7-0.1l0,0c-13.2-0.6-23.1-2.9-23.1-5.6
				c0-2.8,9.9-5.1,23.1-5.6v9c0.9,0.1,3.3,0.2,6.8,0.2c4.1,0,6.2-0.2,6.6-0.2v-9c13.2,0.6,23.1,2.9,23.1,5.6
				C377.9,856.6,368,858.9,354.8,859.5 M354.8,847.2v-8.1h18.4v-12.3H323v12.3h18.4v8.1c-15,0.7-26.2,3.7-26.2,7.2
				s11.3,6.5,26.2,7.2v25.8h13.3v-25.8c15-0.7,26.2-3.7,26.2-7.2C381,850.9,369.8,847.9,354.8,847.2"/>
		</g>
	</g>
	<g class="st18">
		<circle class="st34" cx="934.6" cy="854.5" r="54.2"/>
		<g>
			<path class="st14" d="M940.4,859.5L940.4,859.5c-0.4,0-2.3,0.1-6.6,0.1c-3.4,0-5.9-0.1-6.7-0.1l0,0c-13.2-0.6-23.1-2.9-23.1-5.6
				c0-2.8,9.9-5.1,23.1-5.6v9c0.9,0.1,3.3,0.2,6.8,0.2c4.1,0,6.2-0.2,6.6-0.2v-9c13.2,0.6,23.1,2.9,23.1,5.6
				C963.4,856.6,953.6,858.9,940.4,859.5 M940.4,847.2v-8.1h18.4v-12.3h-50.2v12.3H927v8.1c-15,0.7-26.2,3.7-26.2,7.2
				s11.3,6.5,26.2,7.2v25.8h13.3v-25.8c15-0.7,26.2-3.7,26.2-7.2C966.6,850.9,955.3,847.9,940.4,847.2"/>
		</g>
	</g>
</g>
<g id="Layer_3">
	<g>
		<circle class="st29" cx="543.2" cy="432" r="50"/>
		<g>
			<path class="st14" d="M548.6,436.6L548.6,436.6c-0.3,0-2.1,0.1-6.1,0.1c-3.2,0-5.4-0.1-6.2-0.1l0,0c-12.2-0.5-21.3-2.7-21.3-5.2
				s9.1-4.7,21.3-5.2v8.3c0.8,0.1,3.1,0.2,6.2,0.2c3.8,0,5.7-0.2,6-0.2v-8.3c12.2,0.5,21.3,2.7,21.3,5.2
				C569.8,434,560.7,436.1,548.6,436.6 M548.6,425.4V418h17v-11.4h-46.3v11.3h17v7.4c-13.8,0.6-24.2,3.4-24.2,6.6s10.4,6,24.2,6.7
				v23.8h12.3v-23.8c13.8-0.6,24.2-3.4,24.2-6.6C572.7,428.7,562.4,426,548.6,425.4"/>
		</g>
	</g>
	<g>
		<g>
			<circle class="st30" cx="747.5" cy="432" r="50"/>
			<path class="st14" d="M738.1,466.8c0,1.2-0.9,1.8-2.1,1.5c-15.1-4.8-26.1-19-26.1-35.7s11-30.9,26.1-35.7
				c1.1-0.4,2.1,0.3,2.1,1.5v2.9c0,0.8-0.6,1.7-1.4,2c-12,4.4-20.5,15.9-20.5,29.4s8.6,25,20.5,29.4c0.7,0.3,1.4,1.2,1.4,2V466.8z"
				/>
			<path class="st14" d="M750.6,456c0,0.9-0.7,1.6-1.6,1.6h-3.1c-0.9,0-1.6-0.7-1.6-1.6v-4.9c-6.8-0.9-10.2-4.7-11.1-9.9
				c-0.2-0.9,0.5-1.7,1.5-1.7h3.6c0.7,0,1.4,0.5,1.5,1.3c0.7,3.1,2.5,5.5,7.9,5.5c4,0,6.9-2.3,6.9-5.6s-1.7-4.6-7.6-5.6
				c-8.7-1.2-12.9-3.8-12.9-10.7c0-5.3,4-9.4,10.2-10.3v-4.8c0-0.9,0.7-1.6,1.6-1.6h3.1c0.9,0,1.6,0.7,1.6,1.6v5
				c5,0.9,8.2,3.8,9.3,8.5c0.2,0.9-0.5,1.7-1.4,1.7h-3.3c-0.7,0-1.3-0.5-1.5-1.2c-0.9-3-3-4.3-6.8-4.3c-4.1,0-6.3,2-6.3,4.8
				c0,3,1.2,4.5,7.6,5.4c8.6,1.2,13,3.6,13,10.9c0,5.5-4.1,10-10.6,11.1L750.6,456L750.6,456z"/>
			<path class="st14" d="M758.9,468.3c-1.1,0.4-2.1-0.3-2.1-1.5v-2.9c0-0.9,0.5-1.7,1.4-2c12-4.4,20.5-15.9,20.5-29.4
				s-8.6-25-20.5-29.4c-0.7-0.3-1.4-1.2-1.4-2v-2.9c0-1.2,0.9-1.9,2.1-1.5c15.1,4.8,26.1,19,26.1,35.7
				C785,449.3,774.1,463.4,758.9,468.3z"/>
		</g>
	</g>
	<g>
		<g>
			<g>
				<ellipse class="st31" cx="466.9" cy="900.7" rx="50" ry="49.6"/>
			</g>
			<g>
				<polygon class="st32" points="449.6,900.9 440.6,909.9 431.6,900.9 440.6,892 				"/>
				<polygon class="st32" points="476.5,874.2 454.1,896.5 445.1,887.6 467.5,865.3 				"/>
				<polygon class="st32" points="489.6,887.2 453.7,922.9 444.7,914 480.6,878.3 				"/>
				<polygon class="st32" points="502.7,900.2 466.8,935.9 457.8,927 493.8,891.3 				"/>
			</g>
		</g>
		<g>
			<circle class="st29" cx="822.3" cy="900.7" r="50"/>
			<g>
				<path class="st14" d="M827.6,905.3L827.6,905.3c-0.3,0-2.1,0.1-6.1,0.1c-3.2,0-5.4-0.1-6.2-0.1l0,0c-12.2-0.5-21.3-2.7-21.3-5.2
					s9.1-4.7,21.3-5.2v8.3c0.8,0.1,3.1,0.2,6.2,0.2c3.8,0,5.7-0.2,6-0.2v-8.3c12.2,0.5,21.3,2.7,21.3,5.2S839.8,904.7,827.6,905.3
					 M827.6,894v-7.4h17v-11.3h-46.3v11.3h17v7.4c-13.8,0.6-24.2,3.4-24.2,6.6c0,3.3,10.4,6,24.2,6.7v23.8h12.3v-23.8
					c13.8-0.6,24.2-3.4,24.2-6.6C851.8,897.4,841.4,894.6,827.6,894"/>
			</g>
		</g>
	</g>
	<g>
		<g>
			<circle class="st30" cx="909.3" cy="743.8" r="50"/>
			<path class="st14" d="M899.9,778.5c0,1.2-0.9,1.8-2.1,1.5c-15.1-4.8-26.1-19-26.1-35.7s11-30.9,26.1-35.7
				c1.1-0.4,2.1,0.3,2.1,1.5v2.9c0,0.8-0.6,1.7-1.4,2c-12,4.4-20.5,15.9-20.5,29.4s8.6,25,20.5,29.4c0.7,0.3,1.4,1.2,1.4,2V778.5z"
				/>
			<path class="st14" d="M912.4,767.7c0,0.9-0.7,1.6-1.6,1.6h-3.1c-0.9,0-1.6-0.7-1.6-1.6v-4.9c-6.8-0.9-10.2-4.7-11.1-9.9
				c-0.2-0.9,0.5-1.7,1.5-1.7h3.6c0.7,0,1.4,0.5,1.5,1.3c0.7,3.1,2.5,5.5,7.9,5.5c4,0,6.9-2.3,6.9-5.6s-1.7-4.6-7.6-5.6
				c-8.7-1.2-12.9-3.8-12.9-10.7c0-5.3,4-9.4,10.2-10.3V721c0-0.9,0.7-1.6,1.6-1.6h3.1c0.9,0,1.6,0.7,1.6,1.6v5
				c5,0.9,8.2,3.8,9.3,8.5c0.2,0.9-0.5,1.7-1.4,1.7H917c-0.7,0-1.3-0.5-1.5-1.2c-0.9-3-3-4.3-6.8-4.3c-4.1,0-6.3,2-6.3,4.8
				c0,3,1.2,4.5,7.6,5.4c8.6,1.2,13,3.6,13,10.9c0,5.5-4.1,10-10.6,11.1V767.7L912.4,767.7z"/>
			<path class="st14" d="M920.7,780c-1.1,0.4-2.1-0.3-2.1-1.5v-2.9c0-0.9,0.5-1.7,1.4-2c12-4.4,20.5-15.9,20.5-29.4
				s-8.6-25-20.5-29.4c-0.7-0.3-1.4-1.2-1.4-2v-2.9c0-1.2,0.9-1.9,2.1-1.5c15.1,4.8,26.1,19,26.1,35.7
				C946.7,761,935.8,775.2,920.7,780z"/>
		</g>
		<g>
			<circle class="st29" cx="379.9" cy="743.8" r="50"/>
			<g>
				<path class="st14" d="M385.3,748.4L385.3,748.4c-0.3,0-2.1,0.1-6.1,0.1c-3.2,0-5.4-0.1-6.2-0.1l0,0c-12.2-0.5-21.3-2.7-21.3-5.2
					s9.1-4.7,21.3-5.2v8.3c0.8,0.1,3.1,0.2,6.2,0.2c3.8,0,5.7-0.2,6-0.2V738c12.2,0.5,21.3,2.7,21.3,5.2S397.4,747.8,385.3,748.4
					 M385.3,737.1v-7.4h17v-11.3H356v11.3h17v7.4c-13.8,0.6-24.2,3.4-24.2,6.6s10.4,6,24.2,6.7v23.8h12.3v-23.8
					c13.8-0.6,24.2-3.4,24.2-6.6C409.4,740.5,399.1,737.8,385.3,737.1"/>
			</g>
		</g>
	</g>
</g>
<g>
	<path class="st35" d="M37.18,1205.8v-0.09c0-4.31-2.28-6.46-5.98-7.88c2.28-1.28,4.2-3.3,4.2-6.92v-0.09
		c0-5.04-4.02-8.29-10.55-8.29H10v32.07h15.21C32.43,1214.6,37.18,1211.67,37.18,1205.8z M28.41,1192.1c0,2.38-1.96,3.39-5.07,3.39
		h-6.49v-6.78h6.94c2.97,0,4.61,1.19,4.61,3.3V1192.1z M30.19,1204.93c0,2.38-1.87,3.48-4.98,3.48h-8.36v-7.06h8.13
		c3.61,0,5.21,1.33,5.21,3.48V1204.93z"/>
	<path class="st35" d="M71.37,1214.6v-32.07h-6.94v19.75l-14.98-19.75h-6.49v32.07h6.94v-20.39l15.48,20.39H71.37z"/>
	<path class="st35" d="M106.22,1205.8v-0.09c0-4.31-2.28-6.46-5.98-7.88c2.28-1.28,4.2-3.3,4.2-6.92v-0.09
		c0-5.04-4.02-8.29-10.55-8.29H79.05v32.07h15.21C101.47,1214.6,106.22,1211.67,106.22,1205.8z M97.45,1192.1
		c0,2.38-1.96,3.39-5.07,3.39H85.9v-6.78h6.94c2.97,0,4.61,1.19,4.61,3.3V1192.1z M99.23,1204.93c0,2.38-1.87,3.48-4.98,3.48H85.9
		v-7.06h8.13c3.61,0,5.21,1.33,5.21,3.48V1204.93z"/>
	<path class="st35" d="M146.16,1208.53l-3.61-3.64c-2.74,2.55-5.26,4.14-9.19,4.14c-6.12,0-10.56-5.09-10.56-11.37
		c0-6.28,4.43-11.28,10.56-11.28c3.66,0,6.4,1.59,8.96,3.96l3.61-4.14c-3.06-2.91-6.63-4.96-12.52-4.96
		c-9.69,0-16.5,7.41-16.5,16.51c0,9.19,6.95,16.42,16.27,16.42C139.17,1214.17,142.83,1211.99,146.16,1208.53z"/>
	<path class="st35" d="M172.96,1200.21v13.42h5.62v-31.84h-5.62v13.23h-15.27v-13.23h-5.62v31.84h5.62v-13.42H172.96z"/>
	<path class="st35" d="M203.34,1181.56h-5.21l-14.08,32.06h5.76l3.29-7.69h15.13l3.25,7.69h5.94L203.34,1181.56z M206.18,1200.98
		h-11.02l5.48-12.73L206.18,1200.98z"/>
	<path class="st35" d="M223.23,1181.79v31.84h5.62v-31.84H223.23z"/>
	<path class="st35" d="M259.76,1203.8l-17.14-22.01h-5.21v31.84h5.53v-22.65l17.64,22.65h4.71v-31.84h-5.53V1203.8z"/>
	<path class="st35" d="M120.6,1105.63l17.08-9.91l17.08,9.91l-6.28,3.66l-10.8-6.25l-10.8,6.25L120.6,1105.63z M154.76,1118.12
		l-6.28-3.66l-10.8,6.25l-10.8-6.25l-6.28,3.66v7.32l10.8,6.25v12.49l6.28,3.66l6.28-3.66v-12.49l10.8-6.25V1118.12z
		 M154.76,1137.93v-7.32l-6.28,3.66v7.32L154.76,1137.93z M159.21,1140.52l-10.8,6.25v7.32l17.08-9.91v-19.81l-6.28,3.66V1140.52z
		 M152.93,1111.87l6.28,3.66v7.32l6.28-3.66v-7.32l-6.28-3.66L152.93,1111.87z M131.4,1149.41v7.32l6.28,3.66l6.28-3.66v-7.32
		l-6.28,3.66L131.4,1149.41z M120.6,1137.93l6.28,3.66v-7.32l-6.28-3.66V1137.93z M131.4,1111.87l6.28,3.66l6.28-3.66l-6.28-3.66
		L131.4,1111.87z M116.14,1115.53l6.28-3.66l-6.28-3.66l-6.28,3.66v7.32l6.28,3.66V1115.53z M116.14,1128.02l-6.28-3.66v19.81
		l17.08,9.91v-7.32l-10.8-6.25V1128.02z"/>
</g>
</svg>
