<?xml version="1.0" encoding="utf-8"?>
<!-- Generator: Adobe Illustrator 26.2.1, SVG Export Plug-In . SVG Version: 6.00 Build 0)  -->
<svg version="1.1" id="Layer_1" xmlns="http://www.w3.org/2000/svg" xmlns:xlink="http://www.w3.org/1999/xlink" x="0px" y="0px"
	 viewBox="0 0 1280.56 1210.82" style="enable-background:new 0 0 1280.56 1210.82;" xml:space="preserve">
<style type="text/css">
	.st0{fill:none;stroke:#277CE0;stroke-width:15;stroke-linecap:round;stroke-miterlimit:10;stroke-dasharray:0,46;}
	.st1{fill:#277CE0;}
	.st2{fill:#F1BB04;}
	.st3{fill:#FFFEFD;}
	.st4{fill:#26A07B;}
	.st5{fill:#FFFFFF;}
	.st6{fill:#F0B90B;}
	.st7{fill:#E84142;}
	.st8{fill-rule:evenodd;clip-rule:evenodd;fill:#E84142;}
	.st9{fill:#212121;}
	.st10{fill:#8247E5;}
	.st11{fill:#2775C9;}
	.st12{fill:#7FFBFF;}
	.st13{fill:#3C3C3B;}
	.st14{fill-rule:evenodd;clip-rule:evenodd;fill:#3C3C3B;}
	.st15{fill:url(#SVGID_1_);}
	.st16{fill:url(#SVGID_00000157272456372976587960000002235637976220613822_);}
	.st17{fill:url(#SVGID_00000081625850405006800800000011599193673642306198_);}
	.st18{opacity:0.6;}
	.st19{clip-path:url(#SVGID_00000002362598184720583640000007437653982713569947_);fill:#010101;}
	.st20{opacity:0.45;}
	.st21{clip-path:url(#SVGID_00000155123593144011103680000007057110315993750446_);fill:#010101;}
	.st22{opacity:0.8;}
	.st23{clip-path:url(#SVGID_00000173846679547250357150000018393120119406036401_);fill:#010101;}
	.st24{clip-path:url(#SVGID_00000139258200596712338390000011303155628847352997_);fill:#010101;}
	.st25{clip-path:url(#SVGID_00000115491442681640805730000002948320780134128789_);fill:#010101;}
</style>
<g>
	<g>
		<g>
			<line class="st0" x1="651.09" y1="254.28" x2="651.09" y2="163.13"/>
		</g>
		<g>
			<line class="st0" x1="1027.91" y1="528.05" x2="1114.6" y2="499.89"/>
		</g>
		<g>
			<line class="st0" x1="883.98" y1="971.03" x2="937.55" y2="1044.77"/>
		</g>
		<g>
			<line class="st0" x1="418.2" y1="971.03" x2="364.63" y2="1044.77"/>
		</g>
		<g>
			<line class="st0" x1="274.27" y1="528.05" x2="187.58" y2="499.89"/>
		</g>
	</g>
	<g>
		<path class="st1" d="M962.93,366.69c-4.78-14.71-17.13-18.17-22.22-18.98s-17.91-1.33-27,11.18L740.17,597.75
			c-5.32,7.33-6.77,16.47-3.97,25.08c2.8,8.61,9.34,15.16,17.96,17.96l280.8,91.24c14.71,4.78,24.78-3.18,28.42-6.82
			s11.6-13.71,6.82-28.42L962.93,366.69z"/>
	</g>
	<g>
		<g>
			<circle class="st2" cx="962.25" cy="549.32" r="45"/>
		</g>
		<g>

				<rect x="932.83" y="543.87" transform="matrix(0.7071 -0.7071 0.7071 0.7071 -113.7218 824.6252)" class="st3" width="11.43" height="11.43"/>

				<rect x="942.45" y="525.69" transform="matrix(0.7071 -0.7071 0.7071 0.7071 -95.5342 832.1606)" class="st3" width="28.58" height="11.43"/>

				<rect x="939.62" y="543.55" transform="matrix(0.7071 -0.7071 0.7071 0.7071 -106.486 841.4541)" class="st3" width="45.73" height="11.43"/>

				<rect x="951.43" y="555.35" transform="matrix(0.7071 -0.7071 0.7071 0.7071 -111.3672 853.2615)" class="st3" width="45.73" height="11.43"/>
		</g>
	</g>
	<g>
		<circle class="st4" cx="852.72" cy="584.72" r="45"/>
		<g>
			<path class="st5" d="M857.51,588.87L857.51,588.87c-0.31,0.01-1.92,0.11-5.49,0.11c-2.86,0-4.86-0.08-5.57-0.12v0.01
				c-10.99-0.48-19.19-2.39-19.19-4.69c0-2.29,8.2-4.2,19.19-4.69v7.47c0.72,0.05,2.78,0.17,5.62,0.17c3.41,0,5.12-0.14,5.44-0.17
				v-7.47c10.97,0.49,19.14,2.4,19.14,4.69S868.47,588.38,857.51,588.87 M857.51,578.73v-6.68h15.3v-10.19h-41.66v10.19h15.3v6.68
				c-12.44,0.57-21.78,3.03-21.78,5.98c0,2.95,9.35,5.41,21.78,5.99v21.43h11.06V590.7c12.41-0.57,21.75-3.03,21.75-5.98
				C879.27,581.77,869.93,579.3,857.51,578.73"/>
		</g>
	</g>
	<g>
		<path class="st6" d="M1052.44,412.74v-0.09c0-4.31-2.28-6.46-5.98-7.88c2.28-1.28,4.2-3.3,4.2-6.92v-0.09
			c0-5.04-4.02-8.29-10.55-8.29h-14.84v32.07h15.21C1047.69,421.54,1052.44,418.6,1052.44,412.74z M1043.67,399.04
			c0,2.38-1.96,3.39-5.07,3.39h-6.49v-6.78h6.94c2.97,0,4.61,1.19,4.61,3.3v0.09H1043.67z M1045.45,411.87
			c0,2.38-1.87,3.48-4.98,3.48h-8.36v-7.06h8.13c3.61,0,5.21,1.33,5.21,3.48V411.87z"/>
		<path class="st6" d="M1086.63,421.54v-32.07h-6.94v19.75l-14.98-19.75h-6.49v32.07h6.94v-20.39l15.48,20.39H1086.63z"/>
		<path class="st6" d="M1121.48,412.74v-0.09c0-4.31-2.28-6.46-5.98-7.88c2.28-1.28,4.2-3.3,4.2-6.92v-0.09
			c0-5.04-4.02-8.29-10.55-8.29h-14.84v32.07h15.21C1116.73,421.54,1121.48,418.6,1121.48,412.74z M1112.71,399.04
			c0,2.38-1.96,3.39-5.07,3.39h-6.49v-6.78h6.94c2.97,0,4.61,1.19,4.61,3.3v0.09H1112.71z M1114.5,411.87
			c0,2.38-1.87,3.48-4.98,3.48h-8.36v-7.06h8.13c3.61,0,5.21,1.33,5.21,3.48V411.87z"/>
		<path class="st6" d="M1161.43,415.47l-3.61-3.64c-2.74,2.55-5.26,4.14-9.19,4.14c-6.12,0-10.56-5.09-10.56-11.37
			c0-6.28,4.43-11.28,10.56-11.28c3.66,0,6.4,1.59,8.96,3.96l3.61-4.14c-3.06-2.91-6.63-4.96-12.52-4.96
			c-9.69,0-16.5,7.41-16.5,16.51c0,9.19,6.95,16.42,16.27,16.42C1154.43,421.11,1158.09,418.93,1161.43,415.47z"/>
		<path class="st6" d="M1188.22,407.15v13.42h5.62v-31.84h-5.62v13.23h-15.27v-13.23h-5.62v31.84h5.62v-13.42H1188.22z"/>
		<path class="st6" d="M1218.61,388.5h-5.21l-14.08,32.06h5.76l3.29-7.69h15.13l3.25,7.69h5.94L1218.61,388.5z M1221.44,407.92
			h-11.02l5.48-12.73L1221.44,407.92z"/>
		<path class="st6" d="M1238.49,388.73v31.84h5.62v-31.84H1238.49z"/>
		<path class="st6" d="M1275.03,410.74l-17.14-22.01h-5.21v31.84h5.53v-22.65l17.64,22.65h4.71v-31.84h-5.53V410.74z"/>
		<path class="st6" d="M1135.86,312.56l17.08-9.91l17.08,9.91l-6.28,3.66l-10.8-6.25l-10.8,6.25L1135.86,312.56z M1170.02,325.05
			l-6.28-3.66l-10.8,6.25l-10.8-6.25l-6.28,3.66v7.32l10.8,6.25v12.49l6.28,3.66l6.28-3.66v-12.49l10.8-6.25V325.05z
			 M1170.02,344.86v-7.32l-6.28,3.66v7.32L1170.02,344.86z M1174.48,347.45l-10.8,6.25v7.32l17.08-9.91V331.3l-6.28,3.66
			L1174.48,347.45L1174.48,347.45z M1168.2,318.81l6.28,3.66v7.32l6.28-3.66v-7.32l-6.28-3.66L1168.2,318.81z M1146.66,356.35v7.32
			l6.28,3.66l6.28-3.66v-7.32l-6.28,3.66L1146.66,356.35z M1135.86,344.86l6.28,3.66v-7.32l-6.28-3.66V344.86z M1146.66,318.81
			l6.28,3.66l6.28-3.66l-6.28-3.66L1146.66,318.81z M1131.4,322.47l6.28-3.66l-6.28-3.66l-6.28,3.66v7.32l6.28,3.66V322.47z
			 M1131.4,334.96l-6.28-3.66v19.81l17.08,9.91v-7.32l-10.8-6.25L1131.4,334.96L1131.4,334.96z"/>
	</g>
	<g>
		<rect x="1101.6" y="442.1" class="st5" width="102.63" height="95.93"/>
		<path class="st1" d="M1105.74,458.11c-2,0-3.62-1.62-3.62-3.62s1.62-3.62,3.62-3.62h114.27c-0.64-4.95-4.86-8.77-9.99-8.77H1095.8
			c-5.57,0-10.08,4.51-10.08,10.08v75.77c0,5.57,4.51,10.08,10.08,10.08h114.22c5.57,0,10.08-4.51,10.08-10.08v-69.83
			L1105.74,458.11z"/>
		<g>
			<path class="st5" d="M1186.34,504.18c-4.69,0-8.5-3.81-8.5-8.5v-11.24c0-4.69,3.81-8.5,8.5-8.5h23.77c4.69,0,8.5,3.81,8.5,8.5
				v11.24c0,4.69-3.81,8.5-8.5,8.5H1186.34z"/>
			<path class="st1" d="M1210.11,477.44c3.86,0,7,3.14,7,7v11.24c0,3.86-3.14,7-7,7h-23.77c-3.86,0-7-3.14-7-7v-11.24
				c0-3.86,3.14-7,7-7H1210.11 M1210.11,474.44h-23.77c-5.52,0-10,4.48-10,10v11.24c0,5.52,4.48,10,10,10h23.77
				c5.52,0,10-4.48,10-10v-11.24C1220.11,478.92,1215.63,474.44,1210.11,474.44L1210.11,474.44z"/>
		</g>
		<circle class="st1" cx="1208.12" cy="490.06" r="7.18"/>
	</g>
	<g>
		<rect x="909.91" y="1032.04" class="st5" width="102.63" height="95.93"/>
		<path class="st1" d="M914.06,1048.05c-2,0-3.62-1.62-3.62-3.62s1.62-3.62,3.62-3.62h114.27c-0.64-4.95-4.86-8.77-9.99-8.77H904.12
			c-5.57,0-10.08,4.51-10.08,10.08v75.77c0,5.57,4.51,10.08,10.08,10.08h114.22c5.57,0,10.08-4.51,10.08-10.08v-69.83
			L914.06,1048.05z"/>
		<g>
			<path class="st5" d="M994.65,1094.12c-4.69,0-8.5-3.81-8.5-8.5v-11.24c0-4.69,3.81-8.5,8.5-8.5h23.77c4.69,0,8.5,3.81,8.5,8.5
				v11.24c0,4.69-3.81,8.5-8.5,8.5H994.65z"/>
			<path class="st1" d="M1018.42,1067.38c3.86,0,7,3.14,7,7v11.24c0,3.86-3.14,7-7,7h-23.77c-3.86,0-7-3.14-7-7v-11.24
				c0-3.86,3.14-7,7-7H1018.42 M1018.42,1064.38h-23.77c-5.52,0-10,4.48-10,10v11.24c0,5.52,4.48,10,10,10h23.77
				c5.52,0,10-4.48,10-10v-11.24C1028.42,1068.86,1023.95,1064.38,1018.42,1064.38L1018.42,1064.38z"/>
		</g>
		<circle class="st1" cx="1016.43" cy="1080" r="7.18"/>
	</g>
	<g>
		<rect x="289.61" y="1032.04" class="st5" width="102.63" height="95.93"/>
		<path class="st1" d="M293.76,1048.05c-2,0-3.62-1.62-3.62-3.62s1.62-3.62,3.62-3.62h114.27c-0.64-4.95-4.86-8.77-9.99-8.77H283.82
			c-5.57,0-10.08,4.51-10.08,10.08v75.77c0,5.57,4.51,10.08,10.08,10.08h114.22c5.57,0,10.08-4.51,10.08-10.08v-69.83
			L293.76,1048.05z"/>
		<g>
			<path class="st5" d="M374.35,1094.12c-4.69,0-8.5-3.81-8.5-8.5v-11.24c0-4.69,3.81-8.5,8.5-8.5h23.77c4.69,0,8.5,3.81,8.5,8.5
				v11.24c0,4.69-3.81,8.5-8.5,8.5H374.35z"/>
			<path class="st1" d="M398.12,1067.38c3.86,0,7,3.14,7,7v11.24c0,3.86-3.14,7-7,7h-23.77c-3.86,0-7-3.14-7-7v-11.24
				c0-3.86,3.14-7,7-7H398.12 M398.12,1064.38h-23.77c-5.52,0-10,4.48-10,10v11.24c0,5.52,4.48,10,10,10h23.77c5.52,0,10-4.48,10-10
				v-11.24C408.12,1068.86,403.65,1064.38,398.12,1064.38L398.12,1064.38z"/>
		</g>
		<circle class="st1" cx="396.13" cy="1080" r="7.18"/>
	</g>
	<g>
		<path class="st7" d="M273.41,1167.58h3.2l8.95,20.77h-4.23l-1.94-4.75h-9.01l-1.88,4.75h-4.14L273.41,1167.58z M278.11,1180.43
			l-3.2-8.45l-3.26,8.45H278.11z"/>
		<path class="st7" d="M289.53,1167.58h4.25l5.66,15.7l5.84-15.7h3.99l-8.39,20.77h-3.2L289.53,1167.58z"/>
		<path class="st7" d="M322.49,1167.58h3.2l8.95,20.77h-4.23l-1.94-4.75h-9.01l-1.88,4.75h-4.14L322.49,1167.58z M327.18,1180.43
			l-3.2-8.45l-3.26,8.45H327.18z"/>
		<path class="st7" d="M342.81,1167.58h3.7v17.43h8.83v3.35h-12.53L342.81,1167.58L342.81,1167.58z"/>
		<path class="st7" d="M370.62,1167.58h3.2l8.95,20.77h-4.23l-1.94-4.75h-9.01l-1.88,4.75h-4.14L370.62,1167.58z M375.31,1180.43
			l-3.2-8.45l-3.26,8.45H375.31z"/>
		<path class="st7" d="M390.94,1167.58h4.9l10.06,15.43h0.06v-15.43h3.7v20.77h-4.69l-10.27-15.93h-0.06v15.93h-3.7V1167.58z"/>
		<path class="st7" d="M434.42,1172.45c-0.76-0.82-1.51-1.37-2.23-1.64c-0.7-0.27-1.42-0.41-2.14-0.41c-1.08,0-2.05,0.2-2.93,0.59
			c-0.86,0.37-1.6,0.9-2.23,1.58c-0.63,0.67-1.11,1.45-1.47,2.35c-0.33,0.9-0.5,1.87-0.5,2.9c0,1.11,0.17,2.14,0.5,3.08
			c0.35,0.94,0.84,1.75,1.47,2.44c0.63,0.68,1.37,1.22,2.23,1.61c0.88,0.39,1.86,0.59,2.93,0.59c0.84,0,1.65-0.2,2.44-0.59
			c0.8-0.41,1.54-1.06,2.23-1.94l3.05,2.17c-0.94,1.29-2.08,2.23-3.43,2.82s-2.79,0.88-4.31,0.88c-1.6,0-3.08-0.25-4.43-0.76
			c-1.33-0.53-2.49-1.26-3.46-2.2c-0.96-0.96-1.71-2.1-2.26-3.43c-0.55-1.33-0.82-2.81-0.82-4.43c0-1.66,0.27-3.17,0.82-4.52
			c0.55-1.37,1.3-2.53,2.26-3.49c0.98-0.96,2.13-1.69,3.46-2.2c1.35-0.53,2.83-0.79,4.43-0.79c1.41,0,2.71,0.25,3.9,0.76
			c1.21,0.49,2.34,1.33,3.38,2.52L434.42,1172.45z"/>
		<path class="st7" d="M446.12,1167.58h3.7v8.27h9.71v-8.27h3.7v20.77h-3.7v-9.15h-9.71v9.15h-3.7V1167.58z"/>
		<path class="st7" d="M473.74,1167.58h13.76v3.34h-10.06v5.11h9.54v3.34h-9.54v5.63h10.59v3.35h-14.29V1167.58L473.74,1167.58z"/>
		<path class="st8" d="M253.43,1177.97c0,16.46-13.34,29.8-29.8,29.8s-29.8-13.34-29.8-29.8c0-16.46,13.34-29.8,29.8-29.8
			C240.09,1148.17,253.43,1161.51,253.43,1177.97z M215.19,1189.83h-5.78c-1.22,0-1.82,0-2.18-0.23c-0.4-0.26-0.64-0.68-0.67-1.15
			c-0.02-0.43,0.28-0.96,0.88-2.01l14.28-25.17c0.61-1.07,0.92-1.6,1.3-1.8c0.42-0.21,0.92-0.21,1.33,0c0.39,0.2,0.7,0.73,1.3,1.8
			l2.94,5.12l0.02,0.03l0,0c0.66,1.15,0.99,1.73,1.13,2.34c0.16,0.67,0.16,1.37,0,2.04c-0.15,0.61-0.48,1.2-1.14,2.36l-7.5,13.26
			l-0.02,0.03c-0.66,1.16-1,1.74-1.46,2.18c-0.51,0.48-1.11,0.83-1.78,1.03C217.23,1189.83,216.55,1189.83,215.19,1189.83z
			 M229.79,1189.83h8.29l0,0c1.22,0,1.84,0,2.2-0.24c0.4-0.26,0.64-0.69,0.67-1.16c0.02-0.42-0.27-0.92-0.85-1.92
			c-0.02-0.03-0.04-0.07-0.06-0.1l-4.15-7.1l-0.05-0.08c-0.58-0.99-0.88-1.48-1.26-1.68c-0.42-0.21-0.91-0.21-1.32,0
			c-0.38,0.2-0.69,0.72-1.3,1.76l-4.14,7.1l-0.01,0.02c-0.61,1.05-0.91,1.57-0.89,2c0.03,0.47,0.27,0.9,0.67,1.16
			C227.95,1189.83,228.57,1189.83,229.79,1189.83z"/>
	</g>
	<g>
		<g>
			<path class="st9" d="M931.81,1165.99c1.85,1.12,3.31,2.72,4.37,4.81c1.06,2.08,1.59,4.54,1.59,7.36c0,2.78-0.59,5.18-1.77,7.21
				c-1.18,2.03-2.82,3.57-4.92,4.63c-2.1,1.06-4.51,1.59-7.21,1.59c-1.47,0-2.91-0.26-4.32-0.78c-1.41-0.52-2.58-1.26-3.5-2.23
				v14.48H908V1165h6.95l0.69,3.01c3.09-2.47,6.37-3.71,9.85-3.71C927.85,1164.31,929.96,1164.87,931.81,1165.99z M927.41,1183.25
				c1.43-1.31,2.14-2.97,2.14-4.98c0-2.09-0.65-3.8-1.94-5.13c-1.29-1.33-2.89-2-4.78-2c-1.58,0-2.93,0.32-4.03,0.96
				s-2,1.59-2.69,2.87v6.2c0.42,1.24,1.19,2.22,2.29,2.95c1.1,0.73,2.38,1.1,3.85,1.1C924.26,1185.22,925.98,1184.56,927.41,1183.25
				z"/>
			<path class="st9" d="M942.55,1170.97c1.22-2.05,2.93-3.66,5.16-4.84c2.22-1.18,4.74-1.77,7.56-1.77c2.82,0,5.3,0.59,7.44,1.77
				c2.14,1.18,3.8,2.79,4.95,4.84c1.16,2.05,1.74,4.36,1.74,6.95s-0.58,4.92-1.74,7.01s-2.81,3.72-4.95,4.9
				c-2.14,1.18-4.66,1.77-7.56,1.77c-2.82,0-5.32-0.55-7.5-1.65s-3.88-2.67-5.1-4.72c-1.21-2.05-1.82-4.48-1.82-7.3
				C940.73,1175.33,941.34,1173.02,942.55,1170.97z M950.63,1182.99c1.16,1.33,2.63,2,4.4,2c1.85,0,3.35-0.66,4.49-1.97
				c1.14-1.31,1.71-2.99,1.71-5.04s-0.57-3.73-1.71-5.04s-2.63-1.97-4.49-1.97c-1.78,0-3.24,0.67-4.4,2s-1.74,3-1.74,5.01
				S949.48,1181.66,950.63,1182.99z"/>
			<path class="st9" d="M982.43,1145.19v45.7h-8.11v-45.7H982.43z"/>
			<path class="st9" d="M1015.51,1165.58l-16.33,37.48h-7.82l6.08-13.5l-11.7-23.98h9.09l6.66,14.94l6.72-14.94H1015.51z"/>
			<path class="st9" d="M1046.26,1165.58v25.31c0,2.39-0.69,4.57-2.06,6.52c-1.37,1.95-3.22,3.48-5.56,4.58
				c-2.34,1.1-4.87,1.65-7.62,1.65c-2.09,0-3.91-0.25-5.47-0.75c-1.56-0.5-2.82-1.06-3.76-1.68c-0.95-0.62-2.07-1.47-3.39-2.55
				l4.75-5.56c1.16,1.08,2.31,1.93,3.45,2.55c1.14,0.62,2.58,0.93,4.31,0.93c2.05,0,3.77-0.51,5.16-1.53s2.09-2.44,2.09-4.26v-3.59
				c-0.77,1.31-1.96,2.38-3.56,3.19c-1.6,0.81-3.56,1.22-5.88,1.22c-2.28,0-4.39-0.59-6.34-1.77s-3.5-2.8-4.66-4.87
				c-1.16-2.06-1.74-4.35-1.74-6.86c0-2.55,0.61-4.89,1.82-7.01c1.22-2.12,2.82-3.78,4.81-4.98c1.99-1.2,4.08-1.79,6.28-1.79
				c2.09,0,3.94,0.3,5.56,0.9c1.62,0.6,2.86,1.38,3.71,2.35l0.64-1.97h7.46L1046.26,1165.58L1046.26,1165.58z M1038.16,1181.17v-6.2
				c-0.54-1.24-1.44-2.22-2.7-2.95c-1.25-0.73-2.69-1.1-4.31-1.1c-1.97,0-3.63,0.66-4.98,1.97c-1.35,1.31-2.03,2.97-2.03,4.98
				s0.67,3.7,2.03,5.07c1.35,1.37,3.01,2.06,4.98,2.06C1034.39,1184.99,1036.72,1183.71,1038.16,1181.17z"/>
			<path class="st9" d="M1053.01,1170.97c1.22-2.05,2.93-3.66,5.16-4.84c2.22-1.18,4.74-1.77,7.56-1.77c2.82,0,5.3,0.59,7.44,1.77
				c2.14,1.18,3.8,2.79,4.95,4.84c1.16,2.05,1.74,4.36,1.74,6.95s-0.58,4.92-1.74,7.01s-2.81,3.72-4.95,4.9
				c-2.14,1.18-4.66,1.77-7.56,1.77c-2.82,0-5.32-0.55-7.5-1.65s-3.88-2.67-5.1-4.72c-1.21-2.05-1.82-4.48-1.82-7.3
				C1051.19,1175.33,1051.8,1173.02,1053.01,1170.97z M1061.09,1182.99c1.16,1.33,2.63,2,4.4,2c1.85,0,3.35-0.66,4.49-1.97
				c1.14-1.31,1.71-2.99,1.71-5.04s-0.57-3.73-1.71-5.04s-2.63-1.97-4.49-1.97c-1.78,0-3.24,0.67-4.4,2s-1.74,3-1.74,5.01
				S1059.93,1181.66,1061.09,1182.99z"/>
			<path class="st9" d="M1108.39,1166.51c1.6,1.43,2.42,3.24,2.46,5.45v18.94h-8.11v-15.93c-0.11-2.47-1.35-3.71-3.71-3.71
				c-1.85,0-3.34,0.87-4.46,2.61s-1.68,3.98-1.68,6.72v10.31h-8.11v-25.31h7.36l0.58,4.06c0.93-1.66,2.21-2.95,3.85-3.88
				s3.58-1.39,5.82-1.39C1104.78,1164.37,1106.78,1165.08,1108.39,1166.51z"/>
		</g>
		<path class="st10" d="M873.58,1165.26c-1.45-0.84-3.23-0.84-4.68,0l-10.87,6.28l-7.43,4.29l-10.87,6.28
			c-1.45,0.84-3.23,0.84-4.68,0l-8.53-4.92c-1.45-0.84-2.34-2.38-2.34-4.05v-9.85c0-1.67,0.89-3.22,2.34-4.05l8.53-4.92
			c1.45-0.84,3.23-0.84,4.68,0l8.53,4.92c1.45,0.84,2.34,2.38,2.34,4.05v6.32l7.43-4.29V1159c0-1.67-0.89-3.22-2.34-4.05
			l-15.95-9.21c-1.45-0.84-3.23-0.84-4.68,0l-15.95,9.21c-1.45,0.84-2.34,2.38-2.34,4.05v18.42c0,1.67,0.89,3.22,2.34,4.05
			l15.95,9.21c1.45,0.84,3.23,0.84,4.68,0l10.87-6.28l7.43-4.29l10.87-6.28c1.45-0.84,3.23-0.84,4.68,0l8.53,4.92
			c1.45,0.84,2.34,2.38,2.34,4.05v9.85c0,1.67-0.89,3.22-2.34,4.05l-8.53,4.92c-1.45,0.84-3.23,0.84-4.68,0l-8.53-4.92
			c-1.45-0.84-2.34-2.38-2.34-4.05v-6.32l-7.43,4.29v6.32c0,1.67,0.89,3.22,2.34,4.05l15.95,9.21c1.45,0.84,3.23,0.84,4.68,0
			l15.95-9.21c1.45-0.84,2.34-2.38,2.34-4.05v-18.42c0-1.67-0.89-3.22-2.34-4.05L873.58,1165.26z"/>
	</g>
	<path class="st1" d="M477.54,266.21c-15.47,0-22.58,10.68-24.92,15.27c-2.34,4.59-6.8,16.62,2.29,29.14l173.54,238.86
		c5.32,7.33,13.57,11.53,22.63,11.53s17.3-4.2,22.63-11.53l173.54-238.86c9.09-12.51,4.63-24.54,2.29-29.14
		c-2.34-4.59-9.45-15.27-24.92-15.27H477.54L477.54,266.21z"/>
	<g>
		<circle class="st11" cx="651.07" cy="323.31" r="45"/>
		<path class="st5" d="M642.64,354.6c0,1.06-0.83,1.66-1.85,1.34c-13.61-4.34-23.47-17.1-23.47-32.15
			c0-15.05,9.86-27.81,23.47-32.15c1.02-0.32,1.85,0.28,1.85,1.34v2.61c0,0.71-0.55,1.54-1.22,1.76
			c-10.76,3.95-18.48,14.29-18.48,26.42c0,12.12,7.71,22.46,18.48,26.42c0.67,0.25,1.22,1.06,1.22,1.76V354.6z"/>
		<path class="st5" d="M653.88,344.87c0,0.78-0.64,1.41-1.41,1.41h-2.81c-0.78,0-1.41-0.64-1.41-1.41v-4.45
			c-6.14-0.83-9.14-4.27-9.95-8.95c-0.14-0.79,0.49-1.52,1.31-1.52h3.21c0.67,0,1.24,0.48,1.38,1.15c0.6,2.79,2.21,4.92,7.13,4.92
			c3.64,0,6.21-2.03,6.21-5.06s-1.52-4.18-6.85-5.06c-7.87-1.06-11.59-3.44-11.59-9.62c0-4.76,3.6-8.47,9.18-9.26v-4.36
			c0-0.78,0.64-1.41,1.41-1.41h2.81c0.78,0,1.41,0.64,1.41,1.41v4.48c4.54,0.81,7.41,3.39,8.35,7.66c0.18,0.81-0.46,1.57-1.29,1.57
			h-2.96c-0.64,0-1.16-0.42-1.36-1.04c-0.79-2.72-2.74-3.88-6.11-3.88c-3.72,0-5.65,1.8-5.65,4.32c0,2.66,1.09,4.01,6.81,4.84
			c7.73,1.06,11.72,3.26,11.72,9.85c0,4.99-3.71,9.04-9.51,9.97v4.45L653.88,344.87L653.88,344.87z"/>
		<path class="st5" d="M661.36,355.94c-1.02,0.32-1.85-0.28-1.85-1.34v-2.61c0-0.78,0.48-1.5,1.22-1.76
			c10.76-3.95,18.48-14.29,18.48-26.42c0-12.12-7.71-22.46-18.48-26.42c-0.67-0.25-1.22-1.06-1.22-1.76v-2.61
			c0-1.06,0.83-1.68,1.85-1.34c13.61,4.34,23.47,17.1,23.47,32.15C684.82,338.84,674.97,351.58,661.36,355.94z"/>
	</g>
	<g>
		<circle class="st4" cx="651.09" cy="439.23" r="45"/>
		<g>
			<path class="st5" d="M655.88,443.38L655.88,443.38c-0.31,0.01-1.92,0.11-5.49,0.11c-2.86,0-4.86-0.08-5.57-0.12v0.01
				c-10.99-0.48-19.19-2.39-19.19-4.69c0-2.29,8.2-4.2,19.19-4.69v7.47c0.72,0.05,2.78,0.17,5.62,0.17c3.41,0,5.12-0.14,5.44-0.17
				V434c10.97,0.49,19.14,2.4,19.14,4.69S666.84,442.89,655.88,443.38 M655.88,433.24v-6.68h15.3v-10.19h-41.66v10.19h15.3v6.68
				c-12.44,0.57-21.78,3.03-21.78,5.98c0,2.95,9.35,5.41,21.78,5.99v21.43h11.06v-21.43c12.41-0.57,21.75-3.03,21.75-5.98
				C677.64,436.28,668.3,433.81,655.88,433.24"/>
		</g>
	</g>
	<g>
		<path class="st1" d="M1017.36,859.38c12.51-9.09,11.99-21.91,11.18-27c-0.81-5.09-4.27-17.44-18.98-22.23l-280.8-91.24
			c-8.61-2.8-17.76-1.35-25.08,3.97c-7.33,5.32-11.53,13.57-11.53,22.63v295.25c0,15.47,10.68,22.58,15.27,24.92
			c4.59,2.34,16.62,6.8,29.14-2.29L1017.36,859.38z"/>
	</g>
	<g>
		<path class="st1" d="M565.6,1063.39c12.51,9.09,24.54,4.63,29.14,2.29c4.59-2.34,15.27-9.45,15.27-24.92V745.51
			c0-9.06-4.2-17.3-11.53-22.63c-7.33-5.32-16.47-6.77-25.08-3.97l-280.8,91.24c-14.71,4.78-18.17,17.13-18.98,22.22
			s-1.33,17.91,11.18,27L565.6,1063.39z"/>
	</g>
	<g>
		<path class="st1" d="M231.97,696.79c-4.78,14.71,3.18,24.77,6.82,28.42c3.64,3.64,13.71,11.6,28.42,6.82l280.8-91.24
			c8.61-2.8,15.16-9.34,17.96-17.96c2.8-8.61,1.35-17.75-3.97-25.08L388.45,358.9c-9.09-12.51-21.91-11.99-27-11.18
			s-17.44,4.27-22.22,18.98L231.97,696.79z"/>
	</g>
	<g>
		<circle class="st4" cx="526.9" cy="821.41" r="45"/>
		<g>
			<path class="st5" d="M531.69,825.56L531.69,825.56c-0.31,0.01-1.92,0.11-5.49,0.11c-2.86,0-4.86-0.08-5.57-0.12v0.01
				c-10.99-0.48-19.19-2.39-19.19-4.69c0-2.29,8.2-4.2,19.19-4.69v7.47c0.72,0.05,2.78,0.17,5.62,0.17c3.41,0,5.12-0.14,5.44-0.17
				v-7.47c10.97,0.49,19.14,2.4,19.14,4.69C550.84,823.17,542.65,825.08,531.69,825.56 M531.69,815.42v-6.68h15.3v-10.19h-41.66
				v10.19h15.3v6.68c-12.44,0.57-21.78,3.03-21.78,5.98s9.35,5.41,21.78,5.99v21.43h11.06v-21.43c12.41-0.57,21.75-3.03,21.75-5.98
				C553.45,818.47,544.11,816,531.69,815.42"/>
		</g>
	</g>
	<g>
		<circle class="st4" cx="775.26" cy="821.41" r="45"/>
		<g>
			<path class="st5" d="M780.05,825.56L780.05,825.56c-0.31,0.01-1.92,0.11-5.49,0.11c-2.86,0-4.86-0.08-5.57-0.12v0.01
				c-10.99-0.48-19.19-2.39-19.19-4.69c0-2.29,8.2-4.2,19.19-4.69v7.47c0.72,0.05,2.78,0.17,5.62,0.17c3.41,0,5.12-0.14,5.44-0.17
				v-7.47c10.97,0.49,19.14,2.4,19.14,4.69C799.2,823.17,791.01,825.08,780.05,825.56 M780.05,815.42v-6.68h15.3v-10.19h-41.66
				v10.19h15.3v6.68c-12.44,0.57-21.78,3.03-21.78,5.98s9.35,5.41,21.78,5.99v21.43h11.06v-21.43c12.41-0.57,21.75-3.03,21.75-5.98
				C801.81,818.47,792.48,816,780.05,815.42"/>
		</g>
	</g>
	<g>
		<circle class="st11" cx="458.77" cy="915.2" r="45"/>
		<path class="st5" d="M450.33,946.48c0,1.06-0.83,1.66-1.85,1.34c-13.61-4.34-23.47-17.1-23.47-32.15s9.86-27.81,23.47-32.15
			c1.02-0.32,1.85,0.28,1.85,1.34v2.61c0,0.71-0.55,1.54-1.22,1.76c-10.76,3.95-18.48,14.29-18.48,26.42
			c0,12.12,7.71,22.46,18.48,26.42c0.67,0.25,1.22,1.06,1.22,1.76V946.48z"/>
		<path class="st5" d="M461.57,936.76c0,0.78-0.64,1.41-1.41,1.41h-2.81c-0.78,0-1.41-0.64-1.41-1.41v-4.45
			c-6.14-0.83-9.14-4.27-9.95-8.95c-0.14-0.79,0.49-1.52,1.31-1.52h3.21c0.67,0,1.24,0.48,1.38,1.15c0.6,2.79,2.21,4.92,7.13,4.92
			c3.64,0,6.21-2.03,6.21-5.06c0-3.04-1.52-4.18-6.85-5.06c-7.87-1.06-11.59-3.44-11.59-9.62c0-4.76,3.6-8.47,9.18-9.26v-4.36
			c0-0.78,0.64-1.41,1.41-1.41h2.81c0.78,0,1.41,0.64,1.41,1.41v4.48c4.54,0.81,7.41,3.39,8.35,7.66c0.18,0.81-0.46,1.57-1.29,1.57
			h-2.96c-0.64,0-1.16-0.42-1.36-1.04c-0.79-2.72-2.74-3.88-6.11-3.88c-3.72,0-5.65,1.8-5.65,4.32c0,2.66,1.09,4.01,6.81,4.84
			c7.73,1.06,11.72,3.26,11.72,9.85c0,4.99-3.71,9.04-9.51,9.97v4.45L461.57,936.76L461.57,936.76z"/>
		<path class="st5" d="M469.05,947.83c-1.02,0.32-1.85-0.28-1.85-1.34v-2.61c0-0.78,0.48-1.5,1.22-1.76
			c10.76-3.95,18.48-14.29,18.48-26.42s-7.71-22.46-18.48-26.42c-0.67-0.25-1.22-1.06-1.22-1.76v-2.61c0-1.06,0.83-1.68,1.85-1.34
			c13.61,4.34,23.47,17.1,23.47,32.15C492.51,930.73,482.66,943.47,469.05,947.83z"/>
	</g>
	<g>
		<circle class="st11" cx="843.25" cy="915.2" r="45"/>
		<path class="st5" d="M834.81,946.48c0,1.06-0.83,1.66-1.85,1.34c-13.61-4.34-23.47-17.1-23.47-32.15s9.86-27.81,23.47-32.15
			c1.02-0.32,1.85,0.28,1.85,1.34v2.61c0,0.71-0.55,1.54-1.22,1.76c-10.76,3.95-18.48,14.29-18.48,26.42
			c0,12.12,7.71,22.46,18.48,26.42c0.67,0.25,1.22,1.06,1.22,1.76V946.48z"/>
		<path class="st5" d="M846.06,936.76c0,0.78-0.64,1.41-1.41,1.41h-2.81c-0.78,0-1.41-0.64-1.41-1.41v-4.45
			c-6.14-0.83-9.14-4.27-9.95-8.95c-0.14-0.79,0.49-1.52,1.31-1.52H835c0.67,0,1.24,0.48,1.38,1.15c0.6,2.79,2.21,4.92,7.13,4.92
			c3.64,0,6.21-2.03,6.21-5.06c0-3.04-1.52-4.18-6.85-5.06c-7.87-1.06-11.59-3.44-11.59-9.62c0-4.76,3.6-8.47,9.18-9.26v-4.36
			c0-0.78,0.64-1.41,1.41-1.41h2.81c0.78,0,1.41,0.64,1.41,1.41v4.48c4.54,0.81,7.41,3.39,8.35,7.66c0.18,0.81-0.46,1.57-1.29,1.57
			h-2.96c-0.64,0-1.16-0.42-1.36-1.04c-0.79-2.72-2.74-3.88-6.11-3.88c-3.72,0-5.65,1.8-5.65,4.32c0,2.66,1.09,4.01,6.81,4.84
			c7.73,1.06,11.72,3.26,11.72,9.85c0,4.99-3.71,9.04-9.51,9.97v4.45L846.06,936.76L846.06,936.76z"/>
		<path class="st5" d="M853.54,947.83c-1.02,0.32-1.85-0.28-1.85-1.34v-2.61c0-0.78,0.48-1.5,1.22-1.76
			c10.76-3.95,18.48-14.29,18.48-26.42s-7.71-22.46-18.48-26.42c-0.67-0.25-1.22-1.06-1.22-1.76v-2.61c0-1.06,0.83-1.68,1.85-1.34
			c13.61,4.34,23.47,17.1,23.47,32.15C876.99,930.73,867.14,943.47,853.54,947.83z"/>
	</g>
	<g>
		<g>
			<circle class="st5" cx="651.08" cy="650.49" r="148.39"/>
			<path class="st12" d="M641.32,627.75c-1.56,0.04-3.12,0.08-4.66,0.14c-0.89,0.03-1.77,0.08-2.66,0.12
				c-1.4,0.06-2.79,0.13-4.18,0.2c-0.93,0.05-1.86,0.11-2.79,0.17c-1.33,0.09-2.65,0.17-3.97,0.27c-0.94,0.07-1.87,0.15-2.79,0.22
				c-1.29,0.11-2.58,0.22-3.86,0.35c-0.92,0.09-1.83,0.18-2.74,0.27c-1.28,0.13-2.55,0.28-3.81,0.43c-0.88,0.1-1.75,0.2-2.62,0.31
				c-1.29,0.16-2.56,0.34-3.83,0.52c-0.81,0.11-1.62,0.22-2.41,0.34c-0.22,0.03-0.43,0.07-0.65,0.1v35.07
				c0,1.46,0.85,2.78,2.18,3.38l10.5,4.77c4.71,2.14,10.15,2.41,14.89,0.35c4.74-2.05,8.24-5.89,9.84-10.79l2.08-6.35
				c1.51-4.62,5.73-7.98,10.59-8.02c4.95-0.04,9.15,2.98,10.69,7.67l2.03,6.2c1.61,4.91,5.09,9.1,9.81,11.2
				c4.72,2.11,9.92,2.09,14.61-0.05l10.98-4.99c1.33-0.6,2.18-1.92,2.18-3.38v-35.07c-6.52-0.99-13.37-1.78-20.45-2.36
				c-1.13-0.09-2.27-0.17-3.41-0.26c-1.29-0.09-2.59-0.19-3.89-0.27c-1.21-0.07-2.43-0.13-3.65-0.19c-1.24-0.06-2.48-0.13-3.73-0.18
				c-1.46-0.06-2.92-0.1-4.39-0.14c-1.03-0.03-2.05-0.07-3.09-0.09c-2.52-0.05-5.05-0.08-7.58-0.08c-2.33,0-4.65,0.02-6.97,0.07
				C642.82,627.71,642.07,627.73,641.32,627.75z"/>
		</g>
		<path class="st1" d="M680.21,688.6c-4.13,0-8.27-0.85-12.13-2.54c-7.84-3.44-13.87-10.09-16.53-18.22l-1.02-3.11l-1.02,3.11
			c-2.67,8.14-8.69,14.78-16.53,18.22c-7.84,3.44-16.81,3.39-24.6-0.16l-10.98-4.99c-5.74-2.61-9.43-8.33-9.43-14.64v-40.35
			c0-3.01,2.17-5.58,5.13-6.1l0,0c17.31-2.99,37.17-4.57,57.42-4.57c6.62,0,13.19,0.17,19.65,0.5c6.85,0.35,12.03,6.35,11.44,13.18
			l0,0c-10.04-0.87-20.5-1.31-31.09-1.31c-17.58,0-34.81,1.23-50.19,3.56v35.09c0,1.46,0.85,2.78,2.18,3.38l10.5,4.77
			c4.71,2.14,10.15,2.41,14.89,0.35c4.74-2.05,8.24-5.89,9.85-10.79l2.08-6.35c1.51-4.62,5.73-7.98,10.59-8.02
			c4.95-0.04,9.15,2.98,10.69,7.67l2.03,6.2c1.61,4.91,5.09,9.1,9.81,11.2c4.72,2.11,9.92,2.09,14.61-0.05l10.98-4.99
			c1.33-0.6,2.18-1.92,2.18-3.38V579.3h12.37v86.96c0,6.31-3.69,12.03-9.43,14.64l-10.97,4.99
			C688.73,687.7,684.47,688.6,680.21,688.6z"/>
	</g>
	<g>
		<circle class="st4" cx="450.15" cy="585.2" r="45"/>
		<g>
			<path class="st5" d="M454.94,589.35L454.94,589.35c-0.31,0.01-1.92,0.11-5.49,0.11c-2.86,0-4.86-0.08-5.57-0.12v0.01
				c-10.99-0.48-19.19-2.39-19.19-4.69c0-2.29,8.2-4.2,19.19-4.69v7.47c0.72,0.05,2.78,0.17,5.62,0.17c3.41,0,5.12-0.14,5.44-0.17
				v-7.47c10.97,0.49,19.14,2.4,19.14,4.69S465.9,588.86,454.94,589.35 M454.94,579.21v-6.68h15.3v-10.19h-41.66v10.19h15.3v6.68
				c-12.44,0.57-21.78,3.03-21.78,5.98c0,2.95,9.35,5.41,21.78,5.99v21.43h11.06v-21.43c12.41-0.57,21.75-3.03,21.75-5.98
				C476.7,582.25,467.36,579.78,454.94,579.21"/>
		</g>
	</g>
	<g>
		<circle class="st11" cx="339.74" cy="549.39" r="45"/>
		<path class="st5" d="M331.31,580.68c0,1.06-0.83,1.66-1.85,1.34c-13.61-4.34-23.47-17.1-23.47-32.15
			c0-15.05,9.86-27.81,23.47-32.15c1.02-0.32,1.85,0.28,1.85,1.34v2.61c0,0.71-0.55,1.54-1.22,1.76
			c-10.76,3.95-18.48,14.29-18.48,26.42c0,12.12,7.71,22.46,18.48,26.42c0.67,0.25,1.22,1.06,1.22,1.76V580.68z"/>
		<path class="st5" d="M342.55,570.95c0,0.78-0.64,1.41-1.41,1.41h-2.81c-0.78,0-1.41-0.64-1.41-1.41v-4.45
			c-6.14-0.83-9.14-4.27-9.95-8.95c-0.14-0.79,0.49-1.52,1.31-1.52h3.21c0.67,0,1.24,0.48,1.38,1.15c0.6,2.79,2.21,4.92,7.13,4.92
			c3.64,0,6.21-2.03,6.21-5.06s-1.52-4.18-6.85-5.06c-7.87-1.06-11.59-3.44-11.59-9.62c0-4.76,3.6-8.47,9.18-9.26v-4.36
			c0-0.78,0.64-1.41,1.41-1.41h2.81c0.78,0,1.41,0.64,1.41,1.41v4.48c4.54,0.81,7.41,3.39,8.35,7.66c0.18,0.81-0.46,1.57-1.29,1.57
			h-2.96c-0.64,0-1.16-0.42-1.36-1.04c-0.79-2.72-2.74-3.88-6.11-3.88c-3.72,0-5.65,1.8-5.65,4.32c0,2.66,1.09,4.01,6.81,4.84
			c7.73,1.06,11.72,3.26,11.72,9.85c0,4.99-3.71,9.04-9.51,9.97v4.45L342.55,570.95L342.55,570.95z"/>
		<path class="st5" d="M350.03,582.02c-1.02,0.32-1.85-0.28-1.85-1.34v-2.61c0-0.78,0.48-1.5,1.22-1.76
			c10.76-3.95,18.48-14.29,18.48-26.42c0-12.12-7.71-22.46-18.48-26.42c-0.67-0.25-1.22-1.06-1.22-1.76v-2.61
			c0-1.06,0.83-1.68,1.85-1.34c13.61,4.34,23.47,17.1,23.47,32.15C373.49,564.92,363.64,577.66,350.03,582.02z"/>
	</g>
	<g>
		<path class="st13" d="M603.66,30.1h11.08c1.56,0,2.82,1.27,2.82,2.84s-1.26,2.84-2.82,2.84h-13.37c-0.21,0-0.41,0.08-0.57,0.21
			l-4.04,3.48c-0.62,0.53-0.24,1.55,0.57,1.55h16.73c0.01,0,0.01-0.01,0.01-0.01c0-0.01,0.01-0.01,0.01-0.01
			c0.21,0.02,0.42,0.03,0.64,0.03c4.44,0,8.04-3.62,8.04-8.08c0-4.24-3.24-7.72-7.37-8.06c-0.01,0-0.01-0.01-0.01-0.01
			c0-0.01-0.01-0.01-0.01-0.01h-11.94c-1.56,0-2.82-1.27-2.82-2.84s1.26-2.84,2.82-2.84h13.35c0.22,0,0.43-0.08,0.59-0.23l3.75-3.48
			c0.59-0.54,0.2-1.53-0.59-1.53h-16.87l0,0l0,0c-0.07,0-0.14,0-0.22,0c-4.44,0-8.04,3.62-8.04,8.08s3.6,8.08,8.04,8.08
			C603.52,30.1,603.59,30.1,603.66,30.1L603.66,30.1L603.66,30.1z"/>
		<path class="st13" d="M668.21,13.94c-0.49,0-0.88,0.39-0.88,0.88v25.32c0,0.49,0.39,0.88,0.88,0.88h20.29
			c0.24,0,0.47-0.1,0.64-0.28l2.54-2.72c0.53-0.56,0.13-1.49-0.64-1.49h-17.71c-0.48,0-0.88-0.39-0.88-0.88V14.81
			c0-0.49-0.39-0.88-0.88-0.88L668.21,13.94L668.21,13.94L668.21,13.94z"/>
		<path class="st14" d="M635.71,13.94L635.71,13.94L635.71,13.94c-2.6,0.12-4.68,2.2-4.79,4.8l0,0l0,0l0,0v17.03l0,0l0,0
			c0,0.07,0,0.14,0,0.22c0,2.7,2.13,4.9,4.79,5.02l0,0l0,0l0,0l0,0h18.41l0,0l0,0l0,0l0,0c2.67-0.12,4.79-2.32,4.79-5.02
			c0-0.07,0-0.14,0-0.22l0,0l0,0V18.74l0,0l0,0c-0.11-2.6-2.19-4.69-4.79-4.8l0,0l0,0H635.71z M639.14,18.74L639.14,18.74
			L639.14,18.74C639.14,18.75,639.14,18.75,639.14,18.74c-1.62,0.07-2.93,1.39-3,3.02l0,0l0,0v10.71l0,0l0,0c0,0.05,0,0.09,0,0.14
			c0,1.7,1.33,3.08,3,3.16l0,0l0,0l0,0l0,0h11.55l0,0l0,0l0,0l0,0c1.67-0.07,3-1.46,3-3.16c0-0.05,0-0.09,0-0.14l0,0l0,0l0,0l0,0
			V21.76l0,0l0,0c-0.07-1.64-1.37-2.95-2.99-3.02l0,0l0,0l0,0l0,0H639.14z"/>
		<path class="st14" d="M721.19,40.14c0,0.49,0.39,0.88,0.87,0.88h3.44c0.48,0,0.87-0.39,0.87-0.88V19.18l0,0l0,0l0,0l0,0
			c0-0.07,0-0.14,0-0.22c0-2.7-2.11-4.9-4.75-5.02l0,0l0,0h-17.68l0,0l0,0c-0.07,0-0.14,0-0.21,0c-2.74,0-4.97,2.25-4.97,5.02
			c0,0.07,0,0.14,0,0.22l0,0l0,0v20.96c0,0.49,0.39,0.88,0.87,0.88h3.44c0.48,0,0.87-0.39,0.87-0.88v-8.72
			c0-0.49,0.39-0.88,0.87-0.88h15.51c0.48,0,0.87,0.39,0.87,0.88V40.14z M703.94,25.73v-4.36c0-1.69,1.35-3.06,3.02-3.06h11.21
			c1.67,0,3.02,1.37,3.02,3.06v4.36c0,0.49-0.39,0.88-0.87,0.88h-15.51C704.33,26.61,703.94,26.21,703.94,25.73z"/>
		<path class="st14" d="M793.84,41.03c-0.49,0-0.88-0.39-0.88-0.88v-8.72c0-0.49-0.39-0.88-0.88-0.88H776.4
			c-0.49,0-0.88,0.39-0.88,0.88v8.72c0,0.49-0.39,0.88-0.88,0.88h-3.47c-0.49,0-0.88-0.39-0.88-0.88V19.19l0,0l0,0l0,0l0,0
			c0-0.07-0.01-0.14-0.01-0.22c0-2.77,2.24-5.02,5.01-5.02c0.07,0,0.14,0,0.22,0l0,0l0,0h17.87l0,0l0,0
			c2.67,0.12,4.79,2.32,4.79,5.02c0,0.07,0,0.14-0.01,0.22l0,0l0,0l0,0v20.96c0,0.49-0.39,0.88-0.88,0.88H793.84z M775.52,21.37
			v4.36c0,0.49,0.39,0.88,0.88,0.88h15.68c0.49,0,0.88-0.39,0.88-0.88v-4.36c0-1.69-1.37-3.06-3.05-3.06h-11.34
			C776.89,18.31,775.52,19.68,775.52,21.37z"/>
		<path class="st13" d="M739.33,13.94c0.26,0,0.5,0.11,0.66,0.31l15.44,18.4c0.52,0.62,1.53,0.25,1.53-0.57V14.82
			c0-0.49,0.39-0.88,0.87-0.88h3.44c0.48,0,0.87,0.39,0.87,0.88v25.32c0,0.49-0.39,0.88-0.87,0.88h-4.28
			c-0.02,0-0.03-0.01-0.03-0.03c0-0.01,0-0.02-0.01-0.02L741.26,22.7c-0.53-0.61-1.53-0.23-1.53,0.58v16.86
			c0,0.49-0.39,0.88-0.87,0.88h-3.46c-0.48,0-0.87-0.39-0.87-0.88V14.82c0-0.49,0.39-0.88,0.87-0.88L739.33,13.94L739.33,13.94z"/>

			<linearGradient id="SVGID_1_" gradientUnits="userSpaceOnUse" x1="295.8033" y1="-617.0059" x2="257.0644" y2="-542.8055" gradientTransform="matrix(1 0 0 1 271.8425 610.397)">
			<stop  offset="0" style="stop-color:#00FFA2"/>
			<stop  offset="1" style="stop-color:#DB1FFF"/>
		</linearGradient>
		<path class="st15" d="M515.4,41.96c0.43-0.43,1.01-0.67,1.62-0.67h55.97c1.02,0,1.53,1.23,0.81,1.95l-11.06,11.05
			c-0.43,0.43-1.01,0.67-1.62,0.67h-55.97c-1.02,0-1.53-1.23-0.81-1.95L515.4,41.96z"/>

			<linearGradient id="SVGID_00000047776807729673426190000014379290950067587989_" gradientUnits="userSpaceOnUse" x1="278.8637" y1="-625.8499" x2="240.1248" y2="-551.6495" gradientTransform="matrix(1 0 0 1 271.8425 610.397)">
			<stop  offset="0" style="stop-color:#00FFA2"/>
			<stop  offset="1" style="stop-color:#DB1FFF"/>
		</linearGradient>
		<path style="fill:url(#SVGID_00000047776807729673426190000014379290950067587989_);" d="M515.4,0.67
			c0.43-0.43,1.01-0.67,1.62-0.67h55.97c1.02,0,1.53,1.23,0.81,1.95L562.74,13c-0.43,0.43-1.01,0.67-1.62,0.67h-55.97
			c-1.02,0-1.53-1.23-0.81-1.95L515.4,0.67z"/>

			<linearGradient id="SVGID_00000090999965822417900380000013153677510289547448_" gradientUnits="userSpaceOnUse" x1="287.2781" y1="-621.4568" x2="248.5392" y2="-547.2563" gradientTransform="matrix(1 0 0 1 271.8425 610.397)">
			<stop  offset="0" style="stop-color:#00FFA2"/>
			<stop  offset="1" style="stop-color:#DB1FFF"/>
		</linearGradient>
		<path style="fill:url(#SVGID_00000090999965822417900380000013153677510289547448_);" d="M562.74,21.18
			c-0.43-0.43-1.01-0.67-1.62-0.67h-55.97c-1.02,0-1.53,1.23-0.81,1.95l11.06,11.05c0.43,0.43,1.01,0.67,1.62,0.67h55.97
			c1.02,0,1.53-1.23,0.81-1.95L562.74,21.18z"/>
	</g>
	<g>
		<rect x="599.78" y="77.48" class="st5" width="102.63" height="95.93"/>
		<path class="st1" d="M603.93,93.5c-2,0-3.62-1.62-3.62-3.62s1.62-3.62,3.62-3.62H718.2c-0.64-4.95-4.86-8.77-9.99-8.77H593.99
			c-5.57,0-10.08,4.51-10.08,10.08v75.77c0,5.57,4.51,10.08,10.08,10.08h114.22c5.57,0,10.08-4.51,10.08-10.08V93.51L603.93,93.5z"
			/>
		<g>
			<path class="st5" d="M684.52,139.57c-4.69,0-8.5-3.81-8.5-8.5v-11.24c0-4.69,3.81-8.5,8.5-8.5h23.77c4.69,0,8.5,3.81,8.5,8.5
				v11.24c0,4.69-3.81,8.5-8.5,8.5H684.52z"/>
			<path class="st1" d="M708.29,112.82c3.86,0,7,3.14,7,7v11.24c0,3.86-3.14,7-7,7h-23.77c-3.86,0-7-3.14-7-7v-11.24
				c0-3.86,3.14-7,7-7H708.29 M708.29,109.82h-23.77c-5.52,0-10,4.48-10,10v11.24c0,5.52,4.48,10,10,10h23.77c5.52,0,10-4.48,10-10
				v-11.24C718.29,114.3,713.81,109.82,708.29,109.82L708.29,109.82z"/>
		</g>
		<circle class="st1" cx="706.3" cy="125.45" r="7.18"/>
	</g>
	<g>
		<g>
			<rect x="98.05" y="440.67" class="st5" width="102.63" height="95.93"/>
			<path class="st1" d="M102.2,456.69c-2,0-3.62-1.62-3.62-3.62s1.62-3.62,3.62-3.62h114.27c-0.64-4.95-4.86-8.77-9.99-8.77H92.26
				c-5.57,0-10.08,4.51-10.08,10.08v75.77c0,5.57,4.51,10.08,10.08,10.08h114.22c5.57,0,10.08-4.51,10.08-10.08V456.7L102.2,456.69z
				"/>
			<g>
				<path class="st5" d="M182.79,502.76c-4.69,0-8.5-3.81-8.5-8.5v-11.24c0-4.69,3.81-8.5,8.5-8.5h23.77c4.69,0,8.5,3.81,8.5,8.5
					v11.25c0,4.69-3.81,8.5-8.5,8.5h-23.77V502.76L182.79,502.76z"/>
				<path class="st1" d="M206.56,473.02v3c3.86,0,7,3.14,7,7v11.24c0,3.86-3.14,7-7,7h-23.77c-3.86,0-7-3.14-7-7v-11.24
					c0-3.86,3.14-7,7-7h23.77V473.02 M206.56,473.02h-23.77c-5.52,0-10,4.48-10,10v11.24c0,5.52,4.48,10,10,10h23.77
					c5.52,0,10-4.48,10-10v-11.24C216.56,477.49,212.09,473.02,206.56,473.02L206.56,473.02z"/>
			</g>
			<circle class="st1" cx="204.57" cy="488.64" r="7.18"/>
		</g>
		<g>
			<path class="st13" d="M94.87,399.14c0,0.5-0.42,0.9-0.91,0.9H76.41c0.44,4.34,3.7,8.29,8.29,8.29c3.14,0,5.47-1.2,7.22-3.7
				c0.25-0.35,0.63-0.57,1.12-0.36c0.27,0.12,0.45,0.36,0.5,0.63c0.05,0.29-0.03,0.45-0.12,0.61c-1.76,3.08-5.28,4.59-8.73,4.59
				c-5.9,0-10.11-5.28-10.11-10.93c0-5.65,4.21-10.93,10.11-10.93C90.59,388.23,94.86,393.5,94.87,399.14 M92.99,398.28
				c-0.38-4.34-3.7-8.29-8.29-8.29s-7.85,3.96-8.29,8.29H92.99z M116.17,388.67c0.51,0,0.88,0.44,0.88,0.88
				c0,0.51-0.38,0.88-0.88,0.88h-4.71v18.46c0,0.44-0.38,0.88-0.88,0.88c-0.51,0-0.88-0.44-0.88-0.88v-18.47h-4.52
				c-0.51,0-0.88-0.38-0.88-0.88c0-0.44,0.38-0.88,0.88-0.88h4.52v-6.76c0-0.43,0.29-0.82,0.7-0.89c0.59-0.09,1.05,0.31,1.05,0.86
				v6.78L116.17,388.67L116.17,388.67z M144.88,397.59v11.19c0,0.51-0.44,0.88-0.88,0.88c-0.51,0-0.88-0.38-0.88-0.88v-11.19
				c0-3.77-2.13-7.54-6.34-7.54c-5.4,0-7.73,4.72-7.42,9.55c0,0.13,0.06,0.69,0.06,0.75v8.4c0,0.43-0.29,0.82-0.7,0.89
				c-0.59,0.09-1.05-0.31-1.05-0.86v-36.76c0-0.44,0.38-0.88,0.88-0.88c0.51,0,0.88,0.44,0.88,0.88v20.8
				c1.51-2.7,4.21-4.52,7.35-4.52C141.93,388.3,144.88,392.82,144.88,397.59 M176.35,399.14c0,0.5-0.42,0.9-0.91,0.9h-17.56
				c0.44,4.34,3.7,8.29,8.29,8.29c3.14,0,5.47-1.2,7.22-3.7c0.25-0.35,0.63-0.57,1.12-0.36c0.27,0.12,0.45,0.36,0.5,0.63
				c0.05,0.29-0.03,0.45-0.12,0.61c-1.76,3.08-5.28,4.59-8.73,4.59c-5.9,0-10.11-5.28-10.11-10.93c0-5.65,4.21-10.93,10.11-10.93
				C172.07,388.23,176.34,393.5,176.35,399.14 M174.46,398.28c-0.38-4.34-3.7-8.29-8.29-8.29s-7.85,3.96-8.29,8.29H174.46z
				 M197.89,389.49c0,0.57-0.31,0.88-0.82,0.95c-5.16,0.75-7.47,4.96-7.47,9.86v8.4c0,0.43-0.29,0.82-0.7,0.89
				c-0.59,0.09-1.05-0.31-1.05-0.86V389.6c0-0.43,0.29-0.82,0.7-0.89c0.59-0.09,1.05,0.31,1.05,0.86v3.9
				c1.44-2.44,4.34-4.77,7.35-4.77C197.39,388.67,197.89,388.99,197.89,389.49 M226.73,399.14c0,0.5-0.42,0.9-0.91,0.9h-17.55
				c0.44,4.34,3.7,8.29,8.29,8.29c3.14,0,5.47-1.2,7.22-3.7c0.25-0.35,0.63-0.57,1.12-0.36c0.27,0.12,0.45,0.36,0.5,0.63
				c0.05,0.29-0.03,0.45-0.12,0.61c-1.76,3.08-5.28,4.59-8.73,4.59c-5.9,0-10.11-5.28-10.11-10.93c0-5.65,4.21-10.93,10.11-10.93
				C222.45,388.23,226.71,393.5,226.73,399.14 M224.85,398.28c-0.38-4.34-3.7-8.29-8.29-8.29s-7.85,3.96-8.29,8.29H224.85z
				 M255.06,389.7v19.18c0,0.51-0.44,0.88-0.88,0.88c-0.51,0-0.88-0.38-0.88-0.88v-3.64c-1.44,2.89-4.02,4.96-7.29,4.96
				c-5.21,0-8.11-4.52-8.11-9.3v-11.24c0-0.44,0.38-0.88,0.88-0.88c0.51,0,0.88,0.44,0.88,0.88v11.24c0,3.77,2.13,7.54,6.34,7.54
				c5.9,0,7.29-5.52,7.29-11.62v-7.16c0-0.51,0.51-1.03,1.13-0.84C254.81,388.94,255.06,389.31,255.06,389.7 M299.46,397.52v11.24
				c0,0.51-0.44,0.88-0.88,0.88c-0.51,0-0.88-0.38-0.88-0.88v-11.24c0-3.77-2.13-7.47-6.34-7.47c-5.28,0-7.29,5.65-7.29,10.05v8.67
				c0,0.51-0.44,0.88-0.88,0.88c-0.51,0-0.88-0.38-0.88-0.88v-11.25c0-3.77-2.13-7.47-6.34-7.47c-5.34,0-7.54,4.21-7.35,9.8
				c0,0.13,0.06,0.38,0,0.44v8.45c0,0.43-0.29,0.82-0.71,0.89c-0.59,0.09-1.05-0.31-1.05-0.86v-19.19c0-0.43,0.29-0.82,0.7-0.89
				c0.59-0.09,1.05,0.31,1.05,0.86v3.21c1.51-2.7,4.21-4.46,7.35-4.46c3.58,0,6.34,2.26,7.47,5.59c1.44-3.26,4.27-5.59,7.91-5.59
				C296.51,388.3,299.46,392.75,299.46,397.52"/>
			<g>
				<g class="st18">
					<g>
						<g>
							<g>
								<g>
									<defs>
										<rect id="SVGID_00000173157938211476054270000008031701770090617223_" y="378.22" width="58.67" height="30.68"/>
									</defs>
									<clipPath id="SVGID_00000175307469760801864410000000700606372582510477_">
										<use xlink:href="#SVGID_00000173157938211476054270000008031701770090617223_"  style="overflow:visible;"/>
									</clipPath>
									<path style="clip-path:url(#SVGID_00000175307469760801864410000000700606372582510477_);fill:#010101;" d="M29.34,378.22
										L0,391.56l29.34,17.33l29.33-17.33L29.34,378.22z"/>
								</g>
							</g>
						</g>
					</g>
				</g>
				<g class="st20">
					<g>
						<g>
							<g>
								<g>
									<defs>
										<rect id="SVGID_00000142169075021312686960000016499834936599199374_" y="342.89" width="29.34" height="66.01"/>
									</defs>
									<clipPath id="SVGID_00000088118203361714263160000010471456098780990629_">
										<use xlink:href="#SVGID_00000142169075021312686960000016499834936599199374_"  style="overflow:visible;"/>
									</clipPath>
									<path style="clip-path:url(#SVGID_00000088118203361714263160000010471456098780990629_);fill:#010101;" d="M0,391.57
										l29.34,17.33v-66.01L0,391.57z"/>
								</g>
							</g>
						</g>
					</g>
				</g>
				<g class="st22">
					<g>
						<g>
							<g>
								<g>
									<defs>

											<rect id="SVGID_00000162339272121790485720000011869322865237092485_" x="29.34" y="342.89" width="29.34" height="66.01"/>
									</defs>
									<clipPath id="SVGID_00000037667518544745764110000010889136762795689381_">
										<use xlink:href="#SVGID_00000162339272121790485720000011869322865237092485_"  style="overflow:visible;"/>
									</clipPath>
									<path style="clip-path:url(#SVGID_00000037667518544745764110000010889136762795689381_);fill:#010101;" d="M29.34,342.89
										v66.01l29.33-17.33L29.34,342.89z"/>
								</g>
							</g>
						</g>
					</g>
				</g>
				<g class="st20">
					<g>
						<g>
							<g>
								<g>
									<defs>
										<rect id="SVGID_00000058572643011781771540000014345602491583375246_" y="397.13" width="29.34" height="41.33"/>
									</defs>
									<clipPath id="SVGID_00000149359231703432967310000001153816051888639145_">
										<use xlink:href="#SVGID_00000058572643011781771540000014345602491583375246_"  style="overflow:visible;"/>
									</clipPath>
									<path style="clip-path:url(#SVGID_00000149359231703432967310000001153816051888639145_);fill:#010101;" d="M0,397.13
										l29.34,41.33v-24L0,397.13z"/>
								</g>
							</g>
						</g>
					</g>
				</g>
				<g class="st22">
					<g>
						<g>
							<g>
								<g>
									<defs>

											<rect id="SVGID_00000113353970047553267010000017059573122996493996_" x="29.34" y="397.13" width="29.35" height="41.33"/>
									</defs>
									<clipPath id="SVGID_00000068669834335561475370000002316959452602404491_">
										<use xlink:href="#SVGID_00000113353970047553267010000017059573122996493996_"  style="overflow:visible;"/>
									</clipPath>
									<path style="clip-path:url(#SVGID_00000068669834335561475370000002316959452602404491_);fill:#010101;" d="M29.34,414.46
										v24l29.35-41.33L29.34,414.46z"/>
								</g>
							</g>
						</g>
					</g>
				</g>
			</g>
		</g>
	</g>
</g>
</svg>
