<?xml version="1.0" encoding="utf-8"?>
<!-- Generator: Adobe Illustrator 26.4.1, SVG Export Plug-In . SVG Version: 6.00 Build 0)  -->
<svg version="1.1" id="Layer_1" xmlns="http://www.w3.org/2000/svg" xmlns:xlink="http://www.w3.org/1999/xlink" x="0px" y="0px"
	 viewBox="0 0 1300 1300" style="enable-background:new 0 0 1300 1300;" xml:space="preserve">
<style type="text/css">
	.st0{display:none;}
	.st1{display:inline;}
	.st2{fill:none;stroke:#277CE0;stroke-width:15;stroke-linecap:round;stroke-miterlimit:10;stroke-dasharray:0,30;}
	.st3{fill:#FFFFFF;}
	.st4{clip-path:url(#SVGID_00000119837699243395881150000015889802172602108832_);}
	.st5{opacity:0.9;fill:#1969FF;enable-background:new    ;}
	.st6{fill:#277CE0;}
	.st7{fill:#155BCC;}
	.st8{clip-path:url(#SVGID_00000138565456228824721100000015591006921598663845_);}
	.st9{opacity:0.9;fill:#E84142;enable-background:new    ;}
	.st10{fill-rule:evenodd;clip-rule:evenodd;fill:#FFFFFF;}
	.st11{fill:#B2343A;}
	.st12{clip-path:url(#SVGID_00000143600297917762540720000011808778031421302943_);}
	.st13{opacity:0.9;fill:url(#SVGID_00000163767045399256540440000013069578807752846781_);enable-background:new    ;}
	.st14{opacity:0.6;}
	.st15{opacity:0.45;}
	.st16{opacity:0.8;}
	.st17{fill:#010101;}
	.st18{clip-path:url(#SVGID_00000054234759411797985770000008029280998299098273_);}
	.st19{opacity:0.9;fill:#F1BB04;enable-background:new    ;}
	.st20{fill:#CC9805;}
	.st21{clip-path:url(#SVGID_00000038390494322926976410000004188856612830538172_);}
	.st22{opacity:0.9;fill:#8247E5;enable-background:new    ;}
	.st23{fill:#5F39B2;}
	.st24{clip-path:url(#SVGID_00000141451105873102910420000003696088048150281112_);}
	.st25{opacity:0.9;fill:url(#SVGID_00000152250976604176923570000008053938895404142514_);enable-background:new    ;}
	.st26{opacity:0.9;fill:url(#SVGID_00000176023534901710472070000009875106834716181425_);enable-background:new    ;}
	.st27{clip-path:url(#SVGID_00000070110763368064783190000014047665784122779520_);}
	.st28{opacity:0.9;fill:#70D44B;enable-background:new    ;}
	.st29{fill:#62B240;}
	.st30{clip-path:url(#SVGID_00000175301754803690650600000003781196491588053677_);}
	.st31{opacity:0.9;fill:url(#SVGID_00000037677856397180080160000017557293733609644417_);enable-background:new    ;}
	.st32{fill:url(#SVGID_00000160168528759932008970000017424757680964532668_);}
	.st33{fill:#2069B2;}
	.st34{fill:#7FFBFF;}
	.st35{clip-path:url(#SVGID_00000112591181399841259090000001100380820853337533_);}
	.st36{fill:url(#SVGID_00000026145444266462905880000011117733394335907719_);}
	.st37{fill:url(#SVGID_00000118373650489006302510000017872484444344451761_);}
	.st38{fill:url(#SVGID_00000067199753099674053290000016086609319036652452_);}
	.st39{fill:url(#SVGID_00000080899091687595421980000004733438985952521372_);}
	.st40{fill:url(#SVGID_00000036229161492173547420000001374891771815367313_);}
	.st41{fill:url(#SVGID_00000183958084725411583500000017883414553074940554_);}
	.st42{fill:url(#SVGID_00000042735172695174438430000014956695443383599277_);}
	.st43{fill:url(#SVGID_00000161591261508168712170000010951098211837093814_);}
	.st44{fill:url(#SVGID_00000054223533117069200080000015653218066881805979_);}
	.st45{fill:#26A07B;}
	.st46{clip-path:url(#SVGID_00000113352770131981547370000013206137710122665867_);}
	.st47{opacity:0.9;fill:url(#SVGID_00000003063448672833009660000012133951456344404111_);enable-background:new    ;}
	.st48{fill:url(#SVGID_00000021838612206716848070000003750331687380086178_);}
	.st49{fill:#2775C9;stroke:#2069B2;stroke-width:5;stroke-miterlimit:10;}
	.st50{fill:#F1BB04;stroke:#CC9805;stroke-width:5;stroke-miterlimit:10;}
	.st51{fill:#FFFEFD;}
	.st52{fill:url(#SVGID_00000027579355712104519870000016602119085526410883_);}
	.st53{opacity:0.2;fill:url(#SVGID_00000086677859136142739280000004292134280188078512_);enable-background:new    ;}
	.st54{fill:url(#SVGID_00000026123279955806246920000011505901811256602300_);}
	.st55{opacity:0.2;fill:url(#SVGID_00000183247262241481903370000017451145736539462787_);enable-background:new    ;}
</style>
<g id="Layer_2_00000075874710970199265530000011322099993175081615_" class="st0">
	<g id="mQm2lW_00000036947519364739083230000016190026985639116734_" class="st1">

			<image style="overflow:visible;enable-background:new    ;" width="531" height="286" id="mQm2lW_00000038396599322218543290000002965790990316751509_" xlink:href="1EA1910A4ED177B3.jpeg"  transform="matrix(4.2337 0 0 4.2337 -474.0303 44.59)">
		</image>
	</g>
</g>
<g id="Layer_1_00000102546667739838177030000000949539693157464960_">
	<g>
		<line class="st2" x1="650" y1="650" x2="650" y2="110.6"/>
		<line class="st2" x1="650" y1="650" x2="303.3" y2="236.8"/>
		<line class="st2" x1="650" y1="650" x2="118.8" y2="556.3"/>
		<line class="st2" x1="650" y1="650" x2="182.8" y2="919.7"/>
		<line class="st2" x1="650" y1="650" x2="465.5" y2="1156.9"/>
		<line class="st2" x1="650" y1="650" x2="834.5" y2="1156.9"/>
		<line class="st2" x1="650" y1="650" x2="1117.2" y2="919.7"/>
		<line class="st2" x1="650" y1="650" x2="1181.2" y2="556.3"/>
		<line class="st2" x1="650" y1="650" x2="996.7" y2="236.8"/>
		<circle class="st3" cx="650" cy="650" r="285.1"/>
	</g>
	<g>
		<g>
			<g>
				<g>
					<defs>
						<path id="SVGID_1_" d="M234.1,1004.9H86.9c-8.3,0-15-6.7-15-15v-96.5c0-8.3,6.7-15,15-15h147.2c8.3,0,15,6.7,15,15v96.5
							C249.1,998.2,242.4,1004.9,234.1,1004.9z"/>
					</defs>
					<clipPath id="SVGID_00000103954530944590838380000004677466006922472096_">
						<use xlink:href="#SVGID_1_"  style="overflow:visible;"/>
					</clipPath>
					<g style="clip-path:url(#SVGID_00000103954530944590838380000004677466006922472096_);">

							<image style="overflow:visible;enable-background:new    ;" width="194" height="168" xlink:href="1EA1910A4ED177B1.png"  transform="matrix(1 0 0 1 63.72 820.41)">
						</image>
					</g>
				</g>
			</g>
			<path class="st5" d="M234.1,1004.9H86.9c-8.3,0-15-6.7-15-15v-96.5c0-8.3,6.7-15,15-15h147.2c8.3,0,15,6.7,15,15v96.5
				C249.1,998.2,242.4,1004.9,234.1,1004.9z"/>
			<path class="st6" d="M211,878.3l-2.3-9.8c-1.7-7.3-9-11.8-16.3-10.1l-81,19c-0.9,0.2-1.8,0.5-2.7,0.9L211,878.3L211,878.3z"/>
		</g>
		<path class="st7" d="M249.1,926.1h-25.3c-2.2,0-4-1.8-4-4v-17.5c0-2.2,1.8-4,4-4h25.3c2.2,0,4,1.8,4,4v17.5
			C253.1,924.3,251.3,926.1,249.1,926.1z"/>
		<circle class="st3" cx="236.4" cy="913.3" r="7.1"/>
		<g>
			<path class="st3" d="M99.5,922.6c0.9-0.5,2.4-0.5,3.3,0l9.6,5c0.6,0.3,0.9,0.7,0.9,1.2l0,0v25.4c0,0.5-0.3,1-0.9,1.3l-9.6,5
				c-0.9,0.5-2.4,0.5-3.3,0l-9.6-5c-0.6-0.3-0.9-0.8-0.9-1.3v-0.1V929v-0.1v-0.1l0,0c0-0.5,0.3-0.9,0.9-1.2L99.5,922.6z M111.9,943
				l-9,4.8c-0.9,0.5-2.4,0.5-3.3,0l-9-4.7v11.2l9,4.7c0.5,0.3,1,0.5,1.6,0.6h0.1c0.5,0,1.1-0.3,1.6-0.5l9.1-4.8L111.9,943L111.9,943
				z M87.4,953.7c0,1,0.1,1.6,0.3,2.1c0.2,0.4,0.5,0.7,1,1l0,0c0.1,0.1,0.2,0.2,0.4,0.2l0.2,0.1l0.5,0.3l-0.8,1.3l-0.6-0.4l-0.1-0.1
				c-0.2-0.1-0.3-0.2-0.5-0.3c-1.5-1-2-2-2-4.3v-0.1h1.6V953.7z M100.4,936.2c-0.1,0-0.1,0.1-0.2,0.1l-9.6,5l0,0l0,0l0,0l0,0l9.6,5
				c0.1,0,0.1,0.1,0.2,0.1V936.2z M101.9,936.2v10.3c0.1,0,0.1-0.1,0.2-0.1l9.6-5l0,0l0,0l0,0l0,0l-9.6-5
				C102.1,936.3,102,936.2,101.9,936.2z M111.9,930.7l-8.6,4.5l8.6,4.5V930.7z M90.5,930.7v9l8.6-4.5L90.5,930.7z M102.1,923.9
				c-0.5-0.3-1.4-0.3-1.9,0l-9.6,5l0,0l0,0l0,0l0,0l9.6,5c0.5,0.3,1.4,0.3,1.9,0l9.6-5l0,0l0,0l0,0l0,0L102.1,923.9z M113.3,924.5
				l0.6,0.4l0.1,0.1c0.2,0.1,0.3,0.2,0.5,0.3c1.5,1,2,2,2,4.3v0.1H115c0-1-0.1-1.6-0.3-2.1c-0.2-0.4-0.5-0.7-1-1l0,0
				c-0.1-0.1-0.2-0.2-0.4-0.2l-0.2-0.1l-0.5-0.3L113.3,924.5z"/>
			<path class="st3" d="M131.8,953.2V939h3.9v-2.6h-3.9v-1.9c0-2.1,0.9-3.2,2.8-3.2c0.5,0,1.1,0.1,1.7,0.3v-2.8
				c-0.7-0.2-1.5-0.3-2.4-0.3c-1.7,0-3,0.5-4,1.5c-0.9,1-1.4,2.4-1.4,4.3v2.1h-3.2v2.6h3.2v14.2L131.8,953.2L131.8,953.2z
				 M145.5,953.4c1.3,0,2.4-0.3,3.4-0.8s1.7-1.3,2.2-2.3v2.9h3.3v-16.7H151v2.7c-0.5-1-1.2-1.8-2.2-2.3s-2.1-0.8-3.4-0.8
				c-1.4,0-2.7,0.4-3.9,1.1c-1.1,0.7-2,1.8-2.6,3.1s-0.9,2.9-0.9,4.6c0,1.7,0.3,3.2,0.9,4.5c0.6,1.3,1.5,2.3,2.6,3
				C142.7,953.1,144,953.4,145.5,953.4z M146.3,950.8c-1.5,0-2.7-0.5-3.6-1.6c-0.9-1-1.3-2.5-1.3-4.4s0.4-3.4,1.3-4.5
				c0.9-1.1,2-1.6,3.5-1.6s2.7,0.5,3.5,1.6c0.8,1,1.2,2.5,1.2,4.5c0,1.9-0.4,3.4-1.2,4.4C149,950.2,147.8,950.8,146.3,950.8z
				 M162.6,953.2v-9.5c0-1.5,0.4-2.7,1.3-3.6c0.9-0.9,2-1.3,3.4-1.3c1.2,0,2.1,0.3,2.7,1c0.6,0.7,0.8,1.7,0.8,3.2v10.2h3.4v-10.4
				c0-4.5-2-6.7-6-6.7c-1.3,0-2.4,0.3-3.4,0.8c-1,0.6-1.8,1.4-2.3,2.4l-0.3-2.9H159c0.2,1.4,0.3,3,0.3,4.7v12L162.6,953.2
				L162.6,953.2z M185.5,953.4c0.9,0,1.8-0.1,2.5-0.4v-2.7c-0.6,0.2-1.2,0.3-1.8,0.3c-0.9,0-1.6-0.2-2.1-0.7s-0.7-1.3-0.7-2.4V939
				h4.6v-2.6h-4.6v-5.3l-3.4,1.2v4.2h-3.3v2.6h3.3v8.7c0,1.9,0.5,3.3,1.4,4.3C182.4,952.9,183.7,953.4,185.5,953.4z M198.3,953.4
				c1.6,0,3-0.4,4.3-1.1c1.2-0.7,2.2-1.7,2.9-3s1-2.8,1-4.6s-0.3-3.3-1-4.6s-1.6-2.3-2.9-3c-1.2-0.7-2.7-1.1-4.3-1.1
				s-3.1,0.4-4.3,1.1c-1.2,0.7-2.2,1.7-2.9,3s-1,2.9-1,4.6c0,1.8,0.3,3.3,1,4.6s1.6,2.3,2.9,3C195.2,953.1,196.7,953.4,198.3,953.4z
				 M198.3,950.8c-1.5,0-2.7-0.5-3.5-1.5s-1.2-2.5-1.2-4.5c0-1.9,0.4-3.4,1.3-4.5c0.8-1,2-1.6,3.6-1.6c1.5,0,2.7,0.5,3.5,1.6
				c0.8,1,1.2,2.5,1.2,4.5s-0.4,3.5-1.2,4.5S199.8,950.8,198.3,950.8z M213.7,953.2v-9.5c0-1.5,0.4-2.7,1.1-3.6
				c0.8-0.9,1.8-1.3,3.1-1.3c1.1,0,1.9,0.3,2.4,1s0.7,1.7,0.7,3.2v10.3h3.4v-9.5c0-1.5,0.4-2.7,1.1-3.6c0.7-0.9,1.8-1.3,3-1.3
				c1.1,0,1.9,0.3,2.4,1s0.7,1.7,0.7,3.2v10.3h3.4V943c0-4.5-1.9-6.7-5.6-6.7c-1.2,0-2.4,0.3-3.3,0.9c-1,0.6-1.7,1.4-2.2,2.4
				c-0.8-2.1-2.5-3.2-5.1-3.2c-1.2,0-2.3,0.3-3.2,0.8c-0.9,0.6-1.6,1.3-2.1,2.4l-0.3-2.8h-3.1c0.2,1.4,0.3,3,0.3,4.7v12h3.3V953.2z"
				/>
		</g>
	</g>
	<g>
		<g>
			<g>
				<g>
					<defs>
						<path id="SVGID_00000116197277408605388450000000933070073635402420_" d="M167.3,625.7H20c-8.3,0-15-6.7-15-15v-96.5
							c0-8.3,6.7-15,15-15h147.2c8.3,0,15,6.7,15,15v96.5C182.3,618.9,175.6,625.7,167.3,625.7z"/>
					</defs>
					<clipPath id="SVGID_00000123401888662575029600000012940207220340778116_">
						<use xlink:href="#SVGID_00000116197277408605388450000000933070073635402420_"  style="overflow:visible;"/>
					</clipPath>
					<g style="clip-path:url(#SVGID_00000123401888662575029600000012940207220340778116_);">

							<image style="overflow:visible;enable-background:new    ;" width="194" height="168" xlink:href="1EA1910A4ED177B7.png"  transform="matrix(1 0 0 1 -3.28 441.41)">
						</image>
					</g>
				</g>
			</g>
			<path class="st9" d="M167.3,625.7H20c-8.3,0-15-6.7-15-15v-96.5c0-8.3,6.7-15,15-15h147.2c8.3,0,15,6.7,15,15v96.5
				C182.3,618.9,175.6,625.7,167.3,625.7z"/>
			<path class="st6" d="M144.2,499.1l-2.3-9.8c-1.7-7.3-9-11.8-16.3-10.1l-81,19c-0.9,0.2-1.8,0.5-2.7,0.9H144.2z"/>
			<g>
				<path class="st3" d="M59.4,556.4H61l4.5,10.5h-2.1l-1-2.4h-4.6l-1,2.4h-2.1L59.4,556.4z M61.8,562.9l-1.6-4.3l-1.7,4.3H61.8z"/>
				<path class="st3" d="M67.6,556.4h2.2l2.9,8l3-8h2l-4.3,10.5h-1.6L67.6,556.4z"/>
				<path class="st3" d="M84.3,556.4h1.6l4.5,10.5h-2.1l-1-2.4h-4.6l-1,2.4h-2.1L84.3,556.4z M86.7,562.9l-1.6-4.3l-1.7,4.3H86.7z"
					/>
				<path class="st3" d="M94.6,556.4h1.9v8.8h4.5v1.7h-6.4V556.4L94.6,556.4z"/>
				<path class="st3" d="M108.7,556.4h1.6l4.5,10.5h-2.1l-1-2.4h-4.6l-1,2.4H104L108.7,556.4z M111.1,562.9l-1.6-4.3l-1.7,4.3H111.1
					z"/>
				<path class="st3" d="M119,556.4h2.5l5.1,7.8l0,0v-7.8h1.9v10.5h-2.4l-5.2-8.1l0,0v8.1H119V556.4z"/>
				<path class="st3" d="M141.1,558.9c-0.4-0.4-0.8-0.7-1.1-0.8c-0.4-0.1-0.7-0.2-1.1-0.2c-0.5,0-1,0.1-1.5,0.3
					c-0.4,0.2-0.8,0.5-1.1,0.8s-0.6,0.7-0.7,1.2c-0.2,0.5-0.3,0.9-0.3,1.5s0.1,1.1,0.3,1.6s0.4,0.9,0.7,1.2s0.7,0.6,1.1,0.8
					c0.4,0.2,0.9,0.3,1.5,0.3c0.4,0,0.8-0.1,1.2-0.3s0.8-0.5,1.1-1l1.5,1.1c-0.5,0.7-1.1,1.1-1.7,1.4s-1.4,0.4-2.2,0.4
					s-1.6-0.1-2.2-0.4c-0.7-0.3-1.3-0.6-1.8-1.1s-0.9-1.1-1.1-1.7c-0.3-0.7-0.4-1.4-0.4-2.2s0.1-1.6,0.4-2.3
					c0.3-0.7,0.7-1.3,1.1-1.8c0.5-0.5,1.1-0.9,1.8-1.1c0.7-0.3,1.4-0.4,2.2-0.4c0.7,0,1.4,0.1,2,0.4c0.6,0.2,1.2,0.7,1.7,1.3
					L141.1,558.9z"/>
				<path class="st3" d="M147,556.4h1.9v4.2h4.9v-4.2h1.9v10.5h-1.9v-4.6h-4.9v4.6H147V556.4z"/>
				<path class="st3" d="M161,556.4h7v1.7h-5.1v2.6h4.8v1.7h-4.8v2.9h5.4v1.7H161V556.4L161,556.4z"/>
				<path class="st10" d="M49.3,561.7c0,8.3-6.8,15.1-15.1,15.1S19,570,19,561.7s6.8-15.1,15.1-15.1
					C42.5,546.6,49.3,553.3,49.3,561.7z M29.9,567.7H27c-0.6,0-0.9,0-1.1-0.1s-0.3-0.3-0.3-0.6c0-0.2,0.1-0.5,0.4-1l7.2-12.8
					c0.3-0.5,0.5-0.8,0.7-0.9c0.2-0.1,0.5-0.1,0.7,0s0.4,0.4,0.7,0.9l1.5,2.6l0,0l0,0c0.3,0.6,0.5,0.9,0.6,1.2s0.1,0.7,0,1
					s-0.2,0.6-0.6,1.2l-3.8,6.7l0,0c-0.3,0.6-0.5,0.9-0.7,1.1c-0.3,0.2-0.6,0.4-0.9,0.5C30.9,567.7,30.6,567.7,29.9,567.7z
					 M37.3,567.7h4.2l0,0c0.6,0,0.9,0,1.1-0.1c0.2-0.1,0.3-0.3,0.3-0.6c0-0.2-0.1-0.5-0.4-1c0,0,0,0,0-0.1l-2.1-3.6l0,0
					c-0.3-0.5-0.4-0.8-0.6-0.9c-0.2-0.1-0.5-0.1-0.7,0s-0.3,0.4-0.7,0.9l-2.1,3.6l0,0c-0.3,0.5-0.5,0.8-0.5,1s0.1,0.5,0.3,0.6
					C36.3,567.7,36.7,567.7,37.3,567.7z"/>
			</g>
		</g>
		<path class="st11" d="M182.2,546.8h-25.3c-2.2,0-4-1.8-4-4v-17.5c0-2.2,1.8-4,4-4h25.3c2.2,0,4,1.8,4,4v17.5
			C186.2,545,184.4,546.8,182.2,546.8z"/>
		<circle class="st3" cx="169.5" cy="534.1" r="7.1"/>
	</g>
	<g>
		<g>
			<g>
				<g>
					<defs>
						<path id="SVGID_00000098188865412177340610000003711394704960273810_" d="M359.8,292.2H212.6c-8.3,0-15-6.7-15-15v-96.5
							c0-8.3,6.7-15,15-15h147.2c8.3,0,15,6.7,15,15v96.5C374.8,285.5,368.1,292.2,359.8,292.2z"/>
					</defs>
					<clipPath id="SVGID_00000111884860863229199000000012847501140613609137_">
						<use xlink:href="#SVGID_00000098188865412177340610000003711394704960273810_"  style="overflow:visible;"/>
					</clipPath>
					<g style="clip-path:url(#SVGID_00000111884860863229199000000012847501140613609137_);">

							<image style="overflow:visible;enable-background:new    ;" width="193" height="167" xlink:href="1EA1910A4ED177B0.png"  transform="matrix(1 0 0 1 189.72 108.41)">
						</image>
					</g>
				</g>
			</g>

				<linearGradient id="SVGID_00000109025817866510752870000003179056427351070613_" gradientUnits="userSpaceOnUse" x1="357.7375" y1="999.5125" x2="214.6625" y2="1142.5875" gradientTransform="matrix(1 0 0 -1 0 1300)">
				<stop  offset="7.615700e-03" style="stop-color:#000000"/>
				<stop  offset="1" style="stop-color:#FFFFFF"/>
			</linearGradient>
			<path style="opacity:0.9;fill:url(#SVGID_00000109025817866510752870000003179056427351070613_);enable-background:new    ;" d="
				M359.8,292.2H212.6c-8.3,0-15-6.7-15-15v-96.5c0-8.3,6.7-15,15-15h147.2c8.3,0,15,6.7,15,15v96.5
				C374.8,285.5,368.1,292.2,359.8,292.2z"/>
			<path class="st6" d="M336.7,165.6l-2.3-9.8c-1.7-7.3-9-11.8-16.3-10.1l-81,19c-0.9,0.2-1.8,0.5-2.7,0.9L336.7,165.6L336.7,165.6z
				"/>
			<g>
				<path class="st3" d="M258.9,233.1c0,0.2-0.2,0.4-0.5,0.4h-8.7c0.2,2.2,1.8,4.1,4.1,4.1c1.6,0,2.7-0.6,3.6-1.8
					c0.1-0.2,0.3-0.3,0.6-0.2c0.1,0.1,0.2,0.2,0.2,0.3s0,0.2-0.1,0.3c-0.9,1.5-2.6,2.3-4.4,2.3c-2.9,0-5-2.6-5-5.4
					c0-2.8,2.1-5.4,5-5.4C256.7,227.7,258.8,230.3,258.9,233.1 M257.9,232.7c-0.2-2.2-1.8-4.1-4.1-4.1c-2.3,0-3.9,2-4.1,4.1H257.9z
					 M269.5,227.9c0.3,0,0.4,0.2,0.4,0.4c0,0.3-0.2,0.4-0.4,0.4h-2.3v9.2c0,0.2-0.2,0.4-0.4,0.4c-0.3,0-0.4-0.2-0.4-0.4v-9.2H264
					c-0.3,0-0.4-0.2-0.4-0.4s0.2-0.4,0.4-0.4h2.3v-3.4c0-0.2,0.1-0.4,0.3-0.4c0.3,0,0.5,0.2,0.5,0.4v3.4H269.5L269.5,227.9z
					 M283.8,232.4v5.6c0,0.3-0.2,0.4-0.4,0.4c-0.3,0-0.4-0.2-0.4-0.4v-5.6c0-1.9-1.1-3.8-3.2-3.8c-2.7,0-3.9,2.4-3.7,4.8
					c0,0.1,0,0.3,0,0.4v4.2c0,0.2-0.1,0.4-0.3,0.4c-0.3,0-0.5-0.2-0.5-0.4v-18.3c0-0.2,0.2-0.4,0.4-0.4c0.3,0,0.4,0.2,0.4,0.4V230
					c0.8-1.3,2.1-2.3,3.7-2.3C282.3,227.7,283.8,230,283.8,232.4 M299.5,233.1c0,0.2-0.2,0.4-0.5,0.4h-8.8c0.2,2.2,1.8,4.1,4.1,4.1
					c1.6,0,2.7-0.6,3.6-1.8c0.1-0.2,0.3-0.3,0.6-0.2c0.1,0.1,0.2,0.2,0.2,0.3s0,0.2-0.1,0.3c-0.9,1.5-2.6,2.3-4.4,2.3
					c-2.9,0-5-2.6-5-5.4c0-2.8,2.1-5.4,5-5.4C297.3,227.7,299.4,230.3,299.5,233.1 M298.5,232.7c-0.2-2.2-1.8-4.1-4.1-4.1
					s-3.9,2-4.1,4.1H298.5z M310.2,228.3c0,0.3-0.2,0.4-0.4,0.5c-2.6,0.4-3.7,2.5-3.7,4.9v4.2c0,0.2-0.1,0.4-0.3,0.4
					c-0.3,0-0.5-0.2-0.5-0.4v-9.5c0-0.2,0.1-0.4,0.3-0.4c0.3,0,0.5,0.2,0.5,0.4v1.9c0.7-1.2,2.2-2.4,3.7-2.4
					C309.9,227.9,310.2,228.1,310.2,228.3 M324.6,233.1c0,0.2-0.2,0.4-0.5,0.4h-8.7c0.2,2.2,1.8,4.1,4.1,4.1c1.6,0,2.7-0.6,3.6-1.8
					c0.1-0.2,0.3-0.3,0.6-0.2c0.1,0.1,0.2,0.2,0.2,0.3s0,0.2-0.1,0.3c-0.9,1.5-2.6,2.3-4.4,2.3c-2.9,0-5-2.6-5-5.4
					c0-2.8,2.1-5.4,5-5.4C322.4,227.7,324.6,230.3,324.6,233.1 M323.6,232.7c-0.2-2.2-1.8-4.1-4.1-4.1s-3.9,2-4.1,4.1H323.6z
					 M338.7,228.4v9.6c0,0.3-0.2,0.4-0.4,0.4c-0.3,0-0.4-0.2-0.4-0.4v-1.8c-0.7,1.4-2,2.5-3.6,2.5c-2.6,0-4-2.3-4-4.6v-5.6
					c0-0.2,0.2-0.4,0.4-0.4c0.3,0,0.4,0.2,0.4,0.4v5.6c0,1.9,1.1,3.8,3.2,3.8c2.9,0,3.6-2.8,3.6-5.8v-3.6c0-0.3,0.3-0.5,0.6-0.4
					C338.6,228,338.7,228.2,338.7,228.4 M360.8,232.3v5.6c0,0.3-0.2,0.4-0.4,0.4c-0.3,0-0.4-0.2-0.4-0.4v-5.6c0-1.9-1.1-3.7-3.2-3.7
					c-2.6,0-3.6,2.8-3.6,5v4.3c0,0.3-0.2,0.4-0.4,0.4c-0.3,0-0.4-0.2-0.4-0.4v-5.6c0-1.9-1.1-3.7-3.2-3.7c-2.7,0-3.8,2.1-3.7,4.9
					c0,0.1,0,0.2,0,0.2v4.2c0,0.2-0.1,0.4-0.4,0.4s-0.5-0.2-0.5-0.4v-9.6c0-0.2,0.1-0.4,0.3-0.4c0.3,0,0.5,0.2,0.5,0.4v1.6
					c0.8-1.3,2.1-2.2,3.7-2.2c1.8,0,3.2,1.1,3.7,2.8c0.7-1.6,2.1-2.8,3.9-2.8C359.3,227.7,360.8,229.9,360.8,232.3"/>
				<g>
					<g class="st14">
						<g>
							<g>
								<g>
									<g>
										<g>
											<path class="st3" d="M226.2,222.7l-14.6,6.6l14.6,8.6l14.6-8.6L226.2,222.7z"/>
										</g>
									</g>
								</g>
							</g>
						</g>
					</g>
					<g class="st15">
						<g>
							<g>
								<g>
									<g>
										<g>
											<path class="st3" d="M211.6,229.4l14.6,8.6v-32.9L211.6,229.4z"/>
										</g>
									</g>
								</g>
							</g>
						</g>
					</g>
					<g class="st16">
						<g>
							<g>
								<g>
									<g>
										<g>
											<path class="st3" d="M226.2,205.1V238l14.6-8.6L226.2,205.1z"/>
										</g>
									</g>
								</g>
							</g>
						</g>
					</g>
					<g class="st15">
						<g>
							<g>
								<g>
									<g>
										<g>
											<path class="st3" d="M211.6,232.1l14.6,20.6v-12L211.6,232.1z"/>
										</g>
									</g>
								</g>
							</g>
						</g>
					</g>
					<g class="st16">
						<g>
							<g>
								<g>
									<g>
										<g>
											<path class="st3" d="M226.2,240.8v12l14.6-20.6L226.2,240.8z"/>
										</g>
									</g>
								</g>
							</g>
						</g>
					</g>
				</g>
			</g>
		</g>
		<path class="st17" d="M374.7,213.4h-25.3c-2.2,0-4-1.8-4-4v-17.5c0-2.2,1.8-4,4-4h25.3c2.2,0,4,1.8,4,4v17.5
			C378.7,211.6,376.9,213.4,374.7,213.4z"/>
		<circle class="st3" cx="362.1" cy="200.6" r="7.1"/>
	</g>
	<g>
		<g>
			<g>
				<g>
					<defs>
						<path id="SVGID_00000182521449998555350770000017988917290265179542_" d="M1082.8,292.2H935.6c-8.3,0-15-6.7-15-15v-96.5
							c0-8.3,6.7-15,15-15h147.2c8.3,0,15,6.7,15,15v96.5C1097.8,285.5,1091.1,292.2,1082.8,292.2z"/>
					</defs>
					<clipPath id="SVGID_00000133506435775796646740000006329963344472042135_">
						<use xlink:href="#SVGID_00000182521449998555350770000017988917290265179542_"  style="overflow:visible;"/>
					</clipPath>
					<g style="clip-path:url(#SVGID_00000133506435775796646740000006329963344472042135_);">

							<image style="overflow:visible;enable-background:new    ;" width="193" height="167" xlink:href="1EA1910A4ED177B3.png"  transform="matrix(1 0 0 1 912.72 108.41)">
						</image>
					</g>
				</g>
			</g>
			<path class="st6" d="M1059.7,165.6l-2.3-9.8c-1.7-7.3-9-11.8-16.3-10.1l-81,19c-0.9,0.2-1.8,0.5-2.7,0.9L1059.7,165.6
				L1059.7,165.6z"/>
			<path class="st19" d="M1082.8,292.2H935.6c-8.3,0-15-6.7-15-15v-96.5c0-8.3,6.7-15,15-15h147.2c8.3,0,15,6.7,15,15v96.5
				C1097.8,285.5,1091.1,292.2,1082.8,292.2z"/>
		</g>
		<path class="st20" d="M1097.8,213.4h-25.3c-2.2,0-4-1.8-4-4v-17.5c0-2.2,1.8-4,4-4h25.3c2.2,0,4,1.8,4,4v17.5
			C1101.8,211.6,1100,213.4,1097.8,213.4z"/>
		<circle class="st3" cx="1085.1" cy="200.6" r="7.1"/>
		<g>
			<path class="st3" d="M982.8,232.1L982.8,232.1c0-1.9-1-2.9-2.6-3.5c1-0.6,1.9-1.5,1.9-3.1l0,0c0-2.2-1.8-3.7-4.7-3.7h-6.6V236
				h6.7C980.7,236,982.8,234.7,982.8,232.1z M978.9,226.1c0,1.1-0.9,1.5-2.2,1.5h-2.9v-3h3.1C978.2,224.6,978.9,225.1,978.9,226.1
				L978.9,226.1L978.9,226.1z M979.7,231.7c0,1.1-0.8,1.5-2.2,1.5h-3.7v-3.1h3.6C979,230.1,979.7,230.7,979.7,231.7L979.7,231.7z"/>
			<path class="st3" d="M997.9,236v-14.2h-3.1v8.7l-6.6-8.7h-2.9V236h3.1v-9l6.9,9H997.9L997.9,236z"/>
			<path class="st3" d="M1013.4,232.1L1013.4,232.1c0-1.9-1-2.9-2.6-3.5c1-0.6,1.9-1.5,1.9-3.1l0,0c0-2.2-1.8-3.7-4.7-3.7h-6.6V236
				h6.7C1011.3,236,1013.4,234.7,1013.4,232.1z M1009.5,226.1c0,1.1-0.9,1.5-2.2,1.5h-2.9v-3h3.1
				C1008.8,224.6,1009.5,225.1,1009.5,226.1L1009.5,226.1L1009.5,226.1z M1010.3,231.7c0,1.1-0.8,1.5-2.2,1.5h-3.7v-3.1h3.6
				C1009.6,230.1,1010.3,230.7,1010.3,231.7L1010.3,231.7z"/>
			<path class="st3" d="M1031.1,233.7l-1.6-1.6c-1.2,1.1-2.3,1.8-4.1,1.8c-2.7,0-4.7-2.3-4.7-5c0-2.8,2-5,4.7-5c1.6,0,2.8,0.7,4,1.8
				l1.6-1.8c-1.4-1.3-2.9-2.2-5.5-2.2c-4.3,0-7.3,3.3-7.3,7.3c0,4.1,3.1,7.3,7.2,7.3C1028,236.2,1029.6,235.2,1031.1,233.7z"/>
			<path class="st3" d="M1042.9,230v5.9h2.5v-14.1h-2.5v5.9h-6.8v-5.9h-2.5V236h2.5v-6H1042.9z"/>
			<path class="st3" d="M1056.4,221.8h-2.3l-6.2,14.2h2.6l1.5-3.4h6.7l1.4,3.4h2.6L1056.4,221.8z M1057.6,230.4h-4.9l2.4-5.6
				L1057.6,230.4z"/>
			<path class="st3" d="M1065.2,221.9V236h2.5v-14.1H1065.2z"/>
			<path class="st3" d="M1081.4,231.6l-7.6-9.7h-2.3V236h2.4v-10l7.8,10h2.1v-14.1h-2.4V231.6z"/>
			<path class="st3" d="M939.3,219l7.6-4.4l7.6,4.4l-2.8,1.6l-4.8-2.8l-4.8,2.8L939.3,219z M954.5,224.5l-2.8-1.6l-4.8,2.8l-4.8-2.8
				l-2.8,1.6v3.2l4.8,2.8v5.5l2.8,1.6l2.8-1.6v-5.5l4.8-2.8V224.5z M954.5,233.3V230l-2.8,1.6v3.2L954.5,233.3z M956.4,234.4
				l-4.8,2.8v3.2l7.6-4.4v-8.8l-2.8,1.6V234.4L956.4,234.4z M953.7,221.8l2.8,1.6v3.2l2.8-1.6v-3.2l-2.8-1.6L953.7,221.8z
				 M944.1,238.4v3.2l2.8,1.6l2.8-1.6v-3.2l-2.8,1.6L944.1,238.4z M939.3,233.3l2.8,1.6v-3.2l-2.8-1.6V233.3z M944.1,221.8l2.8,1.6
				l2.8-1.6l-2.8-1.6L944.1,221.8z M937.4,223.4l2.8-1.6l-2.8-1.6l-2.8,1.6v3.2l2.8,1.6V223.4z M937.4,228.9l-2.8-1.6v8.8l7.6,4.4
				v-3.2l-4.8-2.8V228.9L937.4,228.9z"/>
		</g>
	</g>
	<g>
		<g>
			<g>
				<g>
					<defs>
						<path id="SVGID_00000160906708074188971610000002322369569009773496_" d="M1276,625.7h-147.2c-8.3,0-15-6.7-15-15v-96.5
							c0-8.3,6.7-15,15-15H1276c8.3,0,15,6.7,15,15v96.5C1291,618.9,1284.3,625.7,1276,625.7z"/>
					</defs>
					<clipPath id="SVGID_00000013893996892529481540000007074891499517669264_">
						<use xlink:href="#SVGID_00000160906708074188971610000002322369569009773496_"  style="overflow:visible;"/>
					</clipPath>
					<g style="clip-path:url(#SVGID_00000013893996892529481540000007074891499517669264_);">

							<image style="overflow:visible;enable-background:new    ;" width="193" height="168" xlink:href="1EA1910A4ED177BF.png"  transform="matrix(1 0 0 1 1105.72 441.41)">
						</image>
					</g>
				</g>
			</g>
			<path class="st22" d="M1276,625.7h-147.2c-8.3,0-15-6.7-15-15v-96.5c0-8.3,6.7-15,15-15H1276c8.3,0,15,6.7,15,15v96.5
				C1291,618.9,1284.3,625.7,1276,625.7z"/>
			<path class="st6" d="M1252.9,499.1l-2.3-9.8c-1.7-7.3-9-11.8-16.3-10.1l-81,19c-0.9,0.2-1.8,0.5-2.7,0.9H1252.9z"/>
		</g>
		<path class="st23" d="M1291,546.8h-25.3c-2.2,0-4-1.8-4-4v-17.5c0-2.2,1.8-4,4-4h25.3c2.2,0,4,1.8,4,4v17.5
			C1295,545,1293.2,546.8,1291,546.8z"/>
		<circle class="st3" cx="1278.3" cy="534.1" r="7.1"/>
		<path class="st3" d="M1167.2,563.4v8.9c0,0.6-0.2,1.1-0.4,1.6c-0.3,0.5-0.7,0.9-1.2,1.2l-7.7,4.4c-0.5,0.3-1,0.4-1.6,0.4
			s-1.1-0.2-1.6-0.4l-7.7-4.4c-0.5-0.3-0.9-0.7-1.2-1.2c-0.3-0.5-0.4-1-0.4-1.6v-2.5l4-2.3v4.3l6.9,4l6.9-4v-8l-6.9-4l-16.2,9.4
			c-0.5,0.3-1,0.4-1.6,0.4s-1.1-0.1-1.6-0.4l-7.7-4.5c-0.5-0.3-0.9-0.7-1.1-1.2c-0.3-0.5-0.4-1-0.4-1.6v-8.9c0-0.6,0.2-1.1,0.4-1.6
			c0.3-0.5,0.7-0.9,1.2-1.2l7.7-4.4c0.5-0.3,1-0.4,1.6-0.4c0.6,0,1.1,0.1,1.6,0.4l7.7,4.4c0.5,0.3,0.9,0.7,1.2,1.2
			c0.3,0.5,0.4,1,0.4,1.6v2.5l-4,2.3v-4.3l-6.9-4l-6.9,4v8l6.9,4l16.2-9.4c0.5-0.3,1-0.4,1.6-0.4s1.1,0.1,1.6,0.4l7.7,4.5
			c0.5,0.3,0.9,0.7,1.1,1.2C1167.1,562.3,1167.2,562.8,1167.2,563.4z"/>
		<path class="st3" d="M1181,575.5v-6.9c0.8,0.9,2.1,1.5,3.7,1.5c4,0,6.8-2.9,6.8-7.2c0-4.4-2.5-7.2-6.4-7.2c-1.8,0-3.2,0.7-4,1.8
			v-1.5h-3.9v19.7L1181,575.5z M1184.2,566.7c-2.1,0-3.5-1.6-3.5-3.9c0-2.3,1.4-3.9,3.5-3.9c2,0,3.4,1.5,3.4,3.9
			S1186.2,566.7,1184.2,566.7z"/>
		<path class="st3" d="M1200.2,570.1c4.3,0,7.4-3.1,7.4-7.2c0-4.2-3.1-7.2-7.4-7.2c-4.3,0-7.4,3.1-7.4,7.2
			C1192.8,567,1195.9,570.1,1200.2,570.1z M1200.2,566.7c-2.1,0-3.5-1.6-3.5-3.9c0-2.3,1.4-3.9,3.5-3.9s3.5,1.6,3.5,3.9
			C1203.8,565.2,1202.3,566.7,1200.2,566.7z"/>
		<path class="st3" d="M1213.9,569.8v-20.2h-3.9v20.2H1213.9z"/>
		<path class="st3" d="M1225.5,555.8l-2.9,9.1l-3-9.1h-4l5.1,13.9l-2.1,5.8h3.7l2-5.7l5.1-14L1225.5,555.8z"/>
		<path class="st3" d="M1240.4,557.2c-0.8-1-2.2-1.6-3.9-1.6c-4.1,0-6.6,2.9-6.6,7.2c0,4.4,2.5,7.2,6.6,7.2c1.6,0,3.1-0.6,3.8-1.6
			v1.9c0,1.3-0.9,2.2-2,2.2h-6.5v3h7.1c3.2,0,5.3-1.9,5.3-4.9v-14.9h-3.9V557.2z M1237.2,566.7c-2.1,0-3.4-1.5-3.4-3.9
			c0-2.4,1.4-3.9,3.4-3.9c2.1,0,3.5,1.5,3.5,3.9S1239.3,566.7,1237.2,566.7z"/>
		<path class="st3" d="M1254.1,570.1c4.3,0,7.4-3.1,7.4-7.2c0-4.2-3.1-7.2-7.4-7.2c-4.3,0-7.4,3.1-7.4,7.2
			C1246.7,567,1249.7,570.1,1254.1,570.1z M1254.1,566.7c-2.1,0-3.5-1.6-3.5-3.9c0-2.3,1.4-3.9,3.5-3.9c2.1,0,3.5,1.6,3.5,3.9
			C1257.6,565.2,1256.1,566.7,1254.1,566.7z"/>
		<path class="st3" d="M1267.5,569.8v-7.7c0-1.8,1.2-3.1,2.9-3.1c1.6,0,2.7,1.2,2.7,2.9v7.9h3.9v-8.8c0-3.2-2.1-5.5-5.2-5.5
			c-1.9,0-3.5,0.8-4.3,2.2v-1.9h-3.9v14.1H1267.5z"/>
	</g>
	<g>
		<g>
			<g>
				<g>
					<defs>
						<path id="SVGID_00000030454037640647840380000000128305494055441039_" d="M1209.2,1004.9H1062c-8.3,0-15-6.7-15-15v-96.5
							c0-8.3,6.7-15,15-15h147.2c8.3,0,15,6.7,15,15v96.5C1224.2,998.2,1217.5,1004.9,1209.2,1004.9z"/>
					</defs>
					<clipPath id="SVGID_00000002370659002654518670000007588305608405814439_">
						<use xlink:href="#SVGID_00000030454037640647840380000000128305494055441039_"  style="overflow:visible;"/>
					</clipPath>
					<g style="clip-path:url(#SVGID_00000002370659002654518670000007588305608405814439_);">

							<image style="overflow:visible;enable-background:new    ;" width="194" height="168" xlink:href="1EA1910A4ED177B2.png"  transform="matrix(1 0 0 1 1038.72 820.41)">
						</image>
					</g>
				</g>
			</g>

				<linearGradient id="SVGID_00000012472240096644184840000001834807219156602813_" gradientUnits="userSpaceOnUse" x1="1047" y1="358.35" x2="1224.2" y2="358.35" gradientTransform="matrix(1 0 0 -1 0 1300)">
				<stop  offset="0" style="stop-color:#E40C5B"/>
				<stop  offset="1" style="stop-color:#FF4C3B"/>
			</linearGradient>
			<path style="opacity:0.9;fill:url(#SVGID_00000012472240096644184840000001834807219156602813_);enable-background:new    ;" d="
				M1209.2,1004.9H1062c-8.3,0-15-6.7-15-15v-96.5c0-8.3,6.7-15,15-15h147.2c8.3,0,15,6.7,15,15v96.5
				C1224.2,998.2,1217.5,1004.9,1209.2,1004.9z"/>
			<path class="st6" d="M1186.1,878.3l-2.3-9.8c-1.7-7.3-9-11.8-16.3-10.1l-81,19c-0.9,0.2-1.8,0.5-2.7,0.9L1186.1,878.3
				L1186.1,878.3z"/>
		</g>

			<linearGradient id="SVGID_00000163061918302913395340000000382559249812649347_" gradientUnits="userSpaceOnUse" x1="1194.7584" y1="386.65" x2="1228.1017" y2="386.65" gradientTransform="matrix(1 0 0 -1 0 1300)">
			<stop  offset="0" style="stop-color:#E40C5B"/>
			<stop  offset="1" style="stop-color:#FF4C3B"/>
		</linearGradient>
		<path style="opacity:0.9;fill:url(#SVGID_00000163061918302913395340000000382559249812649347_);enable-background:new    ;" d="
			M1224.1,926.1h-25.3c-2.2,0-4-1.8-4-4v-17.5c0-2.2,1.8-4,4-4h25.3c2.2,0,4,1.8,4,4v17.5C1228.1,924.3,1226.3,926.1,1224.1,926.1z"
			/>
		<circle class="st3" cx="1211.4" cy="913.3" r="7.1"/>
		<g>
			<g>
				<path class="st3" d="M1078.1,928.8l-7.7,7.2c-0.8,0.7-1.8,1.2-2.9,1.2h-2.3v-8.3h-4.2v23.8h2.3c1.3,0,2.5-0.7,3.1-1.8l0,0
					c0.4-0.8,0.6-2.2,0.6-3.3c-0.1-2.3-0.5-2.9-0.5-2.9c-0.1,1.6-1.7,1.7-1.7,1.7c1.2-1.1,0.5-2,0.5-2c-2.1,1.5-2.6-0.1-2.6-0.2
					c0.1,0.1,0.7,0.6,1.8-1c1.2-1.6,2.8-4.4,3.8-5.1c1-0.7,2-0.6,2-0.6s0.5-0.8,2-1.4c1.4-0.6,2.4,0.3,2.4,0.3
					c-1.5,1.2-3.5,3.2-3.6,6.1c-0.1,2.3,4.8,6.3,3.9,12.2c0.5-1.3,0.7-2.7,0.5-4.3c-0.1-1.3-1-4.1-1-4.1l4.7,6.6h5.2l-10.2-14.2
					l10.2-9.5h-6.3V928.8z"/>
				<path class="st3" d="M1068.6,939.1c-0.3,0.6-0.3,0.7-0.3,0.7s1.1-0.2,1.5-1.6C1069.7,938.2,1069,938.4,1068.6,939.1z"/>
				<path class="st3" d="M1098.2,928.8l-9.8,19.6l-2.1,4.3h4.7l2.1-4.3l5.1-10.2l5.1,10.2l2.1,4.3h4.7l-2.1-4.3L1098.2,928.8z"/>
				<path class="st3" d="M1133.2,935.3c0-1.8-0.7-3.4-1.8-4.6c-1.1-1.2-2.7-1.9-4.4-1.9h-14.8v23.8h4.2v-11h4.2c1.5,0,2.8,0.8,3.5,2
					l0.1,0.2l4.4,8.7h4.7l-2.1-4.3l-3.3-6.8c0.6-0.1,1.2-0.2,1.8-0.5C1131.7,940.1,1133.2,937.8,1133.2,935.3z M1127.7,937.2
					c-0.3,0.1-0.6,0.2-0.9,0.2h-10.6V933h10.6c0.7,0,1.2,0.3,1.5,0.6c0.2,0.2,0.6,0.8,0.6,1.6C1129,936.1,1128.5,936.9,1127.7,937.2
					z"/>
				<path class="st3" d="M1155.7,940.7c0,4.2-3.4,7.7-7.5,7.7s-7.5-3.4-7.5-7.7v-11.9h-4.2v11.9c0,6.6,5.2,11.9,11.7,11.9
					s11.7-5.3,11.7-11.9v-11.9h-4.2V940.7z"/>
				<path class="st3" d="M1184.3,935.3c0-1.8-0.7-3.4-1.8-4.6c-1.1-1.2-2.7-1.9-4.4-1.9h-14.8v23.8h4.2v-11h4.2c1.5,0,2.8,0.8,3.5,2
					l0.1,0.2l4.4,8.7h4.7l-2.1-4.3l-3.3-6.8c0.6-0.1,1.2-0.2,1.8-0.5C1182.8,940.1,1184.3,937.8,1184.3,935.3z M1178.8,937.2
					c-0.3,0.1-0.6,0.2-0.9,0.2h-10.6V933h10.6c0.7,0,1.2,0.3,1.5,0.6c0.2,0.2,0.6,0.8,0.6,1.6
					C1180.1,936.1,1179.6,936.9,1178.8,937.2z"/>
				<path class="st3" d="M1208,948.4l-9.8-19.6l-9.8,19.6l-2.1,4.3h4.7l2.1-4.3l5.1-10.2l5.1,10.2l2.1,4.3h4.7L1208,948.4z"/>
			</g>
		</g>
	</g>
	<g>
		<g>
			<g>
				<g>
					<defs>
						<path id="SVGID_00000030461625018447301980000007176067383429500601_" d="M914.2,1252.4H766.9c-8.3,0-15-6.7-15-15v-96.5
							c0-8.3,6.7-15,15-15h147.2c8.3,0,15,6.7,15,15v96.5C929.2,1245.7,922.5,1252.4,914.2,1252.4z"/>
					</defs>
					<clipPath id="SVGID_00000164496346269435218760000000082068344695617171_">
						<use xlink:href="#SVGID_00000030461625018447301980000007176067383429500601_"  style="overflow:visible;"/>
					</clipPath>
					<g style="clip-path:url(#SVGID_00000164496346269435218760000000082068344695617171_);">

							<image style="overflow:visible;enable-background:new    ;" width="194" height="167" xlink:href="1EA1910A4ED177B5.png"  transform="matrix(1 0 0 1 743.72 1068.4099)">
						</image>
					</g>
				</g>
			</g>
			<path class="st28" d="M914.2,1252.4H766.9c-8.3,0-15-6.7-15-15v-96.5c0-8.3,6.7-15,15-15h147.2c8.3,0,15,6.7,15,15v96.5
				C929.2,1245.7,922.5,1252.4,914.2,1252.4z"/>
			<path class="st6" d="M891.1,1125.9l-2.3-9.8c-1.7-7.3-9-11.8-16.3-10.1l-81,19c-0.9,0.2-1.8,0.5-2.7,0.9H891.1z"/>
		</g>
		<path class="st29" d="M929.1,1173.6h-25.3c-2.2,0-4-1.8-4-4v-17.5c0-2.2,1.8-4,4-4h25.3c2.2,0,4,1.8,4,4v17.5
			C933.1,1171.8,931.3,1173.6,929.1,1173.6z"/>
		<circle class="st3" cx="916.4" cy="1160.8" r="7.1"/>
		<g>
			<path class="st3" d="M840,1181c0.1,0,0.2,0.1,0.2,0.2v9.6c0,4.5-2.8,6.8-6.6,6.8s-6.6-2.2-6.6-6.8v-9.6c0-0.1,0.1-0.2,0.2-0.2
				h2.2c0.1,0,0.2,0.1,0.2,0.2v9.4c0,3.2,1.6,4.4,3.9,4.4c2.3,0,3.9-1.3,3.9-4.4v-9.4c0-0.1,0.1-0.2,0.2-0.2H840z"/>
			<path class="st3" d="M878.9,1189.1c0,4.8-3.7,8.4-8.4,8.4s-8.4-3.6-8.4-8.4s3.7-8.4,8.4-8.4S878.9,1184.4,878.9,1189.1z
				 M864.7,1189.1c0,3.4,2.5,5.9,5.8,5.9s5.8-2.5,5.8-5.9s-2.5-5.9-5.8-5.9S864.7,1185.8,864.7,1189.1L864.7,1189.1z"/>
			<path class="st3" d="M902,1197.3h-2.3c-0.1,0-0.2-0.1-0.2-0.2c0,0,0,0,0-0.1l6.1-15.7c0.1-0.1,0.2-0.2,0.3-0.2h2.9
				c0.1,0,0.3,0.1,0.3,0.2l6.1,15.7c0,0.1,0,0.3-0.1,0.3c0,0,0,0-0.1,0h-2.3c-0.1,0-0.2-0.1-0.2-0.1l-4.9-12.9
				c-0.1-0.1-0.2-0.2-0.3-0.1c-0.1,0-0.1,0.1-0.1,0.1l-4.9,12.9C902.2,1197.2,902.1,1197.3,902,1197.3z"/>
			<path class="st3" d="M809.9,1197.3h-2.3c-0.1,0-0.2-0.1-0.2-0.2c0,0,0,0,0-0.1l6.1-15.7c0-0.1,0.2-0.2,0.3-0.2h2.9
				c0.1,0,0.3,0.1,0.3,0.2l6.1,15.7c0,0.1,0,0.3-0.1,0.3c0,0,0,0-0.1,0h-2.3c-0.1,0-0.2-0.1-0.2-0.1l-4.9-12.9
				c-0.1-0.1-0.2-0.2-0.3-0.1c-0.1,0-0.1,0.1-0.1,0.1l-4.9,12.9C810.1,1197.2,810,1197.3,809.9,1197.3z"/>
			<path class="st3" d="M895.2,1196.9l-4.6-5.8c2.6-0.5,4.1-2.2,4.1-4.9c0-3.1-2-5.1-5.5-5.1h-6.4c-0.2,0-0.3,0.2-0.3,0.3l0,0
				c0,1.2,1,2.2,2.2,2.2h4.3c2.1,0,3.2,1.1,3.2,2.7s-1,2.7-3.2,2.7h-6.1c-0.2,0-0.3,0.2-0.3,0.3v7.8c0,0.1,0.1,0.2,0.2,0.2h2.2
				c0.1,0,0.2-0.1,0.2-0.2v-5.8h2.5l4,5.2c0.4,0.6,1.1,0.9,1.8,0.9h1.6c0.1,0,0.2-0.1,0.2-0.2C895.3,1197,895.3,1196.9,895.2,1196.9
				z"/>
			<path class="st3" d="M858.4,1196.9l-4.6-5.8c2.6-0.5,4.1-2.2,4.1-4.9c0-3.1-2-5.1-5.5-5.1H846c-0.2,0-0.3,0.2-0.3,0.3l0,0l0,0
				c0,1.2,1,2.2,2.2,2.2h4.3c2.1,0,3.2,1.1,3.2,2.7s-1,2.7-3.2,2.7h-6.1c-0.2,0-0.3,0.2-0.3,0.3l0,0v7.8c0,0.1,0.1,0.2,0.2,0.2h2.2
				c0.1,0,0.2-0.1,0.2-0.2v-5.8h2.5l4,5.2c0.4,0.6,1.1,0.9,1.8,0.9h1.6c0.1,0,0.2-0.1,0.2-0.2C858.5,1197,858.4,1196.9,858.4,1196.9
				z"/>
			<path class="st3" d="M782.5,1175.1c1.4,0,2.7,0.8,3.3,2l10.4,20.7c0.9,1.8,0.2,4-1.6,4.9c-0.5,0.3-1.1,0.4-1.6,0.4h-20.7
				c-2,0-3.7-1.6-3.7-3.7c0-0.6,0.1-1.1,0.4-1.6l10.4-20.7C779.9,1175.9,781.1,1175.1,782.5,1175.1 M782.5,1172.6
				c-2.4,0-4.5,1.3-5.6,3.4l-10.4,20.7c-1.5,3.1-0.3,6.8,2.8,8.3c0.9,0.4,1.8,0.7,2.8,0.7h20.7c3.4,0,6.2-2.8,6.2-6.2
				c0-1-0.2-1.9-0.7-2.8l-10.4-20.7C787,1173.9,784.9,1172.6,782.5,1172.6z"/>
		</g>
	</g>
	<g>
		<g>
			<g>
				<g>
					<defs>
						<path id="SVGID_00000012432406727261794690000006659753610624006583_" d="M529.1,1252.4H381.9c-8.3,0-15-6.7-15-15v-96.5
							c0-8.3,6.7-15,15-15h147.2c8.3,0,15,6.7,15,15v96.5C544.1,1245.7,537.4,1252.4,529.1,1252.4z"/>
					</defs>
					<clipPath id="SVGID_00000149342354218711599790000016326300591655018880_">
						<use xlink:href="#SVGID_00000012432406727261794690000006659753610624006583_"  style="overflow:visible;"/>
					</clipPath>
					<g style="clip-path:url(#SVGID_00000149342354218711599790000016326300591655018880_);">

							<image style="overflow:visible;enable-background:new    ;" width="194" height="167" xlink:href="1EA1910A4ED177B6.png"  transform="matrix(1 0 0 1 358.72 1068.4099)">
						</image>
					</g>
				</g>
			</g>

				<linearGradient id="SVGID_00000114055604689722404550000011616022294155242388_" gradientUnits="userSpaceOnUse" x1="527.0375" y1="39.3125" x2="383.9625" y2="182.3875" gradientTransform="matrix(1 0 0 -1 0 1300)">
				<stop  offset="7.615700e-03" style="stop-color:#645AFF"/>
				<stop  offset="0.5038" style="stop-color:#E40C5B"/>
				<stop  offset="1" style="stop-color:#FF4C3B"/>
			</linearGradient>
			<path style="opacity:0.9;fill:url(#SVGID_00000114055604689722404550000011616022294155242388_);enable-background:new    ;" d="
				M529.1,1252.4H381.9c-8.3,0-15-6.7-15-15v-96.5c0-8.3,6.7-15,15-15h147.2c8.3,0,15,6.7,15,15v96.5
				C544.1,1245.7,537.4,1252.4,529.1,1252.4z"/>
			<path class="st6" d="M506,1125.9l-2.3-9.8c-1.7-7.3-9-11.8-16.3-10.1l-81,19c-0.9,0.2-1.8,0.5-2.7,0.9H506z"/>
		</g>

			<linearGradient id="SVGID_00000023994980703563286390000010877418068760419516_" gradientUnits="userSpaceOnUse" x1="544.9415" y1="125.6585" x2="517.8915" y2="152.7085" gradientTransform="matrix(1 0 0 -1 0 1300)">
			<stop  offset="7.615700e-03" style="stop-color:#645AFF"/>
			<stop  offset="0.5038" style="stop-color:#E40C5B"/>
			<stop  offset="1" style="stop-color:#FF4C3B"/>
		</linearGradient>
		<path style="fill:url(#SVGID_00000023994980703563286390000010877418068760419516_);" d="M544.1,1173.6h-25.3c-2.2,0-4-1.8-4-4
			v-17.5c0-2.2,1.8-4,4-4h25.3c2.2,0,4,1.8,4,4v17.5C548.1,1171.8,546.3,1173.6,544.1,1173.6z"/>
		<circle class="st3" cx="531.4" cy="1160.8" r="7.1"/>
		<g>
			<g>
				<path class="st10" d="M410.4,1218.6c16.3,0,29.5-13.2,29.5-29.5s-13.2-29.5-29.5-29.5s-29.5,13.2-29.5,29.5
					S394.1,1218.6,410.4,1218.6z M410.5,1215.9c14.8,0,26.7-12,26.7-26.7c0-14.8-12-26.7-26.7-26.7c-14.8,0-26.7,12-26.7,26.7
					S395.7,1215.9,410.5,1215.9z M410.4,1213.8c13.6,0,24.7-11.1,24.7-24.7s-11.1-24.7-24.7-24.7s-24.7,11.1-24.7,24.7
					C385.7,1202.8,396.8,1213.8,410.4,1213.8z M410.5,1210.8c12,0,21.7-9.7,21.7-21.7s-9.7-21.7-21.7-21.7s-21.7,9.7-21.7,21.7
					S398.4,1210.8,410.5,1210.8z M410.3,1193.1c-1.2,0-2.4,0.1-3.5,0.3l1.7-3c0.6,0,1.2-0.1,1.8-0.1c1.4,0,2.8,0.1,4.1,0.3
					l-6.8-11.8l-11.3,19.6l-1.6-2.8l12.9-22.4l0,0l0,0l15.6,27H420l-3.6-6.3C414.4,1193.4,412.4,1193.1,410.3,1193.1z M424.2,1198.6
					l-15.1-26.2h3.2l13.5,23.4L424.2,1198.6z M409.2,1185.3L403,1196c2.2-0.7,4.8-1,7.3-1c0.2,0,0.4,0,0.6,0c1.4,0,2.8,0.2,4.2,0.4
					l2.1,3.6c-2.1-0.8-4.4-1.2-6.8-1.2c-3.6,0-6.9,0.9-9.7,2.4v-0.1l-0.1,0.1h-3.2l10.3-17.8L409.2,1185.3z"/>
				<path class="st10" d="M454.8,1192.1h5.4l-2.7-7.9L454.8,1192.1z M462.3,1198.6l-1.2-3.5h-7.3l-1.2,3.5h-4.1l6.7-19h4.5l6.7,19
					H462.3z"/>
				<path class="st10" d="M471,1196.6c-1.4-1.4-2-3.2-2-5.5s0.7-4.1,2-5.5c1.4-1.4,3.1-2.1,5.3-2.1c1.8,0,3.3,0.4,4.5,1.3
					s2,2.1,2.4,3.7h-4.1c-0.5-1.2-1.4-1.8-2.9-1.8c-1.1,0-1.9,0.4-2.6,1.2c-0.6,0.8-0.9,1.9-0.9,3.3s0.3,2.5,0.9,3.3
					s1.5,1.2,2.6,1.2c1.4,0,2.4-0.6,2.9-1.9h4.1c-0.4,1.5-1.3,2.8-2.5,3.7c-1.2,0.9-2.7,1.4-4.5,1.4
					C474.1,1198.6,472.4,1197.9,471,1196.6z"/>
				<path class="st10" d="M497.1,1194.3c0.8-0.8,1.2-1.9,1.2-3.2c0-1.4-0.4-2.5-1.2-3.2c-0.4-0.4-0.8-0.7-1.3-0.9
					c-0.5-0.2-1-0.3-1.5-0.3s-1,0.1-1.5,0.3c-0.5,0.2-0.9,0.5-1.3,0.9c-0.8,0.8-1.2,1.9-1.2,3.2c0,1.4,0.4,2.5,1.2,3.3
					c0.4,0.4,0.8,0.7,1.3,0.9c0.5,0.2,1,0.3,1.5,0.3s1-0.1,1.5-0.3S496.8,1194.7,497.1,1194.3z M488.4,1196.6c-1.4-1.5-2-3.3-2-5.6
					c0-2.3,0.7-4.1,2-5.6c1.3-1.4,3-2.2,5.1-2.2s3.6,0.9,4.7,2.6v-2.3h3.8v15h-3.8v-2.5c-1.1,1.8-2.7,2.7-4.8,2.7
					C491.4,1198.8,489.8,1198.1,488.4,1196.6z"/>
				<path class="st10" d="M506.8,1198.7h3.8v-19h-3.8V1198.7z"/>
				<path class="st10" d="M525.1,1194.2c0.8-0.8,1.2-1.9,1.2-3.2c0-1.4-0.4-2.5-1.2-3.2c-0.4-0.4-0.8-0.7-1.3-0.9
					c-0.5-0.2-1-0.3-1.5-0.3s-1,0.1-1.5,0.3c-0.5,0.2-0.9,0.5-1.3,0.9c-0.8,0.8-1.2,1.9-1.2,3.2c0,1.4,0.4,2.5,1.2,3.3
					c0.4,0.4,0.8,0.7,1.3,0.9c0.5,0.2,1,0.3,1.5,0.3s1-0.1,1.5-0.3S524.8,1194.6,525.1,1194.2L525.1,1194.2z M516.5,1196.5
					c-1.4-1.5-2-3.3-2-5.6c0-2.3,0.7-4.1,2-5.6c1.3-1.4,3-2.2,5.1-2.2s3.6,0.9,4.7,2.6v-2.3h3.8v15h-3.8v-2.5
					c-1.1,1.8-2.7,2.7-4.8,2.7C519.5,1198.7,517.8,1197.9,516.5,1196.5L516.5,1196.5z"/>
			</g>
		</g>
	</g>
	<path class="st33" d="M650,228.8c-232.6,0-421.2,188.6-421.2,421.2s188.6,421.2,421.2,421.2s421.2-188.6,421.2-421.2
		S882.6,228.8,650,228.8z M650,894.3c-134.9,0-244.3-109.4-244.3-244.3S515.1,405.7,650,405.7S894.3,515.1,894.3,650
		S784.9,894.3,650,894.3z"/>
	<g>
		<g>
			<circle class="st3" cx="650" cy="650" r="166.4"/>
			<path class="st34" d="M639.1,624.5c-1.7,0-3.5,0.1-5.2,0.2c-1,0-2,0.1-3,0.1c-1.6,0.1-3.1,0.1-4.7,0.2c-1,0.1-2.1,0.1-3.1,0.2
				c-1.5,0.1-3,0.2-4.5,0.3c-1.1,0.1-2.1,0.2-3.1,0.2c-1.4,0.1-2.9,0.2-4.3,0.4c-1,0.1-2.1,0.2-3.1,0.3c-1.4,0.1-2.9,0.3-4.3,0.5
				c-1,0.1-2,0.2-2.9,0.3c-1.4,0.2-2.9,0.4-4.3,0.6c-0.9,0.1-1.8,0.2-2.7,0.4c-0.2,0-0.5,0.1-0.7,0.1v39.3c0,1.6,1,3.1,2.4,3.8
				l11.8,5.3c5.3,2.4,11.4,2.7,16.7,0.4s9.2-6.6,11-12.1l2.3-7.1c1.7-5.2,6.4-8.9,11.9-9c5.6,0,10.3,3.3,12,8.6l2.3,7
				c1.8,5.5,5.7,10.2,11,12.6c5.3,2.4,11.1,2.3,16.4-0.1l12.3-5.6c1.5-0.7,2.4-2.2,2.4-3.8v-39.3c-7.3-1.1-15-2-22.9-2.6
				c-1.3-0.1-2.5-0.2-3.8-0.3c-1.4-0.1-2.9-0.2-4.4-0.3c-1.4-0.1-2.7-0.1-4.1-0.2c-1.4-0.1-2.8-0.1-4.2-0.2
				c-1.6-0.1-3.3-0.1-4.9-0.2c-1.2,0-2.3-0.1-3.5-0.1c-2.8-0.1-5.7-0.1-8.5-0.1c-2.6,0-5.2,0-7.8,0.1
				C640.7,624.5,639.9,624.5,639.1,624.5z"/>
		</g>
		<path class="st6" d="M682.7,692.7c-4.6,0-9.3-1-13.6-2.8c-8.8-3.9-15.6-11.3-18.5-20.4l-1.1-3.5l-1.1,3.5
			c-3,9.1-9.7,16.6-18.5,20.4c-8.8,3.9-18.9,3.8-27.6-0.2l-12.3-5.6c-6.4-2.9-10.6-9.3-10.6-16.4v-45.2c0-3.4,2.4-6.3,5.8-6.8l0,0
			c19.4-3.4,41.7-5.1,64.4-5.1c7.4,0,14.8,0.2,22,0.6c7.7,0.4,13.5,7.1,12.8,14.8l0,0c-11.3-1-23-1.5-34.9-1.5
			c-19.7,0-39,1.4-56.3,4v39.4c0,1.6,1,3.1,2.4,3.8l11.8,5.3c5.3,2.4,11.4,2.7,16.7,0.4s9.2-6.6,11-12.1l2.3-7.1
			c1.7-5.2,6.4-8.9,11.9-9c5.6,0,10.3,3.3,12,8.6l2.3,7c1.8,5.5,5.7,10.2,11,12.6c5.3,2.4,11.1,2.3,16.4-0.1l12.3-5.6
			c1.5-0.7,2.4-2.2,2.4-3.8v-97.5h13.9v97.5c0,7.1-4.1,13.5-10.6,16.4l-12.3,5.6C692.2,691.7,687.4,692.7,682.7,692.7z"/>
	</g>
	<g>
		<path class="st6" d="M423.9,704.5l-195,34.4c-11.5,2-18.8,13.4-15.9,24.8c20.6,79.9,62.5,151.1,119.2,207.5
			c8.3,8.2,21.9,7.6,29.4-1.4L489,817.9c6.3-7.6,6.2-18.6-0.3-26.1c-18.7-21.3-33.2-46.4-42.3-74
			C443.3,708.5,433.7,702.7,423.9,704.5z"/>
		<path class="st6" d="M853.6,717.9c-9.1,27.6-23.6,52.6-42.3,74c-6.5,7.4-6.7,18.5-0.3,26.1l127.3,151.8c7.5,8.9,21.1,9.6,29.4,1.4
			c56.8-56.3,98.7-127.6,119.2-207.5c2.9-11.3-4.4-22.7-15.9-24.8l-195-34.4C866.3,702.7,856.7,708.5,853.6,717.9z"/>
		<path class="st6" d="M419.1,674.8c9.7-1.7,16.7-10.3,16.5-20.2c0-1.3,0-2.6,0-3.9c0-28,5.4-54.8,15.2-79.3
			c3.7-9.2,0-19.7-8.6-24.6l-171.5-99c-10.1-5.8-23-1.9-28,8.6c-28.2,58.9-43.9,124.8-43.9,194.4c0,13.7,0.6,27.2,1.8,40.6
			c1,11.7,11.8,20,23.4,18L419.1,674.8z"/>
		<path class="st6" d="M857.8,546.7c-8.6,5-12.3,15.4-8.6,24.6c9.8,24.5,15.2,51.3,15.2,79.3c0,1.3,0,2.6,0,3.9
			c-0.2,9.9,6.8,18.5,16.5,20.2l195.1,34.4c11.6,2,22.4-6.3,23.4-18c1.2-13.4,1.8-26.9,1.8-40.6c0-69.6-15.8-135.5-43.9-194.4
			c-5-10.5-17.9-14.4-28-8.6L857.8,546.7z"/>
		<path class="st6" d="M618,862.7c-29.1-4.4-56.3-14.6-80.4-29.4c-8.5-5.2-19.5-3.5-25.9,4.1L384.5,989.1
			c-7.5,8.9-5.8,22.3,3.7,29.1c64.5,46,141.6,75.5,225.1,82.2c11.7,0.9,21.7-8.2,21.7-19.9v-198C635,872.6,627.8,864.2,618,862.7z"
			/>
		<path class="st6" d="M585.3,427.7c3.4,9.3,13,14.7,22.8,12.8c13.6-2.7,27.6-4.1,42-4.1s28.4,1.4,42,4.1
			c9.7,1.9,19.4-3.5,22.8-12.8l67.8-186.2c4-11-2.2-23.1-13.5-26.1c-37.9-10.3-77.8-15.9-119-15.9s-81.1,5.5-119,15.9
			c-11.3,3.1-17.5,15.2-13.5,26.1L585.3,427.7z"/>
		<path class="st6" d="M483.1,516.1c17.7-22,39.7-40.3,64.7-53.9c8.7-4.7,12.7-15.1,9.3-24.4l-67.7-186.1c-4-11-16.5-16.2-27.2-11.3
			c-73.7,33.8-136.7,86.9-182.6,152.8c-6.7,9.6-3.7,22.9,6.4,28.7L457.6,521C466.1,525.9,476.9,523.8,483.1,516.1z"/>
		<path class="st6" d="M752.2,462.2c25,13.6,46.9,32,64.7,53.9c6.2,7.7,17,9.7,25.6,4.8l171.6-99.1c10.1-5.8,13.1-19.1,6.4-28.7
			c-45.9-65.9-108.9-119-182.6-152.8c-10.6-4.9-23.2,0.3-27.2,11.3L743,437.8C739.6,447.1,743.5,457.5,752.2,462.2z"/>
		<path class="st6" d="M762.4,833.3c-24,14.8-51.2,25-80.4,29.4c-9.8,1.5-17,9.9-17,19.8v198c0,11.7,10,20.9,21.7,19.9
			c83.5-6.7,160.7-36.2,225.1-82.2c9.5-6.8,11.1-20.2,3.7-29.1L788.2,837.4C781.8,829.8,770.8,828.1,762.4,833.3z"/>
	</g>
	<g>
		<g>
			<defs>
				<circle id="SVGID_00000080885796982322418920000012366253593714984340_" cx="650" cy="650" r="244.3"/>
			</defs>
			<clipPath id="SVGID_00000055707994140648766660000018183617665220418972_">
				<use xlink:href="#SVGID_00000080885796982322418920000012366253593714984340_"  style="overflow:visible;"/>
			</clipPath>
			<g style="clip-path:url(#SVGID_00000055707994140648766660000018183617665220418972_);">

					<linearGradient id="SVGID_00000005245773158946793590000006728720322391088039_" gradientUnits="userSpaceOnUse" x1="200.1857" y1="460.0135" x2="1057.0693" y2="460.0135" gradientTransform="matrix(1 0 0 -1 0 1300)">
					<stop  offset="0" style="stop-color:#FFFFFF"/>
					<stop  offset="1" style="stop-color:#000000"/>
				</linearGradient>
				<path style="fill:url(#SVGID_00000005245773158946793590000006728720322391088039_);" d="M423.9,703.9l-195,34.4
					c-11.5,2-18.8,13.4-15.9,24.8c20.6,79.9,62.5,151.1,119.2,207.5c8.3,8.2,21.9,7.6,29.4-1.4L489,817.3c6.3-7.6,6.2-18.6-0.3-26.1
					c-18.7-21.3-33.2-46.4-42.3-74C443.3,707.9,433.7,702.2,423.9,703.9z"/>

					<linearGradient id="SVGID_00000124863648428011811580000006230858109557553798_" gradientUnits="userSpaceOnUse" x1="225.0494" y1="460.0311" x2="1081.9331" y2="460.0311" gradientTransform="matrix(1 0 0 -1 0 1300)">
					<stop  offset="0" style="stop-color:#FFFFFF"/>
					<stop  offset="1" style="stop-color:#000000"/>
				</linearGradient>
				<path style="fill:url(#SVGID_00000124863648428011811580000006230858109557553798_);" d="M853.6,717.3
					c-9.1,27.6-23.6,52.6-42.3,74c-6.5,7.4-6.7,18.5-0.3,26.1l127.3,151.8c7.5,8.9,21.1,9.6,29.4,1.4
					c56.8-56.3,98.7-127.6,119.2-207.5c2.9-11.3-4.4-22.7-15.9-24.8l-195-34.4C866.3,702.2,856.7,707.9,853.6,717.3z"/>

					<linearGradient id="SVGID_00000148622217546219343740000004750148261135200414_" gradientUnits="userSpaceOnUse" x1="195.5265" y1="723.0963" x2="1066.8805" y2="723.0963" gradientTransform="matrix(1 0 0 -1 0 1300)">
					<stop  offset="0" style="stop-color:#FFFFFF"/>
					<stop  offset="1" style="stop-color:#000000"/>
				</linearGradient>
				<path style="fill:url(#SVGID_00000148622217546219343740000004750148261135200414_);" d="M419.1,674.3
					c9.7-1.7,16.7-10.3,16.5-20.2c0-1.3,0-2.6,0-3.9c0-28,5.4-54.8,15.2-79.3c3.7-9.2,0-19.7-8.6-24.6l-171.5-99
					c-10.1-5.8-23-1.9-28,8.6c-28.2,58.9-43.9,124.8-43.9,194.4c0,13.7,0.6,27.2,1.8,40.6c1,11.7,11.8,20,23.4,18L419.1,674.3z"/>

					<linearGradient id="SVGID_00000144305863403252468730000013775042129696022457_" gradientUnits="userSpaceOnUse" x1="214.9363" y1="723.4963" x2="1086.2903" y2="723.4963" gradientTransform="matrix(1 0 0 -1 0 1300)">
					<stop  offset="0" style="stop-color:#FFFFFF"/>
					<stop  offset="1" style="stop-color:#000000"/>
				</linearGradient>
				<path style="fill:url(#SVGID_00000144305863403252468730000013775042129696022457_);" d="M857.8,546.1
					c-8.6,5-12.3,15.4-8.6,24.6c9.8,24.5,15.2,51.3,15.2,79.3c0,1.3,0,2.6,0,3.9c-0.2,9.9,6.8,18.5,16.5,20.2l195.1,34.4
					c11.6,2,22.4-6.3,23.4-18c1.2-13.4,1.8-26.9,1.8-40.6c0-69.6-15.8-135.5-43.9-194.4c-5-10.5-17.9-14.4-28-8.6L857.8,546.1z"/>

					<linearGradient id="SVGID_00000060005024629410060350000013827163892455941815_" gradientUnits="userSpaceOnUse" x1="210.2525" y1="335.2168" x2="1070.7803" y2="335.2168" gradientTransform="matrix(1 0 0 -1 0 1300)">
					<stop  offset="0" style="stop-color:#FFFFFF"/>
					<stop  offset="1" style="stop-color:#000000"/>
				</linearGradient>
				<path style="fill:url(#SVGID_00000060005024629410060350000013827163892455941815_);" d="M618,862.1
					c-29.1-4.4-56.3-14.6-80.4-29.4c-8.5-5.2-19.5-3.5-25.9,4.1L384.5,988.5c-7.5,8.9-5.8,22.3,3.7,29.1
					c64.5,46,141.6,75.5,225.1,82.2c11.7,0.9,21.7-8.2,21.7-19.9v-198C635,872,627.8,863.6,618,862.1z"/>

					<linearGradient id="SVGID_00000080208795488305390500000015354955978964308609_" gradientUnits="userSpaceOnUse" x1="215.0998" y1="980.4106" x2="1067.1205" y2="980.4106" gradientTransform="matrix(1 0 0 -1 0 1300)">
					<stop  offset="0" style="stop-color:#FFFFFF"/>
					<stop  offset="1" style="stop-color:#000000"/>
				</linearGradient>
				<path style="fill:url(#SVGID_00000080208795488305390500000015354955978964308609_);" d="M585.3,427.1
					c3.4,9.3,13,14.7,22.8,12.8c13.6-2.7,27.6-4.1,42-4.1s28.4,1.4,42,4.1c9.7,1.9,19.4-3.5,22.8-12.8l67.8-186.2
					c4-11-2.2-23.1-13.5-26.1c-37.9-10.3-77.8-15.9-119-15.9s-81.1,5.5-119,15.9c-11.3,3.1-17.5,15.2-13.5,26.1L585.3,427.1z"/>

					<linearGradient id="SVGID_00000179616796305598427940000002205033634674677424_" gradientUnits="userSpaceOnUse" x1="207.0925" y1="919.4415" x2="1057.5028" y2="919.4415" gradientTransform="matrix(1 0 0 -1 0 1300)">
					<stop  offset="0" style="stop-color:#FFFFFF"/>
					<stop  offset="1" style="stop-color:#000000"/>
				</linearGradient>
				<path style="fill:url(#SVGID_00000179616796305598427940000002205033634674677424_);" d="M483.1,515.6
					c17.7-22,39.7-40.3,64.7-53.9c8.7-4.7,12.7-15.1,9.3-24.4l-67.7-186.1c-4-11-16.5-16.2-27.2-11.3
					c-73.7,33.8-136.7,86.9-182.6,152.8c-6.7,9.6-3.7,22.9,6.4,28.7l171.6,99.1C466.1,525.3,476.9,523.2,483.1,515.6z"/>

					<linearGradient id="SVGID_00000127746167586727008070000011662600786881793441_" gradientUnits="userSpaceOnUse" x1="224.751" y1="919.4917" x2="1075.1614" y2="919.4917" gradientTransform="matrix(1 0 0 -1 0 1300)">
					<stop  offset="0" style="stop-color:#FFFFFF"/>
					<stop  offset="1" style="stop-color:#000000"/>
				</linearGradient>
				<path style="fill:url(#SVGID_00000127746167586727008070000011662600786881793441_);" d="M752.2,461.7
					c25,13.6,46.9,32,64.7,53.9c6.2,7.7,17,9.7,25.6,4.8l171.6-99.1c10.1-5.8,13.1-19.1,6.4-28.7c-45.9-65.9-108.9-119-182.6-152.8
					c-10.6-4.9-23.2,0.3-27.2,11.3L743,437.2C739.6,446.6,743.5,456.9,752.2,461.7z"/>

					<linearGradient id="SVGID_00000147182556568660542110000000667388639495117237_" gradientUnits="userSpaceOnUse" x1="211.2625" y1="335.2073" x2="1071.7903" y2="335.2073" gradientTransform="matrix(1 0 0 -1 0 1300)">
					<stop  offset="0" style="stop-color:#FFFFFF"/>
					<stop  offset="1" style="stop-color:#000000"/>
				</linearGradient>
				<path style="fill:url(#SVGID_00000147182556568660542110000000667388639495117237_);" d="M762.4,832.7
					c-24,14.8-51.2,25-80.4,29.4c-9.8,1.5-17,9.9-17,19.8v198c0,11.7,10,20.9,21.7,19.9c83.5-6.7,160.7-36.2,225.1-82.2
					c9.5-6.8,11.1-20.2,3.7-29.1L788.2,836.9C781.8,829.2,770.8,827.5,762.4,832.7z"/>
			</g>
		</g>
	</g>
	<g>
		<circle class="st45" cx="650" cy="353.6" r="36.2"/>
		<g>
			<path class="st3" d="M653.9,357L653.9,357c-0.2,0-1.5,0.1-4.4,0.1c-2.3,0-3.9-0.1-4.5-0.1l0,0c-8.9-0.4-15.5-1.9-15.5-3.8
				c0-1.8,6.6-3.4,15.5-3.8v6c0.6,0,2.2,0.1,4.5,0.1c2.7,0,4.1-0.1,4.4-0.1v-6c8.8,0.4,15.4,1.9,15.4,3.8S662.7,356.6,653.9,357
				 M653.9,348.8v-5.4h12.3v-8.2h-33.5v8.2H645v5.4c-10,0.5-17.5,2.4-17.5,4.8s7.5,4.4,17.5,4.8v17.3h8.9v-17.3
				c10-0.5,17.5-2.4,17.5-4.8C671.4,351.3,663.9,349.3,653.9,348.8"/>
		</g>
	</g>
	<g>
		<circle class="st45" cx="460.3" cy="424.3" r="36.2"/>
		<g>
			<path class="st3" d="M464.2,427.7L464.2,427.7c-0.2,0-1.5,0.1-4.4,0.1c-2.3,0-3.9-0.1-4.5-0.1l0,0c-8.9-0.4-15.5-1.9-15.5-3.8
				c0-1.8,6.6-3.4,15.5-3.8v6c0.6,0,2.2,0.1,4.5,0.1c2.7,0,4.1-0.1,4.4-0.1v-6c8.8,0.4,15.4,1.9,15.4,3.8
				C479.6,425.7,473,427.3,464.2,427.7 M464.2,419.5v-5.4h12.3v-8.2H443v8.2h12.3v5.4c-10,0.5-17.5,2.4-17.5,4.8s7.5,4.4,17.5,4.8
				v17.3h8.9v-17.3c10-0.5,17.5-2.4,17.5-4.8C481.7,422,474.2,420,464.2,419.5"/>
		</g>
	</g>
	<g>
		<circle class="st45" cx="359.4" cy="599.2" r="36.2"/>
		<g>
			<path class="st3" d="M363.2,602.5L363.2,602.5c-0.2,0-1.5,0.1-4.4,0.1c-2.3,0-3.9-0.1-4.5-0.1l0,0c-8.9-0.4-15.5-1.9-15.5-3.8
				c0-1.8,6.6-3.4,15.5-3.8v6c0.6,0,2.2,0.1,4.5,0.1c2.7,0,4.1-0.1,4.4-0.1v-6c8.8,0.4,15.4,1.9,15.4,3.8S372,602.1,363.2,602.5
				 M363.2,594.3V589h12.3v-8.2H342v8.2h12.3v5.4c-10,0.5-17.5,2.4-17.5,4.8s7.5,4.4,17.5,4.8v17.3h8.9V604
				c10-0.5,17.5-2.4,17.5-4.8C380.7,596.8,373.2,594.8,363.2,594.3"/>
		</g>
	</g>
	<g>
		<circle class="st45" cx="548.9" cy="927.4" r="36.2"/>
		<g>
			<path class="st3" d="M552.8,930.7L552.8,930.7c-0.2,0-1.5,0.1-4.4,0.1c-2.3,0-3.9-0.1-4.5-0.1l0,0c-8.9-0.4-15.5-1.9-15.5-3.8
				c0-1.8,6.6-3.4,15.5-3.8v6c0.6,0,2.2,0.1,4.5,0.1c2.7,0,4.1-0.1,4.4-0.1v-6c8.8,0.4,15.4,1.9,15.4,3.8S561.6,930.3,552.8,930.7
				 M552.8,922.6v-5.4h12.3V909h-33.5v8.2h12.3v5.4c-10,0.5-17.5,2.4-17.5,4.8s7.5,4.4,17.5,4.8v17.3h8.9v-17.3
				c10-0.5,17.5-2.4,17.5-4.8C570.3,925,562.8,923,552.8,922.6"/>
		</g>
	</g>
	<g>
		<circle class="st45" cx="750.9" cy="927.4" r="36.2"/>
		<g>
			<path class="st3" d="M754.8,930.7L754.8,930.7c-0.2,0-1.5,0.1-4.4,0.1c-2.3,0-3.9-0.1-4.5-0.1l0,0c-8.9-0.4-15.5-1.9-15.5-3.8
				c0-1.8,6.6-3.4,15.5-3.8v6c0.6,0,2.2,0.1,4.5,0.1c2.7,0,4.1-0.1,4.4-0.1v-6c8.8,0.4,15.4,1.9,15.4,3.8S763.6,930.3,754.8,930.7
				 M754.8,922.6v-5.4h12.3V909h-33.5v8.2h12.3v5.4c-10,0.5-17.5,2.4-17.5,4.8s7.5,4.4,17.5,4.8v17.3h8.9v-17.3
				c10-0.5,17.5-2.4,17.5-4.8C772.3,925,764.8,923,754.8,922.6"/>
		</g>
	</g>
	<g>
		<circle class="st45" cx="905.6" cy="798" r="36.2"/>
		<g>
			<path class="st3" d="M909.4,801.3L909.4,801.3c-0.2,0-1.5,0.1-4.4,0.1c-2.3,0-3.9-0.1-4.5-0.1l0,0c-8.9-0.4-15.5-1.9-15.5-3.8
				c0-1.8,6.6-3.4,15.5-3.8v6c0.6,0,2.2,0.1,4.5,0.1c2.7,0,4.1-0.1,4.4-0.1v-6c8.8,0.4,15.4,1.9,15.4,3.8
				C924.9,799.4,918.3,800.9,909.4,801.3 M909.4,793.1v-5.4h12.3v-8.2h-33.5v8.2h12.3v5.4c-10,0.5-17.5,2.4-17.5,4.8
				s7.5,4.4,17.5,4.8V820h8.9v-17.3c10-0.5,17.5-2.4,17.5-4.8C927,795.6,919.4,793.6,909.4,793.1"/>
		</g>
	</g>
	<g>
		<circle class="st45" cx="940.6" cy="599.2" r="36.2"/>
		<g>
			<path class="st3" d="M944.5,602.5L944.5,602.5c-0.2,0-1.5,0.1-4.4,0.1c-2.3,0-3.9-0.1-4.5-0.1l0,0c-8.9-0.4-15.5-1.9-15.5-3.8
				c0-1.8,6.6-3.4,15.5-3.8v6c0.6,0,2.2,0.1,4.5,0.1c2.7,0,4.1-0.1,4.4-0.1v-6c8.8,0.4,15.4,1.9,15.4,3.8S953.3,602.1,944.5,602.5
				 M944.5,594.3V589h12.3v-8.2h-33.5v8.2h12.3v5.4c-10,0.5-17.5,2.4-17.5,4.8s7.5,4.4,17.5,4.8v17.3h8.9V604
				c10-0.5,17.5-2.4,17.5-4.8C962,596.8,954.5,594.8,944.5,594.3"/>
		</g>
	</g>
	<g>
		<circle class="st45" cx="839.7" cy="424.3" r="36.2"/>
		<g>
			<path class="st3" d="M843.6,427.7L843.6,427.7c-0.2,0-1.5,0.1-4.4,0.1c-2.3,0-3.9-0.1-4.5-0.1l0,0c-8.9-0.4-15.5-1.9-15.5-3.8
				c0-1.8,6.6-3.4,15.5-3.8v6c0.6,0,2.2,0.1,4.5,0.1c2.7,0,4.1-0.1,4.4-0.1v-6c8.8,0.4,15.4,1.9,15.4,3.8
				C859,425.7,852.4,427.3,843.6,427.7 M843.6,419.5v-5.4h12.3v-8.2h-33.5v8.2h12.3v5.4c-10,0.5-17.5,2.4-17.5,4.8s7.5,4.4,17.5,4.8
				v17.3h8.9v-17.3c10-0.5,17.5-2.4,17.5-4.8C861.1,422,853.6,420,843.6,419.5"/>
		</g>
	</g>
	<g>
		<g>
			<g>
				<g>
					<defs>
						<path id="SVGID_00000152965464609960801500000001369715657117596569_" d="M721.7,160.6H574.4c-8.3,0-15-6.7-15-15V49.1
							c0-8.3,6.7-15,15-15h147.2c8.3,0,15,6.7,15,15v96.5C736.7,153.9,729.9,160.6,721.7,160.6z"/>
					</defs>
					<clipPath id="SVGID_00000007405483039583756490000012259332341152845196_">
						<use xlink:href="#SVGID_00000152965464609960801500000001369715657117596569_"  style="overflow:visible;"/>
					</clipPath>
					<g style="clip-path:url(#SVGID_00000007405483039583756490000012259332341152845196_);">

							<image style="overflow:visible;enable-background:new    ;" width="193" height="168" xlink:href="6D59F67D64464CE0.png"  transform="matrix(1 0 0 1 551.72 -23.59)">
						</image>
					</g>
				</g>
			</g>

				<linearGradient id="SVGID_00000122701490008171853470000000895815933768305544_" gradientUnits="userSpaceOnUse" x1="719.55" y1="1274.175" x2="576.475" y2="1131.1" gradientTransform="matrix(1 0 0 -1 0 1300)">
				<stop  offset="0" style="stop-color:#00FFA2"/>
				<stop  offset="1" style="stop-color:#DB1FFF"/>
			</linearGradient>
			<path style="opacity:0.9;fill:url(#SVGID_00000122701490008171853470000000895815933768305544_);enable-background:new    ;" d="
				M721.7,160.6H574.4c-8.3,0-15-6.7-15-15V49.1c0-8.3,6.7-15,15-15h147.2c8.3,0,15,6.7,15,15v96.5
				C736.7,153.9,729.9,160.6,721.7,160.6z"/>
			<g>
				<path class="st3" d="M624,98.6h5.6c0.8,0,1.4,0.6,1.4,1.4s-0.6,1.4-1.4,1.4h-6.8c-0.1,0-0.2,0-0.3,0.1l-2,1.8
					c-0.3,0.3-0.1,0.8,0.3,0.8h8.5l0,0l0,0c0.1,0,0.2,0,0.3,0c2.3,0,4.1-1.8,4.1-4.1c0-2.2-1.6-3.9-3.7-4.1l0,0l0,0h-6.1
					c-0.8,0-1.4-0.6-1.4-1.4s0.6-1.4,1.4-1.4h6.8c0.1,0,0.2,0,0.3-0.1l1.9-1.8c0.3-0.3,0.1-0.8-0.3-0.8H624l0,0l0,0h-0.1
					c-2.3,0-4.1,1.8-4.1,4.1S621.6,98.6,624,98.6C623.9,98.6,623.9,98.6,624,98.6L624,98.6L624,98.6z"/>
				<path class="st3" d="M656.7,90.4c-0.2,0-0.4,0.2-0.4,0.4v12.8c0,0.2,0.2,0.4,0.4,0.4H667c0.1,0,0.2-0.1,0.3-0.1l1.3-1.4
					c0.3-0.3,0.1-0.8-0.3-0.8h-9c-0.2,0-0.4-0.2-0.4-0.4V90.9c0-0.2-0.2-0.4-0.4-0.4L656.7,90.4L656.7,90.4L656.7,90.4z"/>
				<path class="st10" d="M640.2,90.4L640.2,90.4L640.2,90.4c-1.3,0.1-2.4,1.1-2.4,2.4l0,0l0,0l0,0v8.6l0,0l0,0v0.1
					c0,1.4,1.1,2.5,2.4,2.5l0,0l0,0l0,0l0,0h9.3l0,0l0,0l0,0l0,0c1.4-0.1,2.4-1.2,2.4-2.5v-0.1l0,0l0,0v-8.6l0,0l0,0
					c-0.1-1.3-1.1-2.4-2.4-2.4l0,0l0,0H640.2z M642,92.9L642,92.9L642,92.9L642,92.9c-0.8,0-1.5,0.7-1.5,1.5l0,0l0,0v5.4l0,0l0,0
					c0,0,0,0,0,0.1c0,0.9,0.7,1.6,1.5,1.6l0,0l0,0l0,0l0,0h5.9l0,0l0,0l0,0l0,0c0.8,0,1.5-0.7,1.5-1.6c0,0,0,0,0-0.1l0,0l0,0l0,0
					l0,0v-5.4l0,0l0,0c0-0.8-0.7-1.5-1.5-1.5l0,0l0,0l0,0l0,0H642z"/>
				<path class="st10" d="M683.6,103.7c0,0.2,0.2,0.4,0.4,0.4h1.7c0.2,0,0.4-0.2,0.4-0.4V93.1l0,0l0,0l0,0l0,0V93
					c0-1.4-1.1-2.5-2.4-2.5l0,0l0,0h-9l0,0l0,0h-0.1c-1.4,0-2.5,1.1-2.5,2.5v0.1l0,0l0,0v10.6c0,0.2,0.2,0.4,0.4,0.4h1.7
					c0.2,0,0.4-0.2,0.4-0.4v-4.4c0-0.2,0.2-0.4,0.4-0.4h7.9c0.2,0,0.4,0.2,0.4,0.4v4.4H683.6z M674.8,96.4v-2.2
					c0-0.9,0.7-1.6,1.5-1.6h5.7c0.8,0,1.5,0.7,1.5,1.6v2.2c0,0.2-0.2,0.4-0.4,0.4h-7.9C675,96.9,674.8,96.7,674.8,96.4z"/>
				<path class="st10" d="M720.5,104.2c-0.2,0-0.4-0.2-0.4-0.4v-4.4c0-0.2-0.2-0.4-0.4-0.4h-8c-0.2,0-0.4,0.2-0.4,0.4v4.4
					c0,0.2-0.2,0.4-0.4,0.4H709c-0.2,0-0.4-0.2-0.4-0.4V93.1l0,0l0,0l0,0l0,0V93c0-1.4,1.1-2.5,2.5-2.5h0.1l0,0l0,0h9.1l0,0l0,0
					c1.4,0.1,2.4,1.2,2.4,2.5v0.1l0,0l0,0l0,0v10.6c0,0.2-0.2,0.4-0.4,0.4L720.5,104.2L720.5,104.2z M711.2,94.2v2.2
					c0,0.2,0.2,0.4,0.4,0.4h8c0.2,0,0.4-0.2,0.4-0.4v-2.2c0-0.9-0.7-1.6-1.5-1.6h-5.8C711.9,92.7,711.2,93.4,711.2,94.2z"/>
				<path class="st3" d="M692.8,90.4c0.1,0,0.3,0.1,0.3,0.2l7.8,9.3c0.3,0.3,0.8,0.1,0.8-0.3v-8.8c0-0.2,0.2-0.4,0.4-0.4h1.7
					c0.2,0,0.4,0.2,0.4,0.4v12.8c0,0.2-0.2,0.4-0.4,0.4h-2.2l0,0l0,0l-8-9.3c-0.3-0.3-0.8-0.1-0.8,0.3v8.6c0,0.2-0.2,0.4-0.4,0.4
					h-1.8c-0.2,0-0.4-0.2-0.4-0.4V90.9c0-0.2,0.2-0.4,0.4-0.4L692.8,90.4L692.8,90.4z"/>
				<path class="st3" d="M579.2,104.7c0.2-0.2,0.5-0.3,0.8-0.3h28.4c0.5,0,0.8,0.6,0.4,1l-5.6,5.6c-0.2,0.2-0.5,0.3-0.8,0.3H574
					c-0.5,0-0.8-0.6-0.4-1L579.2,104.7z"/>
				<path class="st3" d="M579.2,83.7c0.2-0.2,0.5-0.3,0.8-0.3h28.4c0.5,0,0.8,0.6,0.4,1l-5.6,5.6c-0.2,0.2-0.5,0.3-0.8,0.3H574
					c-0.5,0-0.8-0.6-0.4-1L579.2,83.7z"/>
				<path class="st3" d="M603.2,94.1c-0.2-0.2-0.5-0.3-0.8-0.3H574c-0.5,0-0.8,0.6-0.4,1l5.6,5.6c0.2,0.2,0.5,0.3,0.8,0.3h28.4
					c0.5,0,0.8-0.6,0.4-1L603.2,94.1z"/>
			</g>
			<path class="st6" d="M698.5,34.1l-2.3-9.8c-1.7-7.3-9-11.8-16.3-10.1l-81,19c-0.9,0.2-1.8,0.5-2.7,0.9H698.5z"/>
		</g>

			<linearGradient id="SVGID_00000119828756440741100860000016915422432077587100_" gradientUnits="userSpaceOnUse" x1="737.475" y1="1244.475" x2="710.425" y2="1217.425" gradientTransform="matrix(1 0 0 -1 0 1300)">
			<stop  offset="0" style="stop-color:#00FFA2"/>
			<stop  offset="1" style="stop-color:#DB1FFF"/>
		</linearGradient>
		<path style="fill:url(#SVGID_00000119828756440741100860000016915422432077587100_);" d="M736.6,81.8h-25.3c-2.2,0-4-1.8-4-4V60.3
			c0-2.2,1.8-4,4-4h25.3c2.2,0,4,1.8,4,4v17.5C740.6,80,738.8,81.8,736.6,81.8z"/>
		<circle class="st3" cx="723.9" cy="69" r="7.1"/>
	</g>
	<g>
		<circle class="st49" cx="650" cy="259.5" r="36.2"/>
		<path class="st3" d="M643.2,284.7c0,0.9-0.7,1.3-1.5,1.1c-11-3.5-18.9-13.8-18.9-25.9s7.9-22.4,18.9-25.9c0.8-0.3,1.5,0.2,1.5,1.1
			v2.1c0,0.6-0.4,1.2-1,1.4c-8.7,3.2-14.9,11.5-14.9,21.3s6.2,18.1,14.9,21.3c0.5,0.2,1,0.9,1,1.4V284.7z"/>
		<path class="st3" d="M652.3,276.9c0,0.6-0.5,1.1-1.1,1.1h-2.3c-0.6,0-1.1-0.5-1.1-1.1v-3.6c-4.9-0.7-7.4-3.4-8-7.2
			c-0.1-0.6,0.4-1.2,1.1-1.2h2.6c0.5,0,1,0.4,1.1,0.9c0.5,2.2,1.8,4,5.7,4c2.9,0,5-1.6,5-4.1s-1.2-3.4-5.5-4.1
			c-6.3-0.9-9.3-2.8-9.3-7.7c0-3.8,2.9-6.8,7.4-7.5v-3.5c0-0.6,0.5-1.1,1.1-1.1h2.3c0.6,0,1.1,0.5,1.1,1.1v3.6
			c3.7,0.7,6,2.7,6.7,6.2c0.1,0.7-0.4,1.3-1,1.3h-2.4c-0.5,0-0.9-0.3-1.1-0.8c-0.6-2.2-2.2-3.1-4.9-3.1c-3,0-4.6,1.4-4.6,3.5
			s0.9,3.2,5.5,3.9c6.2,0.9,9.4,2.6,9.4,7.9c0,4-3,7.3-7.7,8V276.9L652.3,276.9L652.3,276.9z"/>
		<path class="st3" d="M658.3,285.8c-0.8,0.3-1.5-0.2-1.5-1.1v-2.1c0-0.6,0.4-1.2,1-1.4c8.7-3.2,14.9-11.5,14.9-21.3
			c0-9.8-6.2-18.1-14.9-21.3c-0.5-0.2-1-0.9-1-1.4v-2.1c0-0.9,0.7-1.4,1.5-1.1c11,3.5,18.9,13.8,18.9,25.9S669.2,282.3,658.3,285.8z
			"/>
	</g>
	<g>
		<circle class="st49" cx="398.7" cy="350.9" r="36.2"/>
		<path class="st3" d="M391.9,376.1c0,0.9-0.7,1.3-1.5,1.1c-11-3.5-18.9-13.8-18.9-25.9s7.9-22.4,18.9-25.9c0.8-0.3,1.5,0.2,1.5,1.1
			v2.1c0,0.6-0.4,1.2-1,1.4c-8.7,3.2-14.9,11.5-14.9,21.3s6.2,18.1,14.9,21.3c0.5,0.2,1,0.9,1,1.4V376.1z"/>
		<path class="st3" d="M401,368.3c0,0.6-0.5,1.1-1.1,1.1h-2.3c-0.6,0-1.1-0.5-1.1-1.1v-3.6c-4.9-0.7-7.4-3.4-8-7.2
			c-0.1-0.6,0.4-1.2,1.1-1.2h2.6c0.5,0,1,0.4,1.1,0.9c0.5,2.2,1.8,4,5.7,4c2.9,0,5-1.6,5-4.1c0-2.4-1.2-3.4-5.5-4.1
			c-6.3-0.9-9.3-2.8-9.3-7.7c0-3.8,2.9-6.8,7.4-7.5v-3.5c0-0.6,0.5-1.1,1.1-1.1h2.3c0.6,0,1.1,0.5,1.1,1.1v3.6
			c3.7,0.7,6,2.7,6.7,6.2c0.1,0.7-0.4,1.3-1,1.3h-2.4c-0.5,0-0.9-0.3-1.1-0.8c-0.6-2.2-2.2-3.1-4.9-3.1c-3,0-4.6,1.4-4.6,3.5
			s0.9,3.2,5.5,3.9c6.2,0.9,9.4,2.6,9.4,7.9c0,4-3,7.3-7.7,8L401,368.3L401,368.3L401,368.3z"/>
		<path class="st3" d="M407,377.2c-0.8,0.3-1.5-0.2-1.5-1.1V374c0-0.6,0.4-1.2,1-1.4c8.7-3.2,14.9-11.5,14.9-21.3
			s-6.2-18.1-14.9-21.3c-0.5-0.2-1-0.9-1-1.4v-2.1c0-0.9,0.7-1.4,1.5-1.1c11,3.5,18.9,13.8,18.9,25.9
			C425.9,363.5,418,373.7,407,377.2z"/>
	</g>
	<g>
		<circle class="st49" cx="265" cy="582.5" r="36.2"/>
		<path class="st3" d="M258.2,607.7c0,0.9-0.7,1.3-1.5,1.1c-11-3.5-18.9-13.8-18.9-25.9c0-12.1,7.9-22.4,18.9-25.9
			c0.8-0.3,1.5,0.2,1.5,1.1v2.1c0,0.6-0.4,1.2-1,1.4c-8.7,3.2-14.9,11.5-14.9,21.3s6.2,18.1,14.9,21.3c0.5,0.2,1,0.9,1,1.4V607.7z"
			/>
		<path class="st3" d="M267.3,599.9c0,0.6-0.5,1.1-1.1,1.1h-2.3c-0.6,0-1.1-0.5-1.1-1.1v-3.6c-4.9-0.7-7.4-3.4-8-7.2
			c-0.1-0.6,0.4-1.2,1.1-1.2h2.6c0.5,0,1,0.4,1.1,0.9c0.5,2.2,1.8,4,5.7,4c2.9,0,5-1.6,5-4.1c0-2.4-1.2-3.4-5.5-4.1
			c-6.3-0.9-9.3-2.8-9.3-7.7c0-3.8,2.9-6.8,7.4-7.5v-3.5c0-0.6,0.5-1.1,1.1-1.1h2.3c0.6,0,1.1,0.5,1.1,1.1v3.6
			c3.7,0.7,6,2.7,6.7,6.2c0.1,0.7-0.4,1.3-1,1.3h-2.4c-0.5,0-0.9-0.3-1.1-0.8c-0.6-2.2-2.2-3.1-4.9-3.1c-3,0-4.6,1.4-4.6,3.5
			s0.9,3.2,5.5,3.9c6.2,0.9,9.4,2.6,9.4,7.9c0,4-3,7.3-7.7,8L267.3,599.9L267.3,599.9L267.3,599.9z"/>
		<path class="st3" d="M273.3,608.8c-0.8,0.3-1.5-0.2-1.5-1.1v-2.1c0-0.6,0.4-1.2,1-1.4c8.7-3.2,14.9-11.5,14.9-21.3
			s-6.2-18.1-14.9-21.3c-0.5-0.2-1-0.9-1-1.4v-2.1c0-0.9,0.7-1.4,1.5-1.1c11,3.5,18.9,13.8,18.9,25.9
			C292.2,595,284.3,605.3,273.3,608.8z"/>
	</g>
	<g>

			<ellipse transform="matrix(0.1602 -0.9871 0.9871 0.1602 294.2328 1510.8293)" class="st49" cx="1035" cy="582.5" rx="36.2" ry="36.2"/>
		<path class="st3" d="M1028.2,607.7c0,0.9-0.7,1.3-1.5,1.1c-11-3.5-18.9-13.8-18.9-25.9c0-12.1,7.9-22.4,18.9-25.9
			c0.8-0.3,1.5,0.2,1.5,1.1v2.1c0,0.6-0.4,1.2-1,1.4c-8.7,3.2-14.9,11.5-14.9,21.3s6.2,18.1,14.9,21.3c0.5,0.2,1,0.9,1,1.4V607.7z"
			/>
		<path class="st3" d="M1037.2,599.9c0,0.6-0.5,1.1-1.1,1.1h-2.3c-0.6,0-1.1-0.5-1.1-1.1v-3.6c-4.9-0.7-7.4-3.4-8-7.2
			c-0.1-0.6,0.4-1.2,1.1-1.2h2.6c0.5,0,1,0.4,1.1,0.9c0.5,2.2,1.8,4,5.7,4c2.9,0,5-1.6,5-4.1c0-2.4-1.2-3.4-5.5-4.1
			c-6.3-0.9-9.3-2.8-9.3-7.7c0-3.8,2.9-6.8,7.4-7.5v-3.5c0-0.6,0.5-1.1,1.1-1.1h2.3c0.6,0,1.1,0.5,1.1,1.1v3.6
			c3.7,0.7,6,2.7,6.7,6.2c0.1,0.7-0.4,1.3-1,1.3h-2.4c-0.5,0-0.9-0.3-1.1-0.8c-0.6-2.2-2.2-3.1-4.9-3.1c-3,0-4.6,1.4-4.6,3.5
			s0.9,3.2,5.5,3.9c6.2,0.9,9.4,2.6,9.4,7.9c0,4-3,7.3-7.7,8L1037.2,599.9L1037.2,599.9L1037.2,599.9z"/>
		<path class="st3" d="M1043.3,608.8c-0.8,0.3-1.5-0.2-1.5-1.1v-2.1c0-0.6,0.4-1.2,1-1.4c8.7-3.2,14.9-11.5,14.9-21.3
			s-6.2-18.1-14.9-21.3c-0.5-0.2-1-0.9-1-1.4v-2.1c0-0.9,0.7-1.4,1.5-1.1c11,3.5,18.9,13.8,18.9,25.9
			C1062.2,595,1054.2,605.3,1043.3,608.8z"/>
	</g>
	<g>
		<g>
			<circle class="st50" cx="901.3" cy="350.9" r="36.2"/>
		</g>
		<g>

				<rect x="877.6" y="346.6" transform="matrix(0.7071 -0.7071 0.7071 0.7071 10.0739 726.6733)" class="st51" width="9.2" height="9.2"/>

				<rect x="885.3" y="331.9" transform="matrix(0.7071 -0.7071 0.7071 0.7071 24.6989 732.6919)" class="st51" width="23" height="9.2"/>

				<rect x="883" y="346.3" transform="matrix(0.7071 -0.7071 0.7071 0.7071 15.8617 740.1782)" class="st51" width="36.8" height="9.2"/>

				<rect x="892.6" y="355.8" transform="matrix(0.7071 -0.7071 0.7071 0.7071 11.9904 749.7118)" class="st51" width="36.8" height="9.2"/>
		</g>
	</g>
	<g>

			<linearGradient id="SVGID_00000054963938265136430290000008310062926728980103_" gradientUnits="userSpaceOnUse" x1="1046.6604" y1="698.3693" x2="945.5543" y2="574.5483" gradientTransform="matrix(1 0 0 1 0 219.1801)">
			<stop  offset="0" style="stop-color:#645AFF"/>
			<stop  offset="0.5207" style="stop-color:#E40C5B"/>
			<stop  offset="0.9859" style="stop-color:#FF4C3B"/>
		</linearGradient>
		<circle style="fill:url(#SVGID_00000054963938265136430290000008310062926728980103_);" cx="988.4" cy="846.2" r="36.2"/>

			<linearGradient id="SVGID_00000104705832988177786160000008940889630387260585_" gradientUnits="userSpaceOnUse" x1="976.926" y1="624.4991" x2="1069.8274" y2="644.9099" gradientTransform="matrix(1 0 0 1 0 219.1801)">
			<stop  offset="0" style="stop-color:#FFFFFF"/>
			<stop  offset="1" style="stop-color:#FFFFFF;stop-opacity:0"/>
		</linearGradient>

			<circle style="opacity:0.2;fill:url(#SVGID_00000104705832988177786160000008940889630387260585_);enable-background:new    ;" cx="988.4" cy="846.2" r="36.2"/>
		<path class="st3" d="M988.4,879c-8.8,0-17-3.4-23.2-9.6c-6.2-6.2-9.6-14.4-9.6-23.2s3.4-17,9.6-23.2c6.2-6.2,14.4-9.6,23.2-9.6
			s17,3.4,23.2,9.6c6.2,6.2,9.6,14.4,9.6,23.2s-3.4,17-9.6,23.2C1005.4,875.6,997.1,879,988.4,879z M988.4,814.9
			c-8.4,0-16.3,3.3-22.2,9.2s-9.2,13.8-9.2,22.2s3.3,16.3,9.2,22.2s13.8,9.2,22.2,9.2s16.3-3.3,22.2-9.2s9.2-13.8,9.2-22.2
			s-3.3-16.3-9.2-22.2S996.7,814.9,988.4,814.9z"/>
		<path class="st3" d="M981.7,857.2v8.4c0,0.9-0.2,1.8-0.6,2.5c-0.4,0.7-1,1.2-1.7,1.6c-0.8,0.4-1.6,0.5-2.7,0.5
			c-1.6,0-2.8-0.4-3.7-1.2s-1.3-1.9-1.4-3.3v-8.4h3.1v8.5c0,1.4,0.7,2.1,1.9,2.1c0.6,0,1.1-0.2,1.4-0.5c0.3-0.4,0.5-0.9,0.5-1.7
			v-8.3h3.2V857.2z"/>
		<path class="st3" d="M990.2,866.6c0-0.5-0.2-0.8-0.5-1.1s-0.9-0.5-1.7-0.8s-1.5-0.5-2-0.8c-1.6-0.8-2.5-1.9-2.5-3.4
			c0-0.7,0.2-1.3,0.6-1.9c0.4-0.5,1-1,1.7-1.3c0.8-0.3,1.6-0.5,2.5-0.5s1.7,0.2,2.5,0.5c0.7,0.3,1.3,0.8,1.7,1.4
			c0.4,0.6,0.6,1.3,0.6,2.1H990c0-0.5-0.2-0.9-0.5-1.2s-0.7-0.4-1.3-0.4c-0.5,0-1,0.1-1.3,0.4c-0.3,0.2-0.5,0.5-0.5,0.9
			c0,0.3,0.2,0.6,0.5,0.9c0.3,0.3,1,0.5,1.8,0.8c0.9,0.3,1.6,0.6,2.2,0.9c1.4,0.8,2.1,1.9,2.1,3.3c0,1.1-0.4,2-1.3,2.6
			c-0.8,0.6-2,1-3.5,1c-1,0-2-0.2-2.8-0.6c-0.8-0.4-1.5-0.9-1.9-1.5s-0.6-1.4-0.6-2.2h3.1c0,0.7,0.2,1.2,0.5,1.5
			c0.4,0.3,0.9,0.5,1.7,0.5c0.5,0,0.9-0.1,1.2-0.3C990.1,867.3,990.2,867,990.2,866.6z"/>
		<path class="st3" d="M994.9,870v-12.8h4.1c1.1,0,2.1,0.3,3,0.8s1.6,1.2,2.1,2.2c0.5,0.9,0.8,2,0.8,3.1v0.6c0,1.2-0.2,2.2-0.7,3.1
			c-0.5,0.9-1.2,1.6-2.1,2.2c-0.9,0.5-1.9,0.8-3,0.8L994.9,870L994.9,870z M997.9,859.6v8h1.1c0.9,0,1.6-0.3,2-0.9
			c0.5-0.6,0.7-1.6,0.7-2.8v-0.6c0-1.2-0.2-2.2-0.7-2.8s-1.2-0.9-2.1-0.9H997.9z"/>
		<path class="st10" d="M988.3,842.5c-1.3,0-2.5,0.1-3.8,0.3l1.9-3.2c0.6,0,1.3-0.1,1.9-0.1c1.5,0,2.9,0.1,4.4,0.4l-7.2-12.6
			l-12.1,21l-1.7-3l13.8-24l0,0l0,0l16.6,28.9h-3.4l-3.9-6.8C992.7,842.9,990.5,842.5,988.3,842.5L988.3,842.5z M1003.2,848.3
			l-16.1-28h3.4l14.4,25L1003.2,848.3z M987.2,834.2l-6.6,11.5c2.4-0.7,5.1-1,7.8-1c0.2,0,0.4,0,0.6,0c1.5,0,3,0.2,4.4,0.5l2.2,3.8
			c-2.3-0.9-4.8-1.3-7.3-1.3c-3.6,0-7.2,0.9-10.4,2.6v-0.1l-0.1,0.1h-3.4l11-19.1L987.2,834.2z"/>
	</g>
	<g>

			<linearGradient id="SVGID_00000063632960682194358680000017073258481314169234_" gradientUnits="userSpaceOnUse" x1="574.5823" y1="869.8961" x2="473.476" y2="746.0751" gradientTransform="matrix(1 0 0 1 0 219.1801)">
			<stop  offset="0" style="stop-color:#645AFF"/>
			<stop  offset="0.5207" style="stop-color:#E40C5B"/>
			<stop  offset="0.9859" style="stop-color:#FF4C3B"/>
		</linearGradient>
		<circle style="fill:url(#SVGID_00000063632960682194358680000017073258481314169234_);" cx="516.3" cy="1017.7" r="36.2"/>

			<linearGradient id="SVGID_00000074434215212481929720000003642146731835216792_" gradientUnits="userSpaceOnUse" x1="504.8635" y1="796.0073" x2="597.7648" y2="816.4181" gradientTransform="matrix(1 0 0 1 0 219.1801)">
			<stop  offset="0" style="stop-color:#FFFFFF"/>
			<stop  offset="1" style="stop-color:#FFFFFF;stop-opacity:0"/>
		</linearGradient>

			<circle style="opacity:0.2;fill:url(#SVGID_00000074434215212481929720000003642146731835216792_);enable-background:new    ;" cx="516.3" cy="1017.7" r="36.2"/>
		<path class="st3" d="M516.3,1050.5c-8.8,0-17-3.4-23.2-9.6s-9.6-14.4-9.6-23.2s3.4-17,9.6-23.2s14.4-9.6,23.2-9.6
			c8.8,0,17,3.4,23.2,9.6c6.2,6.2,9.6,14.4,9.6,23.2s-3.4,17-9.6,23.2C533.3,1047.1,525.1,1050.5,516.3,1050.5z M516.3,986.4
			c-8.4,0-16.3,3.3-22.2,9.2c-5.9,5.9-9.2,13.8-9.2,22.2s3.3,16.3,9.2,22.2c5.9,5.9,13.8,9.2,22.2,9.2s16.3-3.3,22.2-9.2
			c5.9-5.9,9.2-13.8,9.2-22.2s-3.3-16.3-9.2-22.2C532.6,989.6,524.7,986.4,516.3,986.4z"/>
		<path class="st3" d="M509.7,1028.7v8.4c0,0.9-0.2,1.8-0.6,2.5s-1,1.2-1.7,1.6c-0.8,0.4-1.6,0.5-2.7,0.5c-1.6,0-2.8-0.4-3.7-1.2
			c-0.9-0.8-1.3-1.9-1.4-3.3v-8.4h3.1v8.5c0,1.4,0.7,2.1,1.9,2.1c0.6,0,1.1-0.2,1.4-0.5c0.3-0.4,0.5-0.9,0.5-1.7v-8.3h3.2V1028.7z"
			/>
		<path class="st3" d="M518.2,1038.1c0-0.5-0.2-0.8-0.5-1.1c-0.3-0.3-0.9-0.5-1.7-0.8s-1.5-0.5-2-0.8c-1.6-0.8-2.5-1.9-2.5-3.4
			c0-0.7,0.2-1.3,0.6-1.9c0.4-0.5,1-1,1.7-1.3c0.8-0.3,1.6-0.5,2.5-0.5s1.7,0.2,2.5,0.5c0.7,0.3,1.3,0.8,1.7,1.4s0.6,1.3,0.6,2.1
			H518c0-0.5-0.2-0.9-0.5-1.2c-0.3-0.3-0.7-0.4-1.3-0.4c-0.5,0-1,0.1-1.3,0.4c-0.3,0.2-0.5,0.5-0.5,0.9c0,0.3,0.2,0.6,0.5,0.9
			s1,0.5,1.8,0.8c0.9,0.3,1.6,0.6,2.2,0.9c1.4,0.8,2.1,1.9,2.1,3.3c0,1.1-0.4,2-1.3,2.6c-0.8,0.6-2,1-3.5,1c-1,0-2-0.2-2.8-0.6
			s-1.5-0.9-1.9-1.5s-0.6-1.4-0.6-2.2h3.1c0,0.7,0.2,1.2,0.5,1.5c0.4,0.3,0.9,0.5,1.7,0.5c0.5,0,0.9-0.1,1.2-0.3
			C518,1038.8,518.2,1038.5,518.2,1038.1z"/>
		<path class="st3" d="M522.8,1041.5v-12.8h4.1c1.1,0,2.1,0.3,3,0.8s1.6,1.2,2.1,2.2c0.5,0.9,0.8,2,0.8,3.1v0.6
			c0,1.2-0.2,2.2-0.7,3.1s-1.2,1.6-2.1,2.2c-0.9,0.5-1.9,0.8-3,0.8L522.8,1041.5L522.8,1041.5z M525.9,1031.1v8h1.1
			c0.9,0,1.6-0.3,2-0.9c0.5-0.6,0.7-1.6,0.7-2.8v-0.6c0-1.2-0.2-2.2-0.7-2.8s-1.2-0.9-2.1-0.9L525.9,1031.1L525.9,1031.1z"/>
		<path class="st10" d="M516.3,1014.1c-1.3,0-2.5,0.1-3.8,0.3l1.9-3.2c0.6,0,1.3-0.1,1.9-0.1c1.5,0,2.9,0.1,4.4,0.4l-7.2-12.6
			l-12.1,21l-1.7-3l13.8-24l0,0l0,0l16.6,28.9h-3.4l-3.9-6.8C520.6,1014.4,518.5,1014,516.3,1014.1L516.3,1014.1z M531.1,1019.8
			l-16.1-28h3.4l14.4,25L531.1,1019.8z M515.2,1005.7l-6.6,11.5c2.4-0.7,5.1-1,7.8-1c0.2,0,0.4,0,0.6,0c1.5,0,3,0.2,4.4,0.5l2.2,3.8
			c-2.3-0.9-4.8-1.3-7.3-1.3c-3.6,0-7.2,0.9-10.4,2.6v-0.1l-0.1,0.1h-3.4l11-19.1L515.2,1005.7z"/>
	</g>
	<g>
		<circle class="st49" cx="353" cy="821.9" r="45.3"/>
		<path class="st3" d="M344.5,853.4c0,1.1-0.8,1.7-1.9,1.3c-13.7-4.4-23.6-17.2-23.6-32.4s9.9-28,23.6-32.4c1-0.3,1.9,0.3,1.9,1.3
			v2.6c0,0.7-0.6,1.6-1.2,1.8c-10.8,4-18.6,14.4-18.6,26.6c0,12.2,7.8,22.6,18.6,26.6c0.7,0.3,1.2,1.1,1.2,1.8V853.4z"/>
		<path class="st3" d="M355.8,843.6c0,0.8-0.6,1.4-1.4,1.4h-2.8c-0.8,0-1.4-0.6-1.4-1.4v-4.5c-6.2-0.8-9.2-4.3-10-9
			c-0.1-0.8,0.5-1.5,1.3-1.5h3.2c0.7,0,1.2,0.5,1.4,1.2c0.6,2.8,2.2,5,7.2,5c3.7,0,6.3-2,6.3-5.1s-1.5-4.2-6.9-5.1
			c-7.9-1.1-11.7-3.5-11.7-9.7c0-4.8,3.6-8.5,9.2-9.3v-4.4c0-0.8,0.6-1.4,1.4-1.4h2.8c0.8,0,1.4,0.6,1.4,1.4v4.5
			c4.6,0.8,7.5,3.4,8.4,7.7c0.2,0.8-0.5,1.6-1.3,1.6h-3c-0.6,0-1.2-0.4-1.4-1c-0.8-2.7-2.8-3.9-6.2-3.9c-3.7,0-5.7,1.8-5.7,4.3
			c0,2.7,1.1,4,6.9,4.9c7.8,1.1,11.8,3.3,11.8,9.9c0,5-3.7,9.1-9.6,10L355.8,843.6L355.8,843.6L355.8,843.6z"/>
		<path class="st3" d="M363.4,854.8c-1,0.3-1.9-0.3-1.9-1.3v-2.6c0-0.8,0.5-1.5,1.2-1.8c10.8-4,18.6-14.4,18.6-26.6
			c0-12.2-7.8-22.6-18.6-26.6c-0.7-0.3-1.2-1.1-1.2-1.8v-2.6c0-1.1,0.8-1.7,1.9-1.3c13.7,4.4,23.6,17.2,23.6,32.4
			C387,837.5,377.1,850.4,363.4,854.8z"/>
	</g>
	<g>
		<g>
			<circle class="st49" cx="731.2" cy="1032.8" r="36.2"/>
			<path class="st3" d="M724.4,1058c0,0.9-0.7,1.3-1.5,1.1c-11-3.5-18.9-13.8-18.9-25.9s7.9-22.4,18.9-25.9c0.8-0.3,1.5,0.2,1.5,1.1
				v2.1c0,0.6-0.4,1.2-1,1.4c-8.7,3.2-14.9,11.5-14.9,21.3s6.2,18.1,14.9,21.3c0.5,0.2,1,0.9,1,1.4V1058z"/>
			<path class="st3" d="M733.5,1050.1c0,0.6-0.5,1.1-1.1,1.1h-2.3c-0.6,0-1.1-0.5-1.1-1.1v-3.6c-4.9-0.7-7.4-3.4-8-7.2
				c-0.1-0.6,0.4-1.2,1.1-1.2h2.6c0.5,0,1,0.4,1.1,0.9c0.5,2.2,1.8,4,5.7,4c2.9,0,5-1.6,5-4.1c0-2.4-1.2-3.4-5.5-4.1
				c-6.3-0.9-9.3-2.8-9.3-7.7c0-3.8,2.9-6.8,7.4-7.5v-3.5c0-0.6,0.5-1.1,1.1-1.1h2.3c0.6,0,1.1,0.5,1.1,1.1v3.6
				c3.7,0.7,6,2.7,6.7,6.2c0.1,0.7-0.4,1.3-1,1.3h-2.4c-0.5,0-0.9-0.3-1.1-0.8c-0.6-2.2-2.2-3.1-4.9-3.1c-3,0-4.6,1.4-4.6,3.5
				s0.9,3.2,5.5,3.9c6.2,0.9,9.4,2.6,9.4,7.9c0,4-3,7.3-7.7,8V1050.1L733.5,1050.1L733.5,1050.1z"/>
			<path class="st3" d="M739.5,1059c-0.8,0.3-1.5-0.2-1.5-1.1v-2.1c0-0.6,0.4-1.2,1-1.4c8.7-3.2,14.9-11.5,14.9-21.3
				c0-9.8-6.2-18.1-14.9-21.3c-0.5-0.2-1-0.9-1-1.4v-2.1c0-0.9,0.7-1.4,1.5-1.1c11,3.5,18.9,13.8,18.9,25.9
				C758.4,1045.3,750.5,1055.5,739.5,1059z"/>
		</g>
	</g>
	<g>
		<path d="M833.6,959.3L833.6,959.3c20,0,36.2,16.2,36.2,36.2l0,0c0,20-16.2,36.2-36.2,36.2l0,0c-20,0-36.2-16.2-36.2-36.2l0,0
			C797.3,975.5,813.6,959.3,833.6,959.3z"/>
		<path class="st3" d="M825.6,979.6c-0.8-1.1-2.2-1.5-3.5-1.1s-2.2,1.6-2.2,2.9v6.1h-7.3v6.1h7.3v4h-7.3v6.1h7.3v9.1h6.3v-21.9
			l15.3,20.4c0.8,1.1,2.2,1.5,3.5,1.1s2.2-1.6,2.2-2.9v-5.8h7.3v-6.1h-7.3v-4h7.3v-6.1h-7.3v-9.1h-6.3v21.7L825.6,979.6z"/>
	</g>
</g>
</svg>
