<svg width="300" height="300" xmlns="http://www.w3.org/2000/svg">

 <g>
  <title>Layer 1</title>
  <g id="svg_3">
   <g id="Glass">
    <path id="svg_1" fill="#7ffdff" d="m128.62499,135.59307c-3.61,0.09 -7.23,0.18 -10.82,0.31c-2.07,0.08 -4.12,0.18 -6.17,0.27c-3.24,0.15 -6.48,0.3 -9.69,0.48c-2.17,0.12 -4.32,0.26 -6.47,0.4c-3.08,0.19 -6.16,0.4 -9.21,0.63l-6.48,0.52c-3,0.25 -6,0.52 -9,0.81c-2.12,0.2 -4.24,0.41 -6.34,0.63c-3,0.31 -5.92,0.64 -8.85,1l-6.08,0.73c-3,0.38 -5.94,0.79 -8.89,1.2c-1.87,0.26 -3.75,0.51 -5.6,0.79c-0.51,0.07 -1,0.16 -1.51,0.24l0,81.4a8.62,8.62 0 0 0 5,7.84l24.36,11.07c10.93,5 23.55,5.58 34.56,0.82a40.77,40.77 0 0 0 22.85,-25l4.83,-14.73c3.51,-10.73 13.3,-18.52 24.58,-18.62a25.48,25.48 0 0 1 24.8,17.8l4.71,14.38c3.73,11.4 11.81,21.11 22.76,26a40.75,40.75 0 0 0 34.05,-0.14l25.47,-11.57a8.62,8.62 0 0 0 5,-7.84l0,-81.4c-15.13,-2.3 -31,-4.14 -47.45,-5.49c-2.62,-0.21 -5.26,-0.4 -7.9,-0.59c-3,-0.22 -6,-0.44 -9,-0.62c-2.8,-0.18 -5.64,-0.31 -8.46,-0.45s-5.76,-0.31 -8.66,-0.42c-3.38,-0.14 -6.78,-0.23 -10.18,-0.32c-2.39,-0.07 -4.77,-0.17 -7.17,-0.21q-8.76,-0.18 -17.6,-0.19q-8.12,0 -16.17,0.16c-1.79,0 -3.53,0.06 -5.27,0.11z" class="cls-1"/>
   </g>
   <g id="Frame">
    <path id="svg_2" fill="#277ce2" d="m218.86501,276.80307a69.95,69.95 0 0 1 -66.5,-48.19l-2.37,-7.19l-2.36,7.21a70,70 0 0 1 -95.46,41.93l-25.48,-11.61a37.32,37.32 0 0 1 -21.88,-34l0,-93.62a14.35,14.35 0 0 1 11.92,-14.14l0,0c40.18,-6.94 86.26,-10.61 133.26,-10.61c15.36,0 30.62,0.39 45.61,1.16a28.16,28.16 0 0 1 26.55,30.59l0,0c-23.3,-2 -47.57,-3 -72.16,-3c-40.79,0 -80.77,2.85 -116.46,8.26l0,81.43a8.62,8.62 0 0 0 5,7.84l24.36,11.07c10.93,5 23.55,5.58 34.56,0.82a40.77,40.77 0 0 0 22.85,-25l4.82,-14.73c3.52,-10.73 13.31,-18.52 24.59,-18.62a25.48,25.48 0 0 1 24.8,17.8l4.71,14.38c3.73,11.4 11.81,21.11 22.76,26a40.75,40.75 0 0 0 34.01,-0.16l25.47,-11.57a8.62,8.62 0 0 0 5,-7.84l0,-201.84l28.72,0l0,201.81a37.34,37.34 0 0 1 -21.88,34l-25.47,11.57a69.92,69.92 0 0 1 -28.97,6.25z" class="cls-2"/>
   </g>
  </g>
 </g>
</svg>