<svg width="858" height="290" viewBox="0 0 858 290" xmlns="http://www.w3.org/2000/svg" xmlns:xlink="http://www.w3.org/1999/xlink" fill="none" overflow="hidden"><path d="M170.328 187.369 119.189 187.369 119.189 238.508 170.328 238.508 170.328 187.369Z" fill="#7CE8FE"/><path d="M205.645 119.185 119.189 119.185 119.189 170.324 205.645 170.324 221.466 170.324 221.466 119.185 205.645 119.185Z" fill="#3EC7E3"/><path d="M272.604 51 119.189 51 119.189 102.138 272.604 102.138 272.604 51Z" fill="#00A2C7"/><path d="M102.138 119.186 51 119.186 51 170.324 102.138 170.324 102.138 119.186Z" fill="#3EC7E3"/><path d="M323.727 238.52 363.373 238.52 363.373 161.058 439.645 161.058 439.645 128.37 363.373 128.37 363.373 83.6878 447.885 83.6878 447.885 51 323.727 51 323.727 238.52Z" fill="#FFFFFF"/><path d="M467.411 83.6878 524.821 83.6878 524.821 238.52 564.009 238.52 564.009 83.6878 621.419 83.6878 621.419 51 467.411 51 467.411 83.6878Z" fill="#FFFFFF"/><path d="M683.956 51 638.999 51 696.592 144.76 637.9 238.52 683.315 238.52 721.772 174.518 723.237 174.518 761.693 238.52 807.291 238.52 748.783 144.76 806.009 51 761.235 51 723.237 114.911 721.772 114.911 683.956 51Z" fill="#FFFFFF"/></svg>