<svg width="1150" height="720" xmlns="http://www.w3.org/2000/svg" xmlns:xlink="http://www.w3.org/1999/xlink" overflow="hidden"><defs><clipPath id="clip0"><rect x="14" y="-202" width="1150" height="720"/></clipPath></defs><g clip-path="url(#clip0)" transform="translate(-14 202)"><path d="M757.351 302.647C755.653 300.978 753.637 299.628 751.37 298.625 749.074 297.621 746.614 297.11 744.058 297.11L677.064 297.11C674.507 297.11 672.038 297.621 669.752 298.625 667.475 299.628 665.469 300.978 663.771 302.647 662.064 304.326 660.703 306.332 659.729 308.618 658.755 310.904 658.263 313.364 658.263 315.921L658.263 404.099C658.263 406.655 658.755 409.115 659.729 411.401 660.703 413.678 662.064 415.703 663.761 417.401 665.469 419.108 667.485 420.469 669.761 421.433 672.048 422.408 674.507 422.9 677.064 422.9L744.058 422.9C746.614 422.9 749.074 422.408 751.361 421.433 753.637 420.459 755.663 419.099 757.361 417.401 759.068 415.694 760.419 413.678 761.393 411.401 762.367 409.105 762.859 406.655 762.859 404.099L762.859 355.326 709.399 355.326 709.399 375.294 742.891 375.294 742.891 402.941 678.221 402.941 678.221 317.078 742.891 317.078 742.891 333.004 762.859 333.004 762.859 315.921C762.859 313.374 762.367 310.914 761.383 308.618 760.419 306.332 759.058 304.326 757.351 302.647Z" fill="#FFFFFF" transform="matrix(1.00044 0 0 1 14.5176 -202)"/><path d="M887.279 365.879C885.716 363.439 883.787 361.404 881.549 359.831 880.044 358.78 878.414 357.873 876.677 357.149 880.372 354.95 883.218 351.911 885.147 348.082 887.423 343.548 888.581 337.644 888.581 330.554L888.581 328.316C888.581 307.605 878.105 297.11 857.462 297.11L792.242 297.11 792.242 422.9 861.002 422.9C881.655 422.9 892.131 412.424 892.131 391.78L892.131 385.577C892.131 381.43 891.716 377.677 890.886 374.446 890.047 371.175 888.832 368.291 887.279 365.879ZM811.863 349.538 811.863 316.721 856.95 316.721C861.243 316.721 864.349 317.705 866.182 319.634 868.034 321.583 868.97 324.795 868.97 329.175L868.97 337.268C868.97 341.435 868.121 344.532 866.452 346.452 864.812 348.342 862.005 349.384 858.156 349.538L811.863 349.538ZM872.491 381.352 872.491 390.912C872.491 395.234 871.555 398.417 869.713 400.365 867.88 402.295 864.774 403.279 860.481 403.279L811.873 403.279 811.873 369.082 860.481 369.082C864.783 369.082 867.899 370.037 869.722 371.918 871.555 373.809 872.491 376.983 872.491 381.352Z" fill="#FFFFFF" transform="matrix(1.00044 0 0 1 14.5176 -202)"/><path d="M1001.84 297.1 964.151 396.594 926.54 297.1 905.115 297.1 953.627 422.9 974.675 422.9 1023.19 297.1Z" fill="#FFFFFF" transform="matrix(1.00044 0 0 1 14.5176 -202)"/><path d="M555.876 391.259 555.876 390.603C555.876 388.751 554.892 387.044 553.29 386.108L450.826 326.416 450.826 301.017 450.826 208.614C450.826 208.594 450.816 208.575 450.816 208.556L450.816 207.871C450.816 206.019 449.832 204.302 448.231 203.376L343.249 142.275C341.638 141.34 339.651 141.33 338.04 142.256L232.932 202.633C231.321 203.559 230.318 205.286 230.318 207.147L230.318 207.871C230.318 207.881 230.318 207.881 230.318 207.89L230.318 325.683 127.883 384.603C126.272 385.529 125.269 387.256 125.278 389.118L125.278 389.812C125.278 389.832 125.278 389.841 125.278 389.861L125.278 511.396C125.278 513.248 126.262 514.955 127.863 515.891L232.913 577.03C233.01 577.088 233.106 577.136 233.202 577.185L233.202 577.185C233.338 577.252 233.473 577.31 233.617 577.358 233.646 577.368 233.665 577.378 233.694 577.387 233.965 577.493 234.235 577.561 234.514 577.619 234.524 577.619 234.534 577.628 234.543 577.628 234.553 577.628 234.572 577.628 234.582 577.628 234.9 577.686 235.219 577.725 235.537 577.725 235.566 577.725 235.595 577.715 235.614 577.715 235.624 577.715 235.633 577.715 235.643 577.715 235.672 577.715 235.691 577.706 235.72 577.706 235.932 577.696 236.135 577.686 236.347 577.648 236.395 577.638 236.434 577.628 236.482 577.619 236.666 577.58 236.858 577.542 237.042 577.493 237.09 577.474 237.138 577.455 237.186 577.445 237.36 577.387 237.534 577.329 237.698 577.252 237.727 577.242 237.756 577.223 237.785 577.204 237.949 577.127 238.122 577.04 238.276 576.943 238.296 576.934 238.315 576.914 238.334 576.905L340.596 518.1 443.022 577.706C443.167 577.792 443.311 577.86 443.466 577.927 443.504 577.947 443.543 577.976 443.591 577.995 443.639 578.014 443.688 578.033 443.736 578.053 443.794 578.072 443.852 578.082 443.909 578.101 444.016 578.14 444.112 578.178 444.208 578.207 444.286 578.226 444.363 578.236 444.44 578.255 444.575 578.284 444.72 578.323 444.855 578.342 444.98 578.361 445.096 578.371 445.221 578.381 445.366 578.39 445.511 578.419 445.665 578.419 446.562 578.419 447.459 578.188 448.26 577.725L553.281 517.328C554.892 516.402 555.895 514.647 555.895 512.785L555.895 391.336C555.895 391.327 555.895 391.327 555.895 391.317 555.895 391.307 555.895 391.298 555.895 391.288 555.876 391.288 555.876 391.269 555.876 391.259ZM440.417 304.007 440.417 327.149 345.834 381.545 345.834 272 440.417 217.614 440.417 304.007ZM335.377 381.487 240.756 326.426 240.736 216.939 335.377 272.02 335.377 381.487ZM330.188 390.555 235.576 444.961 140.896 389.861 235.508 335.445 330.188 390.555ZM351.063 390.623 445.646 336.207 540.287 391.279 445.675 445.684 351.063 390.623ZM340.615 262.991 245.945 207.9 340.567 153.484 435.237 208.575 340.615 262.991ZM135.687 398.909 230.318 453.98 230.318 562.744 135.793 507.73 135.687 398.909ZM240.736 562.792 240.736 454.096 335.377 399.642 335.377 508.357 240.736 562.792ZM345.834 508.405 345.834 399.652 440.427 454.694 440.427 563.429 345.834 508.405ZM545.467 509.052 450.836 563.496 450.836 454.781 545.467 400.356 545.467 509.052Z" fill="#FFFFFF" transform="matrix(1.00044 0 0 1 14.5176 -202)"/></g></svg>