<svg width="1496" height="1022" viewBox="0 0 1496 1022" xmlns="http://www.w3.org/2000/svg" xmlns:xlink="http://www.w3.org/1999/xlink" fill="none" overflow="hidden"><path d="M222 299 282 299 282 563 222 563 222 299Z" fill="#FFFFFF"/><path d="M388 349 448 349 448 550.6 388 550.6 388 349Z" fill="#FFFFFF"/><path d="M993 359 1053 359 1053 559 993 559 993 359Z" fill="#FFFFFF"/><path d="M538 349 598 349 598 550.6 538 550.6 538 349Z" fill="#FFFFFF"/><path d="M1143 459 1203 459 1203 499 1143 499 1143 459Z" fill="#FFFFFF"/><path d="M684 359 744 359 744 399 684 399 684 359Z" fill="#FFFFFF"/><path d="M834 459 894 459 894 499 834 499 834 459Z" fill="#FFFFFF"/><path d="M388 359 388 299 598 299 598 359 388 359Z" fill="#FFFFFF"/><path d="M993 359 993 299 1203 299 1203 359 993 359Z" fill="#FFFFFF"/><path d="M684 359 684 299 894 299 894 359 684 359Z" fill="#FFFFFF"/><path d="M684 459 684 399 894 399 894 459 684 459Z" fill="#FFFFFF"/><path d="M684 559 684 499 894 499 894 559 684 559Z" fill="#FFFFFF"/><path d="M1093 459 1093 399 1203 399 1203 459 1093 459Z" fill="#FFFFFF"/><path d="M388 563 388 503 598 503 598 563 388 563Z" fill="#FFFFFF"/><path d="M993 559 993 499 1203 499 1203 559 993 559Z" fill="#FFFFFF"/><path d="M318.241 607.902 302.698 607.902 270.356 705.085 270.042 705.085 238.014 607.902 221.843 607.902 261.407 720 278.363 720 318.241 607.902ZM366.335 720 444.207 720 444.207 707.44 381.25 707.44 381.25 668.661 439.497 668.661 439.497 656.101 381.25 656.101 381.25 620.462 443.736 620.462 443.736 607.902 366.335 607.902 366.335 720ZM531.943 674.234 531.943 661.125 545.052 661.125 545.052 674.234 531.943 674.234ZM518.873 661.125 518.873 648.054 531.943 648.054 531.943 661.125 518.873 661.125ZM492.693 720 492.693 608.804 505.802 608.804 505.802 634.984 518.873 634.984 518.873 648.054 505.802 648.054 505.802 720 492.693 720ZM558.123 720 558.123 687.304 545.052 687.304 545.052 674.234 558.123 674.234 558.123 608.804 571.193 608.804 571.193 720 558.123 720ZM651.499 720 666.414 720 666.414 620.462 703.78 620.462 703.78 607.902 614.133 607.902 614.133 620.462 651.499 620.462 651.499 720ZM759.707 720 759.707 706.929 812.027 706.929 812.027 720 759.707 720ZM746.598 706.929 746.598 608.804 759.707 608.804 759.707 706.929 746.598 706.929ZM812.027 706.929 812.027 608.804 825.098 608.804 825.098 706.929 812.027 706.929ZM939.669 720 939.669 706.929 952.74 706.929 952.74 720 939.669 720ZM926.599 706.929 926.599 693.859 939.669 693.859 939.669 706.929 926.599 706.929ZM913.49 693.859 913.49 680.75 926.599 680.75 926.599 693.859 913.49 693.859ZM939.669 654.609 939.669 621.875 952.74 621.875 952.74 654.609 939.669 654.609ZM874.24 720 874.24 608.804 939.669 608.804 939.669 621.875 887.349 621.875 887.349 654.609 939.669 654.609 939.669 667.679 913.49 667.679 913.49 680.75 900.419 680.75 900.419 667.679 887.349 667.679 887.349 720 874.24 720ZM1007.61 720 1085.48 720 1085.48 707.44 1022.53 707.44 1022.53 668.661 1080.77 668.661 1080.77 656.101 1022.53 656.101 1022.53 620.462 1085.01 620.462 1085.01 607.902 1007.61 607.902 1007.61 720ZM1140.53 720 1140.53 706.929 1199.4 706.929 1199.4 720 1140.53 720ZM1199.4 706.929 1199.4 667.679 1212.47 667.679 1212.47 706.929 1199.4 706.929ZM1147.08 667.679 1147.08 654.609 1199.4 654.609 1199.4 667.679 1147.08 667.679ZM1133.97 654.609 1133.97 621.875 1147.08 621.875 1147.08 654.609 1133.97 654.609ZM1147.08 621.875 1147.08 608.804 1205.95 608.804 1205.95 621.875 1147.08 621.875Z" fill="#FFFFFF"/><rect x="1173" y="299" width="30" height="30" fill="#FFFFFF"/><rect x="1173" y="399" width="30" height="30" fill="#FFFFFF"/><rect x="864" y="299" width="30" height="30" fill="#FFFFFF"/><rect x="598" y="479" width="30" height="30" fill="#FFFFFF" transform="matrix(6.12323e-17 1 -1 6.12323e-17 1077 -119)"/><rect x="1143" y="329" width="30" height="30" fill="#FFFFFF"/><rect x="1143" y="429" width="30" height="30" fill="#FFFFFF"/><rect x="834" y="329" width="30" height="30" fill="#FFFFFF"/><rect x="1113" y="299" width="30" height="30" fill="#FFFFFF"/><rect x="598" y="419" width="30" height="30" fill="#FFFFFF" transform="matrix(6.12323e-17 1 -1 6.12323e-17 1017 -179)"/><rect x="282" y="419" width="30" height="30" fill="#FFFFFF" transform="matrix(6.12323e-17 1 -1 6.12323e-17 701 137)"/><rect x="774" y="329" width="30" height="30" fill="#FFFFFF"/><rect x="713" y="329" width="30" height="30" fill="#FFFFFF"/><rect x="804" y="299" width="30" height="30" fill="#FFFFFF"/><rect x="252" y="389" width="30" height="30" fill="#FFFFFF" transform="matrix(6.12323e-17 1 -1 6.12323e-17 641 137)"/><rect x="1023" y="329" width="30" height="30" fill="#FFFFFF"/><rect x="1083" y="329" width="30" height="30" fill="#FFFFFF"/><rect x="1113" y="400" width="30" height="30" fill="#FFFFFF"/><rect x="1173" y="459" width="30" height="30" fill="#FFFFFF"/><rect x="448" y="329" width="30" height="30" fill="#FFFFFF" transform="matrix(6.12323e-17 1 -1 6.12323e-17 777 -119)"/><rect x="478" y="299" width="30" height="30" fill="#FFFFFF" transform="matrix(6.12323e-17 1 -1 6.12323e-17 777 -179)"/><rect x="508" y="329" width="30" height="30" fill="#FFFFFF" transform="matrix(6.12323e-17 1 -1 6.12323e-17 837 -179)"/><rect x="568" y="329" width="30" height="30" fill="#FFFFFF" transform="matrix(6.12323e-17 1 -1 6.12323e-17 897 -239)"/><rect x="598" y="359" width="30" height="30" fill="#FFFFFF" transform="matrix(6.12323e-17 1 -1 6.12323e-17 957 -239)"/><rect x="568" y="389" width="30" height="30" fill="#FFFFFF" transform="matrix(6.12323e-17 1 -1 6.12323e-17 957 -179)"/><rect x="568" y="450" width="30" height="30" fill="#FFFFFF" transform="matrix(6.12323e-17 1 -1 6.12323e-17 1018 -118)"/><rect x="418" y="299" width="30" height="30" fill="#FFFFFF" transform="matrix(6.12323e-17 1 -1 6.12323e-17 717 -119)"/><rect x="864" y="430" width="30" height="30" fill="#FFFFFF"/><rect x="804" y="429" width="30" height="30" fill="#FFFFFF"/><rect x="834" y="459" width="30" height="30" fill="#FFFFFF"/><rect x="864" y="489" width="30" height="30" fill="#FFFFFF"/><rect x="1053" y="299" width="30" height="30" fill="#FFFFFF"/><rect x="744" y="299" width="30" height="30" fill="#FFFFFF"/><rect x="282" y="359" width="30" height="30" fill="#FFFFFF" transform="matrix(6.12323e-17 1 -1 6.12323e-17 641 77)"/><rect x="252" y="329" width="30" height="30" fill="#FFFFFF" transform="matrix(6.12323e-17 1 -1 6.12323e-17 581 77)"/><rect x="684" y="299" width="30" height="30" fill="#FFFFFF"/><rect x="598" y="299" width="30" height="30" fill="#FFFFFF" transform="matrix(6.12323e-17 1 -1 6.12323e-17 897 -299)"/><rect x="282" y="299" width="30" height="30" fill="#FFFFFF" transform="matrix(6.12323e-17 1 -1 6.12323e-17 581 17)"/><rect x="538" y="299" width="30" height="30" fill="#FFFFFF" transform="matrix(6.12323e-17 1 -1 6.12323e-17 837 -239)"/><rect x="834" y="400" width="30" height="30" fill="#FFFFFF"/><rect x="774" y="399" width="30" height="30" fill="#FFFFFF"/><rect x="728" y="205" width="30" height="30" fill="#FFFFFF"/><rect x="653" y="239" width="30" height="30" fill="#FFFFFF"/><rect x="308" y="209" width="30" height="30" fill="#FFFFFF"/><rect x="848" y="224" width="30" height="30" fill="#FFFFFF"/><rect x="1243" y="384" width="30" height="30" fill="#FFFFFF"/><rect x="1309" y="476" width="30" height="30" fill="#FFFFFF"/><rect x="1234" y="527" width="30" height="30" fill="#FFFFFF"/></svg>