<svg width="322" height="82" xmlns="http://www.w3.org/2000/svg" xmlns:xlink="http://www.w3.org/1999/xlink" overflow="hidden"><defs><clipPath id="clip0"><rect x="676" y="-107" width="322" height="82"/></clipPath></defs><g clip-path="url(#clip0)" transform="translate(-676 107)"><path d="M39.1857 110.555 105.998 110.555 105.998 177.367 73.1914 177.367 39.1857 177.367 39.1857 110.555ZM45.9964 117.365 99.1873 117.365 99.1873 170.556 45.9964 170.556 45.9964 117.365ZM64.1264 126.43 58.4668 126.43 58.4668 150.22 64.1264 150.22 64.1264 126.43ZM81.1053 126.43 86.7649 126.43 86.7649 150.22 81.1053 150.22 81.1053 126.43ZM75.4457 126.43 69.6901 126.43 69.6901 161.539 75.4457 161.539 75.4457 126.43ZM137.606 135.495 124.08 135.495 124.08 151.323 126.67 151.323 126.67 145.184 137.558 145.184C140.339 145.184 142.642 142.977 142.642 140.292 142.642 137.654 140.387 135.495 137.606 135.495ZM137.606 142.977 126.718 142.977 126.718 137.702 137.606 137.702C139.092 137.702 140.339 138.853 140.339 140.339 140.339 141.826 139.092 142.977 137.606 142.977ZM162.978 135.495 154.249 151.323 157.079 151.323 158.997 147.774 170.316 147.774 172.235 151.323 175.065 151.323 166.335 135.495 162.978 135.495ZM160.292 145.519 164.705 137.51 164.801 137.654 169.117 145.519 160.292 145.519ZM190.317 135.495 190.317 151.323 192.907 151.323 192.907 138.085 193.051 138.229 205.713 151.323 209.07 151.323 209.07 135.495 206.48 135.495 206.48 148.781 206.336 148.637 193.626 135.495 190.317 135.495ZM226.961 140.387 232.141 140.387 232.141 137.702 224.179 137.702 224.179 135.495 242.692 135.495 242.692 137.702 234.731 137.702 234.731 140.387 239.911 140.387 239.911 142.594 234.731 142.594 234.731 151.275 232.141 151.275 232.141 142.594 226.961 142.594 226.961 140.387ZM260.487 144.512 270.223 144.512 270.223 142.306 260.487 142.306 260.487 137.702 275.163 137.702 275.163 135.495 257.897 135.495 257.897 151.323 275.163 151.323 275.163 149.117 260.487 149.117 260.487 144.512ZM332.767 135.495 336.172 135.495 344.853 151.323 342.024 151.323 340.153 147.774 340.105 147.726 328.786 147.726 326.867 151.275 324.037 151.275 332.767 135.495ZM334.493 137.51 330.081 145.519 338.858 145.519 334.541 137.654 334.493 137.51ZM309.361 140.339C309.361 142.69 307.586 144.704 305.188 145.136L305.092 145.136 309.457 151.323 306.435 151.323 301.927 145.232 301.879 145.184 293.341 145.184 293.341 151.323 290.751 151.323 290.751 135.495 304.277 135.495C307.059 135.495 309.361 137.654 309.361 140.339ZM293.389 137.702 293.389 142.977 304.277 142.977C305.764 142.977 307.011 141.778 307.011 140.339 307.011 138.901 305.812 137.702 304.277 137.702L293.389 137.702Z" fill="#FFFFFF" fill-rule="evenodd" transform="matrix(1 0 0 1.00113 645.653 -208.879)"/></g></svg>