<svg width="169" height="67" viewBox="0 0 169 67" xmlns="http://www.w3.org/2000/svg" xmlns:xlink="http://www.w3.org/1999/xlink" fill="none" overflow="hidden"><path d="M122.685 3.06513C120.86 6.88217 117.651 13.6774 114.023 21.2695 112.219 25.0656 110.688 28.3164 110.626 28.4632 110.542 28.6729 110.982 28.7148 112.681 28.6729L114.862 28.61 116.33 25.4221 117.798 22.2133 123.692 22.2133 129.585 22.2133 131.032 25.4641 132.479 28.7148 134.618 28.7148C135.814 28.7148 136.779 28.6729 136.779 28.631 136.779 28.589 136.338 27.6243 135.814 26.4917 134.786 24.3106 130.738 15.481 126.921 7.11287 125.684 4.40738 124.489 1.82773 124.279 1.3873L123.859 0.590338 122.685 3.06513ZM125.915 13.929 127.928 18.4382 123.755 18.4382C121.468 18.4382 119.581 18.3962 119.581 18.3753 119.581 18.3333 120.168 17.033 120.902 15.481 121.636 13.929 122.559 11.9366 122.958 11.0558 123.356 10.1539 123.713 9.44085 123.776 9.41988 123.838 9.41988 124.803 11.4542 125.915 13.929Z" fill="#FFFFFF"/><path d="M16.7533 1.89026C16.3339 1.99512 15.495 2.30971 14.9287 2.60333 12.412 3.88267 11.0487 5.93801 11.0697 8.47571 11.0907 12.0201 12.9782 13.9077 18.9555 16.3405 22.1433 17.6408 23.2549 19.025 23.0452 21.4159 22.8983 22.9889 22.2062 24.0795 20.864 24.8764 20.067 25.3378 19.6266 25.4427 18.4941 25.4427 16.0612 25.4427 14.5512 24.1843 14.0478 21.7095 13.8591 20.8077 13.7123 20.556 13.4606 20.619 13.2928 20.6819 12.37 20.8706 11.4472 21.0804L9.74841 21.4369 9.93717 22.2968C10.2308 23.7439 11.5101 26.0929 12.4329 26.9318 14.9916 29.2388 19.1442 29.7841 22.395 28.253 23.926 27.54 25.6877 25.7783 26.3589 24.2892 27.1139 22.6114 27.2817 20.2834 26.7993 18.6056 26.0023 15.8581 24.3245 14.411 19.7524 12.5654 16.1451 11.0973 15.1384 10.2584 15.1384 8.66447 15.1384 6.58816 16.6275 5.35077 19.1232 5.35077 20.7591 5.35077 21.5141 5.7073 22.5208 6.92373L23.2549 7.78361 24.681 6.98664C25.478 6.52524 26.1491 6.06384 26.1911 5.938 26.3169 5.53952 24.681 3.65197 23.6114 2.98084 21.7448 1.78539 19.0184 1.36594 16.7533 1.89026Z" fill="#FFFFFF"/><path d="M45.1497 1.8688C41.8989 2.56091 39.9904 3.58857 37.6624 5.93752 36.0894 7.51048 35.6071 8.16064 34.894 9.62873 33.6356 12.2503 33.3 14.83 33.8034 17.9759 34.2648 20.7863 35.3134 22.6948 37.6624 25.0437 41.3746 28.714 47.0792 30.0562 52.1546 28.4203 56.4121 27.0571 59.9355 23.7015 61.2777 19.6957 61.865 17.9759 62.0537 14.851 61.7182 12.8585 61.068 9.12539 57.8592 4.90986 54.2938 3.19009 53.5807 2.83355 52.4692 2.39312 51.84 2.20437 50.4768 1.78491 46.4919 1.59616 45.1497 1.8688ZM49.533 5.43418C53.2661 6.02142 56.6637 9.06247 57.5865 12.6698 58.5303 16.2771 57.5446 19.9054 54.902 22.527 52.637 24.7921 49.4491 25.8617 46.3871 25.3793 39.487 24.3097 35.6071 17.1789 38.5432 10.971 39.5499 8.83177 41.9408 6.67157 44.101 5.9585 46.1564 5.2664 47.5825 5.14056 49.533 5.43418Z" fill="#FFFFFF"/><path d="M79.4186 1.95316C76.2517 2.6872 74.0705 3.94557 71.8893 6.29452 69.6872 8.66445 68.8063 10.531 68.4288 13.614 68.1772 15.5855 68.4288 18.3539 69.037 20.0736 71.2182 26.2816 78.3699 30.1825 85.1861 28.8403 87.0317 28.4837 90.1776 27.0995 91.3521 26.1138L91.9393 25.6314 91.0794 23.7858 90.2196 21.9402 89.1709 22.9259C85.4168 26.4494 79.083 26.2606 75.245 22.5484 72.183 19.5703 71.365 14.8095 73.2736 10.8876 76.0839 5.09907 84.0116 3.48417 89.108 7.65775L89.9889 8.3918 90.8487 6.693 91.7086 4.99421 91.2263 4.57475C90.3454 3.81973 88.2481 2.75012 86.7591 2.28872 84.8715 1.70148 81.2432 1.5337 79.4186 1.95316Z" fill="#FFFFFF"/><path d="M99.3853 2.22622C99.3014 2.28913 99.2385 8.28735 99.2385 15.5439L99.2385 28.7148 101.231 28.7148 103.223 28.7148 103.223 15.3971 103.223 2.07941 101.378 2.07941C100.35 2.07941 99.4483 2.14233 99.3853 2.22622Z" fill="#FFFFFF"/><path d="M144.12 15.3971 144.12 28.7148 151.775 28.7148 159.43 28.7148 159.43 26.8273 159.43 24.9397 153.663 24.9397 147.895 24.9397 147.895 13.5096 147.895 2.07941 146.008 2.07941 144.12 2.07941 144.12 15.3971Z" fill="#FFFFFF"/><path d="M42.4587 38.6045C42.1999 39.1631 39.175 45.5398 35.755 52.7749 32.335 60.0101 29.5009 66.0325 29.4601 66.1688 29.3919 66.3868 29.5554 66.4004 31.5584 66.4004L33.7248 66.4004 35.2373 63.1575 36.736 59.9283 42.7312 59.8874 48.7128 59.8602 50.1435 63.1303 51.5605 66.4004 53.7815 66.4004C54.9941 66.4004 55.9888 66.3595 55.9888 66.3186 55.9888 66.2778 53.0457 59.792 49.4486 51.9165L42.922 37.5962 42.4587 38.6045ZM44.9522 51.3443C46.015 53.7424 46.9279 55.7862 46.9551 55.8679 47.0096 56.0042 46.124 56.0451 42.7857 56.0451 40.4558 56.0451 38.5482 56.0178 38.5482 55.9769 38.5482 55.936 39.3521 54.1784 40.3332 52.0664 41.3278 49.9409 42.2816 47.8834 42.4587 47.4746 42.6495 47.0523 42.8402 46.7934 42.9084 46.8615 42.9629 46.9296 43.8894 48.9462 44.9522 51.3443Z" fill="#FFFFFF"/><path d="M132.578 38.3047C131.733 40.0352 119.348 66.2778 119.348 66.3323 119.348 66.3731 120.329 66.3868 121.528 66.3731L123.708 66.3323 125.207 63.1303 126.692 59.9283 132.673 59.8874 138.669 59.8602 139.786 62.4081C140.413 63.8252 141.053 65.2967 141.23 65.6782L141.544 66.4004 143.751 66.4004C145.781 66.4004 145.945 66.3868 145.877 66.1551 145.822 65.9644 132.987 37.7733 132.919 37.6916 132.905 37.6643 132.742 37.9505 132.578 38.3047ZM134.84 51.1808C135.903 53.5925 136.816 55.6772 136.87 55.7998 136.952 56.0314 136.693 56.0451 132.701 56.0451 130.316 56.0451 128.477 55.9906 128.504 55.9224 128.749 55.2684 132.769 46.7798 132.823 46.7798 132.864 46.7798 133.777 48.7554 134.84 51.1808Z" fill="#FFFFFF"/><path d="M12.6605 38.8788C7.987 39.5328 3.76312 42.5985 1.63755 46.8633-0.419893 50.9645-0.0520064 56.6055 2.53683 60.5023 4.28088 63.1457 7.769 65.6255 10.8211 66.4022 13.9958 67.2197 17.4703 66.9744 20.4815 65.7209 21.5716 65.2712 23.9151 63.7724 24.1604 63.3773 24.2558 63.2138 24.1604 62.8868 23.7653 62.0148 23.4791 61.4016 23.1112 60.5705 22.9341 60.189L22.6344 59.4941 21.7487 60.3252C19.5686 62.4099 16.6937 63.3637 13.6961 63.023 11.1345 62.7369 9.11792 61.7695 7.29211 59.9301 6.1612 58.7992 5.43905 57.6274 4.93491 56.1149 4.59427 55.1067 4.56702 54.8478 4.55339 52.7767 4.55339 50.6511 4.58064 50.4604 4.93491 49.4385 5.47992 47.9124 6.33833 46.5908 7.59187 45.3917 8.80453 44.2336 10.0036 43.5114 11.5432 42.9936 12.4834 42.6803 12.8104 42.6394 14.6362 42.6258 16.4075 42.6258 16.8163 42.6666 17.7019 42.9391 19.3642 43.4705 20.5905 44.1654 21.7623 45.2555L22.3618 45.8141 22.9341 44.5606C23.2611 43.8657 23.6563 43.0481 23.8198 42.7348L24.1059 42.1489 23.193 41.4676C21.8713 40.4866 20.0319 39.6145 18.4513 39.2194 16.9117 38.8243 14.2002 38.6607 12.6605 38.8788Z" fill="#FFFFFF"/><path d="M63.3481 52.8294 63.3481 66.4004 65.392 66.4004 67.4358 66.4004 67.4358 60.8957 67.4358 55.4047 69.5205 55.3229C71.9322 55.2275 72.9268 55.0095 74.5074 54.2601 76.4422 53.32 77.8865 51.6168 78.4043 49.6275 78.922 47.6927 78.7313 45.4036 77.9274 43.714 77.3006 42.406 75.8563 40.9208 74.6028 40.3077 72.9813 39.5038 72.2319 39.4084 67.5448 39.3266L63.3481 39.2585 63.3481 52.8294ZM70.6786 43.1009C72.5589 43.4143 73.8125 44.1773 74.3984 45.3763 74.6573 45.9077 74.7118 46.2484 74.7118 47.2566 74.7118 48.6601 74.4529 49.4095 73.7035 50.1589 72.7633 51.1126 71.537 51.5078 69.1117 51.6304L67.4358 51.7258 67.4358 47.352 67.4358 42.9646 68.6348 42.9646C69.2888 42.9646 70.2017 43.0328 70.6786 43.1009Z" fill="#FFFFFF"/><path d="M86.7832 52.8431 86.7832 66.4004 88.827 66.4004 90.8708 66.4004 90.8708 52.8431 90.8708 39.2858 88.827 39.2858 86.7832 39.2858 86.7832 52.8431Z" fill="#FFFFFF"/><path d="M98.3662 41.1933 98.3662 43.1009 102.454 43.1009 106.541 43.1009 106.541 54.7506 106.541 66.4004 108.585 66.4004 110.629 66.4004 110.629 54.7506 110.629 43.1009 114.349 43.1009 118.069 43.1009 118.859 41.3568C119.295 40.403 119.69 39.5446 119.717 39.4493 119.772 39.3266 117.592 39.2858 109.076 39.2858L98.3662 39.2858 98.3662 41.1933Z" fill="#FFFFFF"/><path d="M153.274 52.8431 153.274 66.4004 161.176 66.4004 169.079 66.4004 169.079 64.4928 169.079 62.5853 163.22 62.5853 157.361 62.5853 157.361 50.9355 157.361 39.2858 155.317 39.2858 153.274 39.2858 153.274 52.8431Z" fill="#FFFFFF"/></svg>