<svg width="306" height="73" xmlns="http://www.w3.org/2000/svg" xmlns:xlink="http://www.w3.org/1999/xlink" overflow="hidden"><defs><clipPath id="clip0"><rect x="124" y="450" width="306" height="73"/></clipPath><clipPath id="clip1"><rect x="192" y="486" width="238" height="37"/></clipPath><clipPath id="clip2"><rect x="192" y="486" width="238" height="37"/></clipPath><clipPath id="clip3"><rect x="-62" y="486" width="492" height="37"/></clipPath><linearGradient x1="-1.66517" y1="43.2609" x2="45.0878" y2="-8.43656" gradientUnits="userSpaceOnUse" spreadMethod="pad" id="fill4"><stop offset="0" stop-color="#003AE6"/><stop offset="0.085" stop-color="#003AE6"/><stop offset="0.353" stop-color="#007BFF"/><stop offset="0.432" stop-color="#0B9BF2"/><stop offset="0.536" stop-color="#18BFE4"/><stop offset="0.64" stop-color="#21DBD9"/><stop offset="0.745" stop-color="#28EFD1"/><stop offset="0.85" stop-color="#2DFBCD"/><stop offset="0.955" stop-color="#2EFFCB"/><stop offset="1" stop-color="#2EFFCB"/></linearGradient><clipPath id="clip5"><rect x="192" y="451" width="191" height="37"/></clipPath><clipPath id="clip6"><rect x="192" y="451" width="191" height="37"/></clipPath><clipPath id="clip7"><rect x="129" y="451" width="492" height="37"/></clipPath><linearGradient x1="-1.66517" y1="43.2609" x2="45.0878" y2="-8.43656" gradientUnits="userSpaceOnUse" spreadMethod="pad" id="fill8"><stop offset="0" stop-color="#003AE6"/><stop offset="0.085" stop-color="#003AE6"/><stop offset="0.353" stop-color="#007BFF"/><stop offset="0.432" stop-color="#0B9BF2"/><stop offset="0.536" stop-color="#18BFE4"/><stop offset="0.64" stop-color="#21DBD9"/><stop offset="0.745" stop-color="#28EFD1"/><stop offset="0.85" stop-color="#2DFBCD"/><stop offset="0.955" stop-color="#2EFFCB"/><stop offset="1" stop-color="#2EFFCB"/></linearGradient><clipPath id="clip9"><rect x="125" y="460" width="64" height="53"/></clipPath><clipPath id="clip10"><rect x="125" y="460" width="64" height="53"/></clipPath><clipPath id="clip11"><rect x="124" y="460" width="705" height="53"/></clipPath><linearGradient x1="-2.38524" y1="61.9683" x2="64.5852" y2="-12.0848" gradientUnits="userSpaceOnUse" spreadMethod="pad" id="fill12"><stop offset="0" stop-color="#003AE6"/><stop offset="0.085" stop-color="#003AE6"/><stop offset="0.353" stop-color="#007BFF"/><stop offset="0.432" stop-color="#0B9BF2"/><stop offset="0.536" stop-color="#18BFE4"/><stop offset="0.64" stop-color="#21DBD9"/><stop offset="0.745" stop-color="#28EFD1"/><stop offset="0.85" stop-color="#2DFBCD"/><stop offset="0.955" stop-color="#2EFFCB"/><stop offset="1" stop-color="#2EFFCB"/></linearGradient></defs><g clip-path="url(#clip0)" transform="translate(-124 -450)"><g clip-path="url(#clip1)"><g clip-path="url(#clip2)"><g clip-path="url(#clip3)"><path d="M73.0401 21.1407 87.5788 21.1407 87.5788 25.9565 67.6406 25.9565 67.6406 31.1003 87.3411 31.1003C88.7677 31.0987 90.1349 30.5313 91.1437 29.5226 92.1525 28.5139 92.72 27.1462 92.7218 25.7197L92.7218 21.3784C92.72 19.9518 92.1525 18.5842 91.1437 17.5755 90.1349 16.5668 88.7677 15.9994 87.3411 15.9977L72.8025 15.9977 72.8025 11.1819 92.7218 11.1819 92.7218 6.03711 73.0401 6.03711C71.6136 6.03877 70.2459 6.60619 69.2372 7.6149 68.2285 8.62362 67.6611 9.99125 67.6595 11.4178L67.6595 15.76C67.6611 17.1866 68.2285 18.5542 69.2372 19.5629 70.2459 20.5716 71.6136 21.139 73.0401 21.1407Z" fill="#FFFFFF" transform="matrix(1.00094 0 0 1 -61.4614 486)"/><path d="M117.959 6.03711 102.637 6.03711C101.21 6.03877 99.8427 6.60619 98.8339 7.6149 97.8252 8.62362 97.2576 9.99125 97.2559 11.4178L97.2559 25.7197C97.2576 27.1462 97.8252 28.5139 98.8339 29.5226 99.8427 30.5313 101.21 31.0987 102.637 31.1003L117.959 31.1003C119.386 31.0985 120.754 30.5309 121.762 29.5223 122.771 28.5136 123.338 27.1462 123.34 25.7197L123.34 11.4178C123.338 9.99134 122.771 8.62384 121.762 7.61518 120.754 6.60651 119.386 6.03901 117.959 6.03711ZM118.197 11.181 118.197 25.9565 102.4 25.9565 102.4 11.181 118.197 11.181Z" fill="#FFFFFF" transform="matrix(1.00094 0 0 1 -61.4614 486)"/><path d="M131.348 31.1003 152.562 31.1003 152.562 25.9565 133.153 25.9565 133.153 6.03711 128.01 6.03711 128.01 27.7625C128.011 28.6476 128.362 29.4961 128.988 30.122 129.614 30.7477 130.462 31.0996 131.348 31.1003Z" fill="#FFFFFF" transform="matrix(1.00094 0 0 1 -61.4614 486)"/><path d="M178.827 6.03711 161.463 6.03711C160.306 6.03829 159.199 6.49794 158.381 7.3152 157.564 8.13246 157.104 9.24058 157.104 10.3964L157.104 31.1003 162.246 31.1003 162.246 22.928 178.043 22.928 178.043 31.1003 183.188 31.1003 183.188 10.3964C183.186 9.24034 182.726 8.13211 181.909 7.31484 181.091 6.49758 179.983 6.03806 178.827 6.03711ZM178.042 11.181 178.042 17.7849 162.246 17.7849 162.246 11.181 178.042 11.181Z" fill="#FFFFFF" transform="matrix(1.00094 0 0 1 -61.4614 486)"/><path d="M208.699 25.9565 207.742 25.9565 198.092 7.80826C197.807 7.27294 197.383 6.82516 196.864 6.51309 196.345 6.20102 195.749 6.03645 195.143 6.03711L191.096 6.03711C190.21 6.0383 189.363 6.39045 188.736 7.01635 188.11 7.64225 187.759 8.49079 187.758 9.37582L187.758 31.1003 192.902 31.1003 192.902 11.181 194.062 11.181 203.709 29.3293C203.993 29.8645 204.418 30.3123 204.937 30.6244 205.456 30.9364 206.05 31.101 206.656 31.1003L210.505 31.1003C211.39 31.0994 212.238 30.7475 212.864 30.1217 213.49 29.4959 213.841 28.6475 213.842 27.7625L213.842 6.03711 208.699 6.03711 208.699 25.9565Z" fill="#FFFFFF" transform="matrix(1.00094 0 0 1 -61.4614 486)"/><path d="M240.516 6.03711 223.15 6.03711C221.995 6.03853 220.886 6.49826 220.069 7.31548 219.252 8.13268 218.792 9.24065 218.791 10.3964L218.791 31.1003 223.934 31.1003 223.934 22.928 239.731 22.928 239.731 31.1003 244.876 31.1003 244.876 10.3964C244.874 9.24058 244.415 8.13246 243.597 7.3152 242.78 6.49794 241.672 6.03829 240.516 6.03711ZM239.731 11.181 239.731 17.7849 223.934 17.7849 223.934 11.181 239.731 11.181Z" fill="#FFFFFF" transform="matrix(1.00094 0 0 1 -61.4614 486)"/><path d="M272.988 25.8712 271.451 25.8712 264.609 6.03711 259.178 6.03711 267.015 28.7519C267.241 29.406 267.666 29.9734 268.23 30.3752 268.795 30.7769 269.471 30.993 270.164 30.9932L274.274 30.9932C274.968 30.9929 275.643 30.7768 276.207 30.3751 276.772 29.9733 277.196 29.4059 277.422 28.7519L285.261 6.03711 279.829 6.03711 272.988 25.8712Z" fill="#FFFFFF" transform="matrix(1.00094 0 0 1 -61.4614 486)"/><path d="M289.416 30.9932 313.923 30.9932 313.923 25.8712 294.55 25.8712 294.55 21.0761 313.923 21.0761 313.923 15.9542 294.55 15.9542 294.55 11.159 313.923 11.159 313.923 6.03711 289.416 6.03711 289.416 30.9932Z" fill="#FFFFFF" transform="matrix(1.00094 0 0 1 -61.4614 486)"/><path d="M339.066 25.9762 338.112 25.9762 328.478 7.90567C328.195 7.37263 327.771 6.92677 327.253 6.61603 326.735 6.30529 326.141 6.14143 325.536 6.14209L321.496 6.14209C320.612 6.14327 319.765 6.49381 319.142 7.11685 318.517 7.73987 318.165 8.58452 318.164 9.46562L318.164 31.0982 323.298 31.0982 323.298 11.264 324.457 11.264 334.085 29.3337C334.368 29.8669 334.793 30.313 335.311 30.6238 335.829 30.9348 336.423 31.0988 337.028 31.0982L340.869 31.0982C341.752 31.097 342.599 30.7465 343.223 30.1235 343.848 29.5004 344.199 28.6557 344.2 27.7746L344.2 6.14209 339.066 6.14209 339.066 25.9762Z" fill="#FFFFFF" transform="matrix(1.00094 0 0 1 -61.4614 486)"/><path d="M348.303 11.264 358.244 11.264 358.244 31.0982 363.378 31.0982 363.378 11.264 373.319 11.264 373.319 6.14209 348.303 6.14209 348.303 11.264Z" fill="#FFFFFF" transform="matrix(1.00094 0 0 1 -61.4614 486)"/><path d="M398.291 21.6713C398.289 22.8126 397.834 23.9068 397.025 24.7137 396.216 25.5208 395.119 25.9748 393.975 25.9762L386.838 25.9762C385.694 25.9751 384.597 25.5211 383.788 24.714 382.98 23.907 382.524 22.8127 382.523 21.6713L382.523 6.14209 377.389 6.14209 377.389 22.6884C377.391 24.9178 378.28 27.0553 379.86 28.6318 381.441 30.2084 383.583 31.0954 385.818 31.0982L394.995 31.0982C397.23 31.0956 399.373 30.2087 400.953 28.6321 402.533 27.0556 403.422 24.918 403.425 22.6884L403.425 6.14209 398.291 6.14209 398.291 21.6713Z" fill="#FFFFFF" transform="matrix(1.00094 0 0 1 -61.4614 486)"/><path d="M432.46 13.9379C432.457 11.8436 431.622 9.83604 430.137 8.3551 428.653 6.87418 426.64 6.04065 424.541 6.03711L407.953 6.03711 407.953 30.9932 413.088 30.9932 413.088 21.8396 421.945 21.8396 426.823 30.9932 432.641 30.9932 427.467 21.2779C428.938 20.6916 430.2 19.6793 431.091 18.3711 431.981 17.0629 432.458 15.5189 432.46 13.9379ZM413.088 11.159 424.54 11.159C425.278 11.1616 425.985 11.4553 426.507 11.9761 427.029 12.4969 427.323 13.2024 427.326 13.9388 427.325 14.6754 427.032 15.3815 426.509 15.9023 425.987 16.4232 425.279 16.7161 424.541 16.7168L413.088 16.7168 413.088 11.159Z" fill="#FFFFFF" transform="matrix(1.00094 0 0 1 -61.4614 486)"/><path d="M436.668 30.9932 461.175 30.9932 461.175 25.8712 441.802 25.8712 441.802 21.0761 461.175 21.0761 461.175 15.9542 441.802 15.9542 441.802 11.159 461.175 11.159 461.175 6.03711 436.668 6.03711 436.668 30.9932Z" fill="#FFFFFF" transform="matrix(1.00094 0 0 1 -61.4614 486)"/><path d="M470.927 21.0752 485.437 21.0752 485.437 25.8704 465.537 25.8704 465.537 30.9923 485.201 30.9923C486.625 30.9907 487.99 30.4256 488.997 29.4213 490.003 28.4169 490.57 27.055 490.572 25.6346L490.572 21.3119C490.57 19.8915 490.003 18.5299 488.996 17.5255 487.99 16.5211 486.625 15.9561 485.201 15.9542L470.689 15.9542 470.689 11.159 490.572 11.159 490.572 6.03711 470.927 6.03711C469.502 6.039 468.137 6.60405 467.131 7.60841 466.124 8.61275 465.558 9.97444 465.556 11.3948L465.556 15.7175C465.558 17.1379 466.124 18.4995 467.131 19.5039 468.137 20.5083 469.502 21.0733 470.927 21.0752Z" fill="#FFFFFF" transform="matrix(1.00094 0 0 1 -61.4614 486)"/><path d="M40.9455 28.8841 34.2893 35.9715C34.1448 36.1255 33.9698 36.2483 33.7753 36.3324 33.5809 36.4163 33.3711 36.4597 33.1591 36.4596L1.60943 36.4596C1.45891 36.4596 1.31166 36.4159 1.18578 36.3339 1.0599 36.252 0.960866 36.1354 0.900827 35.9982 0.840788 35.8612 0.822364 35.7097 0.847816 35.5624 0.873268 35.4151 0.941486 35.2784 1.0441 35.169L7.70028 28.0817C7.84492 27.9278 8.0199 27.805 8.21434 27.721 8.40877 27.6371 8.61851 27.5937 8.83055 27.5935L40.3806 27.5935C40.5311 27.5935 40.6785 27.6371 40.8044 27.719 40.9304 27.801 41.0294 27.9178 41.0894 28.0548 41.1494 28.1919 41.1678 28.3435 41.1422 28.4908 41.1166 28.6381 41.0482 28.7748 40.9455 28.8841ZM34.2893 14.6124C34.1448 14.4583 33.9698 14.3354 33.7753 14.2515 33.5809 14.1675 33.3711 14.1242 33.1591 14.1243L1.60943 14.1243C1.45891 14.1243 1.31166 14.168 1.18578 14.2499 1.0599 14.3319 0.960866 14.4485 0.900827 14.5855 0.840788 14.7227 0.822364 14.8741 0.847816 15.0215 0.873268 15.1687 0.941486 15.3055 1.0441 15.4149L7.70028 22.5042C7.84487 22.6581 8.01982 22.781 8.21428 22.8649 8.40872 22.9489 8.6185 22.9923 8.83055 22.9923L40.3806 22.9923C40.5311 22.9924 40.6785 22.9487 40.8044 22.8668 40.9304 22.7848 41.0294 22.6681 41.0894 22.531 41.1494 22.3939 41.1678 22.2424 41.1422 22.095 41.1166 21.9477 41.0482 21.811 40.9455 21.7017L34.2893 14.6124ZM1.60943 9.52018 33.1591 9.52018C33.3711 9.52025 33.5809 9.47693 33.7753 9.39295 33.9698 9.30897 34.1448 9.18612 34.2893 9.03206L40.9455 1.94473C41.0482 1.83547 41.1166 1.69876 41.1422 1.55143 41.1678 1.40409 41.1494 1.25255 41.0894 1.11544 41.0294 0.978325 40.9304 0.861612 40.8044 0.779662 40.6785 0.697712 40.5311 0.654099 40.3806 0.654175L8.83055 0.654175C8.6185 0.654189 8.40872 0.69753 8.21428 0.781507 8.01982 0.865485 7.84487 0.988299 7.70028 1.14231L1.0441 8.22963C0.941223 8.33895 0.872775 8.47574 0.847174 8.62319 0.821574 8.77063 0.839938 8.92229 0.900008 9.0595 0.960079 9.19672 1.05923 9.31351 1.18527 9.3955 1.31132 9.47749 1.45876 9.5211 1.60943 9.52099L1.60943 9.52018Z" fill="url(#fill4)" transform="matrix(1.00094 0 0 1 -61.4614 486)"/></g></g></g><g clip-path="url(#clip5)"><g clip-path="url(#clip6)"><g clip-path="url(#clip7)"><path d="M73.0401 21.1407 87.5788 21.1407 87.5788 25.9565 67.6406 25.9565 67.6406 31.1003 87.3411 31.1003C88.7677 31.0987 90.1349 30.5313 91.1437 29.5226 92.1525 28.5139 92.72 27.1462 92.7218 25.7197L92.7218 21.3784C92.72 19.9518 92.1525 18.5842 91.1437 17.5755 90.1349 16.5668 88.7677 15.9994 87.3411 15.9977L72.8025 15.9977 72.8025 11.1819 92.7218 11.1819 92.7218 6.03711 73.0401 6.03711C71.6136 6.03877 70.2459 6.60619 69.2372 7.6149 68.2285 8.62362 67.6611 9.99125 67.6595 11.4178L67.6595 15.76C67.6611 17.1866 68.2285 18.5542 69.2372 19.5629 70.2459 20.5716 71.6136 21.139 73.0401 21.1407Z" fill="#FFFFFF" transform="matrix(1.0006 0 0 1 129.621 451)"/><path d="M117.959 6.03711 102.637 6.03711C101.21 6.03877 99.8427 6.60619 98.8339 7.6149 97.8252 8.62362 97.2576 9.99125 97.2559 11.4178L97.2559 25.7197C97.2576 27.1462 97.8252 28.5139 98.8339 29.5226 99.8427 30.5313 101.21 31.0987 102.637 31.1003L117.959 31.1003C119.386 31.0985 120.754 30.5309 121.762 29.5223 122.771 28.5136 123.338 27.1462 123.34 25.7197L123.34 11.4178C123.338 9.99134 122.771 8.62384 121.762 7.61518 120.754 6.60651 119.386 6.03901 117.959 6.03711ZM118.197 11.181 118.197 25.9565 102.4 25.9565 102.4 11.181 118.197 11.181Z" fill="#FFFFFF" transform="matrix(1.0006 0 0 1 129.621 451)"/><path d="M131.348 31.1003 152.562 31.1003 152.562 25.9565 133.153 25.9565 133.153 6.03711 128.01 6.03711 128.01 27.7625C128.011 28.6476 128.362 29.4961 128.988 30.122 129.614 30.7477 130.462 31.0996 131.348 31.1003Z" fill="#FFFFFF" transform="matrix(1.0006 0 0 1 129.621 451)"/><path d="M178.827 6.03711 161.463 6.03711C160.306 6.03829 159.199 6.49794 158.381 7.3152 157.564 8.13246 157.104 9.24058 157.104 10.3964L157.104 31.1003 162.246 31.1003 162.246 22.928 178.043 22.928 178.043 31.1003 183.188 31.1003 183.188 10.3964C183.186 9.24034 182.726 8.13211 181.909 7.31484 181.091 6.49758 179.983 6.03806 178.827 6.03711ZM178.042 11.181 178.042 17.7849 162.246 17.7849 162.246 11.181 178.042 11.181Z" fill="#FFFFFF" transform="matrix(1.0006 0 0 1 129.621 451)"/><path d="M208.699 25.9565 207.742 25.9565 198.092 7.80826C197.807 7.27294 197.383 6.82516 196.864 6.51309 196.345 6.20102 195.749 6.03645 195.143 6.03711L191.096 6.03711C190.21 6.0383 189.363 6.39045 188.736 7.01635 188.11 7.64225 187.759 8.49079 187.758 9.37582L187.758 31.1003 192.902 31.1003 192.902 11.181 194.062 11.181 203.709 29.3293C203.993 29.8645 204.418 30.3123 204.937 30.6244 205.456 30.9364 206.05 31.101 206.656 31.1003L210.505 31.1003C211.39 31.0994 212.238 30.7475 212.864 30.1217 213.49 29.4959 213.841 28.6475 213.842 27.7625L213.842 6.03711 208.699 6.03711 208.699 25.9565Z" fill="#FFFFFF" transform="matrix(1.0006 0 0 1 129.621 451)"/><path d="M240.516 6.03711 223.15 6.03711C221.995 6.03853 220.886 6.49826 220.069 7.31548 219.252 8.13268 218.792 9.24065 218.791 10.3964L218.791 31.1003 223.934 31.1003 223.934 22.928 239.731 22.928 239.731 31.1003 244.876 31.1003 244.876 10.3964C244.874 9.24058 244.415 8.13246 243.597 7.3152 242.78 6.49794 241.672 6.03829 240.516 6.03711ZM239.731 11.181 239.731 17.7849 223.934 17.7849 223.934 11.181 239.731 11.181Z" fill="#FFFFFF" transform="matrix(1.0006 0 0 1 129.621 451)"/><path d="M272.988 25.8712 271.451 25.8712 264.609 6.03711 259.178 6.03711 267.015 28.7519C267.241 29.406 267.666 29.9734 268.23 30.3752 268.795 30.7769 269.471 30.993 270.164 30.9932L274.274 30.9932C274.968 30.9929 275.643 30.7768 276.207 30.3751 276.772 29.9733 277.196 29.4059 277.422 28.7519L285.261 6.03711 279.829 6.03711 272.988 25.8712Z" fill="#FFFFFF" transform="matrix(1.0006 0 0 1 129.621 451)"/><path d="M289.416 30.9932 313.923 30.9932 313.923 25.8712 294.55 25.8712 294.55 21.0761 313.923 21.0761 313.923 15.9542 294.55 15.9542 294.55 11.159 313.923 11.159 313.923 6.03711 289.416 6.03711 289.416 30.9932Z" fill="#FFFFFF" transform="matrix(1.0006 0 0 1 129.621 451)"/><path d="M339.066 25.9762 338.112 25.9762 328.478 7.90567C328.195 7.37263 327.771 6.92677 327.253 6.61603 326.735 6.30529 326.141 6.14143 325.536 6.14209L321.496 6.14209C320.612 6.14327 319.765 6.49381 319.142 7.11685 318.517 7.73987 318.165 8.58452 318.164 9.46562L318.164 31.0982 323.298 31.0982 323.298 11.264 324.457 11.264 334.085 29.3337C334.368 29.8669 334.793 30.313 335.311 30.6238 335.829 30.9348 336.423 31.0988 337.028 31.0982L340.869 31.0982C341.752 31.097 342.599 30.7465 343.223 30.1235 343.848 29.5004 344.199 28.6557 344.2 27.7746L344.2 6.14209 339.066 6.14209 339.066 25.9762Z" fill="#FFFFFF" transform="matrix(1.0006 0 0 1 129.621 451)"/><path d="M348.303 11.264 358.244 11.264 358.244 31.0982 363.378 31.0982 363.378 11.264 373.319 11.264 373.319 6.14209 348.303 6.14209 348.303 11.264Z" fill="#FFFFFF" transform="matrix(1.0006 0 0 1 129.621 451)"/><path d="M398.291 21.6713C398.289 22.8126 397.834 23.9068 397.025 24.7137 396.216 25.5208 395.119 25.9748 393.975 25.9762L386.838 25.9762C385.694 25.9751 384.597 25.5211 383.788 24.714 382.98 23.907 382.524 22.8127 382.523 21.6713L382.523 6.14209 377.389 6.14209 377.389 22.6884C377.391 24.9178 378.28 27.0553 379.86 28.6318 381.441 30.2084 383.583 31.0954 385.818 31.0982L394.995 31.0982C397.23 31.0956 399.373 30.2087 400.953 28.6321 402.533 27.0556 403.422 24.918 403.425 22.6884L403.425 6.14209 398.291 6.14209 398.291 21.6713Z" fill="#FFFFFF" transform="matrix(1.0006 0 0 1 129.621 451)"/><path d="M432.46 13.9379C432.457 11.8436 431.622 9.83604 430.137 8.3551 428.653 6.87418 426.64 6.04065 424.541 6.03711L407.953 6.03711 407.953 30.9932 413.088 30.9932 413.088 21.8396 421.945 21.8396 426.823 30.9932 432.641 30.9932 427.467 21.2779C428.938 20.6916 430.2 19.6793 431.091 18.3711 431.981 17.0629 432.458 15.5189 432.46 13.9379ZM413.088 11.159 424.54 11.159C425.278 11.1616 425.985 11.4553 426.507 11.9761 427.029 12.4969 427.323 13.2024 427.326 13.9388 427.325 14.6754 427.032 15.3815 426.509 15.9023 425.987 16.4232 425.279 16.7161 424.541 16.7168L413.088 16.7168 413.088 11.159Z" fill="#FFFFFF" transform="matrix(1.0006 0 0 1 129.621 451)"/><path d="M436.668 30.9932 461.175 30.9932 461.175 25.8712 441.802 25.8712 441.802 21.0761 461.175 21.0761 461.175 15.9542 441.802 15.9542 441.802 11.159 461.175 11.159 461.175 6.03711 436.668 6.03711 436.668 30.9932Z" fill="#FFFFFF" transform="matrix(1.0006 0 0 1 129.621 451)"/><path d="M470.927 21.0752 485.437 21.0752 485.437 25.8704 465.537 25.8704 465.537 30.9923 485.201 30.9923C486.625 30.9907 487.99 30.4256 488.997 29.4213 490.003 28.4169 490.57 27.055 490.572 25.6346L490.572 21.3119C490.57 19.8915 490.003 18.5299 488.996 17.5255 487.99 16.5211 486.625 15.9561 485.201 15.9542L470.689 15.9542 470.689 11.159 490.572 11.159 490.572 6.03711 470.927 6.03711C469.502 6.039 468.137 6.60405 467.131 7.60841 466.124 8.61275 465.558 9.97444 465.556 11.3948L465.556 15.7175C465.558 17.1379 466.124 18.4995 467.131 19.5039 468.137 20.5083 469.502 21.0733 470.927 21.0752Z" fill="#FFFFFF" transform="matrix(1.0006 0 0 1 129.621 451)"/><path d="M40.9455 28.8841 34.2893 35.9715C34.1448 36.1255 33.9698 36.2483 33.7753 36.3324 33.5809 36.4163 33.3711 36.4597 33.1591 36.4596L1.60943 36.4596C1.45891 36.4596 1.31166 36.4159 1.18578 36.3339 1.0599 36.252 0.960866 36.1354 0.900827 35.9982 0.840788 35.8612 0.822364 35.7097 0.847816 35.5624 0.873268 35.4151 0.941486 35.2784 1.0441 35.169L7.70028 28.0817C7.84492 27.9278 8.0199 27.805 8.21434 27.721 8.40877 27.6371 8.61851 27.5937 8.83055 27.5935L40.3806 27.5935C40.5311 27.5935 40.6785 27.6371 40.8044 27.719 40.9304 27.801 41.0294 27.9178 41.0894 28.0548 41.1494 28.1919 41.1678 28.3435 41.1422 28.4908 41.1166 28.6381 41.0482 28.7748 40.9455 28.8841ZM34.2893 14.6124C34.1448 14.4583 33.9698 14.3354 33.7753 14.2515 33.5809 14.1675 33.3711 14.1242 33.1591 14.1243L1.60943 14.1243C1.45891 14.1243 1.31166 14.168 1.18578 14.2499 1.0599 14.3319 0.960866 14.4485 0.900827 14.5855 0.840788 14.7227 0.822364 14.8741 0.847816 15.0215 0.873268 15.1687 0.941486 15.3055 1.0441 15.4149L7.70028 22.5042C7.84487 22.6581 8.01982 22.781 8.21428 22.8649 8.40872 22.9489 8.6185 22.9923 8.83055 22.9923L40.3806 22.9923C40.5311 22.9924 40.6785 22.9487 40.8044 22.8668 40.9304 22.7848 41.0294 22.6681 41.0894 22.531 41.1494 22.3939 41.1678 22.2424 41.1422 22.095 41.1166 21.9477 41.0482 21.811 40.9455 21.7017L34.2893 14.6124ZM1.60943 9.52018 33.1591 9.52018C33.3711 9.52025 33.5809 9.47693 33.7753 9.39295 33.9698 9.30897 34.1448 9.18612 34.2893 9.03206L40.9455 1.94473C41.0482 1.83547 41.1166 1.69876 41.1422 1.55143 41.1678 1.40409 41.1494 1.25255 41.0894 1.11544 41.0294 0.978325 40.9304 0.861612 40.8044 0.779662 40.6785 0.697712 40.5311 0.654099 40.3806 0.654175L8.83055 0.654175C8.6185 0.654189 8.40872 0.69753 8.21428 0.781507 8.01982 0.865485 7.84487 0.988299 7.70028 1.14231L1.0441 8.22963C0.941223 8.33895 0.872775 8.47574 0.847174 8.62319 0.821574 8.77063 0.839938 8.92229 0.900008 9.0595 0.960079 9.19672 1.05923 9.31351 1.18527 9.3955 1.31132 9.47749 1.45876 9.5211 1.60943 9.52099L1.60943 9.52018Z" fill="url(#fill8)" transform="matrix(1.0006 0 0 1 129.621 451)"/></g></g></g><g clip-path="url(#clip9)"><g clip-path="url(#clip10)"><g clip-path="url(#clip11)"><path d="M104.625 30.2826 125.451 30.2826 125.451 37.1809 96.8906 37.1809 96.8906 44.5491 125.11 44.5491C127.154 44.5468 129.112 43.734 130.557 42.2891 132.002 40.8442 132.815 38.8851 132.818 36.8417L132.818 30.6231C132.815 28.5796 132.002 26.6206 130.557 25.1757 129.112 23.7308 127.154 22.9181 125.11 22.9156L104.285 22.9156 104.285 16.0173 132.818 16.0173 132.818 8.64775 104.625 8.64775C102.582 8.65013 100.623 9.46292 99.1776 10.9078 97.7327 12.3528 96.92 14.3118 96.9177 16.3552L96.9177 22.5751C96.92 24.6186 97.7327 26.5776 99.1776 28.0225 100.623 29.4674 102.582 30.2802 104.625 30.2826Z" fill="#FFFFFF" transform="matrix(1.00029 0 0 1 124.993 460)"/><path d="M168.968 8.64775 147.021 8.64775C144.976 8.65013 143.018 9.46292 141.573 10.9078 140.128 12.3528 139.315 14.3118 139.312 16.3552L139.312 36.8417C139.315 38.8851 140.128 40.8442 141.573 42.2891 143.018 43.734 144.976 44.5468 147.021 44.5491L168.968 44.5491C171.012 44.5465 172.972 43.7334 174.416 42.2887 175.861 40.8438 176.673 38.8851 176.676 36.8417L176.676 16.3552C176.673 14.3119 175.861 12.3531 174.416 10.9082 172.972 9.46338 171.012 8.65047 168.968 8.64775ZM169.309 16.016 169.309 37.1809 146.681 37.1809 146.681 16.016 169.309 16.016Z" fill="#FFFFFF" transform="matrix(1.00029 0 0 1 124.993 460)"/><path d="M188.147 44.5491 218.535 44.5491 218.535 37.1809 190.733 37.1809 190.733 8.64775 183.366 8.64775 183.366 39.7679C183.367 41.0358 183.87 42.2512 184.767 43.1477 185.663 44.044 186.878 44.5481 188.147 44.5491Z" fill="#FFFFFF" transform="matrix(1.00029 0 0 1 124.993 460)"/><path d="M256.158 8.64775 231.285 8.64775C229.628 8.64944 228.042 9.30786 226.87 10.4785 225.7 11.6492 225.041 13.2365 225.041 14.8921L225.041 44.5491 232.406 44.5491 232.406 32.8428 255.035 32.8428 255.035 44.5491 262.404 44.5491 262.404 14.8921C262.402 13.2362 261.743 11.6487 260.572 10.478 259.401 9.30734 257.813 8.64911 256.158 8.64775ZM255.033 16.016 255.033 25.4757 232.406 25.4757 232.406 16.016 255.033 16.016Z" fill="#FFFFFF" transform="matrix(1.00029 0 0 1 124.993 460)"/><path d="M298.947 37.1809 297.576 37.1809 283.753 11.1848C283.345 10.418 282.738 9.77658 281.994 9.32956 281.251 8.88254 280.397 8.64681 279.529 8.64775L273.732 8.64775C272.463 8.64946 271.25 9.15389 270.352 10.0504 269.455 10.947 268.952 12.1625 268.951 13.4302L268.951 44.5491 276.319 44.5491 276.319 16.016 277.981 16.016 291.799 42.0122C292.206 42.7789 292.815 43.4203 293.558 43.8674 294.302 44.3143 295.153 44.5501 296.021 44.5491L301.534 44.5491C302.802 44.5478 304.017 44.0437 304.913 43.1473 305.81 42.2509 306.313 41.0356 306.314 39.7679L306.314 8.64775 298.947 8.64775 298.947 37.1809Z" fill="#FFFFFF" transform="matrix(1.00029 0 0 1 124.993 460)"/><path d="M344.523 8.64775 319.647 8.64775C317.993 8.64979 316.404 9.30832 315.234 10.4789 314.064 11.6495 313.405 13.2366 313.403 14.8921L313.403 44.5491 320.77 44.5491 320.77 32.8428 343.398 32.8428 343.398 44.5491 350.768 44.5491 350.768 14.8921C350.765 13.2365 350.108 11.6492 348.936 10.4785 347.766 9.30786 346.179 8.64944 344.523 8.64775ZM343.398 16.016 343.398 25.4757 320.77 25.4757 320.77 16.016 343.398 16.016Z" fill="#FFFFFF" transform="matrix(1.00029 0 0 1 124.993 460)"/><path d="M391.037 37.0587 388.835 37.0587 379.035 8.64775 371.255 8.64775 382.481 41.1852C382.805 42.1221 383.413 42.9349 384.221 43.5104 385.031 44.0858 385.999 44.3954 386.992 44.3957L392.879 44.3957C393.873 44.3952 394.84 44.0857 395.648 43.5103 396.457 42.9347 397.065 42.122 397.388 41.1852L408.617 8.64775 400.836 8.64775 391.037 37.0587Z" fill="#FFFFFF" transform="matrix(1.00029 0 0 1 124.993 460)"/><path d="M414.569 44.3957 449.673 44.3957 449.673 37.0587 421.923 37.0587 421.923 30.1901 449.673 30.1901 449.673 22.8533 421.923 22.8533 421.923 15.9845 449.673 15.9845 449.673 8.64775 414.569 8.64775 414.569 44.3957Z" fill="#FFFFFF" transform="matrix(1.00029 0 0 1 124.993 460)"/><path d="M485.689 37.2092 484.323 37.2092 470.523 11.3243C470.117 10.5608 469.51 9.92213 468.768 9.47702 468.026 9.0319 467.175 8.79718 466.308 8.79813L460.521 8.79813C459.255 8.79982 458.042 9.30194 457.149 10.1944 456.254 11.0868 455.75 12.2967 455.748 13.5589L455.748 44.5461 463.103 44.5461 463.103 16.1349 464.763 16.1349 478.554 42.0185C478.96 42.7823 479.568 43.4213 480.31 43.8665 481.052 44.312 481.903 44.5469 482.77 44.5461L488.272 44.5461C489.537 44.5443 490.75 44.0423 491.644 43.1499 492.539 42.2573 493.042 41.0474 493.043 39.7852L493.043 8.79813 485.689 8.79813 485.689 37.2092Z" fill="#FFFFFF" transform="matrix(1.00029 0 0 1 124.993 460)"/><path d="M498.921 16.1349 513.16 16.1349 513.16 44.5461 520.514 44.5461 520.514 16.1349 534.754 16.1349 534.754 8.79813 498.921 8.79813 498.921 16.1349Z" fill="#FFFFFF" transform="matrix(1.00029 0 0 1 124.993 460)"/><path d="M570.525 31.0427C570.522 32.6775 569.87 34.2449 568.711 35.4007 567.553 36.5568 565.981 37.2071 564.343 37.2092L554.119 37.2092C552.481 37.2076 550.909 36.5573 549.75 35.4011 548.593 34.2452 547.94 32.6777 547.938 31.0427L547.938 8.79813 540.584 8.79813 540.584 32.4996C540.587 35.6931 541.861 38.7549 544.124 41.0131 546.388 43.2715 549.457 44.5421 552.658 44.5461L565.804 44.5461C569.005 44.5423 572.075 43.2719 574.338 41.0135 576.601 38.7553 577.875 35.6933 577.879 32.4996L577.879 8.79813 570.525 8.79813 570.525 31.0427Z" fill="#FFFFFF" transform="matrix(1.00029 0 0 1 124.993 460)"/><path d="M619.47 19.9651C619.465 16.9652 618.269 14.0895 616.142 11.9681 614.016 9.8468 611.133 8.65282 608.126 8.64775L584.365 8.64775 584.365 44.3957 591.721 44.3957 591.721 31.2838 604.408 31.2838 611.395 44.3957 619.729 44.3957 612.318 30.4792C614.425 29.6393 616.232 28.1893 617.509 26.3154 618.784 24.4415 619.467 22.2298 619.47 19.9651ZM591.721 15.9845 608.125 15.9845C609.182 15.9882 610.195 16.4089 610.942 17.155 611.69 17.901 612.111 18.9115 612.116 19.9664 612.114 21.0215 611.695 22.033 610.945 22.779 610.198 23.5251 609.183 23.9447 608.126 23.9457L591.721 23.9457 591.721 15.9845Z" fill="#FFFFFF" transform="matrix(1.00029 0 0 1 124.993 460)"/><path d="M625.497 44.3957 660.602 44.3957 660.602 37.0587 632.852 37.0587 632.852 30.1901 660.602 30.1901 660.602 22.8533 632.852 22.8533 632.852 15.9845 660.602 15.9845 660.602 8.64775 625.497 8.64775 625.497 44.3957Z" fill="#FFFFFF" transform="matrix(1.00029 0 0 1 124.993 460)"/><path d="M674.571 30.1888 695.356 30.1888 695.356 37.0576 666.85 37.0576 666.85 44.3944 695.018 44.3944C697.057 44.3921 699.013 43.5826 700.455 42.144 701.896 40.7053 702.708 38.7545 702.711 36.7198L702.711 30.5279C702.708 28.4932 701.896 26.5428 700.454 25.1041 699.013 23.6654 697.057 22.856 695.018 22.8533L674.23 22.8533 674.23 15.9845 702.711 15.9845 702.711 8.64775 674.571 8.64775C672.53 8.65046 670.575 9.45986 669.134 10.8985 667.691 12.3372 666.88 14.2877 666.878 16.3223L666.878 22.5143C666.88 24.5489 667.691 26.4993 669.134 27.938 670.575 29.3768 672.53 30.1861 674.571 30.1888Z" fill="#FFFFFF" transform="matrix(1.00029 0 0 1 124.993 460)"/><path d="M58.6517 41.3745 49.1171 51.5267C48.9101 51.7473 48.6594 51.9232 48.3808 52.0437 48.1024 52.1639 47.8018 52.2261 47.4982 52.2259L2.3054 52.2259C2.08979 52.2259 1.87886 52.1633 1.69855 52.0459 1.51824 51.9285 1.37638 51.7615 1.29037 51.565 1.20437 51.3687 1.17798 51.1517 1.21444 50.9407 1.2509 50.7297 1.34862 50.5339 1.4956 50.3772L11.0301 40.2251C11.2373 40.0047 11.488 39.8288 11.7665 39.7085 12.045 39.5883 12.3454 39.5261 12.6492 39.5258L57.8425 39.5258C58.0581 39.5258 58.2692 39.5883 58.4495 39.7056 58.63 39.8231 58.7718 39.9904 58.8578 40.1866 58.9437 40.383 58.9701 40.6001 58.9334 40.8111 58.8968 41.0221 58.7988 41.218 58.6517 41.3745ZM49.1171 20.9313C48.9101 20.7105 48.6594 20.5345 48.3808 20.4143 48.1024 20.294 47.8018 20.232 47.4982 20.2321L2.3054 20.2321C2.08979 20.2321 1.87886 20.2947 1.69855 20.412 1.51824 20.5295 1.37638 20.6965 1.29037 20.8927 1.20437 21.0893 1.17798 21.3061 1.21444 21.5173 1.2509 21.7281 1.34862 21.9241 1.4956 22.0808L11.0301 32.2357C11.2372 32.4562 11.4879 32.6322 11.7664 32.7524 12.0449 32.8727 12.3454 32.9349 12.6492 32.9349L57.8425 32.9349C58.0581 32.9351 58.2692 32.8725 58.4495 32.7551 58.63 32.6377 58.7718 32.4705 58.8578 32.2741 58.9437 32.0777 58.9701 31.8607 58.9334 31.6496 58.8968 31.4386 58.7988 31.2428 58.6517 31.0862L49.1171 20.9313ZM2.3054 13.637 47.4982 13.637C47.8018 13.6371 48.1024 13.5751 48.3808 13.4548 48.6594 13.3345 48.9101 13.1585 49.1171 12.9378L58.6517 2.78569C58.7988 2.62919 58.8968 2.43336 58.9334 2.22232 58.9701 2.01126 58.9437 1.79419 58.8578 1.59779 58.7718 1.40138 58.63 1.2342 58.4495 1.11681 58.2692 0.999425 58.0581 0.936953 57.8425 0.937061L12.6492 0.937061C12.3454 0.937082 12.0449 0.999165 11.7664 1.11946 11.4879 1.23975 11.2372 1.41567 11.0301 1.63628L1.4956 11.7884C1.34824 11.945 1.25019 12.1409 1.21352 12.3521 1.17685 12.5633 1.20315 12.7806 1.2892 12.9771 1.37525 13.1737 1.51728 13.341 1.69782 13.4584 1.87838 13.5759 2.08958 13.6383 2.3054 13.6382L2.3054 13.637Z" fill="url(#fill12)" transform="matrix(1.00029 0 0 1 124.993 460)"/></g></g></g></g></svg>