<?xml version="1.0" encoding="UTF-8" standalone="no"?> <!-- Created with Vectornator for iOS (http://vectornator.io/) --><!DOCTYPE svg PUBLIC "-//W3C//DTD SVG 1.1//EN" "http://www.w3.org/Graphics/SVG/1.1/DTD/svg11.dtd">
<svg height="100%" style="fill-rule:nonzero;clip-rule:evenodd;stroke-linecap:round;stroke-linejoin:round;" xmlns:xlink="http://www.w3.org/1999/xlink" xmlns="http://www.w3.org/2000/svg" xml:space="preserve" width="100%" xmlns:vectornator="http://vectornator.io" version="1.1" viewBox="0 0 128 128">
<metadata>
<vectornator:setting key="DimensionsVisible" value="1"/>
<vectornator:setting key="PencilOnly" value="0"/>
<vectornator:setting key="SnapToPoints" value="0"/>
<vectornator:setting key="OutlineMode" value="0"/>
<vectornator:setting key="CMYKEnabledKey" value="0"/>
<vectornator:setting key="RulersVisible" value="1"/>
<vectornator:setting key="SnapToEdges" value="0"/>
<vectornator:setting key="GuidesVisible" value="1"/>
<vectornator:setting key="DisplayWhiteBackground" value="0"/>
<vectornator:setting key="doHistoryDisabled" value="0"/>
<vectornator:setting key="SnapToGuides" value="1"/>
<vectornator:setting key="TimeLapseWatermarkDisabled" value="0"/>
<vectornator:setting key="Units" value="Points"/>
<vectornator:setting key="DynamicGuides" value="0"/>
<vectornator:setting key="IsolateActiveLayer" value="0"/>
<vectornator:setting key="SnapToGrid" value="0"/>
</metadata>
<defs/>
<g id="Page-1" vectornator:layerName="Page-1">
<g opacity="1">
<path d="M0+0L128+0L128+0L128+128L128+128L0+128L0+128L0+0L0+0Z" opacity="0" fill="#ffffff"/>
<path d="M90.847+57.761C88.57+55.484+88.57+51.7922+90.847+49.5151C93.124+47.2381+96.8158+47.2381+99.0929+49.5151C101.37+51.7922+101.37+55.484+99.0929+57.761C96.8158+60.038+93.124+60.038+90.847+57.761ZM71.263+77.345C69.5553+75.6372+69.5553+72.8683+71.263+71.1606C72.9708+69.4528+75.7397+69.4528+77.4475+71.1606C79.1552+72.8683+79.1552+75.6372+77.4475+77.345C75.7397+79.0527+72.9708+79.0527+71.263+77.345ZM102.185+67.0376C100.477+65.3298+100.477+62.561+102.185+60.8532C103.893+59.1454+106.662+59.1454+108.369+60.8532C110.077+62.561+110.077+65.3298+108.369+67.0376C106.662+68.7454+103.893+68.7454+102.185+67.0376ZM91.8777+77.345C90.17+75.6372+90.17+72.8683+91.8777+71.1606C93.5855+69.4528+96.3544+69.4528+98.0621+71.1606C99.7699+72.8683+99.7699+75.6372+98.0621+77.345C96.3544+79.0527+93.5855+79.0527+91.8777+77.345ZM113.523+76.3142C112.385+75.1757+112.385+73.3298+113.523+72.1913C114.662+71.0528+116.508+71.0528+117.646+72.1913C118.785+73.3298+118.785+75.1757+117.646+76.3142C116.508+77.4527+114.662+77.4527+113.523+76.3142ZM103.216+86.6216C102.077+85.4831+102.077+83.6372+103.216+82.4986C104.354+81.3601+106.2+81.3601+107.339+82.4986C108.477+83.6372+108.477+85.4831+107.339+86.6216C106.2+87.7601+104.354+87.7601+103.216+86.6216ZM80.5397+68.0684C78.2626+65.7913+78.2626+62.0995+80.5397+59.8225C82.8167+57.5454+86.5085+57.5454+88.7855+59.8225C91.0626+62.0995+91.0626+65.7913+88.7855+68.0684C86.5085+70.3454+82.8167+70.3454+80.5397+68.0684ZM80.5397+47.4537C78.2626+45.1766+78.2626+41.4848+80.5397+39.2078C82.8167+36.9307+86.5085+36.9307+88.7855+39.2078C91.0626+41.4848+91.0626+45.1766+88.7855+47.4537C86.5085+49.7307+82.8167+49.7307+80.5397+47.4537ZM70.2323+57.761C67.9553+55.484+67.9553+51.7922+70.2323+49.5151C72.5094+47.2381+76.2012+47.2381+78.4782+49.5151C80.7552+51.7922+80.7552+55.484+78.4782+57.761C76.2012+60.038+72.5094+60.038+70.2323+57.761ZM49.5218+57.761C47.2448+55.484+47.2448+51.7922+49.5218+49.5151C51.7988+47.2381+55.4907+47.2381+57.7677+49.5151C60.0447+51.7922+60.0447+55.484+57.7677+57.761C55.4907+60.038+51.7988+60.038+49.5218+57.761ZM29.9378+77.345C28.2301+75.6372+28.2301+72.8683+29.9378+71.1606C31.6456+69.4528+34.4145+69.4528+36.1223+71.1606C37.83+72.8683+37.83+75.6372+36.1223+77.345C34.4145+79.0527+31.6456+79.0527+29.9378+77.345ZM60.8599+67.0376C59.1521+65.3298+59.1521+62.561+60.8599+60.8532C62.5677+59.1454+65.3365+59.1454+67.0443+60.8532C68.7521+62.561+68.7521+65.3298+67.0443+67.0376C65.3365+68.7454+62.5677+68.7454+60.8599+67.0376ZM50.5525+77.345C48.8448+75.6372+48.8448+72.8683+50.5525+71.1606C52.2603+69.4528+55.0292+69.4528+56.7369+71.1606C58.4447+72.8683+58.4447+75.6372+56.7369+77.345C55.0292+79.0527+52.2603+79.0527+50.5525+77.345ZM10.3539+76.3142C9.21537+75.1757+9.21537+73.3298+10.3539+72.1913C11.4924+71.0528+13.3383+71.0528+14.4768+72.1913C15.6153+73.3298+15.6153+75.1757+14.4768+76.3142C13.3383+77.4527+11.4924+77.4527+10.3539+76.3142ZM20.6612+86.6216C19.5227+85.4831+19.5227+83.6372+20.6612+82.4986C21.7998+81.3601+23.6457+81.3601+24.7842+82.4986C25.9227+83.6372+25.9227+85.4831+24.7842+86.6216C23.6457+87.7601+21.7998+87.7601+20.6612+86.6216ZM61.8906+86.6216C60.7521+85.4831+60.7521+83.6372+61.8906+82.4986C63.0291+81.3601+64.875+81.3601+66.0136+82.4986C67.1521+83.6372+67.1521+85.4831+66.0136+86.6216C64.875+87.7601+63.0291+87.7601+61.8906+86.6216ZM19.6305+67.0376C17.9227+65.3298+17.9227+62.561+19.6305+60.8532C21.3383+59.1454+24.1071+59.1454+25.8149+60.8532C27.5227+62.561+27.5227+65.3298+25.8149+67.0376C24.1071+68.7454+21.3383+68.7454+19.6305+67.0376ZM39.2145+68.0684C36.9374+65.7913+36.9374+62.0995+39.2145+59.8225C41.4915+57.5454+45.1833+57.5454+47.4603+59.8225C49.7374+62.0995+49.7374+65.7913+47.4603+68.0684C45.1833+70.3454+41.4915+70.3454+39.2145+68.0684ZM39.2145+47.4537C36.9374+45.1766+36.9374+41.4848+39.2145+39.2078C41.4915+36.9307+45.1833+36.9307+47.4603+39.2078C49.7374+41.4848+49.7374+45.1766+47.4603+47.4537C45.1833+49.7307+41.4915+49.7307+39.2145+47.4537ZM28.9071+57.761C26.6301+55.484+26.6301+51.7922+28.9071+49.5151C31.1842+47.2381+34.876+47.2381+37.153+49.5151C39.43+51.7922+39.43+55.484+37.153+57.761C34.876+60.038+31.1842+60.038+28.9071+57.761Z" opacity="1" fill="#000000"/>
</g>
</g>
</svg>
