<svg width="576" height="576" viewBox="0 0 576 576" fill="none" xmlns="http://www.w3.org/2000/svg">
<g clip-path="url(#clip0)">
<path fill-rule="evenodd" clip-rule="evenodd" d="M288 480C394.036 480 480 394.036 480 288C480 181.964 394.036 96 288 96C181.964 96 96 181.964 96 288C96 394.036 181.964 480 288 480ZM288.783 461.981C384.869 461.981 462.755 384.086 462.755 288.009C462.755 191.932 384.869 114.028 288.783 114.028C192.698 114.028 114.812 191.914 114.812 288C114.812 384.086 192.698 461.981 288.783 461.981ZM288 448.653C376.728 448.653 448.653 376.728 448.653 288C448.653 199.272 376.728 127.347 288 127.347C199.272 127.347 127.347 199.272 127.347 288C127.347 376.728 199.272 448.653 288 448.653ZM288.396 429.067C366.516 429.067 429.85 365.733 429.85 287.613C429.85 209.493 366.516 146.159 288.396 146.159C210.276 146.159 146.942 209.484 146.942 287.613C146.942 365.742 210.267 429.067 288.396 429.067ZM287.208 314.088C279.346 314.088 271.71 314.745 264.316 315.997L275.699 296.231C279.544 295.979 283.389 295.853 287.208 295.853C296.15 295.853 305.245 296.591 314.034 298.005L269.836 221.235L196.255 349.028L185.737 330.766L269.665 184.998L269.836 185.296L269.999 185.007L371.289 360.924H350.262L326.587 319.806C314.25 316.078 301.067 314.088 287.208 314.088ZM377.836 349.334L279.769 179.019H300.796L388.345 331.072L377.836 349.334ZM280.508 263.047L240.245 332.981C254.654 328.622 271.611 326.677 287.613 326.677C288.91 326.677 290.206 326.695 291.503 326.722C300.589 326.938 309.775 327.902 318.573 329.55L332.008 352.883C318.257 347.867 303.372 344.913 287.613 344.913C264.307 344.913 242.902 350.694 224.261 360.744L224.558 360.213L224.153 360.915H203.126L269.999 244.775L280.508 263.047Z" fill="url(#paint0_linear)"/>
</g>
<defs>
<linearGradient id="paint0_linear" x1="398.54" y1="457.378" x2="174.017" y2="113.345" gradientUnits="userSpaceOnUse">
<stop offset="0.0076157" stop-color="#645AFF"/>
<stop offset="0.5038" stop-color="#E40C5B"/>
<stop offset="1" stop-color="#FF4C3B"/>
</linearGradient>
<clipPath id="clip0">
<rect width="576" height="576" fill="white"/>
</clipPath>
</defs>
</svg>
