<?xml version="1.0" ?><!DOCTYPE svg  PUBLIC '-//W3C//DTD SVG 1.1//EN'  'http://www.w3.org/Graphics/SVG/1.1/DTD/svg11.dtd'><svg height="100%" style="fill-rule:evenodd;clip-rule:evenodd;stroke-linejoin:round;stroke-miterlimit:2;" version="1.1" viewBox="0 0 512 512" width="100%" xml:space="preserve" xmlns="http://www.w3.org/2000/svg" xmlns:serif="http://www.serif.com/" xmlns:xlink="http://www.w3.org/1999/xlink"><path d="M60.713,135.684c0.637,-6.285 -1.759,-12.499 -6.453,-16.728l-47.807,-57.59l0,-8.603l148.437,0l114.735,251.627l100.872,-251.627l141.503,0.001l0,8.602l-40.874,39.189c-3.525,2.685 -5.272,7.102 -4.541,11.472l0,287.947c-0.731,4.37 1.016,8.786 4.541,11.471l39.917,39.19l0,8.602l-200.782,0l0,-8.602l41.35,-40.147c4.065,-4.061 4.065,-5.257 4.065,-11.468l0,-232.749l-114.973,292.009l-15.536,0l-133.859,-292.009l0,195.709c-1.114,8.228 1.618,16.513 7.41,22.462l53.784,65.235l0,8.603l-152.502,0l0,-8.603l53.784,-65.235c5.749,-5.96 8.321,-14.301 6.929,-22.462l0,-226.296Z" id="Shape" style="fill-rule:nonzero;"/></svg>