<?xml version="1.0" ?><svg style="enable-background:new 0 0 512 512;" version="1.1" viewBox="0 0 512 512" xml:space="preserve" xmlns="http://www.w3.org/2000/svg" xmlns:xlink="http://www.w3.org/1999/xlink"><style type="text/css">
	.st0{display:none;fill:#FEFEFE;}
	.st1{fill:#0087CB;}
	.st2{fill:#FCFDFE;}
	.st3{fill:#CCD9E9;}
	.st4{fill:#B1C8DB;}
</style><g id="Layer_1"/><g id="Layer_2"><g><path class="st0" d="M0.4,512.4c0-170.7,0-341.3,0-512c170.7,0,341.3,0,512,0c0,170.7,0,341.3,0,512    C341.8,512.4,171.1,512.4,0.4,512.4z"/><path class="st1" d="M254.6,76.5c49,0.3,90.8,16.4,125.7,49.3c34.8,32.9,53.8,73.7,56.1,121.6c2.4,51.2-14,96-49.5,133.1    c-34.9,36.5-78,55.3-128.6,55.8c-47.1,0.5-88.4-15.3-123-47.2C94.5,351.4,74.9,304.2,77,248.7c1.7-46.5,19.6-86.5,52.5-119.3    C164.2,94.7,206.6,77.4,254.6,76.5z"/><path class="st2" d="M201.4,280.7c-9.8-3-19.7-6.1-29.5-9.1c-4.8-1.5-9.6-3-14.4-4.5c-1.8-0.6-3.5-1.2-5-2.3    c-2.8-2.1-3-4.7-0.6-7.3c1.6-1.8,3.6-3,5.8-3.9c5.8-2.3,11.6-4.6,17.4-6.9c40-15.4,80-30.9,120.1-46.3c12.7-4.9,25.3-9.8,38-14.7    c1.7-0.7,3.5-1.1,5.4-0.8c3.8,0.6,6.7,3.7,7.1,7.7c0.2,2.2,0.1,4.4-0.3,6.6c-4.9,23-9.8,46.1-14.7,69.1c-4,19-8.1,38-12.1,57.1    c-0.9,4.3-1.8,8.6-2.7,12.9c-0.4,2.1-1,4.1-2,6c-2,3.7-5.2,5.1-9.3,4.3c-2.5-0.5-4.7-1.6-6.7-3.1c-13.8-10.2-27.6-20.5-41.5-30.7    c-0.6-0.5-1.3-0.9-1.9-1.3c-2.4-0.7-4.1-2.5-6-3.9c-6.6-4.8-13.2-9.8-19.8-14.6c-0.5-0.4-1-0.8-1.4-1.3c-0.6-1,0-1.6,0.6-2.2    c9-8,17.9-16.2,26.9-24.2c6.5-5.9,13.1-11.8,19.6-17.7c6.5-5.9,13-11.7,19.5-17.5c5.1-4.6,10.2-9.1,15.2-13.7    c0.4-0.4,0.8-0.8,1.2-1.2c0.3-0.4,0.7-0.8,0.5-1.3c-0.2-0.6-0.8-0.6-1.3-0.6c-1.8-0.2-3.3,0.5-4.8,1.4    c-5.5,3.3-10.8,6.8-16.2,10.2c-16.4,10.3-32.9,20.7-49.3,31c-11.3,7.1-22.6,14.2-33.9,21.4C204,280,203.1,281.3,201.4,280.7z"/><path class="st3" d="M201.4,280.7c2.7-1.1,5-2.9,7.5-4.4c7.2-4.5,14.4-9,21.6-13.6c5.1-3.2,10.1-6.5,15.2-9.7    c8.4-5.3,16.9-10.6,25.4-15.9c5.9-3.7,11.8-7.5,17.8-11.3c5.2-3.3,10.4-6.6,15.6-9.9c1.7-1,3.4-1.6,5.5-1.4    c0.6,0.1,1.2,0.1,1.4,0.7c0.3,0.6,0.1,1.2-0.4,1.8c-1.2,1.2-2.3,2.5-3.7,3.6c-2.5,2-4.7,4.3-7.1,6.4c-3.9,3.3-7.5,6.9-11.4,10.2    c-1.6,1.4-3.1,2.9-4.7,4.3c-2.3,1.9-4.5,4.2-6.7,6.2c-3.4,3.1-6.9,6.1-10.3,9.1c-1.5,1.4-3.1,2.8-4.5,4.2    c-3.7,3.5-7.6,6.8-11.3,10.3c-4.5,4.1-9.1,8.1-13.5,12.3c-3.2,3-6.6,5.8-9.9,8.7c-0.5,0.4-0.5,0.8-0.2,1.3    c-0.7,11.3-1.5,22.6-2.2,33.9c-0.2,3-0.6,5.9-0.5,8.9c0,0.9,0,1.7-0.7,2.4c-0.6,0.2-1.3,0.2-1.9,0.2c-1.8-0.1-3.1-1-3.6-2.7    c-0.5-1.8-1.1-3.5-1.6-5.3c-4.9-16.1-9.8-32.3-14.7-48.4C202,281.9,201.7,281.3,201.4,280.7z"/><path class="st4" d="M224,338.7c-0.3-3.9,0.4-7.8,0.5-11.6c0.2-4.2,0.6-8.4,0.8-12.6c0.3-4.3,0.6-8.6,0.9-12.8    c0.1-2.2,0.3-4.4,0.3-6.5c0-0.7,0.2-1.2,0.9-1.6c8.1,6,16.2,11.9,24.2,17.9c0.9,0.7,1.9,1.2,2.6,2.1c-7.5,7.3-15.1,14.6-22.6,21.9    C229.6,337.5,227.2,339.1,224,338.7z"/></g></g></svg>